<svg width="122" height="32" viewBox="0 0 122 32" fill="none" xmlns="http://www.w3.org/2000/svg">
<rect width="121.739" height="31.8182" rx="2.7668" fill="#D2E3EE"/>
<path d="M64.2397 21.3063C63.8778 21.3063 63.5632 21.2388 63.2946 21.1052C63.0261 20.9716 62.8925 20.6585 62.8925 20.1658V9.68945H59.9883C59.9883 9.68945 61.347 10.2453 61.347 11.436L61.3714 14.2985C61.1301 13.8619 60.7854 13.5387 60.3847 13.2644C59.984 12.9901 59.4669 12.8536 58.8306 12.8536C57.7462 12.8536 56.9146 13.2285 56.3401 13.9768C55.7641 14.7266 55.4768 15.9115 55.4768 17.5317C55.4768 19.1418 55.7641 20.3181 56.3401 21.0621C56.916 21.8061 57.7462 22.1767 58.8306 22.1767C59.477 22.1767 59.9983 22.0259 60.3919 21.7242C60.7869 21.4226 61.1043 21.0147 61.3456 20.5005C61.3456 20.5005 61.4145 22.0101 62.8681 22.0101C63.7471 22.0101 64.5011 22.0101 64.5011 22.0101V21.3063H64.2397ZM60.8687 20.2247C60.5513 20.8122 59.9639 21.1052 59.1093 21.1052C58.3753 21.1052 57.8511 20.8093 57.5394 20.2161C57.2277 19.6244 57.0711 18.7353 57.0711 17.5503C57.0711 16.3769 57.2277 15.4792 57.5394 14.8587C57.8511 14.2382 58.3696 13.928 59.0935 13.928C59.9595 13.928 60.5513 14.2382 60.8687 14.8587C61.1862 15.4792 61.3456 16.3711 61.3456 17.5331C61.3456 18.7396 61.1876 19.6373 60.8687 20.2247ZM32.7588 16.5406C32.2877 16.0221 31.6787 15.6946 30.9333 15.5568V15.4878C31.5136 15.2925 31.999 14.9851 32.3883 14.5643C32.7775 14.1449 32.9714 13.5488 32.9714 12.7789C32.9714 11.7204 32.6238 10.9419 31.9272 10.4406C31.2306 9.94081 30.1706 9.68945 28.7458 9.68945H24.2114V10.4148H24.4254C24.7874 10.4148 25.1019 10.4837 25.3705 10.6216C25.6391 10.7595 25.7727 11.0812 25.7727 11.5882V20.0438C25.7727 20.5852 25.6405 20.9271 25.3777 21.0707C25.1148 21.2143 24.796 21.2862 24.424 21.2862H24.21V22.0115H29.2399C32.0565 22.0115 33.4655 20.9012 33.4655 18.6807C33.4669 17.7715 33.2314 17.0577 32.7588 16.5406ZM27.433 10.5527H28.6654C29.5961 10.5527 30.2539 10.7135 30.6389 11.0353C31.0223 11.357 31.2148 11.9387 31.2148 12.7775C31.2148 13.6063 31.0367 14.2038 30.6805 14.5729C30.3243 14.9406 29.6636 15.1244 28.6998 15.1244H27.4345V10.5527H27.433ZM31.1315 20.5781C30.748 20.9573 30.0902 21.1468 29.158 21.1468H27.433V15.9876H29.1911C30.1548 15.9876 30.8155 16.2031 31.1717 16.6354C31.5279 17.0663 31.706 17.7313 31.706 18.629C31.7075 19.5482 31.515 20.1989 31.1315 20.5781ZM54.9899 21.0966C54.7659 20.9573 54.6524 20.624 54.6524 20.0983V16.1413C54.6524 14.9894 54.4082 14.1535 53.9213 13.6335C53.433 13.1136 52.7565 12.8536 51.8904 12.8536C51.3647 12.8536 50.8764 12.924 50.4685 13.1466C49.5593 13.6422 49.2433 14.379 49.2433 14.379L49.0293 13.0202H46.3664V13.724H46.4482C46.8102 13.724 47.119 13.7915 47.3775 13.9251C47.6346 14.0587 47.7639 14.3718 47.7639 14.8645V20.0983C47.7639 20.9917 47.458 21.3048 46.8188 21.3063C46.4497 21.3063 46.3204 21.2215 46.1667 21.0549C46.013 20.8869 45.9369 20.568 45.9369 20.0983V15.755C45.9369 14.6935 45.687 13.9438 45.1886 13.5071C44.6902 13.0705 43.9361 12.8536 42.9279 12.8536C42.3792 12.8536 41.7716 12.9068 41.3278 13.0131C40.884 13.1193 40.5278 13.2931 40.2592 13.533C40.1328 13.6465 40.038 13.7743 39.9705 13.9179C39.7737 13.3262 39.0441 12.8536 38.1004 12.8536C37.6179 12.8536 37.2401 12.9369 36.9658 13.105C36.6914 13.273 36.2175 13.5747 35.8483 14.481L35.6745 13.0202H33.3793C33.3793 13.0202 34.3187 13.4598 34.3187 15.1316V20.0983C34.3187 20.624 34.1865 20.9573 33.9237 21.0966C33.6608 21.2359 33.342 21.3063 32.97 21.3063H32.9211V22.0101H37.6724V21.3063H37.2128C36.8509 21.3063 36.5363 21.2416 36.2677 21.1138C35.9991 20.986 35.8656 20.6757 35.8656 20.1831V17.5503C35.8656 15.3442 36.4961 14.5772 36.7044 14.3301C36.9126 14.0845 37.1697 13.961 37.4771 13.961C38.4753 13.961 38.6276 14.9334 38.4983 15.5208C38.9292 15.5208 39.6244 15.3169 39.9044 14.7668C40.1127 15.3988 40.9702 15.5208 41.3723 15.5208C41.0994 15.0885 40.9601 13.6924 42.8647 13.6924C43.3142 13.6924 43.6475 13.7815 43.8672 13.961C44.087 14.1406 44.2292 14.3833 44.2952 14.6907C44.3613 14.998 44.3943 15.3528 44.3943 15.755V16.7618C44.3943 16.7618 41.5002 16.3956 39.8987 17.5159C39.284 17.9468 38.9694 18.6003 38.9694 19.4951C38.9694 20.4115 39.2107 21.088 39.6933 21.5246C40.1759 21.9612 41.0449 22.1781 41.7788 22.1781C42.2284 22.1781 42.6521 22.1077 42.948 21.9684C43.2439 21.8291 43.5009 21.6395 43.7207 21.3982C43.9405 21.1583 44.1645 20.8811 44.3943 20.568C44.3943 20.568 44.4791 22.0101 45.8335 22.0101C46.4037 22.0101 50.7083 22.0101 50.7083 22.0101V21.3063H50.6264C50.2645 21.3063 49.9557 21.2416 49.6972 21.1138C49.4401 20.986 49.3108 20.6757 49.3108 20.1831V16.644C49.3108 16.1629 49.374 15.7162 49.5004 15.3025C49.6268 14.8889 49.835 14.5556 50.1252 14.3043C50.4153 14.0529 50.8074 13.9265 51.3001 13.9265C51.968 13.9265 52.4376 14.1276 52.7062 14.5298C52.9748 14.932 53.1098 15.4964 53.1098 16.2232V22.0086H55.9709V21.3048H55.8891C55.5142 21.3063 55.2154 21.2359 54.9899 21.0966ZM44.3929 18.8071C44.3929 19.5224 44.1961 20.0897 43.8011 20.5091C43.4062 20.9285 43.0083 21.1382 42.339 21.1382C41.4513 21.1382 40.5623 20.6183 40.5623 19.5784C40.5623 18.9191 40.7389 18.4164 41.0966 18.0775C42.0474 17.1769 44.3929 17.4484 44.3929 17.4484V18.8071Z" fill="#00253E"/>
<path d="M103.246 21.1209C102.879 21.1209 102.606 21.0519 102.426 20.9112C102.248 20.7719 102.158 20.4458 102.158 19.9331V16.0522C102.158 14.9261 101.919 14.106 101.444 13.5932C100.967 13.0805 100.312 12.8234 99.4789 12.8234C98.0943 12.8234 97.2986 13.4338 96.9941 14.1778L96.9783 9.68934H93.162C93.162 9.68934 94.5093 10.1648 94.5093 11.5968L94.5251 19.9661C94.5251 20.8523 93.7179 21.197 93.2295 21.197C93.0945 21.197 92.8676 21.197 92.7067 21.197C92.3275 21.197 92.0546 21.0792 91.8866 20.8451C91.7185 20.611 91.6352 20.2433 91.6352 19.7406L91.572 14.1764H93.5197V13.0388H91.572V10.9648C91.572 10.9648 90.0179 13.0388 87.1999 13.0388H83.5144V13.925H83.5632C83.8777 13.925 84.1506 13.9839 84.3833 14.1002C84.616 14.218 84.7323 14.5153 84.7323 14.995V18.2066C84.7323 18.988 84.616 19.607 84.3833 20.0638C84.1506 20.5219 83.7743 20.7503 83.2544 20.7503C82.7775 20.7503 82.4529 20.5363 82.2806 20.1068C82.1068 19.6774 82.0206 19.1057 82.0206 18.3919V13.0388H78.1598C77.8654 12.9052 77.4805 12.8377 77.0022 12.8377C76.3415 12.8377 75.7971 12.9914 75.3576 13.3778C74.8061 13.8604 74.6323 14.3444 74.6323 14.3444L74.3077 13.0388H71.0271C71.0271 13.0388 72.2451 13.7354 72.2451 15.1961V19.9144C72.2451 20.4386 72.1288 20.7704 71.8961 20.9097C71.6634 21.0491 71.5212 21.1194 71.1291 21.1194C70.7384 21.1194 70.2429 21.1324 69.9542 20.9356C69.7905 20.8236 69.7187 20.5119 69.7187 20.0322V10.7048H71.1751C72.2609 10.7048 72.2451 12.3235 72.2451 12.3235H73.3324V9.68359H63.5225V12.3235H64.6097C64.6097 12.3235 64.5882 10.7048 65.6798 10.7048H67.1362V20.0322C67.1362 20.5119 67.0572 20.8135 66.9006 20.9356C66.7441 21.0591 66.5459 21.1194 66.3075 21.1194H65.1469V22.0056H76.3673V21.1194H75.8474C75.5228 21.1194 75.2513 21.0548 75.0359 20.927C74.819 20.7991 74.7113 20.4889 74.7113 19.9991V17.105C74.7113 16.9154 74.7271 16.6698 74.7601 16.3682C74.7931 16.0665 74.852 15.7692 74.9382 15.4733C75.0244 15.1775 75.1551 14.929 75.3274 14.7293C75.4998 14.5282 75.7282 14.4277 76.0097 14.4277C76.9576 14.4277 77.1013 15.403 76.9433 15.9301C77.5925 15.9301 78.8679 15.6529 78.8679 14.1936C78.8679 14.1117 78.8607 14.0342 78.8507 13.9595C79.0388 13.9954 79.1868 14.0586 79.2931 14.1519C79.4654 14.3027 79.553 14.623 79.553 15.1143V18.8616C79.553 19.9876 79.78 20.8221 80.2353 21.3622C80.6906 21.9037 81.3398 22.1737 82.1829 22.1737C82.6914 22.1737 83.1754 22.1162 83.6034 21.931C84.3991 21.5877 84.7481 20.8178 84.7481 20.8178C84.7481 20.8178 85.1474 22.0056 86.2318 22.0056C87.3163 22.0056 88.4179 22.0056 88.4179 22.0056C88.4179 22.0056 87.1999 21.5374 87.1999 20.0652V14.1764H89.1045L89.1677 19.663C89.1677 20.644 89.3515 22.0071 91.5548 22.0071C92.1279 22.0071 98.1963 22.0056 98.1963 22.0056V21.1194H98.1474C97.7898 21.1194 97.5083 21.0548 97.3029 20.927C97.0975 20.7991 96.9941 20.5004 96.9941 20.0322L96.9783 16.8364C96.9783 16.3796 97.0214 15.9531 97.1075 15.5566C97.1937 15.1602 97.3402 14.8428 97.5456 14.6029C97.751 14.3631 98.0325 14.2439 98.3902 14.2439C98.867 14.2439 99.2017 14.4392 99.397 14.8299C99.5923 15.2205 99.6886 15.7778 99.6886 16.5032V22.0071H103.294V21.1209H103.246ZM102.13 11.9745H102.484C102.676 11.9745 102.846 12.0535 102.846 12.2732C102.846 12.3867 102.772 12.5002 102.669 12.5447L102.886 12.9124H102.675L102.484 12.5892H102.323V12.9124H102.132V11.9745H102.13ZM102.439 12.4399C102.564 12.4399 102.642 12.3882 102.642 12.2862C102.642 12.1943 102.59 12.1296 102.451 12.1296H102.32V12.4399H102.439ZM102.455 13.283C101.991 13.283 101.615 12.9052 101.615 12.4427C101.615 11.9802 101.991 11.6025 102.455 11.6025C102.919 11.6025 103.295 11.9802 103.295 12.4427C103.295 12.9052 102.919 13.283 102.455 13.283ZM102.455 11.7519C102.074 11.7519 101.764 12.0621 101.764 12.4427C101.764 12.8234 102.074 13.1336 102.455 13.1336C102.836 13.1336 103.146 12.8234 103.146 12.4427C103.146 12.0621 102.836 11.7519 102.455 11.7519Z" fill="#00B2E3"/>
</svg>
