<svg width="191" height="117" viewBox="0 0 191 117" fill="none" xmlns="http://www.w3.org/2000/svg">
<rect x="8" width="183" height="117" rx="4" fill="#96DAEA"/>
<path d="M29.1222 57L26.3331 46.8182H27.2777L29.5845 55.5732H29.6641L31.9709 46.8182H33.0447L35.3516 55.5732H35.4311L37.7379 46.8182H38.6875L35.8984 57H34.9041L32.5426 48.3643H32.478L30.1165 57H29.1222ZM42.5604 57.1591C41.8478 57.1591 41.2313 56.9934 40.7109 56.6619C40.1906 56.3272 39.7879 55.8648 39.5028 55.2749C39.2211 54.6816 39.0803 53.9988 39.0803 53.2266C39.0803 52.4543 39.2211 51.7699 39.5028 51.1733C39.7879 50.5767 40.1806 50.1094 40.6811 49.7713C41.1849 49.4299 41.7666 49.2592 42.4261 49.2592C42.9796 49.2592 43.5017 49.3951 43.9922 49.6669C44.486 49.9354 44.8871 50.3464 45.1953 50.8999C45.5036 51.4534 45.6577 52.156 45.6577 53.0078V53.4453H39.9702C39.9901 54.3269 40.232 55.0312 40.696 55.5582C41.16 56.0852 41.7815 56.3487 42.5604 56.3487C43.1039 56.3487 43.5481 56.2261 43.8928 55.9808C44.2375 55.7322 44.4827 55.4373 44.6286 55.0959L45.4688 55.3693C45.2964 55.8499 44.96 56.2692 44.4595 56.6271C43.959 56.9818 43.326 57.1591 42.5604 57.1591ZM39.9751 52.6648H44.7528C44.7528 52.1742 44.6534 51.7334 44.4545 51.3423C44.259 50.9479 43.9856 50.6364 43.6342 50.4077C43.2862 50.179 42.8835 50.0646 42.4261 50.0646C41.9621 50.0646 41.5511 50.1823 41.1932 50.4176C40.8385 50.6529 40.5552 50.9678 40.343 51.3622C40.1309 51.7566 40.0083 52.1908 39.9751 52.6648ZM54.5531 49.3636V50.1342H52.9373V55.0064C52.9373 55.487 53.0533 55.8151 53.2853 55.9908C53.5207 56.1631 53.7891 56.2493 54.0907 56.2493C54.2067 56.2493 54.3062 56.2427 54.389 56.2294C54.4719 56.2128 54.5448 56.1963 54.6078 56.1797L54.7967 56.9801C54.7138 57.0133 54.6078 57.0431 54.4785 57.0696C54.3526 57.0994 54.1968 57.1143 54.0112 57.1143C53.6864 57.1143 53.3732 57.0431 53.0716 56.9006C52.7699 56.758 52.523 56.5459 52.3308 56.2642C52.1419 55.9825 52.0474 55.6328 52.0474 55.2152V50.1342H50.9089V49.3636H52.0474V47.5341H52.9373V49.3636H54.5531ZM58.6957 57.174C58.235 57.174 57.814 57.0845 57.4329 56.9055C57.0517 56.7232 56.7485 56.4614 56.5231 56.12C56.2977 55.7753 56.185 55.3577 56.185 54.8672C56.185 54.3634 56.3093 53.964 56.5579 53.669C56.8065 53.3707 57.1512 53.1454 57.592 52.9929C58.0361 52.8404 58.5449 52.7294 59.1183 52.6598C59.7612 52.5803 60.2551 52.509 60.5998 52.446C60.9445 52.3797 61.1168 52.2024 61.1168 51.9141V51.7351C61.1168 51.2114 60.9611 50.8004 60.6495 50.5021C60.3413 50.2038 59.8971 50.0547 59.3171 50.0547C58.7669 50.0547 58.3178 50.1757 57.9698 50.4176C57.6251 50.6596 57.3832 50.9446 57.244 51.2727L56.4038 50.9695C56.5761 50.5518 56.8147 50.2187 57.1197 49.9702C57.4246 49.7183 57.766 49.5376 58.1438 49.4283C58.5217 49.3156 58.9045 49.2592 59.2923 49.2592C59.5839 49.2592 59.8872 49.2973 60.2021 49.3736C60.5169 49.4498 60.8103 49.5824 61.082 49.7713C61.3571 49.9569 61.5792 50.2154 61.7482 50.5469C61.9173 50.8783 62.0018 51.3009 62.0018 51.8146V57H61.1168V55.7919H61.0621C60.9031 56.13 60.628 56.4448 60.2369 56.7365C59.8458 57.0282 59.332 57.174 58.6957 57.174ZM58.815 56.3636C59.2856 56.3636 59.6933 56.2609 60.038 56.0554C60.3827 55.8466 60.6478 55.5682 60.8335 55.2202C61.0224 54.8722 61.1168 54.4893 61.1168 54.0717V52.968C61.0307 53.0509 60.8683 53.1238 60.6296 53.1868C60.391 53.2464 60.1308 53.2962 59.8491 53.3359C59.5707 53.3757 59.3271 53.4089 59.1183 53.4354C58.4719 53.5149 57.9682 53.6641 57.6069 53.8828C57.2489 54.1016 57.07 54.4429 57.07 54.907C57.07 55.3677 57.2357 55.7256 57.5671 55.9808C57.8986 56.236 58.3145 56.3636 58.815 56.3636ZM64.3658 57V49.3636H65.2557V57H64.3658ZM64.8182 48.0511C64.6359 48.0511 64.4801 47.9882 64.3509 47.8622C64.2216 47.7363 64.157 47.5871 64.157 47.4148C64.157 47.2391 64.2216 47.09 64.3509 46.9673C64.4801 46.8414 64.6359 46.7784 64.8182 46.7784C65.0005 46.7784 65.1563 46.8414 65.2855 46.9673C65.4181 47.09 65.4844 47.2391 65.4844 47.4148C65.4844 47.5871 65.4181 47.7363 65.2855 47.8622C65.1563 47.9882 65.0005 48.0511 64.8182 48.0511ZM68.481 46.8182V57H67.5961V46.8182H68.481ZM73.7907 57.1591C73.1311 57.1591 72.5478 56.9917 72.0407 56.657C71.5369 56.3222 71.1425 55.8598 70.8574 55.2699C70.5724 54.6766 70.4299 53.9922 70.4299 53.2166C70.4299 52.4344 70.5724 51.7467 70.8574 51.1534C71.1425 50.5601 71.5369 50.0961 72.0407 49.7614C72.5478 49.4266 73.1311 49.2592 73.7907 49.2592C74.4502 49.2592 75.0319 49.4266 75.5357 49.7614C76.0428 50.0961 76.4389 50.5601 76.7239 51.1534C77.0089 51.7467 77.1515 52.4344 77.1515 53.2166C77.1515 53.9922 77.0089 54.6766 76.7239 55.2699C76.4389 55.8598 76.0428 56.3222 75.5357 56.657C75.0319 56.9917 74.4502 57.1591 73.7907 57.1591ZM73.7907 56.3487C74.321 56.3487 74.7684 56.2062 75.133 55.9212C75.5009 55.6361 75.781 55.2566 75.9732 54.7827C76.1654 54.3087 76.2615 53.7867 76.2615 53.2166C76.2615 52.6465 76.1654 52.1229 75.9732 51.6456C75.781 51.1683 75.5009 50.7855 75.133 50.4972C74.7684 50.2088 74.321 50.0646 73.7907 50.0646C73.2637 50.0646 72.8162 50.2088 72.4483 50.4972C72.0804 50.7855 71.8004 51.1683 71.6081 51.6456C71.4159 52.1229 71.3198 52.6465 71.3198 53.2166C71.3198 53.7867 71.4159 54.3087 71.6081 54.7827C71.8004 55.2566 72.0804 55.6361 72.4483 55.9212C72.8162 56.2062 73.2637 56.3487 73.7907 56.3487ZM79.0941 57V49.3636H79.9542V50.5369H80.0188C80.1713 50.1525 80.4364 49.8426 80.8143 49.6072C81.1954 49.3686 81.6263 49.2493 82.1069 49.2493C82.3024 49.2493 82.4781 49.2708 82.6339 49.3139C82.7897 49.357 82.9289 49.4134 83.0515 49.483L82.7433 50.2436C82.5543 50.1574 82.3207 50.1143 82.0423 50.1143C81.6445 50.1143 81.2899 50.1989 80.9783 50.3679C80.6701 50.5369 80.4265 50.7689 80.2475 51.0639C80.0685 51.3556 79.979 51.6903 79.979 52.0682V57H79.0941ZM91.3826 57.1591C90.67 57.1591 90.0536 56.9934 89.5332 56.6619C89.0128 56.3272 88.6101 55.8648 88.3251 55.2749C88.0434 54.6816 87.9025 53.9988 87.9025 53.2266C87.9025 52.4543 88.0434 51.7699 88.3251 51.1733C88.6101 50.5767 89.0029 50.1094 89.5034 49.7713C90.0072 49.4299 90.5888 49.2592 91.2484 49.2592C91.8019 49.2592 92.3239 49.3951 92.8145 49.6669C93.3083 49.9354 93.7093 50.3464 94.0176 50.8999C94.3258 51.4534 94.4799 52.156 94.4799 53.0078V53.4453H88.7924C88.8123 54.3269 89.0543 55.0312 89.5183 55.5582C89.9823 56.0852 90.6038 56.3487 91.3826 56.3487C91.9262 56.3487 92.3703 56.2261 92.715 55.9808C93.0597 55.7322 93.305 55.4373 93.4508 55.0959L94.291 55.3693C94.1187 55.8499 93.7823 56.2692 93.2818 56.6271C92.7813 56.9818 92.1483 57.1591 91.3826 57.1591ZM88.7974 52.6648H93.5751C93.5751 52.1742 93.4757 51.7334 93.2768 51.3423C93.0813 50.9479 92.8078 50.6364 92.4565 50.4077C92.1085 50.179 91.7058 50.0646 91.2484 50.0646C90.7844 50.0646 90.3734 50.1823 90.0154 50.4176C89.6608 50.6529 89.3774 50.9678 89.1653 51.3622C88.9532 51.7566 88.8306 52.1908 88.7974 52.6648ZM98.5629 57.174C98.1022 57.174 97.6812 57.0845 97.3001 56.9055C96.9189 56.7232 96.6156 56.4614 96.3903 56.12C96.1649 55.7753 96.0522 55.3577 96.0522 54.8672C96.0522 54.3634 96.1765 53.964 96.4251 53.669C96.6737 53.3707 97.0183 53.1454 97.4592 52.9929C97.9033 52.8404 98.4121 52.7294 98.9854 52.6598C99.6284 52.5803 100.122 52.509 100.467 52.446C100.812 52.3797 100.984 52.2024 100.984 51.9141V51.7351C100.984 51.2114 100.828 50.8004 100.517 50.5021C100.208 50.2038 99.7643 50.0547 99.1843 50.0547C98.6341 50.0547 98.185 50.1757 97.837 50.4176C97.4923 50.6596 97.2504 50.9446 97.1112 51.2727L96.271 50.9695C96.4433 50.5518 96.6819 50.2187 96.9869 49.9702C97.2918 49.7183 97.6332 49.5376 98.011 49.4283C98.3888 49.3156 98.7717 49.2592 99.1594 49.2592C99.4511 49.2592 99.7544 49.2973 100.069 49.3736C100.384 49.4498 100.677 49.5824 100.949 49.7713C101.224 49.9569 101.446 50.2154 101.615 50.5469C101.784 50.8783 101.869 51.3009 101.869 51.8146V57H100.984V55.7919H100.929C100.77 56.13 100.495 56.4448 100.104 56.7365C99.7129 57.0282 99.1992 57.174 98.5629 57.174ZM98.6822 56.3636C99.1528 56.3636 99.5605 56.2609 99.9052 56.0554C100.25 55.8466 100.515 55.5682 100.701 55.2202C100.89 54.8722 100.984 54.4893 100.984 54.0717V52.968C100.898 53.0509 100.735 53.1238 100.497 53.1868C100.258 53.2464 99.998 53.2962 99.7163 53.3359C99.4379 53.3757 99.1942 53.4089 98.9854 53.4354C98.3391 53.5149 97.8353 53.6641 97.4741 53.8828C97.1161 54.1016 96.9371 54.4429 96.9371 54.907C96.9371 55.3677 97.1029 55.7256 97.4343 55.9808C97.7657 56.236 98.1817 56.3636 98.6822 56.3636ZM107.206 57.1591C106.523 57.1591 105.928 56.9884 105.421 56.647C104.914 56.3056 104.521 55.8383 104.243 55.245C103.968 54.6518 103.83 53.9756 103.83 53.2166C103.83 52.451 103.971 51.7699 104.253 51.1733C104.538 50.5767 104.932 50.1094 105.436 49.7713C105.94 49.4299 106.525 49.2592 107.191 49.2592C107.701 49.2592 108.164 49.3587 108.578 49.5575C108.996 49.7564 109.339 50.0331 109.607 50.3878C109.876 50.7424 110.045 51.1567 110.114 51.6307H109.219C109.127 51.1965 108.903 50.8269 108.548 50.522C108.197 50.2171 107.75 50.0646 107.206 50.0646C106.719 50.0646 106.288 50.1972 105.913 50.4624C105.539 50.7242 105.246 51.0904 105.033 51.5611C104.825 52.0284 104.72 52.5703 104.72 53.1868C104.72 53.8066 104.823 54.3551 105.028 54.8324C105.237 55.3063 105.527 55.6776 105.898 55.946C106.273 56.2145 106.709 56.3487 107.206 56.3487C107.713 56.3487 108.151 56.2079 108.518 55.9261C108.886 55.6444 109.122 55.2599 109.224 54.7727H110.119C110.053 55.2334 109.889 55.6444 109.627 56.0057C109.369 56.3636 109.032 56.6454 108.618 56.8509C108.207 57.0563 107.736 57.1591 107.206 57.1591ZM112.901 52.2273V57H112.016V46.8182H112.901V50.5618H112.98C113.159 50.1674 113.436 49.8525 113.811 49.6172C114.189 49.3819 114.666 49.2642 115.243 49.2642C116.018 49.2642 116.646 49.5012 117.127 49.9751C117.607 50.4491 117.848 51.1418 117.848 52.0533V57H116.958V52.108C116.958 51.4782 116.782 50.9827 116.431 50.6214C116.083 50.2569 115.612 50.0746 115.019 50.0746C114.409 50.0746 113.904 50.2668 113.502 50.6513C113.101 51.0357 112.901 51.5611 112.901 52.2273ZM127.084 57.1591C126.424 57.1591 125.841 56.9917 125.334 56.657C124.83 56.3222 124.435 55.8598 124.15 55.2699C123.865 54.6766 123.723 53.9922 123.723 53.2166C123.723 52.4344 123.865 51.7467 124.15 51.1534C124.435 50.5601 124.83 50.0961 125.334 49.7614C125.841 49.4266 126.424 49.2592 127.084 49.2592C127.743 49.2592 128.325 49.4266 128.829 49.7614C129.336 50.0961 129.732 50.5601 130.017 51.1534C130.302 51.7467 130.444 52.4344 130.444 53.2166C130.444 53.9922 130.302 54.6766 130.017 55.2699C129.732 55.8598 129.336 56.3222 128.829 56.657C128.325 56.9917 127.743 57.1591 127.084 57.1591ZM127.084 56.3487C127.614 56.3487 128.061 56.2062 128.426 55.9212C128.794 55.6361 129.074 55.2566 129.266 54.7827C129.458 54.3087 129.555 53.7867 129.555 53.2166C129.555 52.6465 129.458 52.1229 129.266 51.6456C129.074 51.1683 128.794 50.7855 128.426 50.4972C128.061 50.2088 127.614 50.0646 127.084 50.0646C126.557 50.0646 126.109 50.2088 125.741 50.4972C125.373 50.7855 125.093 51.1683 124.901 51.6456C124.709 52.1229 124.613 52.6465 124.613 53.2166C124.613 53.7867 124.709 54.3087 124.901 54.7827C125.093 55.2566 125.373 55.6361 125.741 55.9212C126.109 56.2062 126.557 56.3487 127.084 56.3487ZM135.529 49.3636V50.1342H133.839V57H132.949V50.1342H131.776V49.3636H132.949V48.2898C132.949 47.8788 133.043 47.5324 133.232 47.2507C133.424 46.969 133.675 46.7569 133.983 46.6143C134.291 46.4685 134.618 46.3956 134.962 46.3956C135.198 46.3956 135.392 46.4155 135.544 46.4553C135.696 46.4917 135.817 46.5282 135.907 46.5646L135.648 47.3402C135.582 47.317 135.501 47.2938 135.405 47.2706C135.309 47.2441 135.188 47.2308 135.042 47.2308C134.657 47.2308 134.361 47.3385 134.152 47.554C133.943 47.7661 133.839 48.0727 133.839 48.4737V49.3636H135.529ZM144.241 49.3636V50.1342H142.625V55.0064C142.625 55.487 142.741 55.8151 142.973 55.9908C143.208 56.1631 143.477 56.2493 143.778 56.2493C143.894 56.2493 143.994 56.2427 144.077 56.2294C144.159 56.2128 144.232 56.1963 144.295 56.1797L144.484 56.9801C144.401 57.0133 144.295 57.0431 144.166 57.0696C144.04 57.0994 143.884 57.1143 143.699 57.1143C143.374 57.1143 143.061 57.0431 142.759 56.9006C142.457 56.758 142.211 56.5459 142.018 56.2642C141.829 55.9825 141.735 55.6328 141.735 55.2152V50.1342H140.596V49.3636H141.735V47.5341H142.625V49.3636H144.241ZM147.299 52.2273V57H146.414V46.8182H147.299V50.5618H147.379C147.558 50.1674 147.835 49.8525 148.209 49.6172C148.587 49.3819 149.064 49.2642 149.641 49.2642C150.417 49.2642 151.045 49.5012 151.525 49.9751C152.006 50.4491 152.246 51.1418 152.246 52.0533V57H151.356V52.108C151.356 51.4782 151.181 50.9827 150.829 50.6214C150.481 50.2569 150.011 50.0746 149.417 50.0746C148.807 50.0746 148.302 50.2668 147.901 50.6513C147.5 51.0357 147.299 51.5611 147.299 52.2273ZM157.664 57.1591C156.951 57.1591 156.335 56.9934 155.814 56.6619C155.294 56.3272 154.891 55.8648 154.606 55.2749C154.325 54.6816 154.184 53.9988 154.184 53.2266C154.184 52.4543 154.325 51.7699 154.606 51.1733C154.891 50.5767 155.284 50.1094 155.785 49.7713C156.288 49.4299 156.87 49.2592 157.53 49.2592C158.083 49.2592 158.605 49.3951 159.096 49.6669C159.59 49.9354 159.991 50.3464 160.299 50.8999C160.607 51.4534 160.761 52.156 160.761 53.0078V53.4453H155.074C155.094 54.3269 155.336 55.0312 155.8 55.5582C156.264 56.0852 156.885 56.3487 157.664 56.3487C158.207 56.3487 158.652 56.2261 158.996 55.9808C159.341 55.7322 159.586 55.4373 159.732 55.0959L160.572 55.3693C160.4 55.8499 160.064 56.2692 159.563 56.6271C159.063 56.9818 158.43 57.1591 157.664 57.1591ZM155.079 52.6648H159.856C159.856 52.1742 159.757 51.7334 159.558 51.3423C159.363 50.9479 159.089 50.6364 158.738 50.4077C158.39 50.179 157.987 50.0646 157.53 50.0646C157.066 50.0646 156.655 50.1823 156.297 50.4176C155.942 50.6529 155.659 50.9678 155.447 51.3622C155.234 51.7566 155.112 52.1908 155.079 52.6648ZM167.842 51.0391L167.032 51.2678C166.912 50.9231 166.715 50.633 166.44 50.3977C166.165 50.1591 165.77 50.0398 165.257 50.0398C164.743 50.0398 164.319 50.1624 163.984 50.4077C163.653 50.6529 163.487 50.9695 163.487 51.3572C163.487 51.6887 163.6 51.9555 163.825 52.1577C164.054 52.3598 164.405 52.5206 164.879 52.6399L166.032 52.9233C167.312 53.2382 167.951 53.9093 167.951 54.9368C167.951 55.3677 167.832 55.7505 167.593 56.0852C167.355 56.42 167.022 56.6835 166.594 56.8757C166.17 57.0646 165.678 57.1591 165.118 57.1591C164.368 57.1591 163.752 56.9917 163.268 56.657C162.788 56.3189 162.479 55.8317 162.343 55.1953L163.194 54.9865C163.409 55.9046 164.045 56.3636 165.103 56.3636C165.689 56.3636 166.158 56.2327 166.51 55.9709C166.861 55.7057 167.037 55.3743 167.037 54.9766C167.037 54.3435 166.622 53.9292 165.794 53.7337L164.546 53.4354C163.883 53.2763 163.392 53.0244 163.074 52.6797C162.756 52.335 162.597 51.9074 162.597 51.397C162.597 50.9761 162.711 50.6065 162.94 50.2884C163.169 49.9669 163.484 49.715 163.885 49.5327C164.286 49.3504 164.743 49.2592 165.257 49.2592C165.956 49.2592 166.515 49.4183 166.932 49.7365C167.353 50.0514 167.656 50.4856 167.842 51.0391ZM172.976 57.1591C172.264 57.1591 171.647 56.9934 171.127 56.6619C170.607 56.3272 170.204 55.8648 169.919 55.2749C169.637 54.6816 169.496 53.9988 169.496 53.2266C169.496 52.4543 169.637 51.7699 169.919 51.1733C170.204 50.5767 170.597 50.1094 171.097 49.7713C171.601 49.4299 172.183 49.2592 172.842 49.2592C173.396 49.2592 173.918 49.3951 174.408 49.6669C174.902 49.9354 175.303 50.3464 175.611 50.8999C175.92 51.4534 176.074 52.156 176.074 53.0078V53.4453H170.386C170.406 54.3269 170.648 55.0312 171.112 55.5582C171.576 56.0852 172.198 56.3487 172.976 56.3487C173.52 56.3487 173.964 56.2261 174.309 55.9808C174.653 55.7322 174.899 55.4373 175.045 55.0959L175.885 55.3693C175.712 55.8499 175.376 56.2692 174.876 56.6271C174.375 56.9818 173.742 57.1591 172.976 57.1591ZM170.391 52.6648H175.169C175.169 52.1742 175.069 51.7334 174.871 51.3423C174.675 50.9479 174.402 50.6364 174.05 50.4077C173.702 50.179 173.3 50.0646 172.842 50.0646C172.378 50.0646 171.967 50.1823 171.609 50.4176C171.255 50.6529 170.971 50.9678 170.759 51.3622C170.547 51.7566 170.424 52.1908 170.391 52.6648ZM29.3011 77.174C28.8404 77.174 28.4195 77.0845 28.0384 76.9055C27.6572 76.7232 27.3539 76.4614 27.1286 76.12C26.9032 75.7753 26.7905 75.3577 26.7905 74.8672C26.7905 74.3634 26.9148 73.964 27.1634 73.669C27.4119 73.3707 27.7566 73.1454 28.1974 72.9929C28.6416 72.8404 29.1503 72.7294 29.7237 72.6598C30.3667 72.5803 30.8606 72.509 31.2053 72.446C31.55 72.3797 31.7223 72.2024 31.7223 71.9141V71.7351C31.7223 71.2114 31.5665 70.8004 31.255 70.5021C30.9467 70.2038 30.5026 70.0547 29.9226 70.0547C29.3724 70.0547 28.9233 70.1757 28.5753 70.4176C28.2306 70.6596 27.9886 70.9446 27.8494 71.2727L27.0092 70.9695C27.1816 70.5518 27.4202 70.2187 27.7251 69.9702C28.0301 69.7183 28.3714 69.5376 28.7493 69.4283C29.1271 69.3156 29.5099 69.2592 29.8977 69.2592C30.1894 69.2592 30.4927 69.2973 30.8075 69.3736C31.1224 69.4498 31.4157 69.5824 31.6875 69.7713C31.9626 69.9569 32.1847 70.2154 32.3537 70.5469C32.5227 70.8783 32.6072 71.3009 32.6072 71.8146V77H31.7223V75.7919H31.6676C31.5085 76.13 31.2334 76.4448 30.8423 76.7365C30.4512 77.0282 29.9375 77.174 29.3011 77.174ZM29.4205 76.3636C29.8911 76.3636 30.2988 76.2609 30.6435 76.0554C30.9882 75.8466 31.2533 75.5682 31.4389 75.2202C31.6278 74.8722 31.7223 74.4893 31.7223 74.0717V72.968C31.6361 73.0509 31.4737 73.1238 31.2351 73.1868C30.9964 73.2464 30.7363 73.2962 30.4545 73.3359C30.1761 73.3757 29.9325 73.4089 29.7237 73.4354C29.0774 73.5149 28.5736 73.6641 28.2124 73.8828C27.8544 74.1016 27.6754 74.4429 27.6754 74.907C27.6754 75.3677 27.8411 75.7256 28.1726 75.9808C28.504 76.236 28.92 76.3636 29.4205 76.3636ZM34.9613 77V69.3636H35.8214V70.5369H35.886C36.0418 70.1525 36.3086 69.8426 36.6864 69.6072C37.0643 69.3686 37.4935 69.2493 37.9741 69.2493C38.047 69.2493 38.1282 69.2509 38.2177 69.2543C38.3072 69.2576 38.3817 69.2609 38.4414 69.2642V70.1641C38.4016 70.1574 38.332 70.1475 38.2326 70.1342C38.1332 70.121 38.0254 70.1143 37.9094 70.1143C37.3129 70.1143 36.819 70.2983 36.4279 70.6662C36.0401 71.0341 35.8462 71.5014 35.8462 72.0682V77H34.9613ZM43.4379 69.3636V70.1342H41.8221V75.0064C41.8221 75.487 41.9381 75.8151 42.1701 75.9908C42.4054 76.1631 42.6739 76.2493 42.9755 76.2493C43.0915 76.2493 43.1909 76.2427 43.2738 76.2294C43.3567 76.2128 43.4296 76.1963 43.4925 76.1797L43.6815 76.9801C43.5986 77.0133 43.4925 77.0431 43.3633 77.0696C43.2373 77.0994 43.0816 77.1143 42.896 77.1143C42.5711 77.1143 42.2579 77.0431 41.9563 76.9006C41.6547 76.758 41.4078 76.5459 41.2156 76.2642C41.0266 75.9825 40.9322 75.6328 40.9322 75.2152V70.1342H39.7937V69.3636H40.9322V67.5341H41.8221V69.3636H43.4379ZM45.4576 77V69.3636H46.3475V77H45.4576ZM45.91 68.0511C45.7277 68.0511 45.5719 67.9882 45.4426 67.8622C45.3134 67.7363 45.2488 67.5871 45.2488 67.4148C45.2488 67.2391 45.3134 67.09 45.4426 66.9673C45.5719 66.8414 45.7277 66.7784 45.91 66.7784C46.0923 66.7784 46.248 66.8414 46.3773 66.9673C46.5099 67.09 46.5762 67.2391 46.5762 67.4148C46.5762 67.5871 46.5099 67.7363 46.3773 67.8622C46.248 67.9882 46.0923 68.0511 45.91 68.0511ZM51.6708 77.1591C50.988 77.1591 50.3931 76.9884 49.886 76.647C49.3789 76.3056 48.9862 75.8383 48.7077 75.245C48.4326 74.6518 48.2951 73.9756 48.2951 73.2166C48.2951 72.451 48.436 71.7699 48.7177 71.1733C49.0027 70.5767 49.3971 70.1094 49.9009 69.7713C50.4047 69.4299 50.9897 69.2592 51.6559 69.2592C52.1663 69.2592 52.6287 69.3587 53.043 69.5575C53.4606 69.7564 53.8036 70.0331 54.0721 70.3878C54.3406 70.7424 54.5096 71.1567 54.5792 71.6307H53.6843C53.5915 71.1965 53.3678 70.8269 53.0131 70.522C52.6618 70.2171 52.2144 70.0646 51.6708 70.0646C51.1836 70.0646 50.7527 70.1972 50.3782 70.4624C50.0037 70.7242 49.7103 71.0904 49.4982 71.5611C49.2894 72.0284 49.185 72.5703 49.185 73.1868C49.185 73.8066 49.2878 74.3551 49.4933 74.8324C49.7021 75.3063 49.9921 75.6776 50.3633 75.946C50.7378 76.2145 51.1737 76.3487 51.6708 76.3487C52.1779 76.3487 52.6154 76.2079 52.9833 75.9261C53.3512 75.6444 53.5865 75.2599 53.6893 74.7727H54.5842C54.5179 75.2334 54.3538 75.6444 54.092 76.0057C53.8335 76.3636 53.497 76.6454 53.0827 76.8509C52.6718 77.0563 52.2011 77.1591 51.6708 77.1591ZM57.3658 66.8182V77H56.4808V66.8182H57.3658ZM62.7947 77.1591C62.0821 77.1591 61.4657 76.9934 60.9453 76.6619C60.425 76.3272 60.0223 75.8648 59.7372 75.2749C59.4555 74.6816 59.3146 73.9988 59.3146 73.2266C59.3146 72.4543 59.4555 71.7699 59.7372 71.1733C60.0223 70.5767 60.415 70.1094 60.9155 69.7713C61.4193 69.4299 62.0009 69.2592 62.6605 69.2592C63.214 69.2592 63.736 69.3951 64.2266 69.6669C64.7204 69.9354 65.1214 70.3464 65.4297 70.8999C65.7379 71.4534 65.892 72.156 65.892 73.0078V73.4453H60.2045C60.2244 74.3269 60.4664 75.0312 60.9304 75.5582C61.3944 76.0852 62.0159 76.3487 62.7947 76.3487C63.3383 76.3487 63.7824 76.2261 64.1271 75.9808C64.4718 75.7322 64.7171 75.4373 64.8629 75.0959L65.7031 75.3693C65.5308 75.8499 65.1944 76.2692 64.6939 76.6271C64.1934 76.9818 63.5604 77.1591 62.7947 77.1591ZM60.2095 72.6648H64.9872C64.9872 72.1742 64.8878 71.7334 64.6889 71.3423C64.4934 70.9479 64.2199 70.6364 63.8686 70.4077C63.5206 70.179 63.1179 70.0646 62.6605 70.0646C62.1965 70.0646 61.7855 70.1823 61.4276 70.4176C61.0729 70.6529 60.7895 70.9678 60.5774 71.3622C60.3653 71.7566 60.2427 72.1908 60.2095 72.6648ZM72.9728 71.0391L72.1625 71.2678C72.0431 70.9231 71.8459 70.633 71.5708 70.3977C71.2958 70.1591 70.9013 70.0398 70.3876 70.0398C69.8739 70.0398 69.4496 70.1624 69.1149 70.4077C68.7834 70.6529 68.6177 70.9695 68.6177 71.3572C68.6177 71.6887 68.7304 71.9555 68.9558 72.1577C69.1845 72.3598 69.5358 72.5206 70.0098 72.6399L71.1632 72.9233C72.4425 73.2382 73.0822 73.9093 73.0822 74.9368C73.0822 75.3677 72.9629 75.7505 72.7243 76.0852C72.4856 76.42 72.1525 76.6835 71.725 76.8757C71.3007 77.0646 70.8085 77.1591 70.2484 77.1591C69.4993 77.1591 68.8829 76.9917 68.399 76.657C67.9184 76.3189 67.6101 75.8317 67.4743 75.1953L68.3244 74.9865C68.5398 75.9046 69.1762 76.3636 70.2335 76.3636C70.8201 76.3636 71.2891 76.2327 71.6404 75.9709C71.9918 75.7057 72.1674 75.3743 72.1674 74.9766C72.1674 74.3435 71.7531 73.9292 70.9245 73.7337L69.6767 73.4354C69.0138 73.2763 68.5233 73.0244 68.2051 72.6797C67.8869 72.335 67.7278 71.9074 67.7278 71.397C67.7278 70.9761 67.8422 70.6065 68.0708 70.2884C68.2995 69.9669 68.6144 69.715 69.0154 69.5327C69.4165 69.3504 69.8739 69.2592 70.3876 69.2592C71.0869 69.2592 71.6454 69.4183 72.063 69.7365C72.484 70.0514 72.7872 70.4856 72.9728 71.0391ZM83.8097 74.0817V69.3636H84.6946V77H83.8097V75.7322H83.7401C83.5611 76.1233 83.2777 76.4498 82.8899 76.7116C82.5021 76.9702 82.0282 77.0994 81.468 77.0994C80.7356 77.0994 80.134 76.8608 79.6634 76.3835C79.1927 75.9062 78.9574 75.2152 78.9574 74.3104V69.3636H79.8423V74.2557C79.8423 74.8523 80.018 75.3329 80.3693 75.6974C80.7206 76.0587 81.1714 76.2393 81.7216 76.2393C82.0663 76.2393 82.3977 76.1565 82.7159 75.9908C83.0374 75.825 83.2992 75.5831 83.5014 75.2649C83.7069 74.9434 83.8097 74.549 83.8097 74.0817ZM87.9224 72.2273V77H87.0375V69.3636H87.8975V70.5618H87.9771C88.1561 70.1707 88.4345 69.8575 88.8123 69.6222C89.1935 69.3835 89.6641 69.2642 90.2243 69.2642C90.9965 69.2642 91.6213 69.5028 92.0985 69.9801C92.5758 70.4574 92.8145 71.1484 92.8145 72.0533V77H91.9295V72.108C91.9295 71.4848 91.7538 70.991 91.4025 70.6264C91.0545 70.2585 90.5872 70.0746 90.0005 70.0746C89.4006 70.0746 88.9035 70.2668 88.5091 70.6513C88.118 71.0357 87.9224 71.5611 87.9224 72.2273ZM95.1548 77V69.3636H96.0447V77H95.1548ZM95.6072 68.0511C95.425 68.0511 95.2692 67.9882 95.1399 67.8622C95.0107 67.7363 94.946 67.5871 94.946 67.4148C94.946 67.2391 95.0107 67.09 95.1399 66.9673C95.2692 66.8414 95.425 66.7784 95.6072 66.7784C95.7895 66.7784 95.9453 66.8414 96.0746 66.9673C96.2071 67.09 96.2734 67.2391 96.2734 67.4148C96.2734 67.5871 96.2071 67.7363 96.0746 67.8622C95.9453 67.9882 95.7895 68.0511 95.6072 68.0511ZM104.45 79.8636V69.3636H103.59V70.8203H103.481C103.378 70.5916 103.234 70.358 103.048 70.1193C102.863 69.8774 102.616 69.6735 102.308 69.5078C102.003 69.3421 101.617 69.2592 101.149 69.2592C100.52 69.2592 99.9677 69.425 99.4938 69.7564C99.0198 70.0845 98.6503 70.5452 98.3851 71.1385C98.1233 71.7285 97.9924 72.4162 97.9924 73.2017C97.9924 73.9905 98.1233 74.6816 98.3851 75.2749C98.6503 75.8681 99.0182 76.3305 99.4888 76.6619C99.9628 76.9934 100.511 77.1591 101.134 77.1591C101.595 77.1591 101.981 77.0762 102.293 76.9105C102.604 76.7448 102.855 76.541 103.044 76.299C103.232 76.0537 103.378 75.8151 103.481 75.5831H103.561V79.8636H104.45ZM103.575 73.1868C103.575 73.8 103.483 74.3452 103.297 74.8224C103.115 75.2997 102.85 75.6742 102.502 75.946C102.154 76.2145 101.734 76.3487 101.244 76.3487C100.737 76.3487 100.307 76.2095 99.9561 75.9311C99.6048 75.6494 99.338 75.2699 99.1557 74.7926C98.9734 74.3153 98.8823 73.7801 98.8823 73.1868C98.8823 72.6001 98.9718 72.0715 99.1507 71.6009C99.333 71.1302 99.5982 70.7573 99.9462 70.4822C100.298 70.2038 100.73 70.0646 101.244 70.0646C101.741 70.0646 102.162 70.1989 102.507 70.4673C102.855 70.7325 103.12 71.1004 103.302 71.571C103.484 72.0384 103.575 72.5769 103.575 73.1868ZM111.618 74.0817V69.3636H112.503V77H111.618V75.7322H111.549C111.37 76.1233 111.086 76.4498 110.699 76.7116C110.311 76.9702 109.837 77.0994 109.277 77.0994C108.544 77.0994 107.943 76.8608 107.472 76.3835C107.001 75.9062 106.766 75.2152 106.766 74.3104V69.3636H107.651V74.2557C107.651 74.8523 107.827 75.3329 108.178 75.6974C108.529 76.0587 108.98 76.2393 109.53 76.2393C109.875 76.2393 110.206 76.1565 110.525 75.9908C110.846 75.825 111.108 75.5831 111.31 75.2649C111.516 74.9434 111.618 74.549 111.618 74.0817ZM117.933 77.1591C117.221 77.1591 116.604 76.9934 116.084 76.6619C115.564 76.3272 115.161 75.8648 114.876 75.2749C114.594 74.6816 114.453 73.9988 114.453 73.2266C114.453 72.4543 114.594 71.7699 114.876 71.1733C115.161 70.5767 115.554 70.1094 116.054 69.7713C116.558 69.4299 117.14 69.2592 117.799 69.2592C118.353 69.2592 118.875 69.3951 119.365 69.6669C119.859 69.9354 120.26 70.3464 120.568 70.8999C120.877 71.4534 121.031 72.156 121.031 73.0078V73.4453H115.343C115.363 74.3269 115.605 75.0312 116.069 75.5582C116.533 76.0852 117.155 76.3487 117.933 76.3487C118.477 76.3487 118.921 76.2261 119.266 75.9808C119.61 75.7322 119.856 75.4373 120.002 75.0959L120.842 75.3693C120.669 75.8499 120.333 76.2692 119.833 76.6271C119.332 76.9818 118.699 77.1591 117.933 77.1591ZM115.348 72.6648H120.126C120.126 72.1742 120.026 71.7334 119.828 71.3423C119.632 70.9479 119.359 70.6364 119.007 70.4077C118.659 70.179 118.257 70.0646 117.799 70.0646C117.335 70.0646 116.924 70.1823 116.566 70.4176C116.212 70.6529 115.928 70.9678 115.716 71.3622C115.504 71.7566 115.381 72.1908 115.348 72.6648ZM130.06 69.3636V70.1342H128.37V77H127.48V70.1342H126.307V69.3636H127.48V68.2898C127.48 67.8788 127.575 67.5324 127.763 67.2507C127.956 66.969 128.206 66.7569 128.514 66.6143C128.822 66.4685 129.149 66.3956 129.494 66.3956C129.729 66.3956 129.923 66.4155 130.075 66.4553C130.228 66.4917 130.349 66.5282 130.438 66.5646L130.18 67.3402C130.113 67.317 130.032 67.2938 129.936 67.2706C129.84 67.2441 129.719 67.2308 129.573 67.2308C129.189 67.2308 128.892 67.3385 128.683 67.554C128.474 67.7661 128.37 68.0727 128.37 68.4737V69.3636H130.06ZM134.48 77.1591C133.821 77.1591 133.237 76.9917 132.73 76.657C132.226 76.3222 131.832 75.8598 131.547 75.2699C131.262 74.6766 131.119 73.9922 131.119 73.2166C131.119 72.4344 131.262 71.7467 131.547 71.1534C131.832 70.5601 132.226 70.0961 132.73 69.7614C133.237 69.4266 133.821 69.2592 134.48 69.2592C135.14 69.2592 135.721 69.4266 136.225 69.7614C136.732 70.0961 137.128 70.5601 137.413 71.1534C137.698 71.7467 137.841 72.4344 137.841 73.2166C137.841 73.9922 137.698 74.6766 137.413 75.2699C137.128 75.8598 136.732 76.3222 136.225 76.657C135.721 76.9917 135.14 77.1591 134.48 77.1591ZM134.48 76.3487C135.01 76.3487 135.458 76.2062 135.822 75.9212C136.19 75.6361 136.47 75.2566 136.663 74.7827C136.855 74.3087 136.951 73.7867 136.951 73.2166C136.951 72.6465 136.855 72.1229 136.663 71.6456C136.47 71.1683 136.19 70.7855 135.822 70.4972C135.458 70.2088 135.01 70.0646 134.48 70.0646C133.953 70.0646 133.506 70.2088 133.138 70.4972C132.77 70.7855 132.49 71.1683 132.298 71.6456C132.105 72.1229 132.009 72.6465 132.009 73.2166C132.009 73.7867 132.105 74.3087 132.298 74.7827C132.49 75.2566 132.77 75.6361 133.138 75.9212C133.506 76.2062 133.953 76.3487 134.48 76.3487ZM139.784 77V69.3636H140.644V70.5369H140.708C140.861 70.1525 141.126 69.8426 141.504 69.6072C141.885 69.3686 142.316 69.2493 142.796 69.2493C142.992 69.2493 143.168 69.2708 143.323 69.3139C143.479 69.357 143.618 69.4134 143.741 69.483L143.433 70.2436C143.244 70.1574 143.01 70.1143 142.732 70.1143C142.334 70.1143 141.979 70.1989 141.668 70.3679C141.36 70.5369 141.116 70.7689 140.937 71.0639C140.758 71.3556 140.669 71.6903 140.669 72.0682V77H139.784ZM149.561 79.983C149.386 79.983 149.222 79.9664 149.069 79.9332C148.917 79.9034 148.796 79.867 148.706 79.8239L148.945 79.0433C149.392 79.1858 149.77 79.1858 150.078 79.0433C150.39 78.9041 150.65 78.5478 150.859 77.9744L151.182 77.0746L148.373 69.3636H149.333L151.6 75.8317H151.669L153.936 69.3636H154.896L151.62 78.3324C151.215 79.4328 150.529 79.983 149.561 79.983ZM159.322 77.1591C158.662 77.1591 158.079 76.9917 157.572 76.657C157.068 76.3222 156.674 75.8598 156.389 75.2699C156.104 74.6766 155.961 73.9922 155.961 73.2166C155.961 72.4344 156.104 71.7467 156.389 71.1534C156.674 70.5601 157.068 70.0961 157.572 69.7614C158.079 69.4266 158.662 69.2592 159.322 69.2592C159.981 69.2592 160.563 69.4266 161.067 69.7614C161.574 70.0961 161.97 70.5601 162.255 71.1534C162.54 71.7467 162.683 72.4344 162.683 73.2166C162.683 73.9922 162.54 74.6766 162.255 75.2699C161.97 75.8598 161.574 76.3222 161.067 76.657C160.563 76.9917 159.981 77.1591 159.322 77.1591ZM159.322 76.3487C159.852 76.3487 160.3 76.2062 160.664 75.9212C161.032 75.6361 161.312 75.2566 161.504 74.7827C161.697 74.3087 161.793 73.7867 161.793 73.2166C161.793 72.6465 161.697 72.1229 161.504 71.6456C161.312 71.1683 161.032 70.7855 160.664 70.4972C160.3 70.2088 159.852 70.0646 159.322 70.0646C158.795 70.0646 158.347 70.2088 157.98 70.4972C157.612 70.7855 157.332 71.1683 157.139 71.6456C156.947 72.1229 156.851 72.6465 156.851 73.2166C156.851 73.7867 156.947 74.3087 157.139 74.7827C157.332 75.2566 157.612 75.6361 157.98 75.9212C158.347 76.2062 158.795 76.3487 159.322 76.3487ZM169.478 74.0817V69.3636H170.363V77H169.478V75.7322H169.408C169.229 76.1233 168.946 76.4498 168.558 76.7116C168.17 76.9702 167.696 77.0994 167.136 77.0994C166.404 77.0994 165.802 76.8608 165.331 76.3835C164.861 75.9062 164.625 75.2152 164.625 74.3104V69.3636H165.51V74.2557C165.51 74.8523 165.686 75.3329 166.037 75.6974C166.389 76.0587 166.839 76.2393 167.39 76.2393C167.734 76.2393 168.066 76.1565 168.384 75.9908C168.705 75.825 168.967 75.5831 169.169 75.2649C169.375 74.9434 169.478 74.549 169.478 74.0817ZM30.1761 89.3636V90.1342H28.5604V95.0064C28.5604 95.487 28.6764 95.8151 28.9084 95.9908C29.1437 96.1631 29.4122 96.2493 29.7138 96.2493C29.8298 96.2493 29.9292 96.2427 30.0121 96.2294C30.0949 96.2128 30.1679 96.1963 30.2308 96.1797L30.4197 96.9801C30.3369 97.0133 30.2308 97.0431 30.1016 97.0696C29.9756 97.0994 29.8198 97.1143 29.6342 97.1143C29.3094 97.1143 28.9962 97.0431 28.6946 96.9006C28.393 96.758 28.1461 96.5459 27.9538 96.2642C27.7649 95.9825 27.6705 95.6328 27.6705 95.2152V90.1342H26.532V89.3636H27.6705V87.5341H28.5604V89.3636H30.1761ZM35.0719 97.1591C34.4123 97.1591 33.829 96.9917 33.3219 96.657C32.8181 96.3222 32.4237 95.8598 32.1387 95.2699C31.8536 94.6766 31.7111 93.9922 31.7111 93.2166C31.7111 92.4344 31.8536 91.7467 32.1387 91.1534C32.4237 90.5601 32.8181 90.0961 33.3219 89.7614C33.829 89.4266 34.4123 89.2592 35.0719 89.2592C35.7315 89.2592 36.3132 89.4266 36.8169 89.7614C37.324 90.0961 37.7201 90.5601 38.0051 91.1534C38.2902 91.7467 38.4327 92.4344 38.4327 93.2166C38.4327 93.9922 38.2902 94.6766 38.0051 95.2699C37.7201 95.8598 37.324 96.3222 36.8169 96.657C36.3132 96.9917 35.7315 97.1591 35.0719 97.1591ZM35.0719 96.3487C35.6022 96.3487 36.0497 96.2062 36.4142 95.9212C36.7821 95.6361 37.0622 95.2566 37.2544 94.7827C37.4467 94.3087 37.5428 93.7867 37.5428 93.2166C37.5428 92.6465 37.4467 92.1229 37.2544 91.6456C37.0622 91.1683 36.7821 90.7855 36.4142 90.4972C36.0497 90.2088 35.6022 90.0646 35.0719 90.0646C34.5449 90.0646 34.0975 90.2088 33.7296 90.4972C33.3617 90.7855 33.0816 91.1683 32.8894 91.6456C32.6971 92.1229 32.601 92.6465 32.601 93.2166C32.601 93.7867 32.6971 94.3087 32.8894 94.7827C33.0816 95.2566 33.3617 95.6361 33.7296 95.9212C34.0975 96.2062 34.5449 96.3487 35.0719 96.3487ZM44.3129 97V89.3636H45.1729V90.5369H45.2376C45.39 90.1525 45.6552 89.8426 46.033 89.6072C46.4142 89.3686 46.8451 89.2493 47.3256 89.2493C47.5212 89.2493 47.6969 89.2708 47.8526 89.3139C48.0084 89.357 48.1476 89.4134 48.2702 89.483L47.962 90.2436C47.7731 90.1574 47.5394 90.1143 47.261 90.1143C46.8633 90.1143 46.5086 90.1989 46.1971 90.3679C45.8888 90.5369 45.6452 90.7689 45.4663 91.0639C45.2873 91.3556 45.1978 91.6903 45.1978 92.0682V97H44.3129ZM52.4315 97.1591C51.7189 97.1591 51.1024 96.9934 50.582 96.6619C50.0617 96.3272 49.659 95.8648 49.3739 95.2749C49.0922 94.6816 48.9513 93.9988 48.9513 93.2266C48.9513 92.4543 49.0922 91.7699 49.3739 91.1733C49.659 90.5767 50.0517 90.1094 50.5522 89.7713C51.056 89.4299 51.6377 89.2592 52.2972 89.2592C52.8507 89.2592 53.3728 89.3951 53.8633 89.6669C54.3571 89.9354 54.7582 90.3464 55.0664 90.8999C55.3746 91.4534 55.5288 92.156 55.5288 93.0078V93.4453H49.8413C49.8612 94.3269 50.1031 95.0312 50.5671 95.5582C51.0311 96.0852 51.6526 96.3487 52.4315 96.3487C52.975 96.3487 53.4192 96.2261 53.7638 95.9808C54.1085 95.7322 54.3538 95.4373 54.4996 95.0959L55.3398 95.3693C55.1675 95.8499 54.8311 96.2692 54.3306 96.6271C53.8301 96.9818 53.1971 97.1591 52.4315 97.1591ZM49.8462 92.6648H54.6239C54.6239 92.1742 54.5245 91.7334 54.3256 91.3423C54.1301 90.9479 53.8567 90.6364 53.5053 90.4077C53.1573 90.179 52.7546 90.0646 52.2972 90.0646C51.8332 90.0646 51.4222 90.1823 51.0643 90.4176C50.7096 90.6529 50.4263 90.9678 50.2141 91.3622C50.002 91.7566 49.8794 92.1908 49.8462 92.6648ZM59.6117 97.174C59.151 97.174 58.7301 97.0845 58.3489 96.9055C57.9677 96.7232 57.6645 96.4614 57.4391 96.12C57.2137 95.7753 57.101 95.3577 57.101 94.8672C57.101 94.3634 57.2253 93.964 57.4739 93.669C57.7225 93.3707 58.0672 93.1454 58.508 92.9929C58.9521 92.8404 59.4609 92.7294 60.0343 92.6598C60.6773 92.5803 61.1711 92.509 61.5158 92.446C61.8605 92.3797 62.0328 92.2024 62.0328 91.9141V91.7351C62.0328 91.2114 61.8771 90.8004 61.5655 90.5021C61.2573 90.2038 60.8132 90.0547 60.2331 90.0547C59.6829 90.0547 59.2338 90.1757 58.8858 90.4176C58.5411 90.6596 58.2992 90.9446 58.16 91.2727L57.3198 90.9695C57.4921 90.5518 57.7308 90.2187 58.0357 89.9702C58.3406 89.7183 58.682 89.5376 59.0598 89.4283C59.4377 89.3156 59.8205 89.2592 60.2083 89.2592C60.4999 89.2592 60.8032 89.2973 61.1181 89.3736C61.4329 89.4498 61.7263 89.5824 61.998 89.7713C62.2731 89.9569 62.4952 90.2154 62.6642 90.5469C62.8333 90.8783 62.9178 91.3009 62.9178 91.8146V97H62.0328V95.7919H61.9782C61.8191 96.13 61.544 96.4448 61.1529 96.7365C60.7618 97.0282 60.248 97.174 59.6117 97.174ZM59.731 96.3636C60.2016 96.3636 60.6093 96.2609 60.954 96.0554C61.2987 95.8466 61.5639 95.5682 61.7495 95.2202C61.9384 94.8722 62.0328 94.4893 62.0328 94.0717V92.968C61.9467 93.0509 61.7843 93.1238 61.5456 93.1868C61.307 93.2464 61.0468 93.2962 60.7651 93.3359C60.4867 93.3757 60.2431 93.4089 60.0343 93.4354C59.388 93.5149 58.8842 93.6641 58.5229 93.8828C58.165 94.1016 57.986 94.4429 57.986 94.907C57.986 95.3677 58.1517 95.7256 58.4831 95.9808C58.8146 96.236 59.2305 96.3636 59.731 96.3636ZM68.0211 97.1591C67.398 97.1591 66.8495 96.995 66.3755 96.6669C65.9049 96.3355 65.537 95.8731 65.2718 95.2798C65.01 94.6832 64.8791 93.9905 64.8791 93.2017C64.8791 92.4162 65.0117 91.7285 65.2768 91.1385C65.542 90.5452 65.9115 90.0845 66.3855 89.7564C66.8594 89.425 67.4096 89.2592 68.036 89.2592C68.5034 89.2592 68.8895 89.3421 69.1944 89.5078C69.5027 89.6735 69.7496 89.8774 69.9352 90.1193C70.1241 90.358 70.2683 90.5916 70.3677 90.8203H70.4473V86.8182H71.3372V97H70.4721V95.5831H70.3677C70.265 95.8151 70.1175 96.0537 69.9252 96.299C69.7363 96.541 69.4877 96.7448 69.1795 96.9105C68.8713 97.0762 68.4851 97.1591 68.0211 97.1591ZM68.1255 96.3487C68.6194 96.3487 69.0403 96.2145 69.3883 95.946C69.7363 95.6742 70.0015 95.2997 70.1838 94.8224C70.3694 94.3452 70.4622 93.8 70.4622 93.1868C70.4622 92.5769 70.371 92.0384 70.1887 91.571C70.0065 91.1004 69.7413 90.7325 69.3933 90.4673C69.0453 90.1989 68.6227 90.0646 68.1255 90.0646C67.6151 90.0646 67.1842 90.2038 66.8329 90.4822C66.4849 90.7573 66.2198 91.1302 66.0375 91.6009C65.8585 92.0715 65.769 92.6001 65.769 93.1868C65.769 93.7801 65.8585 94.3153 66.0375 94.7926C66.2198 95.2699 66.4866 95.6494 66.8379 95.9311C67.1892 96.2095 67.6184 96.3487 68.1255 96.3487Z" fill="black"/>
<path d="M8.126 65.252L-3.55199e-07 57.126L8.126 49.001L8.126 65.252Z" fill="#96DAEA"/>
<path d="M51.4773 21.598V20.2727H58.4403V21.598H55.7429V29H54.1747V21.598H51.4773ZM59.7145 29V22.4545H61.2571V29H59.7145ZM60.4901 21.5256C60.2429 21.5256 60.0313 21.4446 59.8551 21.2827C59.6818 21.1179 59.5952 20.9205 59.5952 20.6903C59.5952 20.4574 59.6818 20.2599 59.8551 20.098C60.0313 19.9332 60.2429 19.8509 60.4901 19.8509C60.7344 19.8509 60.9432 19.9332 61.1165 20.098C61.2926 20.2599 61.3807 20.4574 61.3807 20.6903C61.3807 20.9205 61.2926 21.1179 61.1165 21.2827C60.9432 21.4446 60.7344 21.5256 60.4901 21.5256ZM62.8434 31.4545V22.4545H64.3604V23.5369H64.4499C64.5295 23.3778 64.6403 23.2088 64.7823 23.0298C64.9272 22.848 65.1232 22.6932 65.3704 22.5653C65.6204 22.4347 65.9371 22.3693 66.3207 22.3693C66.8263 22.3693 67.2823 22.4986 67.6886 22.7571C68.0977 23.0156 68.4215 23.3949 68.6602 23.8949C68.9016 24.3949 69.0224 25.0085 69.0224 25.7358C69.0224 26.4545 68.9045 27.0653 68.6687 27.5682C68.4329 28.071 68.1119 28.4545 67.7056 28.7188C67.2994 28.983 66.8391 29.1151 66.3249 29.1151C65.9499 29.1151 65.6388 29.0526 65.3917 28.9276C65.1445 28.8026 64.9457 28.652 64.7951 28.4759C64.6474 28.2969 64.5323 28.1278 64.4499 27.9688H64.386V31.4545H62.8434ZM64.3562 25.7273C64.3562 26.3608 64.4897 26.8736 64.7567 27.2656C65.0238 27.6548 65.4031 27.8494 65.8945 27.8494C66.4031 27.8494 66.7894 27.6491 67.0536 27.2486C67.3178 26.848 67.4499 26.3409 67.4499 25.7273C67.4499 25.1165 67.3192 24.6151 67.0579 24.223C66.7965 23.831 66.4087 23.6349 65.8945 23.6349C65.3974 23.6349 65.0167 23.8253 64.7525 24.206C64.4883 24.5838 64.3562 25.0909 64.3562 25.7273ZM72.2312 20.2727L72.0906 26.4347H70.7184L70.582 20.2727H72.2312ZM71.4045 29.0938C71.146 29.0938 70.9244 29.0028 70.7397 28.821C70.555 28.6364 70.4641 28.4148 70.467 28.1562C70.4641 27.9006 70.555 27.6818 70.7397 27.5C70.9244 27.3182 71.146 27.2273 71.4045 27.2273C71.6573 27.2273 71.8761 27.3182 72.0607 27.5C72.2454 27.6818 72.3391 27.9006 72.342 28.1562C72.3391 28.4148 72.2454 28.6364 72.0607 28.821C71.8761 29.0028 71.6573 29.0938 71.4045 29.0938Z" fill="#00253E"/>
<path d="M34.7203 35.4406C40.6409 35.4406 45.4406 30.6409 45.4406 24.7203C45.4406 18.7996 40.6409 14 34.7203 14C28.7996 14 24 18.7996 24 24.7203C24 30.6409 28.7996 35.4406 34.7203 35.4406Z" fill="#00253E"/>
<path d="M33.8494 25.2877C33.4629 24.8631 32.9636 24.5938 32.3524 24.4809V24.4245C32.8286 24.2643 33.2269 24.0117 33.5457 23.6671C33.865 23.3226 34.0246 22.8345 34.0246 22.2018C34.0246 21.3337 33.7392 20.6941 33.1683 20.284C32.5975 19.8733 31.7273 19.668 30.5587 19.668H26.8369V20.2625H27.0121C27.3089 20.2625 27.5674 20.3189 27.7878 20.4323C28.0082 20.5457 28.1184 20.8102 28.1184 21.2252V28.1613C28.1184 28.6053 28.0103 28.8859 27.7948 29.0036C27.5787 29.1219 27.318 29.1804 27.0127 29.1804H26.8375V29.7749H30.9634C33.2742 29.7749 34.4294 28.8644 34.4294 27.0427C34.4294 26.2977 34.2359 25.7124 33.8494 25.2877ZM29.4804 20.3759H30.4915C31.2553 20.3759 31.795 20.5081 32.11 20.772C32.4244 21.0365 32.5819 21.5127 32.5819 22.2018C32.5819 22.8813 32.4357 23.372 32.1438 23.6741C31.8514 23.9762 31.3096 24.1272 30.5189 24.1272H29.481V20.3759H29.4804ZM32.5142 28.5999C32.1992 28.9111 31.6601 29.067 30.8957 29.067H29.4804V24.8346H30.9226C31.7138 24.8346 32.2556 25.0114 32.5475 25.3657C32.8399 25.7194 32.9856 26.2644 32.9856 27.0008C32.9861 27.7555 32.8286 28.2887 32.5142 28.5999Z" fill="#00B2E3"/>
<path d="M34.5566 19.666V21.8317H35.4489C35.4489 21.8317 35.4355 20.5035 36.3262 20.5035H37.5211V28.1545C37.5211 28.548 37.4566 28.7952 37.3281 28.8958C37.1249 29.0344 36.7981 29.0463 36.5062 29.0468H35.8897V29.7741H41.2702V29.0468H40.6537C40.3624 29.0463 40.035 29.0344 39.8318 28.8958C39.7034 28.7952 39.6389 28.548 39.6389 28.1545V20.5035H40.8338C41.725 20.5035 41.711 21.8317 41.711 21.8317H42.6033V19.666H34.5566Z" fill="white"/>
</svg>
