<svg width="158" height="144" viewBox="0 0 158 144" fill="none" xmlns="http://www.w3.org/2000/svg">
<rect x="8" width="150" height="144" rx="4" fill="#F86239"/>
<path opacity="0.87" d="M17.4375 41.2148V40H23.8203V41.2148H21.3477V48H19.9102V41.2148H17.4375ZM26.4023 44.4844V48H24.9883V40H26.3711V43.0195H26.4414C26.5794 42.6784 26.7956 42.4102 27.0898 42.2148C27.3867 42.0195 27.7656 41.9219 28.2266 41.9219C28.849 41.9219 29.349 42.1172 29.7266 42.5078C30.1042 42.8984 30.293 43.4557 30.293 44.1797V48H28.8789V44.3984C28.8789 43.9948 28.7747 43.681 28.5664 43.457C28.3607 43.2305 28.0716 43.1172 27.6992 43.1172C27.3216 43.1172 27.0104 43.237 26.7656 43.4766C26.5234 43.7135 26.4023 44.0495 26.4023 44.4844ZM31.7344 48V42H33.1484V48H31.7344ZM32.4453 41.1484C32.2188 41.1484 32.0247 41.0742 31.8633 40.9258C31.7044 40.7747 31.625 40.5937 31.625 40.3828C31.625 40.1693 31.7044 39.9883 31.8633 39.8398C32.0247 39.6888 32.2188 39.6133 32.4453 39.6133C32.6693 39.6133 32.8607 39.6888 33.0195 39.8398C33.181 39.9883 33.2617 40.1693 33.2617 40.3828C33.2617 40.5937 33.181 40.7747 33.0195 40.9258C32.8607 41.0742 32.6693 41.1484 32.4453 41.1484ZM39.3447 43.5859L38.0557 43.7266C38.001 43.5286 37.8838 43.3542 37.7041 43.2031C37.527 43.0521 37.2757 42.9766 36.9502 42.9766C36.6559 42.9766 36.4085 43.0404 36.208 43.168C36.0101 43.2956 35.9124 43.4609 35.915 43.6641C35.9124 43.8385 35.9762 43.9818 36.1064 44.0937C36.2393 44.2031 36.458 44.2917 36.7627 44.3594L37.7861 44.5781C38.9085 44.8229 39.471 45.3646 39.4736 46.2031C39.4736 46.5807 39.3643 46.9141 39.1455 47.2031C38.9268 47.4896 38.6247 47.7135 38.2393 47.875C37.8538 48.0365 37.4111 48.1172 36.9111 48.1172C36.1742 48.1172 35.583 47.9622 35.1377 47.6523C34.6924 47.3424 34.4255 46.9128 34.3369 46.3633L35.7158 46.2305C35.8382 46.7773 36.2354 47.0508 36.9072 47.0508C37.2432 47.0508 37.5127 46.9831 37.7158 46.8477C37.9215 46.7096 38.0244 46.5378 38.0244 46.332C38.0244 45.9961 37.7549 45.7682 37.2158 45.6484L36.1924 45.4336C35.6169 45.3138 35.1911 45.112 34.915 44.8281C34.639 44.5417 34.5023 44.1797 34.5049 43.7422C34.5049 43.3724 34.6064 43.0521 34.8096 42.7812C35.0127 42.5078 35.2965 42.2969 35.6611 42.1484C36.0257 41.9974 36.4489 41.9219 36.9307 41.9219C37.6338 41.9219 38.1872 42.0729 38.5908 42.375C38.9971 42.6745 39.2484 43.0781 39.3447 43.5859ZM48.1104 43.5859L46.8213 43.7266C46.7666 43.5286 46.6494 43.3542 46.4697 43.2031C46.2926 43.0521 46.0413 42.9766 45.7158 42.9766C45.4215 42.9766 45.1742 43.0404 44.9736 43.168C44.7757 43.2956 44.6781 43.4609 44.6807 43.6641C44.6781 43.8385 44.7419 43.9818 44.8721 44.0937C45.0049 44.2031 45.2236 44.2917 45.5283 44.3594L46.5518 44.5781C47.6742 44.8229 48.2367 45.3646 48.2393 46.2031C48.2393 46.5807 48.1299 46.9141 47.9111 47.2031C47.6924 47.4896 47.3903 47.7135 47.0049 47.875C46.6195 48.0365 46.1768 48.1172 45.6768 48.1172C44.9398 48.1172 44.3486 47.9622 43.9033 47.6523C43.458 47.3424 43.1911 46.9128 43.1025 46.3633L44.4814 46.2305C44.6038 46.7773 45.001 47.0508 45.6729 47.0508C46.0088 47.0508 46.2783 46.9831 46.4814 46.8477C46.6872 46.7096 46.79 46.5378 46.79 46.332C46.79 45.9961 46.5205 45.7682 45.9814 45.6484L44.958 45.4336C44.3825 45.3138 43.9567 45.112 43.6807 44.8281C43.4046 44.5417 43.2679 44.1797 43.2705 43.7422C43.2705 43.3724 43.3721 43.0521 43.5752 42.7812C43.7783 42.5078 44.0622 42.2969 44.4268 42.1484C44.7913 41.9974 45.2145 41.9219 45.6963 41.9219C46.3994 41.9219 46.9528 42.0729 47.3564 42.375C47.7627 42.6745 48.014 43.0781 48.1104 43.5859ZM52.0225 48.1172C51.4261 48.1172 50.9131 47.9857 50.4834 47.7227C50.0537 47.4596 49.723 47.0951 49.4912 46.6289C49.262 46.1628 49.1475 45.6276 49.1475 45.0234C49.1475 44.4115 49.2646 43.8737 49.499 43.4102C49.7334 42.944 50.0641 42.5794 50.4912 42.3164C50.9209 42.0534 51.4287 41.9219 52.0146 41.9219C52.5042 41.9219 52.9365 42.0117 53.3115 42.1914C53.6865 42.3685 53.986 42.6185 54.21 42.9414C54.4339 43.2643 54.5615 43.6432 54.5928 44.0781H53.2412C53.1865 43.7891 53.0563 43.5482 52.8506 43.3555C52.6475 43.1602 52.3753 43.0625 52.0342 43.0625C51.5993 43.0625 51.2477 43.2344 50.9795 43.5781C50.7139 43.9193 50.5811 44.3932 50.5811 45C50.5811 45.612 50.7126 46.0924 50.9756 46.4414C51.2412 46.7904 51.5941 46.9648 52.0342 46.9648C52.3441 46.9648 52.6071 46.8763 52.8232 46.6992C53.042 46.5221 53.1813 46.2721 53.2412 45.9492H54.5928C54.5589 46.3737 54.4339 46.7487 54.2178 47.0742C54.0016 47.3997 53.7074 47.6549 53.335 47.8398C52.9626 48.0247 52.5251 48.1172 52.0225 48.1172ZM58.3711 48.1172C57.7852 48.1172 57.2773 47.9883 56.8477 47.7305C56.418 47.4727 56.0846 47.112 55.8477 46.6484C55.6133 46.1823 55.4961 45.6406 55.4961 45.0234C55.4961 44.4036 55.6133 43.862 55.8477 43.3984C56.0846 42.9323 56.418 42.5703 56.8477 42.3125C57.2773 42.0521 57.7852 41.9219 58.3711 41.9219C58.957 41.9219 59.4648 42.0521 59.8945 42.3125C60.3268 42.5703 60.6602 42.9323 60.8945 43.3984C61.1289 43.862 61.2461 44.4036 61.2461 45.0234C61.2461 45.6406 61.1289 46.1823 60.8945 46.6484C60.6602 47.112 60.3268 47.4727 59.8945 47.7305C59.4648 47.9883 58.957 48.1172 58.3711 48.1172ZM58.3789 46.9844C58.6992 46.9844 58.9648 46.8971 59.1758 46.7227C59.3893 46.5482 59.5482 46.3125 59.6523 46.0156C59.7591 45.7161 59.8125 45.3841 59.8125 45.0195C59.8125 44.6523 59.7591 44.3203 59.6523 44.0234C59.5482 43.724 59.3893 43.4857 59.1758 43.3086C58.9648 43.1315 58.6992 43.043 58.3789 43.043C58.056 43.043 57.7865 43.1315 57.5703 43.3086C57.3568 43.4857 57.1966 43.724 57.0898 44.0234C56.9831 44.3203 56.9297 44.6523 56.9297 45.0195C56.9297 45.3841 56.9831 45.7161 57.0898 46.0156C57.1966 46.3125 57.3568 46.5482 57.5703 46.7227C57.7865 46.8971 58.056 46.9844 58.3789 46.9844ZM62.4463 48V42H63.8174V43H63.8799C63.9893 42.651 64.1768 42.3828 64.4424 42.1953C64.708 42.0078 65.014 41.9141 65.3604 41.9141C65.5218 41.9141 65.6702 41.9336 65.8057 41.9727C65.9411 42.0117 66.0609 42.0651 66.165 42.1328L65.7275 43.3047C65.652 43.2682 65.5687 43.2383 65.4775 43.2148C65.3864 43.1914 65.2835 43.1797 65.1689 43.1797C64.7992 43.1797 64.488 43.3008 64.2354 43.543C63.9854 43.7826 63.8604 44.0924 63.8604 44.4727V48H62.4463ZM69.4102 48.1172C68.8086 48.1172 68.2891 47.9909 67.8516 47.7383C67.4167 47.4857 67.082 47.1289 66.8477 46.668C66.6133 46.207 66.4961 45.6628 66.4961 45.0352C66.4961 44.418 66.6133 43.8763 66.8477 43.4102C67.082 42.9414 67.4115 42.5768 67.8359 42.3164C68.263 42.0534 68.763 41.9219 69.3359 41.9219C69.8281 41.9219 70.2826 42.0286 70.6992 42.2422C71.1159 42.4531 71.4492 42.7826 71.6992 43.2305C71.9518 43.6758 72.0781 44.25 72.0781 44.9531V45.3867H67.8984C67.9063 45.8997 68.0482 46.2995 68.3242 46.5859C68.6029 46.8724 68.9714 47.0156 69.4297 47.0156C69.7344 47.0156 69.9974 46.9505 70.2188 46.8203C70.4427 46.6875 70.6029 46.4948 70.6992 46.2422L72.0195 46.3906C71.8945 46.9115 71.6029 47.3294 71.1445 47.6445C70.6888 47.9596 70.1107 48.1172 69.4102 48.1172ZM67.9023 44.4336H70.7227C70.7201 44.0247 70.5924 43.6875 70.3398 43.4219C70.0898 43.1562 69.7617 43.0234 69.3555 43.0234C68.9336 43.0234 68.5911 43.1628 68.3281 43.4414C68.0651 43.7201 67.9232 44.0508 67.9023 44.4336ZM76.0029 48V42H77.417V48H76.0029ZM76.7139 41.1484C76.4873 41.1484 76.2933 41.0742 76.1318 40.9258C75.973 40.7747 75.8936 40.5937 75.8936 40.3828C75.8936 40.1693 75.973 39.9883 76.1318 39.8398C76.2933 39.6888 76.4873 39.6133 76.7139 39.6133C76.9378 39.6133 77.1292 39.6888 77.2881 39.8398C77.4495 39.9883 77.5303 40.1693 77.5303 40.3828C77.5303 40.5937 77.4495 40.7747 77.2881 40.9258C77.1292 41.0742 76.9378 41.1484 76.7139 41.1484ZM83.6133 43.5859L82.3242 43.7266C82.2695 43.5286 82.1523 43.3542 81.9727 43.2031C81.7956 43.0521 81.5443 42.9766 81.2188 42.9766C80.9245 42.9766 80.6771 43.0404 80.4766 43.168C80.2786 43.2956 80.181 43.4609 80.1836 43.6641C80.181 43.8385 80.2448 43.9818 80.375 44.0937C80.5078 44.2031 80.7266 44.2917 81.0313 44.3594L82.0547 44.5781C83.1771 44.8229 83.7396 45.3646 83.7422 46.2031C83.7422 46.5807 83.6328 46.9141 83.4141 47.2031C83.1953 47.4896 82.8932 47.7135 82.5078 47.875C82.1224 48.0365 81.6797 48.1172 81.1797 48.1172C80.4427 48.1172 79.8516 47.9622 79.4063 47.6523C78.9609 47.3424 78.694 46.9128 78.6055 46.3633L79.9844 46.2305C80.1068 46.7773 80.5039 47.0508 81.1758 47.0508C81.5117 47.0508 81.7813 46.9831 81.9844 46.8477C82.1901 46.7096 82.293 46.5378 82.293 46.332C82.293 45.9961 82.0234 45.7682 81.4844 45.6484L80.4609 45.4336C79.8854 45.3138 79.4596 45.112 79.1836 44.8281C78.9076 44.5417 78.7708 44.1797 78.7734 43.7422C78.7734 43.3724 78.875 43.0521 79.0781 42.7812C79.2813 42.5078 79.5651 42.2969 79.9297 42.1484C80.2943 41.9974 80.7174 41.9219 81.1992 41.9219C81.9023 41.9219 82.4557 42.0729 82.8594 42.375C83.2656 42.6745 83.5169 43.0781 83.6133 43.5859ZM87.6992 48V40H89.1133V42.9922H89.1719C89.2448 42.8464 89.3464 42.6914 89.4766 42.5273C89.6094 42.3607 89.7891 42.2187 90.0156 42.1016C90.2448 41.9818 90.5352 41.9219 90.8867 41.9219C91.3503 41.9219 91.7682 42.0404 92.1406 42.2773C92.5156 42.5143 92.8125 42.862 93.0312 43.3203C93.2526 43.7786 93.3633 44.3411 93.3633 45.0078C93.3633 45.6667 93.2552 46.2266 93.0391 46.6875C92.8229 47.1484 92.5286 47.5 92.1563 47.7422C91.7839 47.9844 91.362 48.1055 90.8906 48.1055C90.5469 48.1055 90.2617 48.0482 90.0352 47.9336C89.8086 47.819 89.6263 47.681 89.4883 47.5195C89.3529 47.3555 89.2474 47.2005 89.1719 47.0547H89.0898V48H87.6992ZM89.0859 45C89.0859 45.5807 89.2083 46.0508 89.4531 46.4102C89.6979 46.7669 90.0456 46.9453 90.4961 46.9453C90.9622 46.9453 91.3164 46.7617 91.5586 46.3945C91.8008 46.0273 91.9219 45.5625 91.9219 45C91.9219 44.4401 91.8021 43.9805 91.5625 43.6211C91.3229 43.2617 90.9674 43.082 90.4961 43.082C90.0404 43.082 89.6914 43.2565 89.4492 43.6055C89.207 43.9518 89.0859 44.4167 89.0859 45ZM95.9795 40V48H94.5654V40H95.9795ZM99.1602 48.1211C98.5872 48.1211 98.1094 47.9674 97.7266 47.6602C97.3438 47.3529 97.1523 46.9049 97.1523 46.3164C97.1523 45.8659 97.2604 45.5169 97.4766 45.2695C97.6953 45.0195 97.9779 44.8385 98.3242 44.7266C98.6732 44.612 99.0417 44.5339 99.4297 44.4922C99.9583 44.4349 100.337 44.3815 100.566 44.332C100.798 44.2826 100.914 44.1562 100.914 43.9531V43.9297C100.914 43.6354 100.827 43.4076 100.652 43.2461C100.478 43.0846 100.227 43.0039 99.8984 43.0039C99.5521 43.0039 99.2773 43.0794 99.0742 43.2305C98.8737 43.3815 98.7383 43.5599 98.668 43.7656L97.3477 43.5781C97.5039 43.0312 97.8086 42.6185 98.2617 42.3398C98.7174 42.0612 99.2604 41.9219 99.8906 41.9219C100.177 41.9219 100.464 41.9557 100.75 42.0234C101.036 42.0911 101.298 42.2031 101.535 42.3594C101.775 42.5156 101.966 42.7266 102.109 42.9922C102.255 43.2578 102.328 43.5885 102.328 43.9844V48H100.969V47.1758H100.922C100.794 47.4284 100.586 47.6497 100.297 47.8398C100.01 48.0273 99.6315 48.1211 99.1602 48.1211ZM99.5273 47.082C99.9544 47.082 100.293 46.9596 100.543 46.7148C100.793 46.4701 100.918 46.181 100.918 45.8477V45.1406C100.858 45.1901 100.747 45.2344 100.586 45.2734C100.427 45.3099 100.258 45.3411 100.078 45.3672C99.8984 45.3932 99.7461 45.4154 99.6211 45.4336C99.306 45.4779 99.043 45.5651 98.832 45.6953C98.6211 45.8229 98.5156 46.0221 98.5156 46.293C98.5156 46.5534 98.6107 46.75 98.8008 46.8828C98.9909 47.0156 99.2331 47.082 99.5273 47.082ZM105.164 44.4844V48H103.75V42H105.102V43.0195H105.172C105.31 42.6862 105.53 42.4206 105.832 42.2227C106.137 42.0221 106.513 41.9219 106.961 41.9219C107.581 41.9219 108.078 42.1185 108.453 42.5117C108.831 42.9049 109.018 43.4609 109.016 44.1797V48H107.602V44.3984C107.602 43.9974 107.497 43.6836 107.289 43.457C107.083 43.2305 106.798 43.1172 106.434 43.1172C106.061 43.1172 105.757 43.237 105.52 43.4766C105.283 43.7135 105.164 44.0495 105.164 44.4844ZM110.453 48V40H111.867V44.4102H111.965L114.121 42H115.773L113.449 44.5898L115.91 48H114.219L112.383 45.4336L111.867 45.9844V48H110.453ZM119.444 48V42H120.815V43H120.878C120.987 42.651 121.175 42.3828 121.44 42.1953C121.709 42.0078 122.015 41.9141 122.358 41.9141C122.437 41.9141 122.524 41.918 122.62 41.9258C122.719 41.931 122.801 41.9401 122.866 41.9531V43.2539C122.806 43.2331 122.711 43.2148 122.581 43.1992C122.453 43.181 122.33 43.1719 122.21 43.1719C121.822 43.1719 121.499 43.2943 121.241 43.5391C120.986 43.7812 120.858 44.0924 120.858 44.4727V48H119.444ZM123.806 48V42H125.22V48H123.806ZM124.517 41.1484C124.29 41.1484 124.096 41.0742 123.935 40.9258C123.776 40.7747 123.696 40.5937 123.696 40.3828C123.696 40.1693 123.776 39.9883 123.935 39.8398C124.096 39.6888 124.29 39.6133 124.517 39.6133C124.741 39.6133 124.932 39.6888 125.091 39.8398C125.252 39.9883 125.333 40.1693 125.333 40.3828C125.333 40.5937 125.252 40.7747 125.091 40.9258C124.932 41.0742 124.741 41.1484 124.517 41.1484ZM129.283 50.3516C128.52 50.3516 127.92 50.2044 127.482 49.9102C127.048 49.6185 126.765 49.2682 126.635 48.8594L127.908 48.5508C127.994 48.7148 128.143 48.8776 128.354 49.0391C128.564 49.2005 128.882 49.2813 129.307 49.2813C129.71 49.2813 130.042 49.1849 130.303 48.9922C130.566 48.7995 130.697 48.4883 130.697 48.0586V46.9219H130.627C130.554 47.0677 130.447 47.2174 130.307 47.3711C130.169 47.5247 129.985 47.6536 129.756 47.7578C129.529 47.862 129.244 47.9141 128.9 47.9141C128.439 47.9141 128.021 47.806 127.646 47.5898C127.274 47.3711 126.977 47.0443 126.756 46.6094C126.537 46.1745 126.428 45.6315 126.428 44.9805C126.428 44.3216 126.537 43.7656 126.756 43.3125C126.977 42.8568 127.275 42.5117 127.65 42.2773C128.025 42.0404 128.443 41.9219 128.904 41.9219C129.258 41.9219 129.549 41.9818 129.775 42.1016C130.005 42.2187 130.186 42.3607 130.318 42.5273C130.454 42.6914 130.557 42.8464 130.627 42.9922H130.705V42H132.1V48.0977C132.1 48.6003 131.977 49.0182 131.732 49.3516C131.488 49.6875 131.153 49.9375 130.729 50.1016C130.307 50.2682 129.825 50.3516 129.283 50.3516ZM129.295 46.8047C129.745 46.8047 130.093 46.6432 130.338 46.3203C130.583 45.9948 130.705 45.5456 130.705 44.9727C130.705 44.4049 130.584 43.9479 130.342 43.6016C130.1 43.2552 129.751 43.082 129.295 43.082C128.824 43.082 128.468 43.2617 128.229 43.6211C127.989 43.9779 127.869 44.4284 127.869 44.9727C127.869 45.5247 127.99 45.9687 128.232 46.3047C128.475 46.638 128.829 46.8047 129.295 46.8047ZM134.963 44.4844V48H133.549V40H134.932V43.0195H135.002C135.14 42.6784 135.356 42.4102 135.65 42.2148C135.947 42.0195 136.326 41.9219 136.787 41.9219C137.41 41.9219 137.91 42.1172 138.287 42.5078C138.665 42.8984 138.854 43.4557 138.854 44.1797V48H137.439V44.3984C137.439 43.9948 137.335 43.681 137.127 43.457C136.921 43.2305 136.632 43.1172 136.26 43.1172C135.882 43.1172 135.571 43.237 135.326 43.4766C135.084 43.7135 134.963 44.0495 134.963 44.4844ZM143.291 42V43.0937H142.107V46.1953C142.107 46.4792 142.17 46.6667 142.295 46.7578C142.42 46.8464 142.571 46.8906 142.748 46.8906C142.837 46.8906 142.917 46.8841 142.99 46.8711C143.066 46.8581 143.123 46.8464 143.162 46.8359L143.4 47.9414C143.325 47.9674 143.217 47.9961 143.076 48.0273C142.938 48.0586 142.769 48.0768 142.568 48.082C142.037 48.0977 141.59 47.9674 141.229 47.6914C140.869 47.4154 140.691 46.9948 140.693 46.4297V43.0937H139.842V42H140.693V40.5625H142.107V42H143.291ZM19.1406 57.4844V61H17.7266V55H19.0781V56.0195H19.1484C19.2865 55.6862 19.5065 55.4206 19.8086 55.2227C20.1133 55.0221 20.4896 54.9219 20.9375 54.9219C21.5573 54.9219 22.0547 55.1185 22.4297 55.5117C22.8073 55.9049 22.9948 56.4609 22.9922 57.1797V61H21.5781V57.3984C21.5781 56.9974 21.474 56.6836 21.2656 56.457C21.0599 56.2305 20.7747 56.1172 20.4102 56.1172C20.0378 56.1172 19.7331 56.237 19.4961 56.4766C19.2591 56.7135 19.1406 57.0495 19.1406 57.4844ZM27.0469 61.1172C26.4609 61.1172 25.9531 60.9883 25.5234 60.7305C25.0938 60.4727 24.7604 60.112 24.5234 59.6484C24.2891 59.1823 24.1719 58.6406 24.1719 58.0234C24.1719 57.4036 24.2891 56.862 24.5234 56.3984C24.7604 55.9323 25.0938 55.5703 25.5234 55.3125C25.9531 55.0521 26.4609 54.9219 27.0469 54.9219C27.6328 54.9219 28.1406 55.0521 28.5703 55.3125C29.0026 55.5703 29.3359 55.9323 29.5703 56.3984C29.8047 56.862 29.9219 57.4036 29.9219 58.0234C29.9219 58.6406 29.8047 59.1823 29.5703 59.6484C29.3359 60.112 29.0026 60.4727 28.5703 60.7305C28.1406 60.9883 27.6328 61.1172 27.0469 61.1172ZM27.0547 59.9844C27.375 59.9844 27.6406 59.8971 27.8516 59.7227C28.0651 59.5482 28.224 59.3125 28.3281 59.0156C28.4349 58.7161 28.4883 58.3841 28.4883 58.0195C28.4883 57.6523 28.4349 57.3203 28.3281 57.0234C28.224 56.724 28.0651 56.4857 27.8516 56.3086C27.6406 56.1315 27.375 56.043 27.0547 56.043C26.7318 56.043 26.4622 56.1315 26.2461 56.3086C26.0326 56.4857 25.8724 56.724 25.7656 57.0234C25.6589 57.3203 25.6055 57.6523 25.6055 58.0195C25.6055 58.3841 25.6589 58.7161 25.7656 59.0156C25.8724 59.3125 26.0326 59.5482 26.2461 59.7227C26.4622 59.8971 26.7318 59.9844 27.0547 59.9844ZM32.1992 61L30.5039 55H31.9453L33 59.2187H33.0547L34.1328 55H35.5586L36.6367 59.1953H36.6953L37.7344 55H39.1797L37.4805 61H36.0078L34.8828 56.9453H34.8008L33.6758 61H32.1992ZM40.2217 61.0859C39.9847 61.0859 39.7816 61.0026 39.6123 60.8359C39.443 60.6667 39.3597 60.4635 39.3623 60.2266C39.3597 59.9922 39.443 59.7917 39.6123 59.625C39.7816 59.4583 39.9847 59.375 40.2217 59.375C40.4535 59.375 40.654 59.4583 40.8232 59.625C40.9925 59.7917 41.0785 59.9922 41.0811 60.2266C41.0785 60.4635 40.9925 60.6667 40.8232 60.8359C40.654 61.0026 40.4535 61.0859 40.2217 61.0859ZM51.6592 53V61H50.3701L46.6006 55.5508H46.5342V61H45.085V53H46.3818L50.1475 58.4531H50.2178V53H51.6592ZM55.793 61.1172C55.207 61.1172 54.6992 60.9883 54.2695 60.7305C53.8398 60.4727 53.5065 60.112 53.2695 59.6484C53.0352 59.1823 52.918 58.6406 52.918 58.0234C52.918 57.4036 53.0352 56.862 53.2695 56.3984C53.5065 55.9323 53.8398 55.5703 54.2695 55.3125C54.6992 55.0521 55.207 54.9219 55.793 54.9219C56.3789 54.9219 56.8867 55.0521 57.3164 55.3125C57.7487 55.5703 58.082 55.9323 58.3164 56.3984C58.5508 56.862 58.668 57.4036 58.668 58.0234C58.668 58.6406 58.5508 59.1823 58.3164 59.6484C58.082 60.112 57.7487 60.4727 57.3164 60.7305C56.8867 60.9883 56.3789 61.1172 55.793 61.1172ZM55.8008 59.9844C56.1211 59.9844 56.3867 59.8971 56.5977 59.7227C56.8112 59.5482 56.9701 59.3125 57.0742 59.0156C57.181 58.7161 57.2344 58.3841 57.2344 58.0195C57.2344 57.6523 57.181 57.3203 57.0742 57.0234C56.9701 56.724 56.8112 56.4857 56.5977 56.3086C56.3867 56.1315 56.1211 56.043 55.8008 56.043C55.4779 56.043 55.2083 56.1315 54.9922 56.3086C54.7786 56.4857 54.6185 56.724 54.5117 57.0234C54.4049 57.3203 54.3516 57.6523 54.3516 58.0195C54.3516 58.3841 54.4049 58.7161 54.5117 59.0156C54.6185 59.3125 54.7786 59.5482 54.9922 59.7227C55.2083 59.8971 55.4779 59.9844 55.8008 59.9844ZM62.8643 55V56.0937H61.6807V59.1953C61.6807 59.4792 61.7432 59.6667 61.8682 59.7578C61.9932 59.8464 62.1442 59.8906 62.3213 59.8906C62.4098 59.8906 62.4906 59.8841 62.5635 59.8711C62.639 59.8581 62.6963 59.8464 62.7354 59.8359L62.9736 60.9414C62.8981 60.9674 62.79 60.9961 62.6494 61.0273C62.5114 61.0586 62.3421 61.0768 62.1416 61.082C61.6104 61.0977 61.1637 60.9674 60.8018 60.6914C60.4424 60.4154 60.264 59.9948 60.2666 59.4297V56.0937H59.415V55H60.2666V53.5625H61.6807V55H62.8643ZM69.7715 55V56.0937H68.5879V59.1953C68.5879 59.4792 68.6504 59.6667 68.7754 59.7578C68.9004 59.8464 69.0514 59.8906 69.2285 59.8906C69.3171 59.8906 69.3978 59.8841 69.4707 59.8711C69.5462 59.8581 69.6035 59.8464 69.6426 59.8359L69.8809 60.9414C69.8053 60.9674 69.6973 60.9961 69.5566 61.0273C69.4186 61.0586 69.2493 61.0768 69.0488 61.082C68.5176 61.0977 68.071 60.9674 67.709 60.6914C67.3496 60.4154 67.1712 59.9948 67.1738 59.4297V56.0937H66.3223V55H67.1738V53.5625H68.5879V55H69.7715ZM73.5068 61.1172C72.9209 61.1172 72.4131 60.9883 71.9834 60.7305C71.5537 60.4727 71.2204 60.112 70.9834 59.6484C70.749 59.1823 70.6318 58.6406 70.6318 58.0234C70.6318 57.4036 70.749 56.862 70.9834 56.3984C71.2204 55.9323 71.5537 55.5703 71.9834 55.3125C72.4131 55.0521 72.9209 54.9219 73.5068 54.9219C74.0928 54.9219 74.6006 55.0521 75.0303 55.3125C75.4626 55.5703 75.7959 55.9323 76.0303 56.3984C76.2646 56.862 76.3818 57.4036 76.3818 58.0234C76.3818 58.6406 76.2646 59.1823 76.0303 59.6484C75.7959 60.112 75.4626 60.4727 75.0303 60.7305C74.6006 60.9883 74.0928 61.1172 73.5068 61.1172ZM73.5146 59.9844C73.835 59.9844 74.1006 59.8971 74.3115 59.7227C74.5251 59.5482 74.6839 59.3125 74.7881 59.0156C74.8949 58.7161 74.9482 58.3841 74.9482 58.0195C74.9482 57.6523 74.8949 57.3203 74.7881 57.0234C74.6839 56.724 74.5251 56.4857 74.3115 56.3086C74.1006 56.1315 73.835 56.043 73.5146 56.043C73.1917 56.043 72.9222 56.1315 72.7061 56.3086C72.4925 56.4857 72.3324 56.724 72.2256 57.0234C72.1188 57.3203 72.0654 57.6523 72.0654 58.0195C72.0654 58.3841 72.1188 58.7161 72.2256 59.0156C72.3324 59.3125 72.4925 59.5482 72.7061 59.7227C72.9222 59.8971 73.1917 59.9844 73.5146 59.9844ZM81.5488 61L79.8535 55H81.2949L82.3496 59.2187H82.4043L83.4824 55H84.9082L85.9863 59.1953H86.0449L87.084 55H88.5293L86.8301 61H85.3574L84.2324 56.9453H84.1504L83.0254 61H81.5488ZM91.9727 61.1172C91.3867 61.1172 90.8789 60.9883 90.4492 60.7305C90.0195 60.4727 89.6862 60.112 89.4492 59.6484C89.2148 59.1823 89.0977 58.6406 89.0977 58.0234C89.0977 57.4036 89.2148 56.862 89.4492 56.3984C89.6862 55.9323 90.0195 55.5703 90.4492 55.3125C90.8789 55.0521 91.3867 54.9219 91.9727 54.9219C92.5586 54.9219 93.0664 55.0521 93.4961 55.3125C93.9284 55.5703 94.2617 55.9323 94.4961 56.3984C94.7305 56.862 94.8477 57.4036 94.8477 58.0234C94.8477 58.6406 94.7305 59.1823 94.4961 59.6484C94.2617 60.112 93.9284 60.4727 93.4961 60.7305C93.0664 60.9883 92.5586 61.1172 91.9727 61.1172ZM91.9805 59.9844C92.3008 59.9844 92.5664 59.8971 92.7773 59.7227C92.9909 59.5482 93.1497 59.3125 93.2539 59.0156C93.3607 58.7161 93.4141 58.3841 93.4141 58.0195C93.4141 57.6523 93.3607 57.3203 93.2539 57.0234C93.1497 56.724 92.9909 56.4857 92.7773 56.3086C92.5664 56.1315 92.3008 56.043 91.9805 56.043C91.6576 56.043 91.388 56.1315 91.1719 56.3086C90.9583 56.4857 90.7982 56.724 90.6914 57.0234C90.5846 57.3203 90.5313 57.6523 90.5313 58.0195C90.5313 58.3841 90.5846 58.7161 90.6914 59.0156C90.7982 59.3125 90.9583 59.5482 91.1719 59.7227C91.388 59.8971 91.6576 59.9844 91.9805 59.9844ZM96.0479 61V55H97.4189V56H97.4814C97.5908 55.651 97.7783 55.3828 98.0439 55.1953C98.3122 55.0078 98.6182 54.9141 98.9619 54.9141C99.04 54.9141 99.1273 54.918 99.2236 54.9258C99.3226 54.931 99.4046 54.9401 99.4697 54.9531V56.2539C99.4098 56.2331 99.3148 56.2148 99.1846 56.1992C99.057 56.181 98.9333 56.1719 98.8135 56.1719C98.4255 56.1719 98.1025 56.2943 97.8447 56.5391C97.5895 56.7812 97.4619 57.0924 97.4619 57.4727V61H96.0479ZM100.409 61V55H101.78V56H101.843C101.952 55.651 102.14 55.3828 102.405 55.1953C102.674 55.0078 102.979 54.9141 103.323 54.9141C103.401 54.9141 103.489 54.918 103.585 54.9258C103.684 54.931 103.766 54.9401 103.831 54.9531V56.2539C103.771 56.2331 103.676 56.2148 103.546 56.1992C103.418 56.181 103.295 56.1719 103.175 56.1719C102.787 56.1719 102.464 56.2943 102.206 56.5391C101.951 56.7812 101.823 57.0924 101.823 57.4727V61H100.409ZM105.781 63.3359C105.576 63.3359 105.396 63.3177 105.242 63.2813C105.089 63.2448 104.971 63.2096 104.891 63.1758L105.219 62.043C105.529 62.1315 105.788 62.1471 105.996 62.0898C106.207 62.0326 106.379 61.8385 106.512 61.5078L106.652 61.125L104.477 55H105.977L107.359 59.5312H107.422L108.809 55H110.313L107.891 61.7812C107.724 62.2526 107.467 62.6289 107.121 62.9102C106.775 63.194 106.328 63.3359 105.781 63.3359ZM112.575 59.9062L112.524 60.3359C112.488 60.6641 112.423 60.9974 112.329 61.3359C112.238 61.6771 112.142 61.9909 112.04 62.2773C111.938 62.5638 111.856 62.7891 111.794 62.9531H110.841C110.88 62.7943 110.931 62.5768 110.993 62.3008C111.056 62.0273 111.117 61.7201 111.177 61.3789C111.237 61.0404 111.277 60.6953 111.298 60.3437L111.325 59.9062H112.575ZM119.258 61.1172C118.672 61.1172 118.164 60.9883 117.734 60.7305C117.305 60.4727 116.971 60.112 116.734 59.6484C116.5 59.1823 116.383 58.6406 116.383 58.0234C116.383 57.4036 116.5 56.862 116.734 56.3984C116.971 55.9323 117.305 55.5703 117.734 55.3125C118.164 55.0521 118.672 54.9219 119.258 54.9219C119.844 54.9219 120.352 55.0521 120.781 55.3125C121.214 55.5703 121.547 55.9323 121.781 56.3984C122.016 56.862 122.133 57.4036 122.133 58.0234C122.133 58.6406 122.016 59.1823 121.781 59.6484C121.547 60.112 121.214 60.4727 120.781 60.7305C120.352 60.9883 119.844 61.1172 119.258 61.1172ZM119.266 59.9844C119.586 59.9844 119.852 59.8971 120.063 59.7227C120.276 59.5482 120.435 59.3125 120.539 59.0156C120.646 58.7161 120.699 58.3841 120.699 58.0195C120.699 57.6523 120.646 57.3203 120.539 57.0234C120.435 56.724 120.276 56.4857 120.063 56.3086C119.852 56.1315 119.586 56.043 119.266 56.043C118.943 56.043 118.673 56.1315 118.457 56.3086C118.243 56.4857 118.083 56.724 117.977 57.0234C117.87 57.3203 117.816 57.6523 117.816 58.0195C117.816 58.3841 117.87 58.7161 117.977 59.0156C118.083 59.3125 118.243 59.5482 118.457 59.7227C118.673 59.8971 118.943 59.9844 119.266 59.9844ZM124.747 57.4844V61H123.333V55H124.685V56.0195H124.755C124.893 55.6862 125.113 55.4206 125.415 55.2227C125.72 55.0221 126.096 54.9219 126.544 54.9219C127.164 54.9219 127.661 55.1185 128.036 55.5117C128.414 55.9049 128.601 56.4609 128.599 57.1797V61H127.185V57.3984C127.185 56.9974 127.08 56.6836 126.872 56.457C126.666 56.2305 126.381 56.1172 126.017 56.1172C125.644 56.1172 125.34 56.237 125.103 56.4766C124.866 56.7135 124.747 57.0495 124.747 57.4844ZM132.653 61.1172C132.057 61.1172 131.544 60.9857 131.114 60.7227C130.685 60.4596 130.354 60.0951 130.122 59.6289C129.893 59.1628 129.778 58.6276 129.778 58.0234C129.778 57.4115 129.896 56.8737 130.13 56.4102C130.364 55.944 130.695 55.5794 131.122 55.3164C131.552 55.0534 132.06 54.9219 132.646 54.9219C133.135 54.9219 133.567 55.0117 133.942 55.1914C134.317 55.3685 134.617 55.6185 134.841 55.9414C135.065 56.2643 135.192 56.6432 135.224 57.0781H133.872C133.817 56.7891 133.687 56.5482 133.481 56.3555C133.278 56.1602 133.006 56.0625 132.665 56.0625C132.23 56.0625 131.879 56.2344 131.61 56.5781C131.345 56.9193 131.212 57.3932 131.212 58C131.212 58.612 131.343 59.0924 131.606 59.4414C131.872 59.7904 132.225 59.9648 132.665 59.9648C132.975 59.9648 133.238 59.8763 133.454 59.6992C133.673 59.5221 133.812 59.2721 133.872 58.9492H135.224C135.19 59.3737 135.065 59.7487 134.849 60.0742C134.632 60.3997 134.338 60.6549 133.966 60.8398C133.593 61.0247 133.156 61.1172 132.653 61.1172ZM139.041 61.1172C138.439 61.1172 137.92 60.9909 137.482 60.7383C137.048 60.4857 136.713 60.1289 136.479 59.668C136.244 59.207 136.127 58.6628 136.127 58.0352C136.127 57.418 136.244 56.8763 136.479 56.4102C136.713 55.9414 137.042 55.5768 137.467 55.3164C137.894 55.0534 138.394 54.9219 138.967 54.9219C139.459 54.9219 139.913 55.0286 140.33 55.2422C140.747 55.4531 141.08 55.7826 141.33 56.2305C141.583 56.6758 141.709 57.25 141.709 57.9531V58.3867H137.529C137.537 58.8997 137.679 59.2995 137.955 59.5859C138.234 59.8724 138.602 60.0156 139.061 60.0156C139.365 60.0156 139.628 59.9505 139.85 59.8203C140.074 59.6875 140.234 59.4948 140.33 59.2422L141.65 59.3906C141.525 59.9115 141.234 60.3294 140.775 60.6445C140.32 60.9596 139.742 61.1172 139.041 61.1172ZM137.533 57.4336H140.354C140.351 57.0247 140.223 56.6875 139.971 56.4219C139.721 56.1562 139.393 56.0234 138.986 56.0234C138.564 56.0234 138.222 56.1628 137.959 56.4414C137.696 56.7201 137.554 57.0508 137.533 57.4336ZM18.5547 76.3359C18.349 76.3359 18.1693 76.3177 18.0156 76.2813C17.862 76.2448 17.7448 76.2096 17.6641 76.1758L17.9922 75.043C18.3021 75.1315 18.5612 75.1471 18.7695 75.0898C18.9805 75.0326 19.1523 74.8385 19.2852 74.5078L19.4258 74.125L17.25 68H18.75L20.1328 72.5312H20.1953L21.582 68H23.0859L20.6641 74.7812C20.4974 75.2526 20.2409 75.6289 19.8945 75.9102C19.5482 76.194 19.1016 76.3359 18.5547 76.3359ZM26.4775 74.1172C25.8916 74.1172 25.3838 73.9883 24.9541 73.7305C24.5244 73.4727 24.1911 73.112 23.9541 72.6484C23.7197 72.1823 23.6025 71.6406 23.6025 71.0234C23.6025 70.4036 23.7197 69.862 23.9541 69.3984C24.1911 68.9323 24.5244 68.5703 24.9541 68.3125C25.3838 68.0521 25.8916 67.9219 26.4775 67.9219C27.0635 67.9219 27.5713 68.0521 28.001 68.3125C28.4333 68.5703 28.7666 68.9323 29.001 69.3984C29.2354 69.862 29.3525 70.4036 29.3525 71.0234C29.3525 71.6406 29.2354 72.1823 29.001 72.6484C28.7666 73.112 28.4333 73.4727 28.001 73.7305C27.5713 73.9883 27.0635 74.1172 26.4775 74.1172ZM26.4854 72.9844C26.8057 72.9844 27.0713 72.8971 27.2822 72.7227C27.4958 72.5482 27.6546 72.3125 27.7588 72.0156C27.8656 71.7161 27.9189 71.3841 27.9189 71.0195C27.9189 70.6523 27.8656 70.3203 27.7588 70.0234C27.6546 69.724 27.4958 69.4857 27.2822 69.3086C27.0713 69.1315 26.8057 69.043 26.4854 69.043C26.1624 69.043 25.8929 69.1315 25.6768 69.3086C25.4632 69.4857 25.3031 69.724 25.1963 70.0234C25.0895 70.3203 25.0361 70.6523 25.0361 71.0195C25.0361 71.3841 25.0895 71.7161 25.1963 72.0156C25.3031 72.3125 25.4632 72.5482 25.6768 72.7227C25.8929 72.8971 26.1624 72.9844 26.4854 72.9844ZM34.377 71.4766V68H35.791V74H34.4199V72.9336H34.3574C34.222 73.2695 33.9993 73.5443 33.6895 73.7578C33.3822 73.9714 33.0033 74.0781 32.5527 74.0781C31.9642 74.0781 31.4837 73.8828 31.1113 73.4922C30.7389 73.099 30.5527 72.5417 30.5527 71.8203V68H31.9668V71.6016C31.9668 71.9818 32.071 72.2839 32.2793 72.5078C32.4876 72.7318 32.7611 72.8437 33.0996 72.8437C33.3079 72.8437 33.5098 72.793 33.7051 72.6914C33.9004 72.5898 34.0605 72.4388 34.1855 72.2383C34.3132 72.0352 34.377 71.7812 34.377 71.4766ZM44.7158 69.5859L43.4268 69.7266C43.3721 69.5286 43.2549 69.3542 43.0752 69.2031C42.8981 69.0521 42.6468 68.9766 42.3213 68.9766C42.027 68.9766 41.7796 69.0404 41.5791 69.168C41.3812 69.2956 41.2835 69.4609 41.2861 69.6641C41.2835 69.8385 41.3473 69.9818 41.4775 70.0937C41.6104 70.2031 41.8291 70.2917 42.1338 70.3594L43.1572 70.5781C44.2796 70.8229 44.8421 71.3646 44.8447 72.2031C44.8447 72.5807 44.7354 72.9141 44.5166 73.2031C44.2979 73.4896 43.9958 73.7135 43.6104 73.875C43.2249 74.0365 42.7822 74.1172 42.2822 74.1172C41.5452 74.1172 40.9541 73.9622 40.5088 73.6523C40.0635 73.3424 39.7965 72.9128 39.708 72.3633L41.0869 72.2305C41.2093 72.7773 41.6064 73.0508 42.2783 73.0508C42.6143 73.0508 42.8838 72.9831 43.0869 72.8477C43.2926 72.7096 43.3955 72.5378 43.3955 72.332C43.3955 71.9961 43.126 71.7682 42.5869 71.6484L41.5635 71.4336C40.988 71.3138 40.5622 71.112 40.2861 70.8281C40.0101 70.5417 39.8734 70.1797 39.876 69.7422C39.876 69.3724 39.9775 69.0521 40.1807 68.7812C40.3838 68.5078 40.6676 68.2969 41.0322 68.1484C41.3968 67.9974 41.82 67.9219 42.3018 67.9219C43.0049 67.9219 43.5583 68.0729 43.9619 68.375C44.3682 68.6745 44.6195 69.0781 44.7158 69.5859ZM49.0068 68V69.0937H47.8232V72.1953C47.8232 72.4792 47.8857 72.6667 48.0107 72.7578C48.1357 72.8464 48.2868 72.8906 48.4639 72.8906C48.5524 72.8906 48.6331 72.8841 48.7061 72.8711C48.7816 72.8581 48.8389 72.8464 48.8779 72.8359L49.1162 73.9414C49.0407 73.9674 48.9326 73.9961 48.792 74.0273C48.654 74.0586 48.4847 74.0768 48.2842 74.082C47.7529 74.0977 47.3063 73.9674 46.9443 73.6914C46.585 73.4154 46.4066 72.9948 46.4092 72.4297V69.0937H45.5576V68H46.4092V66.5625H47.8232V68H49.0068ZM51.916 74.1211C51.3431 74.1211 50.8652 73.9674 50.4824 73.6602C50.0996 73.3529 49.9082 72.9049 49.9082 72.3164C49.9082 71.8659 50.0163 71.5169 50.2324 71.2695C50.4512 71.0195 50.7337 70.8385 51.0801 70.7266C51.429 70.612 51.7975 70.5339 52.1855 70.4922C52.7142 70.4349 53.0931 70.3815 53.3223 70.332C53.554 70.2826 53.6699 70.1562 53.6699 69.9531V69.9297C53.6699 69.6354 53.5827 69.4076 53.4082 69.2461C53.2337 69.0846 52.9824 69.0039 52.6543 69.0039C52.3079 69.0039 52.0332 69.0794 51.8301 69.2305C51.6296 69.3815 51.4941 69.5599 51.4238 69.7656L50.1035 69.5781C50.2598 69.0312 50.5645 68.6185 51.0176 68.3398C51.4733 68.0612 52.0163 67.9219 52.6465 67.9219C52.9329 67.9219 53.2194 67.9557 53.5059 68.0234C53.7923 68.0911 54.054 68.2031 54.291 68.3594C54.5306 68.5156 54.722 68.7266 54.8652 68.9922C55.0111 69.2578 55.084 69.5885 55.084 69.9844V74H53.7246V73.1758H53.6777C53.5501 73.4284 53.3418 73.6497 53.0527 73.8398C52.7663 74.0273 52.3874 74.1211 51.916 74.1211ZM52.2832 73.082C52.7103 73.082 53.0488 72.9596 53.2988 72.7148C53.5488 72.4701 53.6738 72.181 53.6738 71.8477V71.1406C53.6139 71.1901 53.5033 71.2344 53.3418 71.2734C53.1829 71.3099 53.0137 71.3411 52.834 71.3672C52.6543 71.3932 52.502 71.4154 52.377 71.4336C52.0618 71.4779 51.7988 71.5651 51.5879 71.6953C51.377 71.8229 51.2715 72.0221 51.2715 72.293C51.2715 72.5534 51.3665 72.75 51.5566 72.8828C51.7467 73.0156 51.9889 73.082 52.2832 73.082ZM56.5059 74V68H57.877V69H57.9395C58.0488 68.651 58.2363 68.3828 58.502 68.1953C58.7702 68.0078 59.0762 67.9141 59.4199 67.9141C59.498 67.9141 59.5853 67.918 59.6816 67.9258C59.7806 67.931 59.8626 67.9401 59.9277 67.9531V69.2539C59.8678 69.2331 59.7728 69.2148 59.6426 69.1992C59.515 69.181 59.3913 69.1719 59.2715 69.1719C58.8835 69.1719 58.5605 69.2943 58.3027 69.5391C58.0475 69.7812 57.9199 70.0924 57.9199 70.4727V74H56.5059ZM64.2393 68V69.0937H63.0557V72.1953C63.0557 72.4792 63.1182 72.6667 63.2432 72.7578C63.3682 72.8464 63.5192 72.8906 63.6963 72.8906C63.7848 72.8906 63.8656 72.8841 63.9385 72.8711C64.014 72.8581 64.0713 72.8464 64.1104 72.8359L64.3486 73.9414C64.2731 73.9674 64.165 73.9961 64.0244 74.0273C63.8864 74.0586 63.7171 74.0768 63.5166 74.082C62.9854 74.0977 62.5387 73.9674 62.1768 73.6914C61.8174 73.4154 61.639 72.9948 61.6416 72.4297V69.0937H60.79V68H61.6416V66.5625H63.0557V68H64.2393ZM71.1465 68V69.0937H69.9629V72.1953C69.9629 72.4792 70.0254 72.6667 70.1504 72.7578C70.2754 72.8464 70.4264 72.8906 70.6035 72.8906C70.6921 72.8906 70.7728 72.8841 70.8457 72.8711C70.9212 72.8581 70.9785 72.8464 71.0176 72.8359L71.2559 73.9414C71.1803 73.9674 71.0723 73.9961 70.9316 74.0273C70.7936 74.0586 70.6243 74.0768 70.4238 74.082C69.8926 74.0977 69.446 73.9674 69.084 73.6914C68.7246 73.4154 68.5462 72.9948 68.5488 72.4297V69.0937H67.6973V68H68.5488V66.5625H69.9629V68H71.1465ZM73.8721 70.4844V74H72.458V66H73.8408V69.0195H73.9111C74.0492 68.6784 74.2653 68.4102 74.5596 68.2148C74.8564 68.0195 75.2354 67.9219 75.6963 67.9219C76.3187 67.9219 76.8187 68.1172 77.1963 68.5078C77.5739 68.8984 77.7627 69.4557 77.7627 70.1797V74H76.3486V70.3984C76.3486 69.9948 76.2445 69.681 76.0361 69.457C75.8304 69.2305 75.5413 69.1172 75.1689 69.1172C74.7913 69.1172 74.4801 69.237 74.2354 69.4766C73.9932 69.7135 73.8721 70.0495 73.8721 70.4844ZM81.8604 74.1172C81.2588 74.1172 80.7393 73.9909 80.3018 73.7383C79.8669 73.4857 79.5322 73.1289 79.2979 72.668C79.0635 72.207 78.9463 71.6628 78.9463 71.0352C78.9463 70.418 79.0635 69.8763 79.2979 69.4102C79.5322 68.9414 79.8617 68.5768 80.2861 68.3164C80.7132 68.0534 81.2132 67.9219 81.7861 67.9219C82.2783 67.9219 82.7327 68.0286 83.1494 68.2422C83.5661 68.4531 83.8994 68.7826 84.1494 69.2305C84.402 69.6758 84.5283 70.25 84.5283 70.9531V71.3867H80.3486C80.3564 71.8997 80.4984 72.2995 80.7744 72.5859C81.0531 72.8724 81.4215 73.0156 81.8799 73.0156C82.1846 73.0156 82.4476 72.9505 82.6689 72.8203C82.8929 72.6875 83.0531 72.4948 83.1494 72.2422L84.4697 72.3906C84.3447 72.9115 84.0531 73.3294 83.5947 73.6445C83.139 73.9596 82.5609 74.1172 81.8604 74.1172ZM80.3525 70.4336H83.1729C83.1702 70.0247 83.0426 69.6875 82.79 69.4219C82.54 69.1562 82.2119 69.0234 81.8057 69.0234C81.3838 69.0234 81.0413 69.1628 80.7783 69.4414C80.5153 69.7201 80.3734 70.0508 80.3525 70.4336ZM91.5313 68V69.0937H90.2852V74H88.8711V69.0937H87.9844V68H88.8711V67.4336C88.8711 67.0299 88.9544 66.694 89.1211 66.4258C89.2904 66.1576 89.5169 65.957 89.8008 65.8242C90.0846 65.6914 90.3997 65.625 90.7461 65.625C90.9909 65.625 91.2083 65.6445 91.3984 65.6836C91.5885 65.7227 91.7292 65.7578 91.8203 65.7891L91.5352 66.8828C91.4779 66.8646 91.4036 66.8464 91.3125 66.8281C91.2214 66.8073 91.1198 66.7969 91.0078 66.7969C90.7448 66.7969 90.5586 66.8607 90.4492 66.9883C90.3398 67.1133 90.2852 67.293 90.2852 67.5273V68H91.5313ZM94.1221 74.1211C93.5492 74.1211 93.0713 73.9674 92.6885 73.6602C92.3057 73.3529 92.1143 72.9049 92.1143 72.3164C92.1143 71.8659 92.2223 71.5169 92.4385 71.2695C92.6572 71.0195 92.9398 70.8385 93.2861 70.7266C93.6351 70.612 94.0036 70.5339 94.3916 70.4922C94.9202 70.4349 95.2992 70.3815 95.5283 70.332C95.7601 70.2826 95.876 70.1562 95.876 69.9531V69.9297C95.876 69.6354 95.7887 69.4076 95.6143 69.2461C95.4398 69.0846 95.1885 69.0039 94.8604 69.0039C94.514 69.0039 94.2393 69.0794 94.0361 69.2305C93.8356 69.3815 93.7002 69.5599 93.6299 69.7656L92.3096 69.5781C92.4658 69.0312 92.7705 68.6185 93.2236 68.3398C93.6794 68.0612 94.2223 67.9219 94.8525 67.9219C95.139 67.9219 95.4255 67.9557 95.7119 68.0234C95.9984 68.0911 96.2601 68.2031 96.4971 68.3594C96.7367 68.5156 96.9281 68.7266 97.0713 68.9922C97.2171 69.2578 97.29 69.5885 97.29 69.9844V74H95.9307V73.1758H95.8838C95.7562 73.4284 95.5479 73.6497 95.2588 73.8398C94.9723 74.0273 94.5934 74.1211 94.1221 74.1211ZM94.4893 73.082C94.9163 73.082 95.2549 72.9596 95.5049 72.7148C95.7549 72.4701 95.8799 72.181 95.8799 71.8477V71.1406C95.82 71.1901 95.7093 71.2344 95.5479 71.2734C95.389 71.3099 95.2197 71.3411 95.04 71.3672C94.8604 71.3932 94.708 71.4154 94.583 71.4336C94.2679 71.4779 94.0049 71.5651 93.7939 71.6953C93.583 71.8229 93.4775 72.0221 93.4775 72.293C93.4775 72.5534 93.5726 72.75 93.7627 72.8828C93.9528 73.0156 94.195 73.082 94.4893 73.082ZM101.329 74.1172C100.733 74.1172 100.22 73.9857 99.79 73.7227C99.3604 73.4596 99.0296 73.0951 98.7979 72.6289C98.5687 72.1628 98.4541 71.6276 98.4541 71.0234C98.4541 70.4115 98.5713 69.8737 98.8057 69.4102C99.04 68.944 99.3708 68.5794 99.7979 68.3164C100.228 68.0534 100.735 67.9219 101.321 67.9219C101.811 67.9219 102.243 68.0117 102.618 68.1914C102.993 68.3685 103.293 68.6185 103.517 68.9414C103.741 69.2643 103.868 69.6432 103.899 70.0781H102.548C102.493 69.7891 102.363 69.5482 102.157 69.3555C101.954 69.1602 101.682 69.0625 101.341 69.0625C100.906 69.0625 100.554 69.2344 100.286 69.5781C100.021 69.9193 99.8877 70.3932 99.8877 71C99.8877 71.612 100.019 72.0924 100.282 72.4414C100.548 72.7904 100.901 72.9648 101.341 72.9648C101.651 72.9648 101.914 72.8763 102.13 72.6992C102.349 72.5221 102.488 72.2721 102.548 71.9492H103.899C103.866 72.3737 103.741 72.7487 103.524 73.0742C103.308 73.3997 103.014 73.6549 102.642 73.8398C102.269 74.0247 101.832 74.1172 101.329 74.1172ZM108.057 68V69.0937H106.873V72.1953C106.873 72.4792 106.936 72.6667 107.061 72.7578C107.186 72.8464 107.337 72.8906 107.514 72.8906C107.602 72.8906 107.683 72.8841 107.756 72.8711C107.831 72.8581 107.889 72.8464 107.928 72.8359L108.166 73.9414C108.09 73.9674 107.982 73.9961 107.842 74.0273C107.704 74.0586 107.535 74.0768 107.334 74.082C106.803 74.0977 106.356 73.9674 105.994 73.6914C105.635 73.4154 105.456 72.9948 105.459 72.4297V69.0937H104.607V68H105.459V66.5625H106.873V68H108.057ZM111.792 74.1172C111.206 74.1172 110.698 73.9883 110.269 73.7305C109.839 73.4727 109.506 73.112 109.269 72.6484C109.034 72.1823 108.917 71.6406 108.917 71.0234C108.917 70.4036 109.034 69.862 109.269 69.3984C109.506 68.9323 109.839 68.5703 110.269 68.3125C110.698 68.0521 111.206 67.9219 111.792 67.9219C112.378 67.9219 112.886 68.0521 113.315 68.3125C113.748 68.5703 114.081 68.9323 114.315 69.3984C114.55 69.862 114.667 70.4036 114.667 71.0234C114.667 71.6406 114.55 72.1823 114.315 72.6484C114.081 73.112 113.748 73.4727 113.315 73.7305C112.886 73.9883 112.378 74.1172 111.792 74.1172ZM111.8 72.9844C112.12 72.9844 112.386 72.8971 112.597 72.7227C112.81 72.5482 112.969 72.3125 113.073 72.0156C113.18 71.7161 113.233 71.3841 113.233 71.0195C113.233 70.6523 113.18 70.3203 113.073 70.0234C112.969 69.724 112.81 69.4857 112.597 69.3086C112.386 69.1315 112.12 69.043 111.8 69.043C111.477 69.043 111.207 69.1315 110.991 69.3086C110.778 69.4857 110.618 69.724 110.511 70.0234C110.404 70.3203 110.351 70.6523 110.351 71.0195C110.351 71.3841 110.404 71.7161 110.511 72.0156C110.618 72.3125 110.778 72.5482 110.991 72.7227C111.207 72.8971 111.477 72.9844 111.8 72.9844ZM115.867 74V68H117.238V69H117.301C117.41 68.651 117.598 68.3828 117.863 68.1953C118.129 68.0078 118.435 67.9141 118.781 67.9141C118.943 67.9141 119.091 67.9336 119.227 67.9727C119.362 68.0117 119.482 68.0651 119.586 68.1328L119.148 69.3047C119.073 69.2682 118.99 69.2383 118.898 69.2148C118.807 69.1914 118.704 69.1797 118.59 69.1797C118.22 69.1797 117.909 69.3008 117.656 69.543C117.406 69.7826 117.281 70.0924 117.281 70.4727V74H115.867ZM22.4688 82.5859L21.1797 82.7266C21.125 82.5286 21.0078 82.3542 20.8281 82.2031C20.651 82.0521 20.3997 81.9766 20.0742 81.9766C19.7799 81.9766 19.5326 82.0404 19.332 82.168C19.1341 82.2956 19.0365 82.4609 19.0391 82.6641C19.0365 82.8385 19.1003 82.9818 19.2305 83.0937C19.3633 83.2031 19.582 83.2917 19.8867 83.3594L20.9102 83.5781C22.0326 83.8229 22.5951 84.3646 22.5977 85.2031C22.5977 85.5807 22.4883 85.9141 22.2695 86.2031C22.0508 86.4896 21.7487 86.7135 21.3633 86.875C20.9779 87.0365 20.5352 87.1172 20.0352 87.1172C19.2982 87.1172 18.707 86.9622 18.2617 86.6523C17.8164 86.3424 17.5495 85.9128 17.4609 85.3633L18.8398 85.2305C18.9622 85.7773 19.3594 86.0508 20.0313 86.0508C20.3672 86.0508 20.6367 85.9831 20.8398 85.8477C21.0456 85.7096 21.1484 85.5378 21.1484 85.332C21.1484 84.9961 20.8789 84.7682 20.3398 84.6484L19.3164 84.4336C18.7409 84.3138 18.3151 84.112 18.0391 83.8281C17.763 83.5417 17.6263 83.1797 17.6289 82.7422C17.6289 82.3724 17.7305 82.0521 17.9336 81.7812C18.1367 81.5078 18.4206 81.2969 18.7852 81.1484C19.1497 80.9974 19.5729 80.9219 20.0547 80.9219C20.7578 80.9219 21.3112 81.0729 21.7148 81.375C22.1211 81.6745 22.3724 82.0781 22.4688 82.5859ZM27.5879 84.4766V81H29.002V87H27.6309V85.9336H27.5684C27.4329 86.2695 27.2103 86.5443 26.9004 86.7578C26.5931 86.9714 26.2142 87.0781 25.7637 87.0781C25.1751 87.0781 24.6947 86.8828 24.3223 86.4922C23.9499 86.099 23.7637 85.5417 23.7637 84.8203V81H25.1777V84.6016C25.1777 84.9818 25.2819 85.2839 25.4902 85.5078C25.6986 85.7318 25.972 85.8437 26.3105 85.8437C26.5189 85.8437 26.7207 85.793 26.916 85.6914C27.1113 85.5898 27.2715 85.4388 27.3965 85.2383C27.5241 85.0352 27.5879 84.7812 27.5879 84.4766ZM30.4561 87V81H31.8271V82H31.8896C31.999 81.651 32.1865 81.3828 32.4521 81.1953C32.7204 81.0078 33.0264 80.9141 33.3701 80.9141C33.4482 80.9141 33.5355 80.918 33.6318 80.9258C33.7308 80.931 33.8128 80.9401 33.8779 80.9531V82.2539C33.818 82.2331 33.723 82.2148 33.5928 82.1992C33.4652 82.181 33.3415 82.1719 33.2217 82.1719C32.8337 82.1719 32.5107 82.2943 32.2529 82.5391C31.9977 82.7812 31.8701 83.0924 31.8701 83.4727V87H30.4561ZM40.3594 81L38.2227 87H36.6602L34.5234 81H36.0313L37.4102 85.457H37.4727L38.8555 81H40.3594ZM43.79 87.1172C43.1885 87.1172 42.6689 86.9909 42.2314 86.7383C41.7965 86.4857 41.4619 86.1289 41.2275 85.668C40.9932 85.207 40.876 84.6628 40.876 84.0352C40.876 83.418 40.9932 82.8763 41.2275 82.4102C41.4619 81.9414 41.7913 81.5768 42.2158 81.3164C42.6429 81.0534 43.1429 80.9219 43.7158 80.9219C44.208 80.9219 44.6624 81.0286 45.0791 81.2422C45.4958 81.4531 45.8291 81.7826 46.0791 82.2305C46.3317 82.6758 46.458 83.25 46.458 83.9531V84.3867H42.2783C42.2861 84.8997 42.4281 85.2995 42.7041 85.5859C42.9827 85.8724 43.3512 86.0156 43.8096 86.0156C44.1143 86.0156 44.3773 85.9505 44.5986 85.8203C44.8226 85.6875 44.9827 85.4948 45.0791 85.2422L46.3994 85.3906C46.2744 85.9115 45.9827 86.3294 45.5244 86.6445C45.0687 86.9596 44.4906 87.1172 43.79 87.1172ZM42.2822 83.4336H45.1025C45.0999 83.0247 44.9723 82.6875 44.7197 82.4219C44.4697 82.1562 44.1416 82.0234 43.7354 82.0234C43.3135 82.0234 42.971 82.1628 42.708 82.4414C42.445 82.7201 42.3031 83.0508 42.2822 83.4336ZM48.418 89.3359C48.2122 89.3359 48.0326 89.3177 47.8789 89.2813C47.7253 89.2448 47.6081 89.2096 47.5273 89.1758L47.8555 88.043C48.1654 88.1315 48.4245 88.1471 48.6328 88.0898C48.8438 88.0326 49.0156 87.8385 49.1484 87.5078L49.2891 87.125L47.1133 81H48.6133L49.9961 85.5312H50.0586L51.4453 81H52.9492L50.5273 87.7812C50.3607 88.2526 50.1042 88.6289 49.7578 88.9102C49.4115 89.194 48.9648 89.3359 48.418 89.3359ZM59.6523 81V82.0937H58.4688V85.1953C58.4688 85.4792 58.5313 85.6667 58.6563 85.7578C58.7813 85.8464 58.9323 85.8906 59.1094 85.8906C59.1979 85.8906 59.2786 85.8841 59.3516 85.8711C59.4271 85.8581 59.4844 85.8464 59.5234 85.8359L59.7617 86.9414C59.6862 86.9674 59.5781 86.9961 59.4375 87.0273C59.2995 87.0586 59.1302 87.0768 58.9297 87.082C58.3984 87.0977 57.9518 86.9674 57.5898 86.6914C57.2305 86.4154 57.0521 85.9948 57.0547 85.4297V82.0937H56.2031V81H57.0547V79.5625H58.4688V81H59.6523ZM62.3779 83.4844V87H60.9639V79H62.3467V82.0195H62.417C62.555 81.6784 62.7712 81.4102 63.0654 81.2148C63.3623 81.0195 63.7412 80.9219 64.2021 80.9219C64.8245 80.9219 65.3245 81.1172 65.7021 81.5078C66.0798 81.8984 66.2686 82.4557 66.2686 83.1797V87H64.8545V83.3984C64.8545 82.9948 64.7503 82.681 64.542 82.457C64.3363 82.2305 64.0472 82.1172 63.6748 82.1172C63.2972 82.1172 62.986 82.237 62.7412 82.4766C62.499 82.7135 62.3779 83.0495 62.3779 83.4844ZM67.71 87V81H69.124V87H67.71ZM68.4209 80.1484C68.1943 80.1484 68.0003 80.0742 67.8389 79.9258C67.68 79.7747 67.6006 79.5937 67.6006 79.3828C67.6006 79.1693 67.68 78.9883 67.8389 78.8398C68.0003 78.6888 68.1943 78.6133 68.4209 78.6133C68.6449 78.6133 68.8363 78.6888 68.9951 78.8398C69.1566 78.9883 69.2373 79.1693 69.2373 79.3828C69.2373 79.5937 69.1566 79.7747 68.9951 79.9258C68.8363 80.0742 68.6449 80.1484 68.4209 80.1484ZM75.3203 82.5859L74.0313 82.7266C73.9766 82.5286 73.8594 82.3542 73.6797 82.2031C73.5026 82.0521 73.2513 81.9766 72.9258 81.9766C72.6315 81.9766 72.3841 82.0404 72.1836 82.168C71.9857 82.2956 71.888 82.4609 71.8906 82.6641C71.888 82.8385 71.9518 82.9818 72.082 83.0937C72.2148 83.2031 72.4336 83.2917 72.7383 83.3594L73.7617 83.5781C74.8841 83.8229 75.4466 84.3646 75.4492 85.2031C75.4492 85.5807 75.3398 85.9141 75.1211 86.2031C74.9023 86.4896 74.6003 86.7135 74.2148 86.875C73.8294 87.0365 73.3867 87.1172 72.8867 87.1172C72.1497 87.1172 71.5586 86.9622 71.1133 86.6523C70.668 86.3424 70.401 85.9128 70.3125 85.3633L71.6914 85.2305C71.8138 85.7773 72.2109 86.0508 72.8828 86.0508C73.2188 86.0508 73.4883 85.9831 73.6914 85.8477C73.8971 85.7096 74 85.5378 74 85.332C74 84.9961 73.7305 84.7682 73.1914 84.6484L72.168 84.4336C71.5924 84.3138 71.1667 84.112 70.8906 83.8281C70.6146 83.5417 70.4779 83.1797 70.4805 82.7422C70.4805 82.3724 70.582 82.0521 70.7852 81.7812C70.9883 81.5078 71.2721 81.2969 71.6367 81.1484C72.0013 80.9974 72.4245 80.9219 72.9063 80.9219C73.6094 80.9219 74.1628 81.0729 74.5664 81.375C74.9727 81.6745 75.224 82.0781 75.3203 82.5859ZM80.582 87L78.8867 81H80.3281L81.3828 85.2187H81.4375L82.5156 81H83.9414L85.0195 85.1953H85.0781L86.1172 81H87.5625L85.8633 87H84.3906L83.2656 82.9453H83.1836L82.0586 87H80.582ZM88.5498 87V81H89.9639V87H88.5498ZM89.2607 80.1484C89.0342 80.1484 88.8402 80.0742 88.6787 79.9258C88.5199 79.7747 88.4404 79.5937 88.4404 79.3828C88.4404 79.1693 88.5199 78.9883 88.6787 78.8398C88.8402 78.6888 89.0342 78.6133 89.2607 78.6133C89.4847 78.6133 89.6761 78.6888 89.835 78.8398C89.9964 78.9883 90.0771 79.1693 90.0771 79.3828C90.0771 79.5937 89.9964 79.7747 89.835 79.9258C89.6761 80.0742 89.4847 80.1484 89.2607 80.1484ZM92.832 79V87H91.418V79H92.832ZM95.7002 79V87H94.2861V79H95.7002ZM99.8828 89.25V81H101.273V81.9922H101.355C101.428 81.8464 101.53 81.6914 101.66 81.5273C101.793 81.3607 101.973 81.2187 102.199 81.1016C102.428 80.9818 102.719 80.9219 103.07 80.9219C103.534 80.9219 103.952 81.0404 104.324 81.2773C104.699 81.5143 104.996 81.862 105.215 82.3203C105.436 82.7786 105.547 83.3411 105.547 84.0078C105.547 84.6667 105.439 85.2266 105.223 85.6875C105.007 86.1484 104.712 86.5 104.34 86.7422C103.967 86.9844 103.546 87.1055 103.074 87.1055C102.73 87.1055 102.445 87.0482 102.219 86.9336C101.992 86.819 101.81 86.681 101.672 86.5195C101.536 86.3555 101.431 86.2005 101.355 86.0547H101.297V89.25H99.8828ZM101.27 84C101.27 84.5807 101.392 85.0508 101.637 85.4102C101.882 85.7669 102.229 85.9453 102.68 85.9453C103.146 85.9453 103.5 85.7617 103.742 85.3945C103.984 85.0273 104.105 84.5625 104.105 84C104.105 83.4401 103.986 82.9805 103.746 82.6211C103.507 82.2617 103.151 82.082 102.68 82.082C102.224 82.082 101.875 82.2565 101.633 82.6055C101.391 82.9518 101.27 83.4167 101.27 84ZM109.375 87.1172C108.789 87.1172 108.281 86.9883 107.852 86.7305C107.422 86.4727 107.089 86.112 106.852 85.6484C106.617 85.1823 106.5 84.6406 106.5 84.0234C106.5 83.4036 106.617 82.862 106.852 82.3984C107.089 81.9323 107.422 81.5703 107.852 81.3125C108.281 81.0521 108.789 80.9219 109.375 80.9219C109.961 80.9219 110.469 81.0521 110.898 81.3125C111.331 81.5703 111.664 81.9323 111.898 82.3984C112.133 82.862 112.25 83.4036 112.25 84.0234C112.25 84.6406 112.133 85.1823 111.898 85.6484C111.664 86.112 111.331 86.4727 110.898 86.7305C110.469 86.9883 109.961 87.1172 109.375 87.1172ZM109.383 85.9844C109.703 85.9844 109.969 85.8971 110.18 85.7227C110.393 85.5482 110.552 85.3125 110.656 85.0156C110.763 84.7161 110.816 84.3841 110.816 84.0195C110.816 83.6523 110.763 83.3203 110.656 83.0234C110.552 82.724 110.393 82.4857 110.18 82.3086C109.969 82.1315 109.703 82.043 109.383 82.043C109.06 82.043 108.79 82.1315 108.574 82.3086C108.361 82.4857 108.201 82.724 108.094 83.0234C107.987 83.3203 107.934 83.6523 107.934 84.0195C107.934 84.3841 107.987 84.7161 108.094 85.0156C108.201 85.3125 108.361 85.5482 108.574 85.7227C108.79 85.8971 109.06 85.9844 109.383 85.9844ZM113.45 89.25V81H114.841V81.9922H114.923C114.996 81.8464 115.097 81.6914 115.228 81.5273C115.36 81.3607 115.54 81.2187 115.767 81.1016C115.996 80.9818 116.286 80.9219 116.638 80.9219C117.101 80.9219 117.519 81.0404 117.892 81.2773C118.267 81.5143 118.563 81.862 118.782 82.3203C119.004 82.7786 119.114 83.3411 119.114 84.0078C119.114 84.6667 119.006 85.2266 118.79 85.6875C118.574 86.1484 118.28 86.5 117.907 86.7422C117.535 86.9844 117.113 87.1055 116.642 87.1055C116.298 87.1055 116.013 87.0482 115.786 86.9336C115.56 86.819 115.377 86.681 115.239 86.5195C115.104 86.3555 114.998 86.2005 114.923 86.0547H114.864V89.25H113.45ZM114.837 84C114.837 84.5807 114.959 85.0508 115.204 85.4102C115.449 85.7669 115.797 85.9453 116.247 85.9453C116.713 85.9453 117.067 85.7617 117.31 85.3945C117.552 85.0273 117.673 84.5625 117.673 84C117.673 83.4401 117.553 82.9805 117.313 82.6211C117.074 82.2617 116.718 82.082 116.247 82.082C115.791 82.082 115.442 82.2565 115.2 82.6055C114.958 82.9518 114.837 83.4167 114.837 84ZM124.149 84.4766V81H125.563V87H124.192V85.9336H124.13C123.994 86.2695 123.772 86.5443 123.462 86.7578C123.155 86.9714 122.776 87.0781 122.325 87.0781C121.737 87.0781 121.256 86.8828 120.884 86.4922C120.511 86.099 120.325 85.5417 120.325 84.8203V81H121.739V84.6016C121.739 84.9818 121.843 85.2839 122.052 85.5078C122.26 85.7318 122.534 85.8437 122.872 85.8437C123.08 85.8437 123.282 85.793 123.478 85.6914C123.673 85.5898 123.833 85.4388 123.958 85.2383C124.086 85.0352 124.149 84.7812 124.149 84.4766ZM128.432 79V87H127.018V79H128.432ZM131.612 87.1211C131.039 87.1211 130.562 86.9674 130.179 86.6602C129.796 86.3529 129.604 85.9049 129.604 85.3164C129.604 84.8659 129.713 84.5169 129.929 84.2695C130.147 84.0195 130.43 83.8385 130.776 83.7266C131.125 83.612 131.494 83.5339 131.882 83.4922C132.41 83.4349 132.789 83.3815 133.019 83.332C133.25 83.2826 133.366 83.1562 133.366 82.9531V82.9297C133.366 82.6354 133.279 82.4076 133.104 82.2461C132.93 82.0846 132.679 82.0039 132.351 82.0039C132.004 82.0039 131.729 82.0794 131.526 82.2305C131.326 82.3815 131.19 82.5599 131.12 82.7656L129.8 82.5781C129.956 82.0312 130.261 81.6185 130.714 81.3398C131.17 81.0612 131.713 80.9219 132.343 80.9219C132.629 80.9219 132.916 80.9557 133.202 81.0234C133.489 81.0911 133.75 81.2031 133.987 81.3594C134.227 81.5156 134.418 81.7266 134.562 81.9922C134.707 82.2578 134.78 82.5885 134.78 82.9844V87H133.421V86.1758H133.374C133.246 86.4284 133.038 86.6497 132.749 86.8398C132.463 87.0273 132.084 87.1211 131.612 87.1211ZM131.979 86.082C132.407 86.082 132.745 85.9596 132.995 85.7148C133.245 85.4701 133.37 85.181 133.37 84.8477V84.1406C133.31 84.1901 133.2 84.2344 133.038 84.2734C132.879 84.3099 132.71 84.3411 132.53 84.3672C132.351 84.3932 132.198 84.4154 132.073 84.4336C131.758 84.4779 131.495 84.5651 131.284 84.6953C131.073 84.8229 130.968 85.0221 130.968 85.293C130.968 85.5534 131.063 85.75 131.253 85.8828C131.443 86.0156 131.685 86.082 131.979 86.082ZM139.198 81V82.0937H138.015V85.1953C138.015 85.4792 138.077 85.6667 138.202 85.7578C138.327 85.8464 138.478 85.8906 138.655 85.8906C138.744 85.8906 138.825 85.8841 138.897 85.8711C138.973 85.8581 139.03 85.8464 139.069 85.8359L139.308 86.9414C139.232 86.9674 139.124 86.9961 138.983 87.0273C138.845 87.0586 138.676 87.0768 138.476 87.082C137.944 87.0977 137.498 86.9674 137.136 86.6914C136.776 86.4154 136.598 85.9948 136.601 85.4297V82.0937H135.749V81H136.601V79.5625H138.015V81H139.198ZM142.973 87.1172C142.371 87.1172 141.852 86.9909 141.414 86.7383C140.979 86.4857 140.645 86.1289 140.41 85.668C140.176 85.207 140.059 84.6628 140.059 84.0352C140.059 83.418 140.176 82.8763 140.41 82.4102C140.645 81.9414 140.974 81.5768 141.398 81.3164C141.826 81.0534 142.326 80.9219 142.898 80.9219C143.391 80.9219 143.845 81.0286 144.262 81.2422C144.678 81.4531 145.012 81.7826 145.262 82.2305C145.514 82.6758 145.641 83.25 145.641 83.9531V84.3867H141.461C141.469 84.8997 141.611 85.2995 141.887 85.5859C142.165 85.8724 142.534 86.0156 142.992 86.0156C143.297 86.0156 143.56 85.9505 143.781 85.8203C144.005 85.6875 144.165 85.4948 144.262 85.2422L145.582 85.3906C145.457 85.9115 145.165 86.3294 144.707 86.6445C144.251 86.9596 143.673 87.1172 142.973 87.1172ZM141.465 83.4336H144.285C144.283 83.0247 144.155 82.6875 143.902 82.4219C143.652 82.1562 143.324 82.0234 142.918 82.0234C142.496 82.0234 142.154 82.1628 141.891 82.4414C141.628 82.7201 141.486 83.0508 141.465 83.4336Z" fill="white"/>
<path d="M8.52942 95.252L-3.55199e-07 87.126L8.52942 79.001L8.52942 95.252Z" fill="#F86239"/>
</svg>
