<svg width="143" height="75" viewBox="0 0 143 75" fill="none" xmlns="http://www.w3.org/2000/svg">
<path d="M1.64453 19.3014V1.25177H6.73714C8.30769 1.25177 9.69552 1.59776 10.9006 2.29362C12.1058 2.98948 13.0388 3.9769 13.6957 5.25588C14.3527 6.53487 14.6871 8.00823 14.6948 9.66819V10.8189C14.6948 12.5216 14.3683 14.0144 13.7113 15.2934C13.0543 16.5724 12.1174 17.5559 10.8968 18.244C9.67608 18.9282 8.25715 19.2819 6.63996 19.2975H1.64453V19.3014ZM4.02368 3.19941V17.3537H6.52722C8.36211 17.3537 9.78882 16.7823 10.8112 15.6433C11.8336 14.5003 12.3429 12.8754 12.3429 10.7683V9.71483C12.3429 7.66224 11.8609 6.06837 10.8968 4.93322C9.93266 3.79419 8.56815 3.21884 6.79934 3.20329H4.02368V3.19941ZM23.7294 19.5502C21.91 19.5502 20.4328 18.9515 19.2937 17.758C18.1547 16.5646 17.5832 14.9668 17.5832 12.9687V12.5488C17.5832 11.2193 17.8359 10.0297 18.3452 8.98398C18.8544 7.93825 19.5659 7.12188 20.4755 6.53098C21.3852 5.94008 22.3765 5.64463 23.4456 5.64463C25.191 5.64463 26.5439 6.21998 27.5119 7.36679C28.4799 8.5136 28.9619 10.158 28.9619 12.3V13.2563H19.8769C19.908 14.5781 20.2967 15.6471 21.0353 16.4596C21.7739 17.2721 22.7147 17.6803 23.8537 17.6803C24.6623 17.6803 25.3504 17.5131 25.9102 17.1827C26.4739 16.8523 26.9637 16.413 27.3875 15.8687L28.787 16.9611C27.6635 18.6872 25.9763 19.5502 23.7294 19.5502ZM23.4456 7.52618C22.5203 7.52618 21.7428 7.86439 21.117 8.53692C20.4872 9.20946 20.1023 10.1541 19.9507 11.3709H26.6683V11.196C26.6022 10.0297 26.2873 9.12782 25.7275 8.48639C25.1638 7.84884 24.4019 7.52618 23.4456 7.52618ZM33.4792 19.3014V7.66224H31.3605V5.88955H33.4792V4.51337C33.4792 3.075 33.864 1.96318 34.6338 1.17791C35.4035 0.392636 36.4881 0 37.8954 0C38.4241 0 38.9489 0.0699781 39.4698 0.209928L39.3454 2.05648C38.9566 1.98262 38.5446 1.94374 38.1053 1.94374C37.3628 1.94374 36.7874 2.16145 36.3831 2.59684C35.9788 3.03224 35.7767 3.65424 35.7767 4.46672V5.88566H38.6418V7.65835H35.7767V19.2975H33.4792V19.3014ZM41.9306 2.33249C41.9306 1.95929 42.0433 1.6483 42.2727 1.39172C42.4981 1.13515 42.8363 1.00686 43.2834 1.00686C43.7305 1.00686 44.0687 1.13515 44.2981 1.39172C44.5313 1.6483 44.644 1.96318 44.644 2.33249C44.644 2.70569 44.5274 3.0128 44.2981 3.2616C44.0648 3.5104 43.7266 3.6348 43.2834 3.6348C42.8363 3.6348 42.502 3.5104 42.2727 3.2616C42.0433 3.0128 41.9306 2.70569 41.9306 2.33249ZM44.4069 19.3014H42.1133V5.88955H44.4069V19.3014ZM50.7785 5.88955L50.8524 7.57671C51.8748 6.28607 53.2159 5.64463 54.8681 5.64463C57.7021 5.64463 59.1327 7.24239 59.156 10.4418V19.3053H56.8624V10.4301C56.8546 9.46214 56.633 8.74685 56.1976 8.28424C55.7622 7.82163 55.0897 7.58838 54.1723 7.58838C53.4298 7.58838 52.7767 7.78664 52.213 8.18316C51.6493 8.57969 51.2139 9.10061 50.899 9.74593V19.3014H48.6054V5.88955H50.7785ZM68.7154 19.5502C66.896 19.5502 65.4188 18.9515 64.2797 17.758C63.1407 16.5646 62.5692 14.9668 62.5692 12.9687V12.5488C62.5692 11.2193 62.8219 10.0297 63.3312 8.98398C63.8405 7.93825 64.5519 7.12188 65.4615 6.53098C66.3712 5.94008 67.3625 5.64463 68.4316 5.64463C70.1771 5.64463 71.5299 6.21998 72.4979 7.36679C73.4659 8.5136 73.9479 10.158 73.9479 12.3V13.2563H64.8629C64.894 14.5781 65.2827 15.6471 66.0213 16.4596C66.7599 17.2721 67.7007 17.6803 68.8398 17.6803C69.6483 17.6803 70.3364 17.5131 70.8962 17.1827C71.4599 16.8523 71.9498 16.413 72.3735 15.8687L73.773 16.9611C72.6495 18.6872 70.9623 19.5502 68.7154 19.5502ZM68.4316 7.52618C67.5063 7.52618 66.7289 7.86439 66.103 8.53692C65.4732 9.20946 65.0883 10.1541 64.9367 11.3709H71.6543V11.196C71.5882 10.0297 71.2733 9.12782 70.7135 8.48639C70.1498 7.84884 69.3879 7.52618 68.4316 7.52618Z" fill="#00B2E3"/>
<path d="M80.957 16.2144V8.22949L89.2179 12.2219L80.957 16.2144Z" fill="#00B2E3"/>
<path d="M11.713 41.9416H4.15183L2.453 46.6649H0L6.89251 28.6153H8.97621L15.8804 46.6649H13.439L11.713 41.9416ZM4.87102 39.9979H11.0055L7.93047 31.5582L4.87102 39.9979ZM21.4823 46.6649H19.1886V27.624H21.4823V46.6649ZM26.3727 29.6961C26.3727 29.3229 26.4855 29.0119 26.7148 28.7553C26.9403 28.4987 27.2785 28.3704 27.7256 28.3704C28.1726 28.3704 28.5108 28.4987 28.7402 28.7553C28.9734 29.0119 29.0862 29.3267 29.0862 29.6961C29.0862 30.0654 28.9696 30.3764 28.7402 30.6252C28.5069 30.874 28.1687 30.9984 27.7256 30.9984C27.2785 30.9984 26.9442 30.874 26.7148 30.6252C26.4855 30.3764 26.3727 30.0693 26.3727 29.6961ZM28.8529 46.6649H26.5593V33.2531H28.8529V46.6649ZM32.7171 39.8502C32.7171 37.7587 33.1991 36.0949 34.1671 34.8625C35.1351 33.6263 36.4141 33.0082 38.0119 33.0082C39.6485 33.0082 40.9236 33.5874 41.841 34.742L41.9538 33.2531H44.0491V46.3423C44.0491 48.0761 43.536 49.4445 42.5058 50.4436C41.4756 51.4427 40.0956 51.9441 38.3578 51.9441C37.3899 51.9441 36.4452 51.7381 35.52 51.326C34.5947 50.914 33.8872 50.3464 33.4013 49.6272L34.5909 48.251C35.5744 49.4678 36.7756 50.0743 38.1985 50.0743C39.3142 50.0743 40.185 49.7594 40.807 49.1335C41.429 48.5037 41.7438 47.6213 41.7438 46.4822V45.3276C40.8264 46.385 39.5746 46.9137 37.9885 46.9137C36.418 46.9137 35.1468 46.2801 34.1749 45.0166C33.203 43.7532 32.7171 42.0311 32.7171 39.8502ZM35.0224 40.1106C35.0224 41.6229 35.3334 42.8124 35.9515 43.6755C36.5696 44.5385 37.4404 44.97 38.5561 44.97C40.0022 44.97 41.0635 44.313 41.7399 42.999V36.8724C41.0363 35.5895 39.9828 34.9519 38.5794 34.9519C37.4637 34.9519 36.5929 35.3873 35.9632 36.2543C35.3373 37.1212 35.0224 38.4079 35.0224 40.1106ZM50.7123 33.2531L50.7861 34.9403C51.8085 33.6496 53.1497 33.0082 54.8019 33.0082C57.6359 33.0082 59.0665 34.606 59.0898 37.8054V46.6688H56.7962V37.7937C56.7884 36.8257 56.5668 36.1104 56.1314 35.6478C55.696 35.1852 55.0235 34.9519 54.106 34.9519C53.3635 34.9519 52.7104 35.1502 52.1467 35.5467C51.5831 35.9432 51.1477 36.4642 50.8328 37.1095V46.6649H48.5392V33.2531H50.7123Z" fill="#00B2E3"/>
<path d="M74.1574 39.5862L65.8965 35.5938V43.5787L74.1574 39.5862Z" fill="#00B2E3"/>
<path d="M11.713 69.551H4.15183L2.453 74.2743H0L6.89251 56.2247H8.97621L15.8804 74.2743H13.439L11.713 69.551ZM4.87102 67.6034H11.0055L7.93047 59.1636L4.87102 67.6034ZM23.6437 72.6493C24.4601 72.6493 25.1754 72.4005 25.7857 71.9068C26.396 71.4092 26.7381 70.7911 26.8042 70.0486H28.9734C28.9307 70.8183 28.6663 71.5492 28.1804 72.2412C27.6945 72.937 27.0414 73.489 26.2289 73.9011C25.4164 74.3132 24.5534 74.5192 23.6437 74.5192C21.8166 74.5192 20.3627 73.9089 19.2858 72.6921C18.2051 71.4714 17.6686 69.8076 17.6686 67.6889V67.304C17.6686 65.9978 17.9096 64.8355 18.3878 63.8209C18.866 62.8023 19.5541 62.0171 20.4521 61.4534C21.3501 60.8936 22.4075 60.6098 23.632 60.6098C25.1365 60.6098 26.3844 61.0607 27.3835 61.9626C28.3787 62.8645 28.9112 64.0308 28.9773 65.4691H26.8081C26.742 64.6022 26.4116 63.8869 25.8246 63.331C25.2337 62.7751 24.5028 62.4952 23.6359 62.4952C22.4697 62.4952 21.5678 62.9151 20.9263 63.7548C20.2849 64.5945 19.9661 65.8074 19.9661 67.3935V67.8289C19.9661 69.3761 20.2849 70.5656 20.9225 71.3976C21.5522 72.2334 22.4619 72.6493 23.6437 72.6493ZM37.8952 72.6493C38.7116 72.6493 39.4269 72.4005 40.0372 71.9068C40.6476 71.4092 40.9897 70.7911 41.0557 70.0486H43.225C43.1822 70.8183 42.9179 71.5492 42.4319 72.2412C41.946 72.937 41.2929 73.489 40.4804 73.9011C39.6679 74.3132 38.8049 74.5192 37.8952 74.5192C36.0681 74.5192 34.6142 73.9089 33.5373 72.6921C32.4566 71.4714 31.9202 69.8076 31.9202 67.6889V67.304C31.9202 65.9978 32.1612 64.8355 32.6393 63.8209C33.1175 62.8023 33.8056 62.0171 34.7036 61.4534C35.6016 60.8936 36.659 60.6098 37.8836 60.6098C39.388 60.6098 40.6359 61.0607 41.635 61.9626C42.6302 62.8645 43.1628 64.0308 43.2289 65.4691H41.0596C40.9936 64.6022 40.6631 63.8869 40.0761 63.331C39.4852 62.7751 38.7544 62.4952 37.8874 62.4952C36.7212 62.4952 35.8193 62.9151 35.1779 63.7548C34.5364 64.5945 34.2177 65.8074 34.2177 67.3935V67.8289C34.2177 69.3761 34.5364 70.5656 35.174 71.3976C35.8038 72.2334 36.7134 72.6493 37.8952 72.6493ZM52.52 74.5192C50.7006 74.5192 49.2234 73.9205 48.0843 72.7271C46.9453 71.5336 46.3738 69.9359 46.3738 67.9377V67.5178C46.3738 66.1883 46.6265 64.9988 47.1358 63.953C47.645 62.9073 48.3565 62.0909 49.2661 61.5C50.1797 60.9091 51.1671 60.6137 52.2362 60.6137C53.9816 60.6137 55.3345 61.189 56.3025 62.3358C57.2705 63.4826 57.7525 65.1271 57.7525 67.2691V68.2254H48.6675C48.6986 69.5471 49.0873 70.6162 49.8259 71.4287C50.5646 72.2412 51.5053 72.6493 52.6444 72.6493C53.453 72.6493 54.141 72.4822 54.7008 72.1517C55.2645 71.8213 55.7543 71.382 56.1781 70.8378L57.5776 71.9301C56.4541 73.6562 54.7669 74.5192 52.52 74.5192ZM52.2362 62.4952C51.3109 62.4952 50.5335 62.8334 49.9076 63.506C49.2778 64.1785 48.8929 65.1232 48.7413 66.3399H55.4589V66.165C55.3928 64.9988 55.0779 64.0969 54.5181 63.4554C53.9544 62.8179 53.1964 62.4952 52.2362 62.4952ZM64.1435 74.2743H61.8499V55.2334H64.1435V74.2743ZM74.4182 74.5192C72.5988 74.5192 71.1216 73.9205 69.9825 72.7271C68.8435 71.5336 68.272 69.9359 68.272 67.9377V67.5178C68.272 66.1883 68.5247 64.9988 69.034 63.953C69.5433 62.9073 70.2547 62.0909 71.1643 61.5C72.0779 60.9091 73.0653 60.6137 74.1344 60.6137C75.8799 60.6137 77.2327 61.189 78.2007 62.3358C79.1687 63.4826 79.6507 65.1271 79.6507 67.2691V68.2254H70.5657C70.5968 69.5471 70.9855 70.6162 71.7241 71.4287C72.4628 72.2412 73.4035 72.6493 74.5426 72.6493C75.3512 72.6493 76.0393 72.4822 76.5991 72.1517C77.1627 71.8213 77.6526 71.382 78.0763 70.8378L79.4758 71.9301C78.3523 73.6562 76.6651 74.5192 74.4182 74.5192ZM74.1344 62.4952C73.2092 62.4952 72.4317 62.8334 71.8058 63.506C71.176 64.1785 70.7911 65.1232 70.6395 66.3399H77.3571V66.165C77.291 64.9988 76.9761 64.0969 76.4163 63.4554C75.8527 62.8179 75.0946 62.4952 74.1344 62.4952ZM90.3335 62.919C89.9876 62.8606 89.6105 62.8334 89.2062 62.8334C87.7017 62.8334 86.6793 63.4749 86.1428 64.7539V74.2743H83.8492V60.8625H86.0806L86.1195 62.4136C86.8698 61.2162 87.9389 60.6176 89.3189 60.6176C89.766 60.6176 90.1042 60.6759 90.3335 60.7925V62.919ZM101.366 74.2743C101.234 74.01 101.125 73.5396 101.044 72.8631C99.9784 73.9711 98.7033 74.5231 97.2261 74.5231C95.9043 74.5231 94.8197 74.1499 93.9722 73.3996C93.1248 72.6532 92.701 71.7047 92.701 70.554C92.701 69.1584 93.2336 68.0738 94.2949 67.3002C95.3562 66.5265 96.849 66.1417 98.7772 66.1417H101.009V65.0882C101.009 64.2873 100.768 63.6498 100.289 63.1716C99.8112 62.6974 99.1037 62.4602 98.1707 62.4602C97.3505 62.4602 96.6663 62.6663 96.1142 63.0783C95.5622 63.4904 95.2823 63.9919 95.2823 64.5789H92.977C92.977 63.9103 93.2142 63.2649 93.6884 62.6391C94.1627 62.0171 94.808 61.5233 95.6244 61.1579C96.4369 60.7925 97.331 60.6137 98.3068 60.6137C99.8501 60.6137 101.063 60.9985 101.938 61.7721C102.812 62.5458 103.267 63.6109 103.302 64.9638V71.1371C103.302 72.3694 103.458 73.3491 103.773 74.076V74.2743H101.366ZM97.5604 72.5249C98.2796 72.5249 98.9599 72.3383 99.6052 71.9651C100.251 71.5919 100.717 71.1099 101.005 70.5151V67.7628H99.2087C96.398 67.7628 94.9946 68.583 94.9946 70.2274C94.9946 70.9466 95.2357 71.5103 95.7138 71.9146C96.192 72.3228 96.8062 72.5249 97.5604 72.5249ZM111.054 57.6125V60.8586H113.557V62.6313H111.054V70.9583C111.054 71.4948 111.167 71.8991 111.388 72.1673C111.61 72.4355 111.991 72.5716 112.527 72.5716C112.792 72.5716 113.153 72.5211 113.62 72.4239V74.2743C113.017 74.4376 112.43 74.5192 111.859 74.5192C110.832 74.5192 110.063 74.2082 109.542 73.5901C109.021 72.972 108.76 72.0895 108.76 70.9505V62.6313H106.319V60.8586H108.76V57.6125H111.054ZM122.164 74.5192C120.345 74.5192 118.868 73.9205 117.729 72.7271C116.59 71.5336 116.018 69.9359 116.018 67.9377V67.5178C116.018 66.1883 116.271 64.9988 116.78 63.953C117.289 62.9073 118.001 62.0909 118.91 61.5C119.824 60.9091 120.811 60.6137 121.881 60.6137C123.626 60.6137 124.979 61.189 125.947 62.3358C126.915 63.4826 127.397 65.1271 127.397 67.2691V68.2254H118.312C118.343 69.5471 118.732 70.6162 119.47 71.4287C120.209 72.2412 121.15 72.6493 122.289 72.6493C123.097 72.6493 123.785 72.4822 124.345 72.1517C124.909 71.8213 125.399 71.382 125.822 70.8378L127.222 71.9301C126.098 73.6562 124.411 74.5192 122.164 74.5192ZM121.877 62.4952C120.951 62.4952 120.174 62.8334 119.548 63.506C118.918 64.1785 118.533 65.1232 118.382 66.3399H125.099V66.165C125.033 64.9988 124.718 64.0969 124.159 63.4554C123.599 62.8179 122.837 62.4952 121.877 62.4952Z" fill="#00B2E3"/>
<path d="M142.111 67.1917L133.85 63.1992V71.1841L142.111 67.1917Z" fill="#00B2E3"/>
</svg>
