<svg width="436" height="883" viewBox="0 0 436 883" fill="none" xmlns="http://www.w3.org/2000/svg">
<g clipPath="url(#clip0)">
<path d="M191.95 500H649V498.966H191.95C169.688 498.966 151.585 466.941 151.585 427.56V-7H151V427.56C151 467.515 169.363 500 191.95 500Z" fill="url(#paint0_linear)"/>
<path d="M317.822 647.612H320.723V647.028H317.822V647.612ZM323.623 647.612H326.524V647.028H323.623V647.612ZM329.446 647.612H332.347V647.028H329.446V647.612ZM335.247 647.612H338.148V647.028H335.247V647.612ZM341.048 647.612H343.949V647.028H341.048V647.612ZM346.849 647.612H349.75V647.028H346.849V647.612ZM352.65 647.612H355.551V647.028H352.65V647.612ZM358.451 647.612H361.352V647.028H358.451V647.612ZM364.274 647.612H367.174V647.028H364.274V647.612ZM370.075 647.612H372.975V647.028H370.075V647.612ZM375.876 647.612H378.776V647.028H375.876V647.612ZM381.677 647.612H384.577V647.028H381.677V647.612ZM387.478 647.612H390.378V647.028H387.478V647.612ZM393.301 647.612H396.201V647.028H393.301V647.612ZM399.102 647.612H402.002V647.028H399.102V647.612ZM404.903 647.612H407.803V647.028H404.903V647.612ZM410.704 647.612H413.604V647.028H410.704V647.612ZM416.505 647.612H419.405V647.028H416.505V647.612ZM422.306 647.612H425.206V647.028H422.306V647.612ZM428.128 647.612H431.029V647.028H428.128V647.612ZM433.929 647.612H436.83V647.028H433.929V647.612ZM439.73 647.612H442.631V647.028H439.73V647.612ZM445.531 647.612H448.432V647.028H445.531V647.612ZM451.333 647.612H454.233V647.028H451.333V647.612ZM457.155 647.612H460.056V647.028H457.155V647.612ZM462.956 647.612H465.857V647.028H462.956V647.612ZM468.757 647.612H471.658V647.028H468.757V647.612ZM474.558 647.612H477.459V647.028H474.558V647.612ZM480.359 647.612H483.26V647.028H480.359V647.612ZM486.16 647.612H489.061V647.028H486.16V647.612ZM491.983 647.612H494.883V647.028H491.983V647.612ZM497.784 647.612H500.684V647.028H497.784V647.612ZM503.585 647.612H506.485V647.028H503.585V647.612ZM509.386 647.612H512.287V647.028H509.386V647.612ZM515.187 647.612H518.088V647.028H515.187V647.612ZM521.01 647.612H523.91V647.028H521.01V647.612ZM526.811 647.612H529.711V647.028H526.811V647.612ZM532.612 647.612H535.512V647.028H532.612V647.612ZM314.922 647.591L314.944 647.006C313.991 646.985 313.017 646.92 312.065 646.833L312 647.417C312.974 647.504 313.948 647.569 314.922 647.591ZM309.099 647.028L309.208 646.465C308.277 646.314 307.324 646.097 306.394 645.881L306.264 646.443C307.194 646.66 308.147 646.855 309.099 647.028ZM303.428 645.621L303.601 645.058C302.692 644.755 301.783 644.43 300.896 644.063L300.679 644.604C301.588 644.993 302.519 645.318 303.428 645.621ZM298.038 643.435L298.298 642.915C297.432 642.482 296.588 642.028 295.766 641.552L295.463 642.05C296.285 642.526 297.151 643.002 298.038 643.435ZM292.995 640.491L293.32 640.015C292.54 639.474 291.761 638.911 291.004 638.305L290.636 638.76C291.393 639.344 292.194 639.928 292.995 640.491ZM288.428 636.855L288.817 636.422C288.103 635.773 287.41 635.102 286.761 634.409L286.35 634.799C286.999 635.513 287.713 636.184 288.428 636.855ZM284.402 632.612L284.856 632.244C284.25 631.508 283.666 630.729 283.103 629.95L282.627 630.296C283.19 631.076 283.796 631.855 284.402 632.612ZM281.047 627.829L281.544 627.526C281.047 626.703 280.57 625.859 280.137 625.015L279.618 625.275C280.051 626.141 280.527 627.006 281.047 627.829ZM278.384 622.634L278.925 622.418C278.557 621.53 278.211 620.621 277.908 619.734L277.367 619.928C277.648 620.816 277.995 621.725 278.384 622.634ZM276.501 617.093L277.064 616.941C276.826 616.011 276.609 615.08 276.436 614.128L275.873 614.236C276.025 615.21 276.241 616.162 276.501 617.093ZM275.419 611.357L276.003 611.292C275.895 610.34 275.83 609.387 275.787 608.413L275.202 608.435C275.246 609.409 275.311 610.405 275.419 611.357ZM275.159 605.535H275.743V602.634H275.159V605.535ZM275.159 599.734H275.743V596.833H275.159V599.734ZM275.159 593.933H275.743V591.033H275.159V593.933ZM275.159 588.11H275.743V585.21H275.159V588.11ZM275.159 582.31H275.743V579.409H275.159V582.31ZM275.159 576.509H275.743V573.608H275.159V576.509ZM275.159 570.708H275.743V567.808H275.159V570.708ZM275.159 564.907H275.743V562.007H275.159V564.907ZM275.159 559.085H275.743V556.184H275.159V559.085ZM275.159 553.284H275.743V550.383H275.159V553.284ZM275.159 547.483H275.743V544.583H275.159V547.483ZM275.159 541.682H275.743V538.782H275.159V541.682ZM275.159 535.881H275.743V532.981H275.159V535.881ZM275.159 530.081H275.743V527.18H275.159V530.081ZM275.159 524.258H275.743V521.358H275.159V524.258ZM275.159 518.457H275.743V515.557H275.159V518.457ZM275.159 512.656H275.743V509.756H275.159V512.656ZM275.159 506.856H275.743V503.955H275.159V506.856ZM275.159 501.055H275.743V498.154H275.159V501.055ZM275.159 495.232H275.743V492.332H275.159V495.232ZM275.159 489.431H275.743V486.531H275.159V489.431ZM275.159 483.631H275.743V480.73H275.159V483.631ZM275.159 477.83H275.743V474.929H275.159V477.83ZM275.159 472.029H275.743V469.129H275.159V472.029ZM275.159 466.228H275.743V463.328H275.159V466.228ZM275.159 460.406H275.743V457.505H275.159V460.406ZM275.159 454.605H275.743V451.704H275.159V454.605ZM275.159 448.804H275.743V445.904H275.159V448.804ZM275.159 443.003H275.743V440.103H275.159V443.003ZM275.808 437.202C275.852 436.25 275.96 435.276 276.068 434.345L275.484 434.28C275.354 435.233 275.267 436.228 275.224 437.181L275.808 437.202ZM276.544 431.51C276.739 430.579 276.956 429.627 277.215 428.718L276.653 428.566C276.393 429.497 276.155 430.449 275.982 431.402L276.544 431.51ZM278.081 425.947C278.406 425.038 278.752 424.151 279.142 423.285L278.601 423.047C278.211 423.934 277.843 424.843 277.518 425.752L278.081 425.947ZM280.397 420.687C280.852 419.843 281.328 418.999 281.826 418.198L281.328 417.895C280.809 418.718 280.332 419.562 279.878 420.428L280.397 420.687ZM283.428 415.817C283.99 415.038 284.596 414.28 285.203 413.545L284.748 413.177C284.12 413.912 283.514 414.692 282.951 415.471L283.428 415.817ZM287.151 411.402C287.822 410.709 288.514 410.038 289.229 409.41L288.839 408.977C288.125 409.627 287.41 410.298 286.739 410.99L287.151 411.402ZM291.436 407.571C292.194 406.986 292.973 406.423 293.774 405.882L293.45 405.406C292.649 405.947 291.848 406.51 291.069 407.116L291.436 407.571ZM296.242 404.389C297.064 403.913 297.93 403.48 298.796 403.068L298.558 402.549C297.67 402.96 296.805 403.415 295.96 403.891L296.242 404.389ZM301.437 401.921C302.324 401.575 303.233 401.25 304.164 400.969L303.991 400.406C303.06 400.687 302.129 401.012 301.22 401.358L301.437 401.921ZM306.935 400.211C307.865 399.995 308.818 399.822 309.77 399.67L309.684 399.086C308.731 399.237 307.757 399.432 306.805 399.648L306.935 400.211ZM312.628 399.324C313.58 399.237 314.554 399.194 315.506 399.172V398.588C314.532 398.61 313.558 398.653 312.584 398.739L312.628 399.324ZM318.407 399.172H321.307V398.588H318.407V399.172ZM324.208 399.172H327.108V398.588H324.208V399.172ZM330.009 399.172H332.909V398.588H330.009V399.172ZM335.832 399.172H338.732V398.588H335.832V399.172ZM341.633 399.172H344.533V398.588H341.633V399.172ZM347.434 399.172H350.334V398.588H347.434V399.172ZM353.235 399.172H356.135V398.588H353.235V399.172ZM359.036 399.172H361.936V398.588H359.036V399.172ZM364.837 399.172H367.737V398.588H364.837V399.172ZM370.659 399.172H373.56V398.588H370.659V399.172ZM376.46 399.172H379.361V398.588H376.46V399.172ZM382.261 399.172H385.162V398.588H382.261V399.172ZM388.062 399.172H390.963V398.588H388.062V399.172ZM393.863 399.172H396.764V398.588H393.863V399.172ZM399.686 399.172H402.587V398.588H399.686V399.172ZM405.487 399.172H408.388V398.588H405.487V399.172ZM411.288 399.172H414.189V398.588H411.288V399.172ZM417.089 399.172H419.99V398.588H417.089V399.172ZM422.89 399.172H425.791V398.588H422.89V399.172ZM428.691 399.172H431.592V398.588H428.691V399.172ZM434.514 399.172H437.414V398.588H434.514V399.172ZM440.315 399.172H443.215V398.588H440.315V399.172ZM446.116 399.172H449.016V398.588H446.116V399.172ZM451.917 399.172H454.817V398.588H451.917V399.172ZM457.718 399.172H460.618V398.588H457.718V399.172ZM463.541 399.172H466.441V398.588H463.541V399.172ZM469.342 399.172H472.242V398.588H469.342V399.172ZM475.143 399.172H478.043V398.588H475.143V399.172ZM480.944 399.172H483.844V398.588H480.944V399.172ZM486.745 399.172H489.645V398.588H486.745V399.172ZM492.546 399.172H495.446V398.588H492.546V399.172ZM498.368 399.172H501.269V398.588H498.368V399.172ZM504.169 399.172H507.07V398.588H504.169V399.172ZM509.97 399.172H512.871V398.588H509.97V399.172ZM515.771 399.172H518.672V398.588H515.771V399.172ZM521.572 399.172H524.473V398.588H521.572V399.172ZM527.395 399.172H530.296V398.588H527.395V399.172ZM533.196 399.172H536.097V398.588H533.196V399.172Z" fill="url(#paint1_linear)"/>
<path d="M151.52 847.589H152.104V630.491C152.104 608.24 170.2 590.145 192.452 590.145H332.931C355.183 590.145 373.279 608.24 373.279 630.491V847.589H373.863V630.491C373.863 607.915 355.508 589.561 332.931 589.561H192.452C169.875 589.561 151.52 607.915 151.52 630.491V847.589Z" fill="url(#paint2_linear)"/>
<path d="M240.916 682.741H241.5V883H240.916V682.741Z" fill="url(#paint3_linear)"/>
<path d="M49.0493 440.383H180.243C202.82 440.383 221.175 422.029 221.175 399.453V390.752C221.175 368.501 239.271 350.406 261.522 350.406H549.452V349.821H261.522C238.946 349.821 220.591 368.176 220.591 390.752V399.453C220.591 421.704 202.495 439.799 180.243 439.799H49.0493V440.383Z" fill="url(#paint4_linear)"/>
<path d="M80.1108 637.461H80.6953V816.248H80.1108V637.461Z" fill="url(#paint5_linear)"/>
<path d="M336.979 546.032H523.326V546.617H336.979V546.032Z" fill="url(#paint6_linear)"/>
<path d="M0.000183105 859.775H0.584595V856.874H0.000183105V859.775ZM0.000183105 853.974H0.584595V851.073H0.000183105V853.974ZM0.000183105 848.173H0.584595V845.273H0.000183105V848.173ZM0.000183105 842.372H0.584595V839.472H0.000183105V842.372ZM0.000183105 836.571H0.584595V833.671H0.000183105V836.571ZM0.000183105 830.749H0.584595V827.849H0.000183105V830.749ZM201.434 827.286H202.019V824.385H201.434V827.286ZM0.000183105 824.948H0.584595V822.048H0.000183105V824.948ZM201.434 821.463H202.019V818.563H201.434V821.463ZM0.000183105 819.147H0.584595V816.247H0.000183105V819.147ZM201.434 815.662H202.019V812.762H201.434V815.662ZM0.000183105 813.346H0.584595V810.446H0.000183105V813.346ZM201.434 809.862H202.019V806.961H201.434V809.862ZM0.000183105 807.546H0.584595V804.645H0.000183105V807.546ZM201.434 804.061H202.019V801.16H201.434V804.061ZM0.000183105 801.723H0.584595V798.823H0.000183105V801.723ZM201.434 798.26H202.019V795.359H201.434V798.26ZM0.000183105 795.922H0.584595V793.022H0.000183105V795.922ZM201.434 792.437H202.019V789.537H201.434V792.437ZM0.000183105 790.121H0.584595V787.221H0.000183105V790.121ZM201.434 786.637H202.019V783.736H201.434V786.637ZM0.000183105 784.321H0.584595V781.42H0.000183105V784.321ZM201.434 780.836H202.019V777.935H201.434V780.836ZM0.000183105 778.52H0.584595V775.619H0.000183105V778.52ZM201.434 775.035H202.019V772.135H201.434V775.035ZM0.000183105 772.697H0.584595V769.797H0.000183105V772.697ZM201.434 769.234H202.019V766.334H201.434V769.234ZM0.000183105 766.896H0.584595V763.996H0.000183105V766.896ZM201.434 763.433H202.019V760.533H201.434V763.433ZM0.000183105 761.096H0.584595V758.195H0.000183105V761.096ZM201.434 757.611H202.019V754.71H201.434V757.611ZM0.000183105 755.295H0.584595V752.394H0.000183105V755.295ZM201.434 751.81H202.019V748.91H201.434V751.81ZM0.000183105 749.494H0.584595V746.594H0.000183105V749.494ZM201.434 746.009H202.019V743.109H201.434V746.009ZM0.000183105 743.693H0.584595V740.793H0.000183105V743.693ZM201.434 740.208H202.019V737.308H201.434V740.208ZM0.000183105 737.871H0.584595V734.97H0.000183105V737.871ZM201.434 734.408H202.019V731.507H201.434V734.408ZM0.000183105 732.07H0.584595V729.17H0.000183105V732.07ZM201.434 728.585H202.019V725.685H201.434V728.585ZM0.000183105 726.269H0.584595V723.369H0.000183105V726.269ZM201.434 722.784H202.019V719.884H201.434V722.784ZM0.000183105 720.468H0.584595V717.568H0.000183105V720.468ZM201.434 716.983H202.019V714.083H201.434V716.983ZM0.000183105 714.667H0.584595V711.767H0.000183105V714.667ZM201.434 711.183H202.019V708.282H201.434V711.183ZM0.000183105 708.845H0.584595V705.945H0.000183105V708.845ZM201.434 705.382H202.019V702.481H201.434V705.382ZM0.000183105 703.044H0.584595V700.144H0.000183105V703.044ZM201.434 699.559H202.019V696.659H201.434V699.559ZM0.000183105 697.243H0.584595V694.343H0.000183105V697.243ZM201.434 693.758H202.019V690.858H201.434V693.758ZM0.000183105 691.442H0.584595V688.542H0.000183105V691.442ZM201.434 687.958H202.019V685.057H201.434V687.958ZM0.000183105 685.642H0.584595V682.741H0.000183105V685.642ZM201.434 682.157H202.019V679.256H201.434V682.157ZM0.000183105 679.841H0.584595V676.94H0.000183105V679.841ZM201.434 676.356H202.019V673.456H201.434V676.356ZM0.000183105 674.018H0.584595V671.118H0.000183105V674.018ZM201.434 670.555H202.019V667.655H201.434V670.555ZM0.000183105 668.217H0.584595V665.317H0.000183105V668.217ZM201.434 664.733H202.019V661.832H201.434V664.733ZM0.000183105 662.417H0.584595V659.516H0.000183105V662.417ZM201.434 658.932H202.019V656.031H201.434V658.932ZM0.000183105 656.616H0.584595V653.715H0.000183105V656.616ZM201.434 653.131H202.019V650.231H201.434V653.131ZM0.000183105 650.815H0.584595V647.915H0.000183105V650.815ZM201.434 647.33H202.019V644.43H201.434V647.33ZM0.000183105 644.993H0.584595V642.092H0.000183105V644.993ZM201.434 641.529H202.019V638.629H201.434V641.529ZM0.000183105 639.192H0.584595V636.291H0.000183105V639.192ZM201.434 635.707H202.019V632.806H201.434V635.707ZM0.000183105 633.391H0.584595V630.49H0.000183105V633.391ZM201.434 629.906H202.019V627.006H201.434V629.906ZM0.000183105 627.59H0.584595V624.69H0.000183105V627.59ZM201.434 624.105H202.019V621.205H201.434V624.105ZM0.000183105 621.789H0.584595V618.889H0.000183105V621.789ZM201.434 618.304H202.019V615.404H201.434V618.304ZM0.000183105 615.988H0.584595V613.088H0.000183105V615.988ZM201.434 612.504H202.019V609.603H201.434V612.504ZM0.000183105 610.166H0.584595V607.266H0.000183105V610.166ZM201.434 606.703H202.019V603.802H201.434V606.703ZM0.000183105 604.365H0.584595V601.465H0.000183105V604.365ZM201.434 600.88H202.019V597.98H201.434V600.88ZM0.000183105 598.564H0.584595V595.664H0.000183105V598.564ZM201.434 595.079H202.019V592.179H201.434V595.079ZM0.000183105 592.763H0.584595V589.863H0.000183105V592.763ZM201.434 589.279H202.019V586.378H201.434V589.279ZM0.000183105 586.963H0.584595V584.062H0.000183105V586.963ZM201.434 583.478H202.019V580.577H201.434V583.478ZM0.000183105 581.14H0.584595V579.971C0.584595 579.387 0.606293 578.824 0.62793 578.24L0.043457 578.218C0.0218048 578.802 0.000183105 579.387 0.000183105 579.971V581.14ZM201.369 577.699L201.954 577.655C201.889 576.681 201.802 575.707 201.694 574.755L201.109 574.82C201.239 575.772 201.326 576.725 201.369 577.699ZM0.844391 575.383C0.952621 574.43 1.10414 573.478 1.2773 572.525L0.714493 572.417C0.541321 573.37 0.389801 574.344 0.281586 575.296L0.844391 575.383ZM200.633 571.984L201.196 571.876C201.001 570.924 200.785 569.971 200.525 569.041L199.962 569.192C200.222 570.101 200.46 571.032 200.633 571.984ZM1.905 569.733C2.1431 568.803 2.4245 567.872 2.72754 566.984L2.1864 566.79C1.88336 567.699 1.58029 568.651 1.34219 569.582L1.905 569.733ZM199.096 566.422L199.638 566.227C199.313 565.318 198.945 564.387 198.555 563.5L198.014 563.738C198.425 564.625 198.772 565.534 199.096 566.422ZM3.76654 564.279C4.13452 563.413 4.54575 562.526 4.97867 561.681L4.4592 561.422C4.02628 562.287 3.59338 563.175 3.2254 564.062L3.76654 564.279ZM196.78 561.162L197.3 560.881C196.845 560.036 196.347 559.171 195.85 558.348L195.352 558.651C195.85 559.474 196.326 560.318 196.78 561.162ZM6.36401 559.171C6.86186 558.348 7.38132 557.547 7.94411 556.768L7.46791 556.443C6.90512 557.244 6.364 558.067 5.86615 558.889L6.36401 559.171ZM193.728 556.27L194.204 555.924C193.642 555.145 193.036 554.365 192.408 553.629L191.953 553.997C192.559 554.733 193.165 555.491 193.728 556.27ZM9.69742 554.452C10.3035 553.716 10.9529 552.98 11.6022 552.288L11.1909 551.898C10.5199 552.591 9.87057 553.348 9.26451 554.084L9.69742 554.452ZM190.027 551.876L190.438 551.465C189.767 550.772 189.053 550.08 188.339 549.452L187.949 549.885C188.642 550.513 189.356 551.184 190.027 551.876ZM13.6369 550.275C14.3512 549.625 15.0872 548.997 15.8231 548.391L15.4552 547.937C14.6976 548.543 13.94 549.171 13.2257 549.842L13.6369 550.275ZM185.719 548.045L186.066 547.591C185.308 547.006 184.507 546.422 183.685 545.881L183.36 546.357C184.183 546.898 184.962 547.461 185.719 548.045ZM18.1392 546.681C18.9401 546.14 19.741 545.621 20.5635 545.145L20.2605 544.647C19.4163 545.145 18.5937 545.664 17.7928 546.205L18.1392 546.681ZM180.936 544.863L181.217 544.365C180.373 543.889 179.507 543.435 178.62 543.023L178.36 543.543C179.247 543.933 180.092 544.387 180.936 544.863ZM23.1177 543.781C23.9835 543.348 24.871 542.959 25.7584 542.591L25.542 542.049C24.6329 542.417 23.7454 542.829 22.8796 543.24L23.1177 543.781ZM175.741 542.396L175.957 541.855C175.048 541.508 174.139 541.184 173.208 540.902L173.035 541.465C173.923 541.725 174.853 542.049 175.741 542.396ZM28.4641 541.617C29.3733 541.314 30.304 541.054 31.2348 540.816L31.1049 540.253C30.1741 540.491 29.2217 540.751 28.291 541.054L28.4641 541.617ZM170.243 540.686L170.373 540.123C169.42 539.907 168.468 539.712 167.515 539.56L167.429 540.145C168.338 540.296 169.29 540.469 170.243 540.686ZM34.0487 540.231C34.9795 540.08 35.9535 539.95 36.9059 539.842L36.841 539.257C35.8669 539.344 34.8929 539.495 33.9405 539.647L34.0487 540.231ZM164.55 539.798L164.593 539.214C163.619 539.127 162.645 539.084 161.671 539.063V539.647C162.624 539.669 163.598 539.712 164.55 539.798ZM39.7848 539.669C40.1744 539.669 40.5424 539.647 40.932 539.647H42.6637V539.063H40.932C40.5424 539.063 40.1528 539.062 39.7631 539.084L39.7848 539.669ZM45.5642 539.647H48.4647V539.063H45.5642V539.647ZM51.3869 539.647H54.2874V539.063H51.3869V539.647ZM57.1878 539.647H60.0884V539.063H57.1878V539.647ZM62.9889 539.647H65.8894V539.063H62.9889V539.647ZM68.7899 539.647H71.6904V539.063H68.7899V539.647ZM74.5909 539.647H77.4914V539.063H74.5909V539.647ZM80.4136 539.647H83.3141V539.063H80.4136V539.647ZM86.2146 539.647H89.1151V539.063H86.2146V539.647ZM92.0156 539.647H94.9161V539.063H92.0156V539.647ZM97.8167 539.647H100.717V539.063H97.8167V539.647ZM103.618 539.647H106.518V539.063H103.618V539.647ZM109.419 539.647H112.319V539.063H109.419V539.647ZM115.241 539.647H118.142V539.063H115.241V539.647ZM121.042 539.647H123.943V539.063H121.042V539.647ZM126.843 539.647H129.744V539.063H126.843V539.647ZM132.644 539.647H135.545V539.063H132.644V539.647ZM138.445 539.647H141.346V539.063H138.445V539.647ZM144.268 539.647H147.169V539.063H144.268V539.647ZM150.069 539.647H152.97V539.063H150.069V539.647ZM155.87 539.647H158.771V539.063H155.87V539.647Z" fill="url(#paint7_linear)"/>
<path d="M371.797 463H374.107V461.709H371.797C371.603 461.709 371.408 461.709 371.214 461.709V463C371.408 463 371.603 463 371.797 463ZM377.021 463H379.913V461.709H377.021V463ZM382.806 463H385.698V461.709H382.806V463ZM388.591 463H391.483V461.709H388.591V463ZM394.376 463H397.268V461.709H394.376V463ZM400.161 463H403.053V461.709H400.161V463ZM405.967 463H408.86V461.709H405.967V463ZM411.752 463H414.645V461.709H411.752V463ZM417.537 463H420.429V461.709H417.537V463ZM423.322 463H426.214V461.709H423.322V463ZM429.107 463H431.999V461.709H429.107V463ZM434.892 463H437.784V461.709H434.892V463ZM440.698 463H443.591V461.709H440.698V463ZM446.483 463H449.376V461.709H446.483V463ZM452.268 463H455.161V461.709H452.268V463ZM458.053 463H460.946V461.709H458.053V463ZM463.838 463H466.731V461.709H463.838V463ZM469.645 463H472.537V461.709H469.645V463ZM475.43 463H478.322V461.709H475.43V463ZM481.215 463H484.107V461.709H481.215V463ZM487 463H489.892V461.709H487V463ZM492.785 463H495.677V461.709H492.785V463ZM498.57 463H501.462V461.709H498.57V463ZM504.376 463H507.269V461.709H504.376V463ZM510.161 463H513.054V461.709H510.161V463ZM515.946 463H518.839V461.709H515.946V463ZM521.731 463H524.624V461.709H521.731V463ZM527.516 463H530.408V461.709H527.516V463ZM533.323 463H536.215V461.709H533.323V463ZM539.108 463H542V461.709H539.108V463ZM368.3 462.665L368.343 461.374C367.393 461.183 366.422 460.944 365.494 460.609L365.408 461.9C366.379 462.235 367.35 462.474 368.3 462.665ZM362.558 460.657L362.688 459.413C361.76 458.935 360.831 458.361 359.925 457.739L359.752 458.983C360.68 459.604 361.608 460.178 362.558 460.657ZM356.989 456.878L357.205 455.683C356.32 454.918 355.435 454.057 354.572 453.148L354.334 454.296C355.198 455.205 356.083 456.065 356.989 456.878ZM351.722 451.331L352.003 450.231C351.183 449.179 350.341 448.079 349.564 446.883L349.24 447.935C350.039 449.131 350.88 450.279 351.722 451.331ZM346.865 444.157L347.211 443.153C346.455 441.861 345.721 440.474 345.009 439.087L344.621 440.044C345.354 441.479 346.11 442.866 346.865 444.157ZM342.527 435.596L342.937 434.688C342.268 433.157 341.62 431.579 341.016 429.953L340.562 430.766C341.188 432.44 341.858 434.018 342.527 435.596ZM338.771 425.696L339.246 424.931C338.685 423.209 338.145 421.44 337.648 419.67L337.152 420.34C337.67 422.157 338.21 423.975 338.771 425.696ZM335.706 414.792L336.224 414.17C335.77 412.305 335.36 410.392 334.972 408.431L334.432 408.957C334.821 410.918 335.252 412.879 335.706 414.792ZM333.353 402.979L333.892 402.549C333.569 400.54 333.288 398.532 333.029 396.475L332.468 396.81C332.727 398.866 333.029 400.971 333.353 402.979ZM331.799 390.545L332.36 390.306C332.166 388.249 332.015 386.145 331.885 384.041L331.302 384.184C331.453 386.288 331.604 388.44 331.799 390.545ZM331.065 377.728L331.648 377.632C331.604 375.958 331.583 374.236 331.583 372.562V371.271H331V372.562C331 374.284 331.022 376.054 331.065 377.728ZM331 364.863H331.583V358.454H331V364.863ZM331 352.045H331.583V345.637H331V352.045ZM331 339.228H331.583V332.82H331V339.228ZM331 326.411H331.583V320.003H331V326.411ZM331 313.594H331.583V307.185H331V313.594ZM331 300.777H331.583V294.368H331V300.777ZM331 287.912H331.583V281.503H331V287.912ZM331 275.095H331.583V268.686H331V275.095ZM331 262.277H331.583V255.869H331V262.277ZM331 249.46H331.583V243.052H331V249.46ZM331 236.643H331.583V230.235H331V236.643ZM331 223.778H331.583V217.37H331V223.778ZM331 210.961H331.583V204.552H331V210.961ZM331 198.144H331.583V191.735H331V198.144ZM331 185.327H331.583V178.918H331V185.327ZM331 172.509H331.583V166.101H331V172.509ZM331 159.692H331.583V153.284H331V159.692ZM331 146.827H331.583V140.419H331V146.827ZM331 134.01H331.583V127.602H331V134.01ZM331 121.193H331.583V114.784H331V121.193ZM331 108.376H331.583V101.967H331V108.376ZM331 95.5586H331.583V89.15H331V95.5586ZM331 82.6936H331.583V76.285H331V82.6936ZM331 69.8764H331.583V63.4679H331V69.8764ZM331 57.0593H331.583V50.6507H331V57.0593ZM331 44.2421H331.583V37.8335H331V44.2421ZM331 31.4249H331.583V25.0164H331V31.4249ZM331 18.5599H331.583V12.1514H331V18.5599ZM331 5.74278H331.583V-0.665802H331V5.74278ZM331 -7.07438H331.583V-13.483H331V-7.07438ZM331 -19.8916H331.583V-26.3001H331V-19.8916ZM331 -32.7087H331.583V-34H331V-32.7087Z" fill="url(#paint8_linear)"/>
<path d="M43.9244 445.226C41.0926 442.394 41.0926 437.803 43.9244 434.971C46.7562 432.14 51.3474 432.14 54.1792 434.971C57.011 437.803 57.011 442.394 54.1792 445.226C51.3474 448.057 46.7562 448.057 43.9244 445.226Z" fill="url(#paint9_linear)"/>
<path d="M75.2732 642.58C72.4414 639.749 72.4414 635.158 75.2732 632.326C78.1049 629.494 82.6961 629.494 85.5279 632.326C88.3597 635.158 88.3597 639.749 85.5279 642.58C82.6961 645.412 78.1049 645.412 75.2732 642.58Z" fill="url(#paint10_linear)"/>
<path d="M248.751 593.629C246.671 593.629 244.985 591.943 244.985 589.863C244.985 587.783 246.671 586.097 248.751 586.097C250.831 586.097 252.518 587.783 252.518 589.863C252.518 591.943 250.831 593.629 248.751 593.629Z" fill="url(#paint11_linear)"/>
<path d="M227.841 593.629C225.761 593.629 224.075 591.943 224.075 589.863C224.075 587.783 225.761 586.097 227.841 586.097C229.921 586.097 231.607 587.783 231.607 589.863C231.607 591.943 229.921 593.629 227.841 593.629Z" fill="url(#paint12_linear)"/>
<path d="M150.343 402.364C148.421 401.568 147.508 399.364 148.304 397.443C149.1 395.521 151.304 394.608 153.225 395.404C155.147 396.2 156.06 398.404 155.264 400.325C154.468 402.247 152.264 403.16 150.343 402.364Z" fill="url(#paint13_linear)"/>
<path d="M331.762 503.652C329.682 503.652 327.996 501.965 327.996 499.885C327.996 497.805 329.682 496.119 331.762 496.119C333.842 496.119 335.528 497.805 335.528 499.885C335.528 501.965 333.842 503.652 331.762 503.652Z" fill="url(#paint14_linear)"/>
<path d="M80.3919 699.863C78.3118 699.863 76.6255 698.176 76.6255 696.096C76.6255 694.016 78.3118 692.33 80.3919 692.33C82.472 692.33 84.1582 694.016 84.1582 696.096C84.1582 698.176 82.472 699.863 80.3919 699.863Z" fill="url(#paint15_linear)"/>
<path d="M393.048 350.737C392.713 348.684 394.105 346.748 396.158 346.413C398.211 346.078 400.147 347.471 400.482 349.523C400.817 351.576 399.425 353.512 397.372 353.847C395.319 354.182 393.383 352.79 393.048 350.737Z" fill="url(#paint16_linear)"/>
<path d="M372.151 350.748C371.815 348.695 373.208 346.759 375.261 346.424C377.314 346.089 379.25 347.481 379.585 349.534C379.92 351.587 378.527 353.523 376.474 353.858C374.422 354.193 372.486 352.8 372.151 350.748Z" fill="url(#paint17_linear)"/>
<path d="M239.308 689.751C235.439 688.718 233.139 684.745 234.172 680.875C235.205 677.006 239.179 674.707 243.049 675.739C246.918 676.772 249.217 680.746 248.185 684.615C247.152 688.485 243.178 690.784 239.308 689.751Z" fill="url(#paint18_linear)"/>
<path d="M331.864 551.442C329.032 548.61 329.032 544.019 331.864 541.187C334.696 538.356 339.287 538.356 342.119 541.187C344.95 544.019 344.95 548.61 342.119 551.442C339.287 554.273 334.696 554.273 331.864 551.442Z" fill="url(#paint19_linear)"/>
<path d="M151.887 469.993C152.861 469.972 153.835 469.929 154.809 469.82L154.744 469.236C153.792 469.344 152.839 469.409 151.887 469.409V469.993ZM148.965 469.885L149.008 469.301C148.056 469.214 147.103 469.084 146.173 468.911L146.064 469.474C147.017 469.669 147.991 469.799 148.965 469.885ZM157.71 469.344C158.662 469.149 159.614 468.89 160.545 468.587L160.372 468.024C159.463 468.305 158.532 468.565 157.601 468.76L157.71 469.344ZM143.207 468.803L143.38 468.24C142.471 467.98 141.562 467.656 140.675 467.31L140.458 467.851C141.346 468.219 142.276 468.543 143.207 468.803ZM163.273 467.569C164.16 467.18 165.047 466.747 165.892 466.271L165.61 465.773C164.766 466.227 163.9 466.66 163.034 467.05L163.273 467.569ZM137.774 466.617L138.034 466.097C137.19 465.664 136.367 465.167 135.566 464.647L135.242 465.123C136.064 465.664 136.93 466.162 137.774 466.617ZM168.381 464.712C169.182 464.149 169.961 463.565 170.697 462.916L170.329 462.483C169.593 463.11 168.835 463.695 168.056 464.236L168.381 464.712ZM132.904 463.413L133.272 462.959C132.536 462.353 131.8 461.725 131.129 461.054L130.718 461.465C131.41 462.136 132.146 462.786 132.904 463.413ZM172.84 460.924C173.511 460.232 174.16 459.474 174.766 458.716L174.312 458.349C173.727 459.106 173.078 459.82 172.429 460.513L172.84 460.924ZM128.726 459.301L129.181 458.933C128.575 458.197 127.99 457.418 127.449 456.639L126.973 456.963C127.514 457.764 128.12 458.543 128.726 459.301ZM176.476 456.314C176.996 455.491 177.494 454.647 177.927 453.781L177.407 453.522C176.974 454.366 176.498 455.21 175.978 456.011L176.476 456.314ZM125.458 454.452L125.977 454.171C125.523 453.327 125.111 452.461 124.743 451.574L124.202 451.79C124.57 452.699 124.982 453.587 125.458 454.452ZM179.117 451.098C179.463 450.188 179.788 449.258 180.048 448.327L179.485 448.175C179.225 449.085 178.922 450.015 178.576 450.903L179.117 451.098ZM123.185 449.041L123.748 448.868C123.466 447.959 123.228 447.028 123.055 446.076L122.492 446.184C122.666 447.158 122.904 448.111 123.185 449.041ZM180.675 445.47C180.849 444.517 180.957 443.543 181.022 442.569L180.437 442.526C180.372 443.479 180.243 444.431 180.091 445.383L180.675 445.47ZM122.059 443.305L122.644 443.24C122.557 442.288 122.514 441.336 122.514 440.362H121.93C121.908 441.357 121.951 442.353 122.059 443.305ZM180.524 439.647L181.108 439.626C181.087 438.652 181.022 437.678 180.892 436.704L180.308 436.769C180.437 437.721 180.502 438.695 180.524 439.647ZM122.514 438.998C122.557 438.046 122.644 437.072 122.795 436.141L122.211 436.054C122.059 437.007 121.973 438.002 121.93 438.976L122.514 438.998ZM179.831 433.955L180.394 433.825C180.178 432.873 179.918 431.92 179.615 431.011L179.074 431.206C179.355 432.093 179.615 433.024 179.831 433.955ZM123.358 433.327C123.596 432.396 123.878 431.487 124.202 430.578L123.661 430.383C123.337 431.292 123.055 432.245 122.817 433.176L123.358 433.327ZM178.013 428.522L178.533 428.284C178.143 427.396 177.688 426.509 177.212 425.665L176.714 425.946C177.169 426.79 177.624 427.634 178.013 428.522ZM125.285 427.916C125.696 427.05 126.15 426.206 126.648 425.383L126.15 425.08C125.653 425.903 125.176 426.79 124.765 427.656L125.285 427.916ZM175.156 423.544L175.632 423.197C175.069 422.396 174.463 421.639 173.814 420.903L173.381 421.293C173.987 422.007 174.593 422.764 175.156 423.544ZM128.272 423.002C128.834 422.245 129.462 421.487 130.112 420.795L129.679 420.405C129.029 421.119 128.402 421.877 127.817 422.656L128.272 423.002ZM171.368 419.215L171.758 418.782C171.043 418.111 170.286 417.483 169.528 416.877L169.182 417.332C169.939 417.938 170.675 418.565 171.368 419.215ZM132.125 418.782C132.839 418.154 133.596 417.526 134.354 416.964L134.008 416.487C133.229 417.072 132.449 417.678 131.735 418.327L132.125 418.782ZM166.822 415.73L167.125 415.232C166.303 414.712 165.437 414.236 164.571 413.803L164.311 414.323C165.177 414.756 166.021 415.21 166.822 415.73ZM136.757 415.383C137.579 414.907 138.445 414.453 139.289 414.041L139.051 413.522C138.164 413.933 137.298 414.388 136.454 414.886L136.757 415.383ZM161.671 413.197L161.866 412.656C160.956 412.31 160.004 412.007 159.073 411.769L158.922 412.332C159.852 412.57 160.783 412.851 161.671 413.197ZM141.973 412.959C142.882 412.656 143.792 412.375 144.722 412.158L144.592 411.596C143.64 411.812 142.709 412.093 141.778 412.418L141.973 412.959ZM156.129 411.725L156.216 411.163C155.264 411.011 154.268 410.903 153.294 410.838L153.251 411.422C154.225 411.466 155.199 411.574 156.129 411.725ZM147.536 411.639C148.489 411.509 149.441 411.422 150.393 411.401L150.372 410.816C149.398 410.86 148.424 410.946 147.45 411.076L147.536 411.639Z" fill="url(#paint20_linear)"/>
<path d="M374.231 725.988C375.205 725.966 376.179 725.923 377.153 725.815L377.088 725.23C376.135 725.338 375.183 725.403 374.231 725.403V725.988ZM371.287 725.879L371.33 725.295C370.378 725.208 369.425 725.079 368.495 724.905L368.386 725.468C369.339 725.663 370.313 725.793 371.287 725.879ZM380.032 725.338C380.984 725.143 381.936 724.884 382.867 724.581L382.694 724.018C381.785 724.299 380.854 724.559 379.923 724.754L380.032 725.338ZM365.551 724.797L365.724 724.234C364.815 723.975 363.884 723.65 363.018 723.304L362.802 723.845C363.668 724.213 364.598 724.537 365.551 724.797ZM385.616 723.542C386.504 723.152 387.391 722.719 388.235 722.243L387.954 721.745C387.11 722.2 386.244 722.633 385.378 723.022L385.616 723.542ZM360.118 722.611L360.377 722.092C359.533 721.659 358.711 721.161 357.91 720.641L357.585 721.118C358.408 721.659 359.252 722.157 360.118 722.611ZM390.725 720.706C391.525 720.144 392.305 719.559 393.041 718.91L392.673 718.477C391.937 719.105 391.179 719.689 390.4 720.23L390.725 720.706ZM355.226 719.386L355.594 718.931C354.858 718.325 354.143 717.698 353.451 717.027L353.04 717.438C353.732 718.131 354.468 718.78 355.226 719.386ZM395.184 716.897C395.855 716.204 396.504 715.447 397.11 714.689L396.655 714.321C396.071 715.079 395.422 715.793 394.772 716.486L395.184 716.897ZM351.07 715.295L351.524 714.927C350.918 714.191 350.334 713.412 349.793 712.633L349.317 712.957C349.858 713.758 350.442 714.538 351.07 715.295ZM398.798 712.308C399.318 711.486 399.816 710.641 400.249 709.776L399.729 709.516C399.296 710.36 398.82 711.204 398.301 712.005L398.798 712.308ZM347.78 710.447L348.299 710.165C347.845 709.321 347.433 708.455 347.065 707.568L346.524 707.784C346.892 708.693 347.325 709.581 347.78 710.447ZM401.439 707.092C401.785 706.183 402.11 705.252 402.37 704.321L401.807 704.17C401.547 705.1 401.244 706.009 400.898 706.897L401.439 707.092ZM345.529 705.035L346.091 704.862C345.81 703.953 345.572 703.022 345.399 702.07L344.836 702.178C345.009 703.152 345.247 704.105 345.529 705.035ZM403.019 701.464C403.192 700.512 403.301 699.538 403.366 698.564L402.781 698.52C402.716 699.473 402.586 700.425 402.435 701.377L403.019 701.464ZM344.381 699.3L344.966 699.235C344.879 698.282 344.836 697.33 344.836 696.356H344.251C344.23 697.351 344.295 698.326 344.381 699.3ZM402.868 695.642L403.452 695.62C403.431 694.646 403.366 693.672 403.236 692.698L402.651 692.763C402.76 693.715 402.846 694.689 402.868 695.642ZM344.858 694.992C344.901 694.04 344.987 693.066 345.139 692.135L344.554 692.049C344.403 693.001 344.316 693.997 344.273 694.971L344.858 694.992ZM402.153 689.949L402.716 689.819C402.5 688.867 402.24 687.914 401.937 687.005L401.396 687.178C401.677 688.087 401.937 689.018 402.153 689.949ZM345.68 689.3C345.918 688.369 346.2 687.46 346.524 686.551L345.983 686.356C345.658 687.265 345.377 688.217 345.139 689.148L345.68 689.3ZM400.335 684.516L400.855 684.278C400.465 683.391 400.011 682.503 399.534 681.659L399.036 681.94C399.513 682.784 399.946 683.629 400.335 684.516ZM347.628 683.91C348.039 683.044 348.494 682.2 348.992 681.378L348.494 681.075C347.996 681.897 347.52 682.784 347.109 683.65L347.628 683.91ZM397.478 679.538L397.954 679.191C397.391 678.391 396.785 677.633 396.136 676.897L395.703 677.287C396.331 678.001 396.915 678.759 397.478 679.538ZM350.594 678.997C351.156 678.239 351.784 677.481 352.433 676.789L352.001 676.399C351.351 677.114 350.723 677.871 350.139 678.65L350.594 678.997ZM393.712 675.209L394.101 674.776C393.387 674.105 392.651 673.477 391.872 672.871L391.525 673.326C392.261 673.932 392.997 674.559 393.712 675.209ZM354.468 674.776C355.182 674.148 355.94 673.52 356.698 672.958L356.351 672.481C355.572 673.066 354.793 673.672 354.079 674.321L354.468 674.776ZM389.144 671.724L389.447 671.226C388.625 670.707 387.759 670.23 386.893 669.798L386.634 670.317C387.499 670.75 388.344 671.204 389.144 671.724ZM359.1 671.378C359.923 670.901 360.789 670.447 361.633 670.036L361.395 669.516C360.507 669.927 359.641 670.382 358.797 670.88L359.1 671.378ZM384.014 669.191L384.209 668.65C383.3 668.304 382.369 668.023 381.417 667.763L381.265 668.326C382.196 668.564 383.105 668.845 384.014 669.191ZM364.295 668.953C365.183 668.65 366.114 668.369 367.044 668.153L366.914 667.59C365.962 667.828 365.01 668.088 364.1 668.412L364.295 668.953ZM378.451 667.72L378.538 667.135C377.586 666.984 376.59 666.875 375.616 666.811L375.573 667.395C376.568 667.46 377.521 667.568 378.451 667.72ZM369.88 667.633C370.832 667.503 371.785 667.417 372.737 667.395L372.715 666.811C371.741 666.854 370.767 666.94 369.793 667.07L369.88 667.633Z" fill="url(#paint21_linear)"/>
<path d="M80.5001 725.988C81.4742 725.966 82.4482 725.923 83.4223 725.815L83.3573 725.23C82.4049 725.338 81.4525 725.403 80.5001 725.403V725.988ZM77.5563 725.879L77.5996 725.295C76.6471 725.208 75.6948 725.079 74.764 724.905L74.6558 725.468C75.6082 725.663 76.5822 725.793 77.5563 725.879ZM86.3011 725.338C87.2535 725.143 88.2059 724.884 89.1367 724.581L88.9635 724.018C88.0544 724.299 87.1236 724.559 86.1929 724.754L86.3011 725.338ZM71.8202 724.797L71.9934 724.234C71.0842 723.975 70.1535 723.65 69.2877 723.304L69.0712 723.845C69.937 724.213 70.8678 724.537 71.8202 724.797ZM91.8857 723.542C92.7731 723.152 93.6606 722.719 94.5048 722.243L94.2234 721.745C93.3792 722.2 92.5134 722.633 91.6476 723.022L91.8857 723.542ZM66.3871 722.611L66.6469 722.092C65.8027 721.659 64.9802 721.161 64.1793 720.641L63.8546 721.118C64.6771 721.659 65.5213 722.157 66.3871 722.611ZM96.994 720.706C97.7949 720.144 98.5742 719.559 99.3101 718.91L98.9422 718.477C98.2062 719.105 97.4486 719.689 96.6694 720.23L96.994 720.706ZM61.4952 719.386L61.8632 718.931C61.1273 718.325 60.413 717.698 59.7203 717.027L59.309 717.438C60.0017 718.131 60.7376 718.78 61.4952 719.386ZM101.453 716.897C102.124 716.204 102.773 715.447 103.38 714.689L102.925 714.321C102.34 715.079 101.691 715.793 101.042 716.486L101.453 716.897ZM57.3393 715.295L57.7938 714.927C57.1877 714.191 56.6033 713.412 56.0622 712.633L55.586 712.957C56.1271 713.758 56.7116 714.538 57.3393 715.295ZM105.068 712.308C105.587 711.486 106.085 710.641 106.518 709.776L105.999 709.516C105.566 710.36 105.09 711.204 104.57 712.005L105.068 712.308ZM54.0491 710.447L54.5686 710.165C54.1141 709.321 53.7028 708.455 53.3349 707.568L52.7937 707.784C53.1617 708.693 53.5946 709.581 54.0491 710.447ZM107.709 707.092C108.055 706.183 108.38 705.252 108.639 704.321L108.077 704.17C107.817 705.1 107.514 706.009 107.167 706.897L107.709 707.092ZM51.798 705.035L52.3608 704.862C52.0794 703.953 51.8413 703.022 51.6681 702.07L51.1053 702.178C51.2785 703.152 51.5166 704.105 51.798 705.035ZM109.289 701.464C109.462 700.512 109.57 699.538 109.635 698.564L109.051 698.52C108.986 699.473 108.856 700.425 108.704 701.377L109.289 701.464ZM50.6508 699.3L51.2352 699.235C51.1486 698.282 51.1053 697.33 51.1053 696.356H50.5209C50.4993 697.351 50.5642 698.347 50.6508 699.3ZM109.137 695.642L109.722 695.62C109.7 694.646 109.635 693.672 109.505 692.698L108.921 692.763C109.029 693.715 109.094 694.689 109.137 695.642ZM51.127 694.992C51.1702 694.04 51.2568 693.066 51.4084 692.135L50.8239 692.049C50.6941 693.001 50.5858 693.997 50.5425 694.971L51.127 694.992ZM108.423 689.949L108.986 689.819C108.769 688.867 108.51 687.914 108.206 687.005L107.665 687.178C107.947 688.087 108.206 689.018 108.423 689.949ZM51.9495 689.3C52.1876 688.369 52.469 687.438 52.7937 686.551L52.2526 686.356C51.9279 687.265 51.6465 688.217 51.4084 689.17L51.9495 689.3ZM106.605 684.494L107.124 684.256C106.735 683.369 106.28 682.481 105.804 681.637L105.306 681.919C105.782 682.763 106.215 683.629 106.605 684.494ZM53.8976 683.91C54.3089 683.044 54.7634 682.2 55.2613 681.378L54.7634 681.075C54.2656 681.897 53.7894 682.763 53.3781 683.65L53.8976 683.91ZM103.747 679.538L104.224 679.191C103.661 678.391 103.055 677.633 102.405 676.897L101.973 677.287C102.6 678.001 103.185 678.759 103.747 679.538ZM56.863 678.997C57.4258 678.239 58.0536 677.481 58.7029 676.789L58.27 676.399C57.6206 677.114 56.993 677.871 56.4085 678.65L56.863 678.997ZM99.9812 675.209L100.371 674.776C99.6564 674.105 98.9205 673.477 98.1413 672.871L97.7949 673.326C98.5309 673.932 99.2668 674.559 99.9812 675.209ZM60.7376 674.776C61.4519 674.148 62.1879 673.52 62.9671 672.958L62.6208 672.481C61.8416 673.066 61.0623 673.672 60.348 674.321L60.7376 674.776ZM95.4139 671.724L95.7169 671.226C94.8944 670.707 94.0286 670.23 93.1628 669.798L92.903 670.317C93.7688 670.75 94.613 671.204 95.4139 671.724ZM65.3698 671.378C66.1923 670.901 67.0581 670.447 67.9023 670.036L67.6642 669.516C66.7768 669.927 65.9109 670.382 65.0668 670.88L65.3698 671.378ZM90.2839 669.191L90.4787 668.65C89.5696 668.304 88.6388 668.023 87.6864 667.763L87.5349 668.326C88.4657 668.564 89.3748 668.845 90.2839 669.191ZM70.5647 668.953C71.4522 668.65 72.3829 668.369 73.3137 668.153L73.1839 667.59C72.2315 667.828 71.2791 668.088 70.3699 668.412L70.5647 668.953ZM84.721 667.72L84.8076 667.135C83.8551 666.984 82.8594 666.875 81.8854 666.811L81.8421 667.395C82.8378 667.46 83.7902 667.568 84.721 667.72ZM76.1493 667.633C77.1017 667.503 78.0541 667.417 79.0065 667.395L78.9849 666.811C78.0109 666.854 77.0368 666.94 76.0627 667.07L76.1493 667.633Z" fill="url(#paint22_linear)"/>
</g>
<defs>
<linearGradient id="paint0_linear" x1="400" y1="-7" x2="400" y2="500" gradientUnits="userSpaceOnUse">
<stop stop-color="#6FABE3"/>
<stop offset="1" stop-color="#1E53DC"/>
</linearGradient>
<linearGradient id="paint1_linear" x1="405.628" y1="398.588" x2="405.628" y2="647.612" gradientUnits="userSpaceOnUse">
<stop stop-color="#6FABE3"/>
<stop offset="1" stop-color="#1E53DC"/>
</linearGradient>
<linearGradient id="paint2_linear" x1="262.691" y1="589.561" x2="262.691" y2="847.589" gradientUnits="userSpaceOnUse">
<stop stop-color="#6FABE3"/>
<stop offset="1" stop-color="#1E53DC"/>
</linearGradient>
<linearGradient id="paint3_linear" x1="241.208" y1="682.741" x2="241.208" y2="883" gradientUnits="userSpaceOnUse">
<stop stop-color="#6FABE3"/>
<stop offset="1" stop-color="#1E53DC"/>
</linearGradient>
<linearGradient id="paint4_linear" x1="299.251" y1="349.821" x2="299.251" y2="440.383" gradientUnits="userSpaceOnUse">
<stop stop-color="#6FABE3"/>
<stop offset="1" stop-color="#1E53DC"/>
</linearGradient>
<linearGradient id="paint5_linear" x1="80.4031" y1="637.461" x2="80.4031" y2="816.248" gradientUnits="userSpaceOnUse">
<stop stop-color="#6FABE3"/>
<stop offset="1" stop-color="#1E53DC"/>
</linearGradient>
<linearGradient id="paint6_linear" x1="430.153" y1="546.032" x2="430.153" y2="546.617" gradientUnits="userSpaceOnUse">
<stop stop-color="#6FABE3"/>
<stop offset="1" stop-color="#1E53DC"/>
</linearGradient>
<linearGradient id="paint7_linear" x1="101.009" y1="539.062" x2="101.009" y2="859.775" gradientUnits="userSpaceOnUse">
<stop stop-color="#6FABE3"/>
<stop offset="1" stop-color="#1E53DC"/>
</linearGradient>
<linearGradient id="paint8_linear" x1="436.5" y1="-34" x2="436.5" y2="463" gradientUnits="userSpaceOnUse">
<stop stop-color="#6FABE3"/>
<stop offset="1" stop-color="#1E53DC"/>
</linearGradient>
<linearGradient id="paint9_linear" x1="54.1792" y1="434.971" x2="43.9248" y2="445.226" gradientUnits="userSpaceOnUse">
<stop stop-color="#6FABE3"/>
<stop offset="1" stop-color="#1E53DC"/>
</linearGradient>
<linearGradient id="paint10_linear" x1="85.5279" y1="632.326" x2="75.2735" y2="642.581" gradientUnits="userSpaceOnUse">
<stop stop-color="#6FABE3"/>
<stop offset="1" stop-color="#1E53DC"/>
</linearGradient>
<linearGradient id="paint11_linear" x1="248.751" y1="586.097" x2="248.751" y2="593.629" gradientUnits="userSpaceOnUse">
<stop stop-color="#6FABE3"/>
<stop offset="1" stop-color="#1E53DC"/>
</linearGradient>
<linearGradient id="paint12_linear" x1="227.841" y1="586.097" x2="227.841" y2="593.629" gradientUnits="userSpaceOnUse">
<stop stop-color="#6FABE3"/>
<stop offset="1" stop-color="#1E53DC"/>
</linearGradient>
<linearGradient id="paint13_linear" x1="153.225" y1="395.404" x2="150.343" y2="402.364" gradientUnits="userSpaceOnUse">
<stop stop-color="#6FABE3"/>
<stop offset="1" stop-color="#1E53DC"/>
</linearGradient>
<linearGradient id="paint14_linear" x1="331.762" y1="496.119" x2="331.762" y2="503.652" gradientUnits="userSpaceOnUse">
<stop stop-color="#6FABE3"/>
<stop offset="1" stop-color="#1E53DC"/>
</linearGradient>
<linearGradient id="paint15_linear" x1="80.3919" y1="692.33" x2="80.3919" y2="699.863" gradientUnits="userSpaceOnUse">
<stop stop-color="#6FABE3"/>
<stop offset="1" stop-color="#1E53DC"/>
</linearGradient>
<linearGradient id="paint16_linear" x1="400.482" y1="349.523" x2="393.048" y2="350.737" gradientUnits="userSpaceOnUse">
<stop stop-color="#6FABE3"/>
<stop offset="1" stop-color="#1E53DC"/>
</linearGradient>
<linearGradient id="paint17_linear" x1="379.585" y1="349.534" x2="372.151" y2="350.748" gradientUnits="userSpaceOnUse">
<stop stop-color="#6FABE3"/>
<stop offset="1" stop-color="#1E53DC"/>
</linearGradient>
<linearGradient id="paint18_linear" x1="243.049" y1="675.739" x2="239.309" y2="689.751" gradientUnits="userSpaceOnUse">
<stop stop-color="#6FABE3"/>
<stop offset="1" stop-color="#1E53DC"/>
</linearGradient>
<linearGradient id="paint19_linear" x1="342.119" y1="541.187" x2="331.864" y2="551.442" gradientUnits="userSpaceOnUse">
<stop stop-color="#6FABE3"/>
<stop offset="1" stop-color="#1E53DC"/>
</linearGradient>
<linearGradient id="paint20_linear" x1="151.516" y1="410.816" x2="151.516" y2="469.993" gradientUnits="userSpaceOnUse">
<stop stop-color="#6FABE3"/>
<stop offset="1" stop-color="#1E53DC"/>
</linearGradient>
<linearGradient id="paint21_linear" x1="373.85" y1="666.811" x2="373.85" y2="725.988" gradientUnits="userSpaceOnUse">
<stop stop-color="#6FABE3"/>
<stop offset="1" stop-color="#1E53DC"/>
</linearGradient>
<linearGradient id="paint22_linear" x1="80.1192" y1="666.811" x2="80.1192" y2="725.988" gradientUnits="userSpaceOnUse">
<stop stop-color="#6FABE3"/>
<stop offset="1" stop-color="#1E53DC"/>
</linearGradient>
<clipPath id="clip0">
<rect width="649" height="904" fill="white" transform="matrix(-1 0 0 1 649 -21)"/>
</clipPath>
</defs>
</svg>
