<svg width="200" height="32" viewBox="0 0 200 32" fill="none" xmlns="http://www.w3.org/2000/svg">
<path d="M101.233 29.3891C100.318 29.3891 99.5223 29.2183 98.8431 28.8805C98.1638 28.5427 97.826 27.7509 97.826 26.505V0.0107422H90.4814C90.4814 0.0107422 93.9176 1.41646 93.9176 4.42766L93.9794 11.6669C93.3691 10.5627 92.4974 9.7454 91.4839 9.05163C90.4705 8.35785 89.1629 8.01277 87.5538 8.01277C84.8114 8.01277 82.7082 8.96081 81.2553 10.8533C79.7987 12.7493 79.0723 15.746 79.0723 19.8433C79.0723 23.9151 79.7987 26.89 81.2553 28.7716C82.7119 30.6531 84.8114 31.5903 87.5538 31.5903C89.1883 31.5903 90.5069 31.2089 91.5021 30.4461C92.501 29.6833 93.3037 28.6517 93.914 27.3513C93.914 27.3513 94.0883 31.1689 97.7643 31.1689C99.9872 31.1689 101.894 31.1689 101.894 31.1689V29.3891H101.233ZM92.7081 26.6539C91.9053 28.1395 90.4197 28.8805 88.2584 28.8805C86.4023 28.8805 85.0765 28.1323 84.2883 26.6321C83.5001 25.1356 83.1042 22.8872 83.1042 19.8905C83.1042 16.9229 83.5001 14.6527 84.2883 13.0835C85.0765 11.5143 86.3878 10.7298 88.2185 10.7298C90.4088 10.7298 91.9053 11.5143 92.7081 13.0835C93.5108 14.6527 93.914 16.9084 93.914 19.8469C93.914 22.8981 93.5144 25.1683 92.7081 26.6539ZM21.6197 17.337C20.4282 16.0257 18.8881 15.1975 17.003 14.8488V14.6745C18.4704 14.1805 19.6981 13.4032 20.6825 12.3389C21.6669 11.2782 22.1572 9.77083 22.1572 7.8239C22.1572 5.14687 21.2782 3.17814 19.5165 1.91046C17.7548 0.646405 15.0742 0.0107422 11.4709 0.0107422H0.00363034V1.84507H0.54485C1.4602 1.84507 2.25568 2.01942 2.93493 2.36812C3.61417 2.71683 3.95198 3.53047 3.95198 4.81269V26.1962C3.95198 27.5656 3.61781 28.4301 2.95309 28.7934C2.28837 29.1566 1.48199 29.3382 0.541217 29.3382H0V31.1725H12.7204C19.8434 31.1725 23.4068 28.3647 23.4068 22.7492C23.4104 20.4499 22.8147 18.6446 21.6197 17.337ZM8.15096 2.19378H11.2675C13.6213 2.19378 15.2849 2.60059 16.2583 3.41424C17.2282 4.22788 17.7149 5.69898 17.7149 7.82026C17.7149 9.91612 17.2645 11.4272 16.3637 12.3607C15.4628 13.2906 13.792 13.7555 11.3547 13.7555H8.15459V2.19378H8.15096ZM17.5042 27.5475C16.5344 28.5064 14.8708 28.9859 12.5134 28.9859H8.15096V15.9385H12.5969C15.0342 15.9385 16.7051 16.4834 17.6059 17.5767C18.5067 18.6664 18.9571 20.3482 18.9571 22.6184C18.9608 24.9431 18.474 26.5885 17.5042 27.5475ZM77.8409 28.8587C77.2743 28.5064 76.9873 27.6637 76.9873 26.3343V16.3272C76.9873 13.4141 76.3698 11.3 75.1385 9.98513C73.9035 8.67022 72.1926 8.01277 70.0023 8.01277C68.6729 8.01277 67.4379 8.19076 66.4063 8.75377C64.1071 10.0069 63.3079 11.8703 63.3079 11.8703L62.7667 8.43412H56.0324V10.214H56.2394C57.1548 10.214 57.9357 10.3847 58.5895 10.7225C59.2397 11.0603 59.5666 11.8521 59.5666 13.098V26.3343C59.5666 28.5936 58.793 29.3854 57.1766 29.3891C56.2431 29.3891 55.9161 29.1747 55.5275 28.7534C55.1388 28.3284 54.9463 27.522 54.9463 26.3343V15.3501C54.9463 12.6658 54.3143 10.7697 53.0539 9.66548C51.7934 8.56125 49.8865 8.01277 47.3366 8.01277C45.949 8.01277 44.4125 8.14717 43.2901 8.41597C42.1678 8.68476 41.2669 9.12427 40.5877 9.73087C40.268 10.0178 40.0283 10.3411 39.8576 10.7043C39.36 9.20781 37.5147 8.01277 35.1283 8.01277C33.9078 8.01277 32.9525 8.22345 32.2588 8.64843C31.565 9.07341 30.3663 9.83621 29.4328 12.1282L28.9933 8.43412H23.1888C23.1888 8.43412 25.5644 9.54562 25.5644 13.7737V26.3343C25.5644 27.6637 25.2302 28.5064 24.5655 28.8587C23.9008 29.2111 23.0944 29.3891 22.1536 29.3891H22.0301V31.1689H34.0459V29.3891H32.8835C31.9682 29.3891 31.1727 29.2256 30.4934 28.9023C29.8142 28.579 29.4764 27.7945 29.4764 26.5486V19.8905C29.4764 14.3112 31.071 12.3716 31.5977 11.7468C32.1244 11.1257 32.7745 10.8133 33.5519 10.8133C36.0763 10.8133 36.4614 13.2724 36.1345 14.758C37.2242 14.758 38.9822 14.2422 39.6905 12.851C40.2172 14.4493 42.3857 14.758 43.4028 14.758C42.7126 13.6647 42.3603 10.1341 47.1768 10.1341C48.3137 10.1341 49.1564 10.3593 49.7121 10.8133C50.2679 11.2673 50.6275 11.8812 50.7946 12.6585C50.9616 13.4359 51.0452 14.333 51.0452 15.3501V17.8963C51.0452 17.8963 43.726 16.9701 39.676 19.8033C38.1213 20.893 37.3259 22.5457 37.3259 24.8087C37.3259 27.1261 37.9361 28.8369 39.1566 29.9412C40.377 31.0454 42.5746 31.5939 44.4307 31.5939C45.5676 31.5939 46.6392 31.4159 47.3874 31.0636C48.1357 30.7112 48.7859 30.2318 49.3416 29.6215C49.8974 29.0149 50.464 28.3139 51.0452 27.522C51.0452 27.522 51.2595 31.1689 54.6848 31.1689C56.1268 31.1689 67.0129 31.1689 67.0129 31.1689V29.3891H66.8059C65.8905 29.3891 65.1096 29.2256 64.4558 28.9023C63.8056 28.579 63.4787 27.7945 63.4787 26.5486V17.5985C63.4787 16.3817 63.6385 15.252 63.9581 14.2059C64.2778 13.1598 64.8045 12.3171 65.5382 11.6814C66.2719 11.0458 67.2635 10.7261 68.5094 10.7261C70.1985 10.7261 71.3863 11.2347 72.0655 12.2517C72.7447 13.2688 73.0862 14.6963 73.0862 16.5342V31.1653H80.3218V29.3854H80.1147C79.1667 29.3891 78.4112 29.2111 77.8409 28.8587ZM51.0415 23.0688C51.0415 24.8777 50.5439 26.3125 49.545 27.3731C48.5461 28.4337 47.54 28.9641 45.8473 28.9641C43.6025 28.9641 41.3541 27.6492 41.3541 25.0194C41.3541 23.3521 41.8009 22.0808 42.7053 21.2236C45.1099 18.9461 51.0415 19.6326 51.0415 19.6326V23.0688Z" fill="#00253E"/>
<path d="M199.876 28.9243C198.947 28.9243 198.256 28.7499 197.802 28.394C197.352 28.0416 197.123 27.2171 197.123 25.9203V16.1058C197.123 13.258 196.52 11.184 195.318 9.88721C194.112 8.59047 192.456 7.94028 190.349 7.94028C186.847 7.94028 184.835 9.48403 184.065 11.3656L184.025 0.0145324H174.374C174.374 0.0145324 177.781 1.21683 177.781 4.83827L177.821 26.0039C177.821 28.245 175.78 29.1168 174.545 29.1168C174.203 29.1168 173.629 29.1168 173.222 29.1168C172.263 29.1168 171.573 28.8189 171.148 28.2269C170.723 27.6348 170.513 26.7049 170.513 25.4336L170.353 11.3619H175.278V8.48513H170.353V3.24005C170.353 3.24005 166.423 8.48513 159.296 8.48513H149.975V10.7263H150.099C150.894 10.7263 151.585 10.8752 152.173 11.1694C152.761 11.4673 153.056 12.2192 153.056 13.4324V21.5543C153.056 23.5303 152.761 25.0958 152.173 26.2509C151.585 27.4096 150.633 27.9871 149.318 27.9871C148.112 27.9871 147.291 27.4459 146.855 26.3598C146.416 25.2738 146.198 23.8281 146.198 22.0228V8.48513H136.434C135.689 8.14732 134.716 7.9766 133.506 7.9766C131.836 7.9766 130.459 8.36526 129.347 9.34236C127.953 10.5628 127.513 11.7869 127.513 11.7869L126.692 8.48513H118.396C118.396 8.48513 121.476 10.2468 121.476 13.9409V25.8731C121.476 27.1989 121.182 28.038 120.593 28.3903C120.005 28.7427 119.645 28.9206 118.654 28.9206C117.666 28.9206 116.413 28.9533 115.683 28.4557C115.268 28.1724 115.087 27.3842 115.087 26.171V2.58258H118.77C121.516 2.58258 121.476 6.67623 121.476 6.67623H124.226V0H99.417V6.67623H102.167C102.167 6.67623 102.112 2.58258 104.873 2.58258H108.556V26.171C108.556 27.3842 108.356 28.147 107.96 28.4557C107.564 28.7681 107.063 28.9206 106.46 28.9206H103.525V31.1618H131.901V28.9206H130.586C129.765 28.9206 129.079 28.7572 128.534 28.4339C127.985 28.1106 127.713 27.326 127.713 26.0874V18.7683C127.713 18.2888 127.753 17.6677 127.836 16.9049C127.92 16.1421 128.069 15.3902 128.287 14.6419C128.505 13.8937 128.835 13.2653 129.271 12.7604C129.707 12.2519 130.285 11.9976 130.996 11.9976C133.394 11.9976 133.757 14.464 133.358 15.797C134.999 15.797 138.225 15.096 138.225 11.4055C138.225 11.1985 138.207 11.0023 138.181 10.8135C138.657 10.9043 139.031 11.0641 139.3 11.3002C139.736 11.6816 139.957 12.4916 139.957 13.7339V23.2106C139.957 26.0584 140.531 28.1687 141.683 29.5345C142.834 30.9039 144.476 31.5868 146.608 31.5868C147.894 31.5868 149.118 31.4415 150.201 30.9729C152.213 30.1048 153.096 28.1578 153.096 28.1578C153.096 28.1578 154.105 31.1618 156.848 31.1618C159.59 31.1618 162.376 31.1618 162.376 31.1618C162.376 31.1618 159.296 29.9777 159.296 26.2545V11.3619H164.112L164.272 25.2375C164.272 27.7183 164.737 31.1654 170.309 31.1654C171.759 31.1654 187.105 31.1618 187.105 31.1618V28.9206H186.982C186.077 28.9206 185.365 28.7572 184.846 28.4339C184.326 28.1106 184.065 27.3551 184.065 26.171L184.025 18.089C184.025 16.9339 184.134 15.8551 184.352 14.8526C184.57 13.8501 184.94 13.0473 185.46 12.4407C185.979 11.8341 186.691 11.5327 187.596 11.5327C188.801 11.5327 189.648 12.0267 190.142 13.0146C190.636 14.0026 190.879 15.412 190.879 17.2463V31.1654H199.996V28.9243H199.876ZM197.054 5.79358H197.948C198.434 5.79358 198.863 5.99335 198.863 6.5491C198.863 6.83605 198.678 7.12301 198.416 7.23561L198.965 8.16549H198.431L197.948 7.34822H197.541V8.16549H197.058V5.79358H197.054ZM197.835 6.97045C198.151 6.97045 198.347 6.83968 198.347 6.58179C198.347 6.34932 198.216 6.18586 197.864 6.18586H197.534V6.97045H197.835ZM197.875 9.10263C196.702 9.10263 195.75 8.14732 195.75 6.97771C195.75 5.8081 196.702 4.85279 197.875 4.85279C199.048 4.85279 200 5.8081 200 6.97771C200 8.14732 199.048 9.10263 197.875 9.10263ZM197.875 5.23056C196.912 5.23056 196.128 6.01514 196.128 6.97771C196.128 7.94028 196.912 8.72486 197.875 8.72486C198.838 8.72486 199.622 7.94028 199.622 6.97771C199.622 6.01514 198.838 5.23056 197.875 5.23056Z" fill="#00B2E3"/>
</svg>
