<svg width="391" height="66" viewBox="0 0 391 66" fill="none" xmlns="http://www.w3.org/2000/svg">
<rect x="8" width="383" height="66" rx="4" fill="#FFB449"/>
<path d="M29.1222 51L26.3331 40.8182H27.2777L29.5845 49.5732H29.6641L31.9709 40.8182H33.0447L35.3516 49.5732H35.4311L37.7379 40.8182H38.6875L35.8984 51H34.9041L32.5426 42.3643H32.478L30.1165 51H29.1222ZM42.5604 51.1591C41.8478 51.1591 41.2313 50.9934 40.7109 50.6619C40.1906 50.3272 39.7879 49.8648 39.5028 49.2749C39.2211 48.6816 39.0803 47.9988 39.0803 47.2266C39.0803 46.4543 39.2211 45.7699 39.5028 45.1733C39.7879 44.5767 40.1806 44.1094 40.6811 43.7713C41.1849 43.4299 41.7666 43.2592 42.4261 43.2592C42.9796 43.2592 43.5017 43.3951 43.9922 43.6669C44.486 43.9354 44.8871 44.3464 45.1953 44.8999C45.5036 45.4534 45.6577 46.156 45.6577 47.0078V47.4453H39.9702C39.9901 48.3269 40.232 49.0312 40.696 49.5582C41.16 50.0852 41.7815 50.3487 42.5604 50.3487C43.1039 50.3487 43.5481 50.2261 43.8928 49.9808C44.2375 49.7322 44.4827 49.4373 44.6286 49.0959L45.4688 49.3693C45.2964 49.8499 44.96 50.2692 44.4595 50.6271C43.959 50.9818 43.326 51.1591 42.5604 51.1591ZM39.9751 46.6648H44.7528C44.7528 46.1742 44.6534 45.7334 44.4545 45.3423C44.259 44.9479 43.9856 44.6364 43.6342 44.4077C43.2862 44.179 42.8835 44.0646 42.4261 44.0646C41.9621 44.0646 41.5511 44.1823 41.1932 44.4176C40.8385 44.6529 40.5552 44.9678 40.343 45.3622C40.1309 45.7566 40.0083 46.1908 39.9751 46.6648ZM53.2406 51L50.9338 43.3636H51.8684L53.6781 49.6626H53.7427L55.5474 43.3636H56.487L58.2768 49.6477H58.3464L60.1561 43.3636H61.0907L58.7839 51H57.8691L56.0595 44.7408H55.965L54.1554 51H53.2406ZM62.8208 51V43.3636H63.7108V51H62.8208ZM63.2733 42.0511C63.091 42.0511 62.9352 41.9882 62.8059 41.8622C62.6767 41.7363 62.612 41.5871 62.612 41.4148C62.612 41.2391 62.6767 41.09 62.8059 40.9673C62.9352 40.8414 63.091 40.7784 63.2733 40.7784C63.4556 40.7784 63.6113 40.8414 63.7406 40.9673C63.8732 41.09 63.9395 41.2391 63.9395 41.4148C63.9395 41.5871 63.8732 41.7363 63.7406 41.8622C63.6113 41.9882 63.4556 42.0511 63.2733 42.0511ZM66.9361 40.8182V51H66.0511V40.8182H66.9361ZM70.1626 40.8182V51H69.2777V40.8182H70.1626ZM79.4496 43.3636V44.1342H77.8338V49.0064C77.8338 49.487 77.9498 49.8151 78.1818 49.9908C78.4171 50.1631 78.6856 50.2493 78.9872 50.2493C79.1032 50.2493 79.2027 50.2427 79.2855 50.2294C79.3684 50.2128 79.4413 50.1963 79.5043 50.1797L79.6932 50.9801C79.6103 51.0133 79.5043 51.0431 79.375 51.0696C79.2491 51.0994 79.0933 51.1143 78.9077 51.1143C78.5829 51.1143 78.2696 51.0431 77.968 50.9006C77.6664 50.758 77.4195 50.5459 77.2273 50.2642C77.0384 49.9825 76.9439 49.6328 76.9439 49.2152V44.1342H75.8054V43.3636H76.9439V41.5341H77.8338V43.3636H79.4496ZM84.4647 51.1591C83.7521 51.1591 83.1356 50.9934 82.6152 50.6619C82.0949 50.3272 81.6922 49.8648 81.4071 49.2749C81.1254 48.6816 80.9846 47.9988 80.9846 47.2266C80.9846 46.4543 81.1254 45.7699 81.4071 45.1733C81.6922 44.5767 82.0849 44.1094 82.5854 43.7713C83.0892 43.4299 83.6709 43.2592 84.3304 43.2592C84.8839 43.2592 85.406 43.3951 85.8965 43.6669C86.3903 43.9354 86.7914 44.3464 87.0996 44.8999C87.4078 45.4534 87.562 46.156 87.562 47.0078V47.4453H81.8745C81.8944 48.3269 82.1363 49.0312 82.6003 49.5582C83.0643 50.0852 83.6858 50.3487 84.4647 50.3487C85.0082 50.3487 85.4524 50.2261 85.7971 49.9808C86.1417 49.7322 86.387 49.4373 86.5328 49.0959L87.373 49.3693C87.2007 49.8499 86.8643 50.2692 86.3638 50.6271C85.8633 50.9818 85.2303 51.1591 84.4647 51.1591ZM81.8794 46.6648H86.6571C86.6571 46.1742 86.5577 45.7334 86.3588 45.3423C86.1633 44.9479 85.8899 44.6364 85.5385 44.4077C85.1905 44.179 84.7878 44.0646 84.3304 44.0646C83.8664 44.0646 83.4554 44.1823 83.0975 44.4176C82.7428 44.6529 82.4595 44.9678 82.2473 45.3622C82.0352 45.7566 81.9126 46.1908 81.8794 46.6648ZM90.397 40.8182V51H89.5121V40.8182H90.397ZM93.6236 40.8182V51H92.7386V40.8182H93.6236ZM100.479 53.983C100.304 53.983 100.14 53.9664 99.9872 53.9332C99.8348 53.9034 99.7138 53.867 99.6243 53.8239L99.8629 53.0433C100.31 53.1858 100.688 53.1858 100.996 53.0433C101.308 52.9041 101.568 52.5478 101.777 51.9744L102.1 51.0746L99.2912 43.3636H100.251L102.518 49.8317H102.587L104.854 43.3636H105.814L102.538 52.3324C102.133 53.4328 101.447 53.983 100.479 53.983ZM110.24 51.1591C109.58 51.1591 108.997 50.9917 108.49 50.657C107.986 50.3222 107.592 49.8598 107.307 49.2699C107.022 48.6766 106.879 47.9922 106.879 47.2166C106.879 46.4344 107.022 45.7467 107.307 45.1534C107.592 44.5601 107.986 44.0961 108.49 43.7614C108.997 43.4266 109.58 43.2592 110.24 43.2592C110.899 43.2592 111.481 43.4266 111.985 43.7614C112.492 44.0961 112.888 44.5601 113.173 45.1534C113.458 45.7467 113.601 46.4344 113.601 47.2166C113.601 47.9922 113.458 48.6766 113.173 49.2699C112.888 49.8598 112.492 50.3222 111.985 50.657C111.481 50.9917 110.899 51.1591 110.24 51.1591ZM110.24 50.3487C110.77 50.3487 111.218 50.2062 111.582 49.9212C111.95 49.6361 112.23 49.2566 112.422 48.7827C112.615 48.3087 112.711 47.7867 112.711 47.2166C112.711 46.6465 112.615 46.1229 112.422 45.6456C112.23 45.1683 111.95 44.7855 111.582 44.4972C111.218 44.2088 110.77 44.0646 110.24 44.0646C109.713 44.0646 109.265 44.2088 108.898 44.4972C108.53 44.7855 108.25 45.1683 108.057 45.6456C107.865 46.1229 107.769 46.6465 107.769 47.2166C107.769 47.7867 107.865 48.3087 108.057 48.7827C108.25 49.2566 108.53 49.6361 108.898 49.9212C109.265 50.2062 109.713 50.3487 110.24 50.3487ZM120.396 48.0817V43.3636H121.281V51H120.396V49.7322H120.326C120.147 50.1233 119.864 50.4498 119.476 50.7116C119.088 50.9702 118.614 51.0994 118.054 51.0994C117.321 51.0994 116.72 50.8608 116.249 50.3835C115.779 49.9062 115.543 49.2152 115.543 48.3104V43.3636H116.428V48.2557C116.428 48.8523 116.604 49.3329 116.955 49.6974C117.307 50.0587 117.757 50.2393 118.308 50.2393C118.652 50.2393 118.984 50.1565 119.302 49.9908C119.623 49.825 119.885 49.5831 120.087 49.2649C120.293 48.9434 120.396 48.549 120.396 48.0817ZM129.256 51L126.949 43.3636H127.884L129.694 49.6626H129.758L131.563 43.3636H132.503L134.292 49.6477H134.362L136.172 43.3636H137.106L134.8 51H133.885L132.075 44.7408H131.981L130.171 51H129.256ZM139.711 46.2273V51H138.827V40.8182H139.711V44.5618H139.791C139.97 44.1674 140.247 43.8525 140.621 43.6172C140.999 43.3819 141.476 43.2642 142.053 43.2642C142.829 43.2642 143.457 43.5012 143.937 43.9751C144.418 44.4491 144.658 45.1418 144.658 46.0533V51H143.768V46.108C143.768 45.4782 143.593 44.9827 143.241 44.6214C142.893 44.2569 142.423 44.0746 141.829 44.0746C141.22 44.0746 140.714 44.2668 140.313 44.6513C139.912 45.0357 139.711 45.5611 139.711 46.2273ZM147.292 53.983C147.116 53.983 146.952 53.9664 146.8 53.9332C146.647 53.9034 146.526 53.867 146.437 53.8239L146.675 53.0433C147.123 53.1858 147.501 53.1858 147.809 53.0433C148.121 52.9041 148.381 52.5478 148.589 51.9744L148.913 51.0746L146.104 43.3636H147.063L149.33 49.8317H149.4L151.667 43.3636H152.626L149.35 52.3324C148.946 53.4328 148.26 53.983 147.292 53.983ZM161.303 43.3636V44.1342H159.687V49.0064C159.687 49.487 159.803 49.8151 160.035 49.9908C160.271 50.1631 160.539 50.2493 160.841 50.2493C160.957 50.2493 161.056 50.2427 161.139 50.2294C161.222 50.2128 161.295 50.1963 161.358 50.1797L161.547 50.9801C161.464 51.0133 161.358 51.0431 161.229 51.0696C161.103 51.0994 160.947 51.1143 160.761 51.1143C160.436 51.1143 160.123 51.0431 159.822 50.9006C159.52 50.758 159.273 50.5459 159.081 50.2642C158.892 49.9825 158.797 49.6328 158.797 49.2152V44.1342H157.659V43.3636H158.797V41.5341H159.687V43.3636H161.303ZM164.362 46.2273V51H163.477V40.8182H164.362V44.5618H164.441C164.62 44.1674 164.897 43.8525 165.272 43.6172C165.65 43.3819 166.127 43.2642 166.703 43.2642C167.479 43.2642 168.107 43.5012 168.588 43.9751C169.068 44.4491 169.309 45.1418 169.309 46.0533V51H168.419V46.108C168.419 45.4782 168.243 44.9827 167.892 44.6214C167.544 44.2569 167.073 44.0746 166.48 44.0746C165.87 44.0746 165.364 44.2668 164.963 44.6513C164.562 45.0357 164.362 45.5611 164.362 46.2273ZM171.649 51V43.3636H172.539V51H171.649ZM172.101 42.0511C171.919 42.0511 171.763 41.9882 171.634 41.8622C171.505 41.7363 171.44 41.5871 171.44 41.4148C171.44 41.2391 171.505 41.09 171.634 40.9673C171.763 40.8414 171.919 40.7784 172.101 40.7784C172.284 40.7784 172.439 40.8414 172.569 40.9673C172.701 41.09 172.768 41.2391 172.768 41.4148C172.768 41.5871 172.701 41.7363 172.569 41.8622C172.439 41.9882 172.284 42.0511 172.101 42.0511ZM180.01 45.0391L179.2 45.2678C179.08 44.9231 178.883 44.633 178.608 44.3977C178.333 44.1591 177.938 44.0398 177.425 44.0398C176.911 44.0398 176.487 44.1624 176.152 44.4077C175.821 44.6529 175.655 44.9695 175.655 45.3572C175.655 45.6887 175.768 45.9555 175.993 46.1577C176.222 46.3598 176.573 46.5206 177.047 46.6399L178.2 46.9233C179.48 47.2382 180.119 47.9093 180.119 48.9368C180.119 49.3677 180 49.7505 179.761 50.0852C179.523 50.42 179.19 50.6835 178.762 50.8757C178.338 51.0646 177.846 51.1591 177.286 51.1591C176.536 51.1591 175.92 50.9917 175.436 50.657C174.955 50.3189 174.647 49.8317 174.511 49.1953L175.362 48.9865C175.577 49.9046 176.213 50.3636 177.271 50.3636C177.857 50.3636 178.326 50.2327 178.678 49.9709C179.029 49.7057 179.205 49.3743 179.205 48.9766C179.205 48.3435 178.79 47.9292 177.962 47.7337L176.714 47.4354C176.051 47.2763 175.56 47.0244 175.242 46.6797C174.924 46.335 174.765 45.9074 174.765 45.397C174.765 44.9761 174.879 44.6065 175.108 44.2884C175.337 43.9669 175.652 43.715 176.053 43.5327C176.454 43.3504 176.911 43.2592 177.425 43.2592C178.124 43.2592 178.683 43.4183 179.1 43.7365C179.521 44.0514 179.824 44.4856 180.01 45.0391ZM186.004 51V43.3636H186.894V51H186.004ZM186.457 42.0511C186.275 42.0511 186.119 41.9882 185.99 41.8622C185.86 41.7363 185.796 41.5871 185.796 41.4148C185.796 41.2391 185.86 41.09 185.99 40.9673C186.119 40.8414 186.275 40.7784 186.457 40.7784C186.639 40.7784 186.795 40.8414 186.924 40.9673C187.057 41.09 187.123 41.2391 187.123 41.4148C187.123 41.5871 187.057 41.7363 186.924 41.8622C186.795 41.9882 186.639 42.0511 186.457 42.0511ZM194.365 45.0391L193.555 45.2678C193.436 44.9231 193.239 44.633 192.963 44.3977C192.688 44.1591 192.294 44.0398 191.78 44.0398C191.266 44.0398 190.842 44.1624 190.507 44.4077C190.176 44.6529 190.01 44.9695 190.01 45.3572C190.01 45.6887 190.123 45.9555 190.348 46.1577C190.577 46.3598 190.928 46.5206 191.402 46.6399L192.556 46.9233C193.835 47.2382 194.475 47.9093 194.475 48.9368C194.475 49.3677 194.355 49.7505 194.117 50.0852C193.878 50.42 193.545 50.6835 193.118 50.8757C192.693 51.0646 192.201 51.1591 191.641 51.1591C190.892 51.1591 190.275 50.9917 189.792 50.657C189.311 50.3189 189.003 49.8317 188.867 49.1953L189.717 48.9865C189.932 49.9046 190.569 50.3636 191.626 50.3636C192.213 50.3636 192.682 50.2327 193.033 49.9709C193.384 49.7057 193.56 49.3743 193.56 48.9766C193.56 48.3435 193.146 47.9292 192.317 47.7337L191.069 47.4354C190.406 47.2763 189.916 47.0244 189.598 46.6797C189.279 46.335 189.12 45.9074 189.12 45.397C189.12 44.9761 189.235 44.6065 189.463 44.2884C189.692 43.9669 190.007 43.715 190.408 43.5327C190.809 43.3504 191.266 43.2592 191.78 43.2592C192.48 43.2592 193.038 43.4183 193.456 43.7365C193.877 44.0514 194.18 44.4856 194.365 45.0391ZM200.36 51V43.3636H201.25V51H200.36ZM200.812 42.0511C200.63 42.0511 200.474 41.9882 200.345 41.8622C200.216 41.7363 200.151 41.5871 200.151 41.4148C200.151 41.2391 200.216 41.09 200.345 40.9673C200.474 40.8414 200.63 40.7784 200.812 40.7784C200.995 40.7784 201.15 40.8414 201.28 40.9673C201.412 41.09 201.479 41.2391 201.479 41.4148C201.479 41.5871 201.412 41.7363 201.28 41.8622C201.15 41.9882 200.995 42.0511 200.812 42.0511ZM203.59 51V43.3636H204.45V44.5369H204.53C204.682 44.1425 204.936 43.8326 205.29 43.6072C205.648 43.3786 206.078 43.2642 206.578 43.2642C207.105 43.2642 207.538 43.3868 207.876 43.6321C208.217 43.8774 208.472 44.2171 208.641 44.6513H208.706C208.878 44.227 209.158 43.8906 209.546 43.642C209.937 43.3902 210.411 43.2642 210.968 43.2642C211.677 43.2642 212.237 43.4879 212.648 43.9354C213.059 44.3795 213.265 45.0291 213.265 45.8842V51H212.38V45.8842C212.38 45.281 212.226 44.8286 211.918 44.527C211.609 44.2254 211.203 44.0746 210.7 44.0746C210.12 44.0746 209.67 44.2536 209.352 44.6115C209.037 44.9695 208.88 45.4235 208.88 45.9737V51H207.975V45.8047C207.975 45.2876 207.831 44.87 207.543 44.5518C207.254 44.2337 206.848 44.0746 206.325 44.0746C205.794 44.0746 205.353 44.2652 205.002 44.6463C204.651 45.0275 204.475 45.5147 204.475 46.108V51H203.59ZM215.593 53.8636V43.3636H216.453V44.8203H216.562C216.665 44.5916 216.809 44.358 216.995 44.1193C217.18 43.8774 217.426 43.6735 217.731 43.5078C218.039 43.3421 218.427 43.2592 218.894 43.2592C219.524 43.2592 220.076 43.425 220.55 43.7564C221.023 44.0845 221.391 44.5452 221.653 45.1385C221.918 45.7285 222.051 46.4162 222.051 47.2017C222.051 47.9905 221.918 48.6816 221.653 49.2749C221.391 49.8681 221.023 50.3305 220.55 50.6619C220.079 50.9934 219.532 51.1591 218.909 51.1591C218.448 51.1591 218.062 51.0762 217.751 50.9105C217.439 50.7448 217.189 50.541 217 50.299C216.811 50.0537 216.665 49.8151 216.562 49.5831H216.483V53.8636H215.593ZM216.468 47.1868C216.468 47.8 216.559 48.3452 216.741 48.8224C216.927 49.2997 217.194 49.6742 217.542 49.946C217.89 50.2145 218.309 50.3487 218.8 50.3487C219.307 50.3487 219.736 50.2095 220.087 49.9311C220.439 49.6494 220.705 49.2699 220.888 48.7926C221.07 48.3153 221.161 47.7801 221.161 47.1868C221.161 46.6001 221.07 46.0715 220.888 45.6009C220.709 45.1302 220.443 44.7573 220.092 44.4822C219.744 44.2038 219.313 44.0646 218.8 44.0646C218.302 44.0646 217.88 44.1989 217.532 44.4673C217.187 44.7325 216.924 45.1004 216.741 45.571C216.559 46.0384 216.468 46.5769 216.468 47.1868ZM226.957 51.1591C226.297 51.1591 225.714 50.9917 225.207 50.657C224.703 50.3222 224.308 49.8598 224.023 49.2699C223.738 48.6766 223.596 47.9922 223.596 47.2166C223.596 46.4344 223.738 45.7467 224.023 45.1534C224.308 44.5601 224.703 44.0961 225.207 43.7614C225.714 43.4266 226.297 43.2592 226.957 43.2592C227.616 43.2592 228.198 43.4266 228.702 43.7614C229.209 44.0961 229.605 44.5601 229.89 45.1534C230.175 45.7467 230.317 46.4344 230.317 47.2166C230.317 47.9922 230.175 48.6766 229.89 49.2699C229.605 49.8598 229.209 50.3222 228.702 50.657C228.198 50.9917 227.616 51.1591 226.957 51.1591ZM226.957 50.3487C227.487 50.3487 227.934 50.2062 228.299 49.9212C228.667 49.6361 228.947 49.2566 229.139 48.7827C229.331 48.3087 229.428 47.7867 229.428 47.2166C229.428 46.6465 229.331 46.1229 229.139 45.6456C228.947 45.1683 228.667 44.7855 228.299 44.4972C227.934 44.2088 227.487 44.0646 226.957 44.0646C226.43 44.0646 225.982 44.2088 225.614 44.4972C225.246 44.7855 224.966 45.1683 224.774 45.6456C224.582 46.1229 224.486 46.6465 224.486 47.2166C224.486 47.7867 224.582 48.3087 224.774 48.7827C224.966 49.2566 225.246 49.6361 225.614 49.9212C225.982 50.2062 226.43 50.3487 226.957 50.3487ZM232.26 51V43.3636H233.12V44.5369H233.185C233.341 44.1525 233.607 43.8426 233.985 43.6072C234.363 43.3686 234.792 43.2493 235.273 43.2493C235.346 43.2493 235.427 43.2509 235.517 43.2543C235.606 43.2576 235.681 43.2609 235.74 43.2642V44.1641C235.7 44.1574 235.631 44.1475 235.531 44.1342C235.432 44.121 235.324 44.1143 235.208 44.1143C234.612 44.1143 234.118 44.2983 233.727 44.6662C233.339 45.0341 233.145 45.5014 233.145 46.0682V51H232.26ZM240.737 43.3636V44.1342H239.121V49.0064C239.121 49.487 239.237 49.8151 239.469 49.9908C239.704 50.1631 239.973 50.2493 240.274 50.2493C240.39 50.2493 240.49 50.2427 240.573 50.2294C240.655 50.2128 240.728 50.1963 240.791 50.1797L240.98 50.9801C240.897 51.0133 240.791 51.0431 240.662 51.0696C240.536 51.0994 240.38 51.1143 240.195 51.1143C239.87 51.1143 239.557 51.0431 239.255 50.9006C238.954 50.758 238.707 50.5459 238.514 50.2642C238.325 49.9825 238.231 49.6328 238.231 49.2152V44.1342H237.093V43.3636H238.231V41.5341H239.121V43.3636H240.737ZM244.879 51.174C244.419 51.174 243.998 51.0845 243.616 50.9055C243.235 50.7232 242.932 50.4614 242.707 50.12C242.481 49.7753 242.369 49.3577 242.369 48.8672C242.369 48.3634 242.493 47.964 242.741 47.669C242.99 47.3707 243.335 47.1454 243.776 46.9929C244.22 46.8404 244.728 46.7294 245.302 46.6598C245.945 46.5803 246.439 46.509 246.783 46.446C247.128 46.3797 247.3 46.2024 247.3 45.9141V45.7351C247.3 45.2114 247.145 44.8004 246.833 44.5021C246.525 44.2038 246.081 44.0547 245.501 44.0547C244.951 44.0547 244.501 44.1757 244.153 44.4176C243.809 44.6596 243.567 44.9446 243.428 45.2727L242.587 44.9695C242.76 44.5518 242.998 44.2187 243.303 43.9702C243.608 43.7183 243.95 43.5376 244.327 43.4283C244.705 43.3156 245.088 43.2592 245.476 43.2592C245.768 43.2592 246.071 43.2973 246.386 43.3736C246.701 43.4498 246.994 43.5824 247.266 43.7713C247.541 43.9569 247.763 44.2154 247.932 44.5469C248.101 44.8783 248.185 45.3009 248.185 45.8146V51H247.3V49.7919H247.246C247.087 50.13 246.812 50.4448 246.42 50.7365C246.029 51.0282 245.516 51.174 244.879 51.174ZM244.999 50.3636C245.469 50.3636 245.877 50.2609 246.222 50.0554C246.566 49.8466 246.831 49.5682 247.017 49.2202C247.206 48.8722 247.3 48.4893 247.3 48.0717V46.968C247.214 47.0509 247.052 47.1238 246.813 47.1868C246.575 47.2464 246.314 47.2962 246.033 47.3359C245.754 47.3757 245.511 47.4089 245.302 47.4354C244.656 47.5149 244.152 47.6641 243.79 47.8828C243.433 48.1016 243.254 48.4429 243.254 48.907C243.254 49.3677 243.419 49.7256 243.751 49.9808C244.082 50.236 244.498 50.3636 244.999 50.3636ZM251.424 46.2273V51H250.539V43.3636H251.4V44.5618H251.479C251.658 44.1707 251.936 43.8575 252.314 43.6222C252.695 43.3835 253.166 43.2642 253.726 43.2642C254.498 43.2642 255.123 43.5028 255.6 43.9801C256.078 44.4574 256.316 45.1484 256.316 46.0533V51H255.431V46.108C255.431 45.4848 255.256 44.991 254.904 44.6264C254.556 44.2585 254.089 44.0746 253.502 44.0746C252.903 44.0746 252.405 44.2668 252.011 44.6513C251.62 45.0357 251.424 45.5611 251.424 46.2273ZM261.655 43.3636V44.1342H260.039V49.0064C260.039 49.487 260.155 49.8151 260.387 49.9908C260.622 50.1631 260.891 50.2493 261.192 50.2493C261.308 50.2493 261.408 50.2427 261.491 50.2294C261.573 50.2128 261.646 50.1963 261.709 50.1797L261.898 50.9801C261.815 51.0133 261.709 51.0431 261.58 51.0696C261.454 51.0994 261.298 51.1143 261.113 51.1143C260.788 51.1143 260.475 51.0431 260.173 50.9006C259.872 50.758 259.625 50.5459 259.432 50.2642C259.243 49.9825 259.149 49.6328 259.149 49.2152V44.1342H258.01V43.3636H259.149V41.5341H260.039V43.3636H261.655ZM267.612 51V43.3636H268.502V51H267.612ZM268.064 42.0511C267.882 42.0511 267.726 41.9882 267.597 41.8622C267.468 41.7363 267.403 41.5871 267.403 41.4148C267.403 41.2391 267.468 41.09 267.597 40.9673C267.726 40.8414 267.882 40.7784 268.064 40.7784C268.247 40.7784 268.402 40.8414 268.532 40.9673C268.664 41.09 268.73 41.2391 268.73 41.4148C268.73 41.5871 268.664 41.7363 268.532 41.8622C268.402 41.9882 268.247 42.0511 268.064 42.0511ZM271.727 46.2273V51H270.842V43.3636H271.702V44.5618H271.782C271.961 44.1707 272.239 43.8575 272.617 43.6222C272.998 43.3835 273.469 43.2642 274.029 43.2642C274.801 43.2642 275.426 43.5028 275.903 43.9801C276.381 44.4574 276.619 45.1484 276.619 46.0533V51H275.734V46.108C275.734 45.4848 275.559 44.991 275.207 44.6264C274.859 44.2585 274.392 44.0746 273.805 44.0746C273.205 44.0746 272.708 44.2668 272.314 44.6513C271.923 45.0357 271.727 45.5611 271.727 46.2273ZM285.895 43.3636V44.1342H284.279V49.0064C284.279 49.487 284.395 49.8151 284.627 49.9908C284.862 50.1631 285.131 50.2493 285.433 50.2493C285.549 50.2493 285.648 50.2427 285.731 50.2294C285.814 50.2128 285.887 50.1963 285.95 50.1797L286.138 50.9801C286.056 51.0133 285.95 51.0431 285.82 51.0696C285.694 51.0994 285.539 51.1143 285.353 51.1143C285.028 51.1143 284.715 51.0431 284.413 50.9006C284.112 50.758 283.865 50.5459 283.673 50.2642C283.484 49.9825 283.389 49.6328 283.389 49.2152V44.1342H282.251V43.3636H283.389V41.5341H284.279V43.3636H285.895ZM288.954 46.2273V51H288.069V40.8182H288.954V44.5618H289.033C289.212 44.1674 289.489 43.8525 289.863 43.6172C290.241 43.3819 290.719 43.2642 291.295 43.2642C292.071 43.2642 292.699 43.5012 293.18 43.9751C293.66 44.4491 293.9 45.1418 293.9 46.0533V51H293.01V46.108C293.01 45.4782 292.835 44.9827 292.483 44.6214C292.135 44.2569 291.665 44.0746 291.072 44.0746C290.462 44.0746 289.956 44.2668 289.555 44.6513C289.154 45.0357 288.954 45.5611 288.954 46.2273ZM299.318 51.1591C298.606 51.1591 297.989 50.9934 297.469 50.6619C296.948 50.3272 296.546 49.8648 296.261 49.2749C295.979 48.6816 295.838 47.9988 295.838 47.2266C295.838 46.4543 295.979 45.7699 296.261 45.1733C296.546 44.5767 296.938 44.1094 297.439 43.7713C297.943 43.4299 298.524 43.2592 299.184 43.2592C299.737 43.2592 300.259 43.3951 300.75 43.6669C301.244 43.9354 301.645 44.3464 301.953 44.8999C302.261 45.4534 302.415 46.156 302.415 47.0078V47.4453H296.728C296.748 48.3269 296.99 49.0312 297.454 49.5582C297.918 50.0852 298.539 50.3487 299.318 50.3487C299.862 50.3487 300.306 50.2261 300.651 49.9808C300.995 49.7322 301.241 49.4373 301.386 49.0959L302.227 49.3693C302.054 49.8499 301.718 50.2692 301.217 50.6271C300.717 50.9818 300.084 51.1591 299.318 51.1591ZM296.733 46.6648H301.511C301.511 46.1742 301.411 45.7334 301.212 45.3423C301.017 44.9479 300.743 44.6364 300.392 44.4077C300.044 44.179 299.641 44.0646 299.184 44.0646C298.72 44.0646 298.309 44.1823 297.951 44.4176C297.596 44.6529 297.313 44.9678 297.101 45.3622C296.889 45.7566 296.766 46.1908 296.733 46.6648ZM309.188 46.2273V51H308.303V43.3636H309.163V44.5618H309.243C309.422 44.1707 309.7 43.8575 310.078 43.6222C310.459 43.3835 310.93 43.2642 311.49 43.2642C312.262 43.2642 312.887 43.5028 313.364 43.9801C313.841 44.4574 314.08 45.1484 314.08 46.0533V51H313.195V46.108C313.195 45.4848 313.019 44.991 312.668 44.6264C312.32 44.2585 311.853 44.0746 311.266 44.0746C310.666 44.0746 310.169 44.2668 309.775 44.6513C309.384 45.0357 309.188 45.5611 309.188 46.2273ZM319.498 51.1591C318.785 51.1591 318.169 50.9934 317.648 50.6619C317.128 50.3272 316.725 49.8648 316.44 49.2749C316.159 48.6816 316.018 47.9988 316.018 47.2266C316.018 46.4543 316.159 45.7699 316.44 45.1733C316.725 44.5767 317.118 44.1094 317.619 43.7713C318.122 43.4299 318.704 43.2592 319.364 43.2592C319.917 43.2592 320.439 43.3951 320.93 43.6669C321.424 43.9354 321.825 44.3464 322.133 44.8999C322.441 45.4534 322.595 46.156 322.595 47.0078V47.4453H316.908C316.928 48.3269 317.17 49.0312 317.634 49.5582C318.098 50.0852 318.719 50.3487 319.498 50.3487C320.041 50.3487 320.486 50.2261 320.83 49.9808C321.175 49.7322 321.42 49.4373 321.566 49.0959L322.406 49.3693C322.234 49.8499 321.897 50.2692 321.397 50.6271C320.897 50.9818 320.263 51.1591 319.498 51.1591ZM316.913 46.6648H321.69C321.69 46.1742 321.591 45.7334 321.392 45.3423C321.196 44.9479 320.923 44.6364 320.572 44.4077C320.224 44.179 319.821 44.0646 319.364 44.0646C318.9 44.0646 318.489 44.1823 318.131 44.4176C317.776 44.6529 317.493 44.9678 317.281 45.3622C317.068 45.7566 316.946 46.1908 316.913 46.6648ZM324.922 43.3636L326.851 46.5653L328.78 43.3636H329.809L327.388 47.1271L329.874 51H328.844L326.851 47.7983L324.857 51H323.828L326.289 47.1271L323.893 43.3636H324.922ZM334.703 43.3636V44.1342H333.088V49.0064C333.088 49.487 333.204 49.8151 333.436 49.9908C333.671 50.1631 333.94 50.2493 334.241 50.2493C334.357 50.2493 334.457 50.2427 334.539 50.2294C334.622 50.2128 334.695 50.1963 334.758 50.1797L334.947 50.9801C334.864 51.0133 334.758 51.0431 334.629 51.0696C334.503 51.0994 334.347 51.1143 334.162 51.1143C333.837 51.1143 333.524 51.0431 333.222 50.9006C332.92 50.758 332.673 50.5459 332.481 50.2642C332.292 49.9825 332.198 49.6328 332.198 49.2152V44.1342H331.059V43.3636H332.198V41.5341H333.088V43.3636H334.703ZM346.363 43.3636C346.307 42.7969 346.057 42.3461 345.612 42.0114C345.168 41.6766 344.61 41.5092 343.937 41.5092C343.228 41.5092 342.649 41.6882 342.202 42.0462C341.758 42.4041 341.536 42.8565 341.536 43.4034C341.536 43.7614 341.635 44.0613 341.834 44.3033C342.036 44.5419 342.293 44.7375 342.605 44.8899C342.916 45.0424 343.236 45.165 343.564 45.2578L344.638 45.5661C344.963 45.6555 345.288 45.7699 345.612 45.9091C345.937 46.0483 346.234 46.224 346.502 46.4361C346.774 46.6449 346.991 46.9018 347.154 47.2067C347.319 47.5083 347.402 47.8712 347.402 48.2955C347.402 48.839 347.261 49.3279 346.98 49.7621C346.698 50.1963 346.294 50.541 345.767 50.7962C345.24 51.0481 344.608 51.174 343.872 51.174C342.835 51.174 342.006 50.9221 341.387 50.4183C340.767 49.9145 340.429 49.2599 340.372 48.4545H341.327C341.377 49.0578 341.642 49.5201 342.122 49.8416C342.603 50.1631 343.186 50.3239 343.872 50.3239C344.379 50.3239 344.83 50.2393 345.225 50.0703C345.622 49.898 345.934 49.6593 346.159 49.3544C346.388 49.0462 346.502 48.6882 346.502 48.2805C346.502 47.7602 346.305 47.3625 345.911 47.0874C345.52 46.8123 345.008 46.5836 344.374 46.4013L343.156 46.0433C342.358 45.808 341.738 45.4799 341.297 45.0589C340.856 44.6347 340.636 44.0961 340.636 43.4432C340.636 42.8963 340.782 42.4157 341.073 42.0014C341.368 41.5838 341.766 41.259 342.267 41.027C342.77 40.7917 343.335 40.674 343.962 40.674C344.595 40.674 345.155 40.7917 345.642 41.027C346.129 41.259 346.516 41.5772 346.801 41.9815C347.086 42.3859 347.24 42.8466 347.263 43.3636H346.363ZM352.463 43.3636V44.1342H350.847V49.0064C350.847 49.487 350.963 49.8151 351.195 49.9908C351.431 50.1631 351.699 50.2493 352.001 50.2493C352.117 50.2493 352.216 50.2427 352.299 50.2294C352.382 50.2128 352.455 50.1963 352.518 50.1797L352.707 50.9801C352.624 51.0133 352.518 51.0431 352.389 51.0696C352.263 51.0994 352.107 51.1143 351.921 51.1143C351.597 51.1143 351.283 51.0431 350.982 50.9006C350.68 50.758 350.433 50.5459 350.241 50.2642C350.052 49.9825 349.958 49.6328 349.958 49.2152V44.1342H348.819V43.3636H349.958V41.5341H350.847V43.3636H352.463ZM357.478 51.1591C356.766 51.1591 356.149 50.9934 355.629 50.6619C355.109 50.3272 354.706 49.8648 354.421 49.2749C354.139 48.6816 353.998 47.9988 353.998 47.2266C353.998 46.4543 354.139 45.7699 354.421 45.1733C354.706 44.5767 355.099 44.1094 355.599 43.7713C356.103 43.4299 356.685 43.2592 357.344 43.2592C357.898 43.2592 358.42 43.3951 358.91 43.6669C359.404 43.9354 359.805 44.3464 360.113 44.8999C360.422 45.4534 360.576 46.156 360.576 47.0078V47.4453H354.888C354.908 48.3269 355.15 49.0312 355.614 49.5582C356.078 50.0852 356.699 50.3487 357.478 50.3487C358.022 50.3487 358.466 50.2261 358.811 49.9808C359.155 49.7322 359.401 49.4373 359.547 49.0959L360.387 49.3693C360.214 49.8499 359.878 50.2692 359.377 50.6271C358.877 50.9818 358.244 51.1591 357.478 51.1591ZM354.893 46.6648H359.671C359.671 46.1742 359.571 45.7334 359.373 45.3423C359.177 44.9479 358.904 44.6364 358.552 44.4077C358.204 44.179 357.801 44.0646 357.344 44.0646C356.88 44.0646 356.469 44.1823 356.111 44.4176C355.757 44.6529 355.473 44.9678 355.261 45.3622C355.049 45.7566 354.926 46.1908 354.893 46.6648ZM362.511 53.8636V43.3636H363.371V44.8203H363.48C363.583 44.5916 363.727 44.358 363.913 44.1193C364.098 43.8774 364.344 43.6735 364.649 43.5078C364.957 43.3421 365.345 43.2592 365.812 43.2592C366.442 43.2592 366.994 43.425 367.468 43.7564C367.941 44.0845 368.309 44.5452 368.571 45.1385C368.836 45.7285 368.969 46.4162 368.969 47.2017C368.969 47.9905 368.836 48.6816 368.571 49.2749C368.309 49.8681 367.941 50.3305 367.468 50.6619C366.997 50.9934 366.45 51.1591 365.827 51.1591C365.366 51.1591 364.98 51.0762 364.669 50.9105C364.357 50.7448 364.107 50.541 363.918 50.299C363.729 50.0537 363.583 49.8151 363.48 49.5831H363.401V53.8636H362.511ZM363.386 47.1868C363.386 47.8 363.477 48.3452 363.659 48.8224C363.845 49.2997 364.112 49.6742 364.46 49.946C364.808 50.2145 365.227 50.3487 365.718 50.3487C366.225 50.3487 366.654 50.2095 367.005 49.9311C367.356 49.6494 367.623 49.2699 367.806 48.7926C367.988 48.3153 368.079 47.7801 368.079 47.1868C368.079 46.6001 367.988 46.0715 367.806 45.6009C367.627 45.1302 367.361 44.7573 367.01 44.4822C366.662 44.2038 366.231 44.0646 365.718 44.0646C365.22 44.0646 364.798 44.1989 364.45 44.4673C364.105 44.7325 363.842 45.1004 363.659 45.571C363.477 46.0384 363.386 46.5769 363.386 47.1868Z" fill="black"/>
<path d="M8.126 40.252L-3.55199e-07 32.126L8.126 24.001L8.126 40.252Z" fill="#FFB449"/>
<path d="M51.4773 21.598V20.2727H58.4403V21.598H55.7429V29H54.1747V21.598H51.4773ZM59.7145 29V22.4545H61.2571V29H59.7145ZM60.4901 21.5256C60.2429 21.5256 60.0313 21.4446 59.8551 21.2827C59.6818 21.1179 59.5952 20.9205 59.5952 20.6903C59.5952 20.4574 59.6818 20.2599 59.8551 20.098C60.0313 19.9332 60.2429 19.8509 60.4901 19.8509C60.7344 19.8509 60.9432 19.9332 61.1165 20.098C61.2926 20.2599 61.3807 20.4574 61.3807 20.6903C61.3807 20.9205 61.2926 21.1179 61.1165 21.2827C60.9432 21.4446 60.7344 21.5256 60.4901 21.5256ZM62.8434 31.4545V22.4545H64.3604V23.5369H64.4499C64.5295 23.3778 64.6403 23.2088 64.7823 23.0298C64.9272 22.848 65.1232 22.6932 65.3704 22.5653C65.6204 22.4347 65.9371 22.3693 66.3207 22.3693C66.8263 22.3693 67.2823 22.4986 67.6886 22.7571C68.0977 23.0156 68.4215 23.3949 68.6602 23.8949C68.9016 24.3949 69.0224 25.0085 69.0224 25.7358C69.0224 26.4545 68.9045 27.0653 68.6687 27.5682C68.4329 28.071 68.1119 28.4545 67.7056 28.7188C67.2994 28.983 66.8391 29.1151 66.3249 29.1151C65.9499 29.1151 65.6388 29.0526 65.3917 28.9276C65.1445 28.8026 64.9457 28.652 64.7951 28.4759C64.6474 28.2969 64.5323 28.1278 64.4499 27.9688H64.386V31.4545H62.8434ZM64.3562 25.7273C64.3562 26.3608 64.4897 26.8736 64.7567 27.2656C65.0238 27.6548 65.4031 27.8494 65.8945 27.8494C66.4031 27.8494 66.7894 27.6491 67.0536 27.2486C67.3178 26.848 67.4499 26.3409 67.4499 25.7273C67.4499 25.1165 67.3192 24.6151 67.0579 24.223C66.7965 23.831 66.4087 23.6349 65.8945 23.6349C65.3974 23.6349 65.0167 23.8253 64.7525 24.206C64.4883 24.5838 64.3562 25.0909 64.3562 25.7273ZM72.2312 20.2727L72.0906 26.4347H70.7184L70.582 20.2727H72.2312ZM71.4045 29.0938C71.146 29.0938 70.9244 29.0028 70.7397 28.821C70.555 28.6364 70.4641 28.4148 70.467 28.1562C70.4641 27.9006 70.555 27.6818 70.7397 27.5C70.9244 27.3182 71.146 27.2273 71.4045 27.2273C71.6573 27.2273 71.8761 27.3182 72.0607 27.5C72.2454 27.6818 72.3391 27.9006 72.342 28.1562C72.3391 28.4148 72.2454 28.6364 72.0607 28.821C71.8761 29.0028 71.6573 29.0938 71.4045 29.0938Z" fill="#00253E"/>
<path d="M34.7203 35.4406C40.6409 35.4406 45.4406 30.6409 45.4406 24.7203C45.4406 18.7996 40.6409 14 34.7203 14C28.7996 14 24 18.7996 24 24.7203C24 30.6409 28.7996 35.4406 34.7203 35.4406Z" fill="#00253E"/>
<path d="M33.8494 25.2877C33.4629 24.8631 32.9636 24.5938 32.3524 24.4809V24.4245C32.8286 24.2643 33.2269 24.0117 33.5457 23.6671C33.865 23.3226 34.0246 22.8345 34.0246 22.2018C34.0246 21.3337 33.7392 20.6941 33.1683 20.284C32.5975 19.8733 31.7273 19.668 30.5587 19.668H26.8369V20.2625H27.0121C27.3089 20.2625 27.5674 20.3189 27.7878 20.4323C28.0082 20.5457 28.1184 20.8102 28.1184 21.2252V28.1613C28.1184 28.6053 28.0103 28.8859 27.7948 29.0036C27.5787 29.1219 27.318 29.1804 27.0127 29.1804H26.8375V29.7749H30.9634C33.2742 29.7749 34.4294 28.8644 34.4294 27.0427C34.4294 26.2977 34.2359 25.7124 33.8494 25.2877ZM29.4804 20.3759H30.4915C31.2553 20.3759 31.795 20.5081 32.11 20.772C32.4244 21.0365 32.5819 21.5127 32.5819 22.2018C32.5819 22.8813 32.4357 23.372 32.1438 23.6741C31.8514 23.9762 31.3096 24.1272 30.5189 24.1272H29.481V20.3759H29.4804ZM32.5142 28.5999C32.1992 28.9111 31.6601 29.067 30.8957 29.067H29.4804V24.8346H30.9226C31.7138 24.8346 32.2556 25.0114 32.5475 25.3657C32.8399 25.7194 32.9856 26.2644 32.9856 27.0008C32.9861 27.7555 32.8286 28.2887 32.5142 28.5999Z" fill="#00B2E3"/>
<path d="M34.5566 19.666V21.8317H35.4489C35.4489 21.8317 35.4355 20.5035 36.3262 20.5035H37.5211V28.1545C37.5211 28.548 37.4566 28.7952 37.3281 28.8958C37.1249 29.0344 36.7981 29.0463 36.5062 29.0468H35.8897V29.7741H41.2702V29.0468H40.6537C40.3624 29.0463 40.035 29.0344 39.8318 28.8958C39.7034 28.7952 39.6389 28.548 39.6389 28.1545V20.5035H40.8338C41.725 20.5035 41.711 21.8317 41.711 21.8317H42.6033V19.666H34.5566Z" fill="white"/>
</svg>
