<svg width="333" height="54" viewBox="0 0 333 54" fill="none" xmlns="http://www.w3.org/2000/svg">
<rect x="0.0126953" y="10.1113" width="332.56" height="42.9712" rx="3.73663" fill="#00253E"/>
<path d="M21.2371 38.5474C26.7679 38.5474 31.2515 34.0638 31.2515 28.533C31.2515 23.0022 26.7679 18.5186 21.2371 18.5186C15.7063 18.5186 11.2227 23.0022 11.2227 28.533C11.2227 34.0638 15.7063 38.5474 21.2371 38.5474Z" fill="white"/>
<path d="M20.4228 29.0642C20.0618 28.6675 19.5953 28.4159 19.0244 28.3105V28.2578C19.4693 28.1081 19.8414 27.8721 20.1391 27.5503C20.4374 27.2284 20.5865 26.7725 20.5865 26.1815C20.5865 25.3705 20.3199 24.773 19.7866 24.3899C19.2534 24.0063 18.4404 23.8145 17.3488 23.8145H13.8721V24.3698H14.0358C14.3129 24.3698 14.5545 24.4225 14.7603 24.5285C14.9662 24.6344 15.0691 24.8815 15.0691 25.2691V31.7486C15.0691 32.1633 14.9682 32.4254 14.7669 32.5354C14.565 32.6459 14.3215 32.7006 14.0363 32.7006H13.8726V33.2559H17.7269C19.8855 33.2559 20.9646 32.4053 20.9646 30.7036C20.9646 30.0077 20.7838 29.4609 20.4228 29.0642ZM16.3415 24.4758H17.286C17.9996 24.4758 18.5037 24.5993 18.7979 24.8458C19.0917 25.0929 19.2388 25.5378 19.2388 26.1815C19.2388 26.8162 19.1022 27.2746 18.8296 27.5568C18.5564 27.839 18.0503 27.9801 17.3116 27.9801H16.342V24.4758H16.3415ZM19.1755 32.1583C18.8813 32.449 18.3777 32.5946 17.6636 32.5946H16.3415V28.6409H17.6887C18.4279 28.6409 18.934 28.8061 19.2067 29.137C19.4798 29.4674 19.6159 29.9766 19.6159 30.6645C19.6164 31.3695 19.4693 31.8676 19.1755 32.1583Z" fill="#00B2E3"/>
<path d="M21.084 23.8125V25.8356H21.9175C21.9175 25.8356 21.905 24.5948 22.737 24.5948H23.8532V31.7421C23.8532 32.1096 23.793 32.3406 23.6729 32.4345C23.4831 32.5641 23.1779 32.5751 22.9052 32.5756H22.3293V33.255H27.3555V32.5756H26.7796C26.5075 32.5751 26.2017 32.5641 26.0119 32.4345C25.8918 32.3406 25.8316 32.1096 25.8316 31.7421V24.5948H26.9478C27.7803 24.5948 27.7673 25.8356 27.7673 25.8356H28.6008V23.8125H21.084Z" fill="#00253E"/>
<path opacity="0.87" d="M40.0512 29.5186V21.3659H43.1084C44.0452 21.3659 44.7578 21.6061 45.2461 22.0864C45.7371 22.5668 45.9826 23.1957 45.9826 23.9733C45.9826 24.528 45.8578 25.0044 45.6084 25.4024C45.3589 25.8005 44.9953 26.0951 44.5176 26.2862L46.2811 29.5186H44.6331L43.0328 26.533H41.5281V29.5186H40.0512ZM41.5281 25.3069H42.8895C43.4362 25.3069 43.8369 25.1928 44.0917 24.9645C44.3491 24.7363 44.4778 24.4059 44.4778 23.9733C44.4778 23.5381 44.3491 23.2011 44.0917 22.9622C43.8369 22.7207 43.4335 22.6 42.8815 22.6H41.5281V25.3069ZM47.2783 29.5186V23.4041H48.7193V29.5186H47.2783ZM48.0028 22.5363C47.7719 22.5363 47.5742 22.4606 47.4097 22.3094C47.2478 22.1554 47.1668 21.971 47.1668 21.756C47.1668 21.5384 47.2478 21.354 47.4097 21.2027C47.5742 21.0488 47.7719 20.9718 48.0028 20.9718C48.231 20.9718 48.4261 21.0488 48.588 21.2027C48.7525 21.354 48.8348 21.5384 48.8348 21.756C48.8348 21.971 48.7525 22.1554 48.588 22.3094C48.4261 22.4606 48.231 22.5363 48.0028 22.5363ZM52.8603 31.915C52.0828 31.915 51.4711 31.765 51.0252 31.4652C50.582 31.1679 50.2941 30.811 50.1614 30.3943L51.4591 30.0798C51.5467 30.247 51.698 30.4129 51.9129 30.5774C52.1279 30.742 52.4516 30.8243 52.8842 30.8243C53.2956 30.8243 53.6339 30.7261 53.8993 30.5297C54.1674 30.3333 54.3014 30.0162 54.3014 29.5783V28.4199H54.2297C54.1554 28.5685 54.0466 28.7211 53.9033 28.8776C53.7627 29.0342 53.5756 29.1656 53.342 29.2717C53.1111 29.3779 52.8205 29.431 52.4702 29.431C52.0005 29.431 51.5746 29.3208 51.1924 29.1006C50.8129 28.8776 50.5104 28.5446 50.2848 28.1014C50.0619 27.6582 49.9504 27.1049 49.9504 26.4414C49.9504 25.77 50.0619 25.2034 50.2848 24.7416C50.5104 24.2772 50.8142 23.9256 51.1964 23.6867C51.5785 23.4452 52.0045 23.3245 52.4742 23.3245C52.8351 23.3245 53.131 23.3855 53.3619 23.5076C53.5955 23.627 53.7799 23.7716 53.9152 23.9415C54.0532 24.1087 54.1581 24.2666 54.2297 24.4152H54.3093V23.4041H55.7305V29.6181C55.7305 30.1303 55.6058 30.5562 55.3563 30.8959C55.1068 31.2383 54.7658 31.493 54.3332 31.6602C53.9033 31.8301 53.4123 31.915 52.8603 31.915ZM52.8723 28.3004C53.3314 28.3004 53.6857 28.1359 53.9352 27.8068C54.1846 27.4751 54.3093 27.0173 54.3093 26.4335C54.3093 25.8549 54.1859 25.3892 53.9391 25.0362C53.6923 24.6832 53.3367 24.5068 52.8723 24.5068C52.3919 24.5068 52.0297 24.6899 51.7855 25.0561C51.5414 25.4197 51.4193 25.8788 51.4193 26.4335C51.4193 26.9961 51.5427 27.4485 51.7895 27.7909C52.0363 28.1306 52.3972 28.3004 52.8723 28.3004ZM58.6484 25.9359V29.5186H57.2074V21.3659H58.6165V24.4431H58.6882C58.8289 24.0954 59.0491 23.8221 59.349 23.623C59.6516 23.424 60.0377 23.3245 60.5074 23.3245C61.1417 23.3245 61.6512 23.5235 62.036 23.9216C62.4208 24.3197 62.6133 24.8876 62.6133 25.6254V29.5186H61.1722V25.8483C61.1722 25.4369 61.0661 25.1171 60.8537 24.8889C60.6441 24.658 60.3495 24.5426 59.97 24.5426C59.5852 24.5426 59.2681 24.6647 59.0186 24.9088C58.7718 25.1503 58.6484 25.4927 58.6484 25.9359ZM67.1354 23.4041V24.5187H65.9292V27.6794C65.9292 27.9687 65.9929 28.1598 66.1203 28.2527C66.2477 28.3429 66.4016 28.388 66.5821 28.388C66.6723 28.388 66.7546 28.3814 66.8289 28.3681C66.9059 28.3548 66.9642 28.3429 67.0041 28.3323L67.2469 29.4588C67.1699 29.4854 67.0598 29.5146 66.9165 29.5464C66.7758 29.5783 66.6033 29.5968 66.399 29.6022C65.8576 29.6181 65.4025 29.4854 65.0336 29.2041C64.6673 28.9228 64.4855 28.4942 64.4882 27.9183V24.5187H63.6204V23.4041H64.4882V21.9391H65.9292V23.4041H67.1354ZM72.5622 25.9359V29.5186H71.1212V23.4041H72.4985V24.4431H72.5702C72.7108 24.1034 72.9351 23.8327 73.2429 23.631C73.5534 23.4266 73.9369 23.3245 74.3934 23.3245C75.025 23.3245 75.5319 23.5248 75.914 23.9256C76.2988 24.3263 76.4899 24.8929 76.4873 25.6254V29.5186H75.0462V25.8483C75.0462 25.4396 74.9401 25.1198 74.7278 24.8889C74.5181 24.658 74.2275 24.5426 73.856 24.5426C73.4765 24.5426 73.166 24.6647 72.9245 24.9088C72.683 25.1503 72.5622 25.4927 72.5622 25.9359ZM80.6193 29.638C80.0222 29.638 79.5047 29.5066 79.0668 29.2439C78.6289 28.9811 78.2892 28.6136 78.0477 28.1412C77.8089 27.6662 77.6895 27.1142 77.6895 26.4852C77.6895 25.8536 77.8089 25.3016 78.0477 24.8292C78.2892 24.3542 78.6289 23.9853 79.0668 23.7225C79.5047 23.4572 80.0222 23.3245 80.6193 23.3245C81.2164 23.3245 81.7339 23.4572 82.1718 23.7225C82.6124 23.9853 82.9521 24.3542 83.1909 24.8292C83.4297 25.3016 83.5492 25.8536 83.5492 26.4852C83.5492 27.1142 83.4297 27.6662 83.1909 28.1412C82.9521 28.6136 82.6124 28.9811 82.1718 29.2439C81.7339 29.5066 81.2164 29.638 80.6193 29.638ZM80.6273 28.4836C80.9537 28.4836 81.2244 28.3946 81.4394 28.2168C81.657 28.039 81.8189 27.7989 81.925 27.4963C82.0338 27.1911 82.0882 26.8528 82.0882 26.4812C82.0882 26.107 82.0338 25.7687 81.925 25.4661C81.8189 25.1609 81.657 24.9181 81.4394 24.7376C81.2244 24.5572 80.9537 24.4669 80.6273 24.4669C80.2982 24.4669 80.0235 24.5572 79.8033 24.7376C79.5856 24.9181 79.4224 25.1609 79.3136 25.4661C79.2048 25.7687 79.1504 26.107 79.1504 26.4812C79.1504 26.8528 79.2048 27.1911 79.3136 27.4963C79.4224 27.7989 79.5856 28.039 79.8033 28.2168C80.0235 28.3946 80.2982 28.4836 80.6273 28.4836ZM85.87 29.5186L84.1423 23.4041H85.6112L86.686 27.7033H86.7418L87.8404 23.4041H89.2934L90.3921 27.6794H90.4518L91.5107 23.4041H92.9836L91.252 29.5186H89.7512L88.6048 25.3865H88.5212L87.3747 29.5186H85.87ZM97.6143 31.8991C97.4046 31.8991 97.2215 31.8805 97.0649 31.8433C96.9083 31.8062 96.7889 31.7703 96.7066 31.7358L97.041 30.5814C97.3568 30.6717 97.6209 30.6876 97.8332 30.6292C98.0482 30.5708 98.2233 30.3731 98.3587 30.0361L98.502 29.6459L96.2847 23.4041H97.8133L99.2225 28.0218H99.2862L100.699 23.4041H102.232L99.7639 30.3147C99.594 30.7951 99.3326 31.1785 98.9797 31.4652C98.6267 31.7544 98.1716 31.8991 97.6143 31.8991ZM105.688 29.638C105.091 29.638 104.574 29.5066 104.136 29.2439C103.698 28.9811 103.358 28.6136 103.117 28.1412C102.878 27.6662 102.758 27.1142 102.758 26.4852C102.758 25.8536 102.878 25.3016 103.117 24.8292C103.358 24.3542 103.698 23.9853 104.136 23.7225C104.574 23.4572 105.091 23.3245 105.688 23.3245C106.285 23.3245 106.803 23.4572 107.241 23.7225C107.681 23.9853 108.021 24.3542 108.26 24.8292C108.499 25.3016 108.618 25.8536 108.618 26.4852C108.618 27.1142 108.499 27.6662 108.26 28.1412C108.021 28.6136 107.681 28.9811 107.241 29.2439C106.803 29.5066 106.285 29.638 105.688 29.638ZM105.696 28.4836C106.023 28.4836 106.293 28.3946 106.508 28.2168C106.726 28.039 106.888 27.7989 106.994 27.4963C107.103 27.1911 107.157 26.8528 107.157 26.4812C107.157 26.107 107.103 25.7687 106.994 25.4661C106.888 25.1609 106.726 24.9181 106.508 24.7376C106.293 24.5572 106.023 24.4669 105.696 24.4669C105.367 24.4669 105.092 24.5572 104.872 24.7376C104.655 24.9181 104.491 25.1609 104.383 25.4661C104.274 25.7687 104.219 26.107 104.219 26.4812C104.219 26.8528 104.274 27.1911 104.383 27.4963C104.491 27.7989 104.655 28.039 104.872 28.2168C105.092 28.3946 105.367 28.4836 105.696 28.4836ZM113.738 26.947V23.4041H115.179V29.5186H113.782V28.4318H113.719C113.581 28.7741 113.354 29.0541 113.038 29.2717C112.725 29.4894 112.339 29.5982 111.879 29.5982C111.28 29.5982 110.79 29.3991 110.41 29.0011C110.031 28.6003 109.841 28.0324 109.841 27.2973V23.4041H111.282V27.0744C111.282 27.4618 111.388 27.7697 111.601 27.9979C111.813 28.2261 112.092 28.3402 112.437 28.3402C112.649 28.3402 112.855 28.2885 113.054 28.185C113.253 28.0815 113.416 27.9276 113.543 27.7232C113.673 27.5162 113.738 27.2575 113.738 26.947ZM121.201 29.642C120.618 29.642 120.131 29.4854 119.74 29.1722C119.35 28.8591 119.155 28.4026 119.155 27.8028C119.155 27.3437 119.265 26.9881 119.486 26.736C119.709 26.4812 119.997 26.2968 120.349 26.1827C120.705 26.0659 121.081 25.9863 121.476 25.9438C122.015 25.8854 122.401 25.831 122.634 25.7806C122.871 25.7302 122.989 25.6015 122.989 25.3945V25.3706C122.989 25.0707 122.9 24.8385 122.722 24.6739C122.544 24.5094 122.288 24.4271 121.954 24.4271C121.601 24.4271 121.321 24.5041 121.114 24.658C120.909 24.8119 120.771 24.9937 120.7 25.2034L119.354 25.0123C119.514 24.455 119.824 24.0344 120.286 23.7504C120.75 23.4664 121.304 23.3245 121.946 23.3245C122.238 23.3245 122.53 23.359 122.822 23.428C123.113 23.497 123.38 23.6111 123.622 23.7703C123.866 23.9295 124.061 24.1445 124.207 24.4152C124.355 24.6859 124.43 25.0229 124.43 25.4263V29.5186H123.044V28.6786H122.997C122.867 28.936 122.654 29.1616 122.36 29.3553C122.068 29.5464 121.682 29.642 121.201 29.642ZM121.576 28.5831C122.011 28.5831 122.356 28.4583 122.611 28.2089C122.865 27.9594 122.993 27.6648 122.993 27.3251V26.6046C122.932 26.655 122.819 26.7002 122.654 26.74C122.492 26.7771 122.32 26.809 122.137 26.8355C121.954 26.862 121.798 26.8846 121.671 26.9032C121.35 26.9483 121.082 27.0372 120.867 27.1699C120.652 27.2999 120.545 27.503 120.545 27.779C120.545 28.0443 120.641 28.2447 120.835 28.3801C121.029 28.5154 121.276 28.5831 121.576 28.5831ZM125.879 29.5186V23.4041H127.276V24.4232H127.34C127.451 24.0675 127.642 23.7942 127.913 23.6031C128.184 23.412 128.495 23.3165 128.848 23.3165C129.013 23.3165 129.164 23.3364 129.302 23.3762C129.44 23.416 129.562 23.4704 129.668 23.5394L129.223 24.7337C129.146 24.6965 129.061 24.666 128.968 24.6421C128.875 24.6182 128.77 24.6063 128.653 24.6063C128.277 24.6063 127.959 24.7297 127.702 24.9765C127.447 25.2206 127.32 25.5364 127.32 25.9239V29.5186H125.879ZM132.976 29.638C132.362 29.638 131.833 29.5093 131.387 29.2518C130.944 28.9944 130.603 28.6308 130.364 28.1611C130.125 27.6914 130.006 27.1367 130.006 26.4971C130.006 25.8682 130.125 25.3162 130.364 24.8411C130.603 24.3634 130.939 23.9919 131.371 23.7265C131.807 23.4585 132.316 23.3245 132.9 23.3245C133.401 23.3245 133.865 23.4333 134.289 23.6509C134.714 23.8658 135.053 24.2016 135.308 24.658C135.566 25.1118 135.694 25.697 135.694 26.4135V26.8554H131.435C131.443 27.3782 131.588 27.7856 131.869 28.0775C132.153 28.3694 132.528 28.5154 132.995 28.5154C133.306 28.5154 133.574 28.4491 133.8 28.3164C134.028 28.181 134.191 27.9846 134.289 27.7272L135.635 27.8785C135.507 28.4092 135.21 28.8352 134.743 29.1563C134.279 29.4774 133.689 29.638 132.976 29.638ZM131.439 25.8841H134.313C134.31 25.4674 134.18 25.1238 133.923 24.8531C133.668 24.5824 133.334 24.447 132.92 24.447C132.49 24.447 132.141 24.589 131.873 24.873C131.605 25.1569 131.46 25.494 131.439 25.8841ZM139.694 23.4041H141.135V29.8569C141.135 30.5177 140.948 31.0087 140.574 31.3298C140.202 31.6536 139.674 31.8102 138.989 31.7995C138.947 31.7969 138.905 31.7956 138.862 31.7956C138.817 31.7956 138.768 31.7942 138.715 31.7916V30.6172C138.755 30.6199 138.79 30.6212 138.822 30.6212C138.854 30.6239 138.887 30.6252 138.922 30.6252C139.198 30.6252 139.396 30.5575 139.515 30.4222C139.634 30.2895 139.694 30.0944 139.694 29.837V23.4041ZM140.411 22.5363C140.18 22.5363 139.982 22.4606 139.817 22.3094C139.656 22.1554 139.575 21.971 139.575 21.756C139.575 21.5384 139.656 21.354 139.817 21.2027C139.982 21.0488 140.18 20.9718 140.411 20.9718C140.639 20.9718 140.834 21.0488 140.996 21.2027C141.16 21.354 141.243 21.5384 141.243 21.756C141.243 21.971 141.16 22.1554 140.996 22.3094C140.834 22.4606 140.639 22.5363 140.411 22.5363ZM146.514 26.947V23.4041H147.955V29.5186H146.558V28.4318H146.494C146.356 28.7741 146.129 29.0541 145.814 29.2717C145.5 29.4894 145.114 29.5982 144.655 29.5982C144.055 29.5982 143.566 29.3991 143.186 29.0011C142.807 28.6003 142.617 28.0324 142.617 27.2973V23.4041H144.058V27.0744C144.058 27.4618 144.164 27.7697 144.376 27.9979C144.589 28.2261 144.867 28.3402 145.212 28.3402C145.425 28.3402 145.63 28.2885 145.829 28.185C146.029 28.0815 146.192 27.9276 146.319 27.7232C146.449 27.5162 146.514 27.2575 146.514 26.947ZM154.27 25.0203L152.956 25.1636C152.9 24.9619 152.781 24.7841 152.598 24.6302C152.417 24.4762 152.161 24.3993 151.829 24.3993C151.53 24.3993 151.277 24.4643 151.073 24.5943C150.871 24.7244 150.772 24.8929 150.775 25.0999C150.772 25.2777 150.837 25.4237 150.97 25.5378C151.105 25.6492 151.328 25.7395 151.638 25.8085L152.681 26.0314C153.825 26.2809 154.398 26.8329 154.401 27.6874C154.401 28.0722 154.29 28.4119 154.067 28.7065C153.844 28.9984 153.536 29.2266 153.143 29.3912C152.75 29.5557 152.299 29.638 151.79 29.638C151.039 29.638 150.436 29.4801 149.982 29.1643C149.529 28.8485 149.257 28.4106 149.166 27.8506L150.572 27.7153C150.696 28.2726 151.101 28.5512 151.786 28.5512C152.128 28.5512 152.403 28.4822 152.61 28.3442C152.819 28.2036 152.924 28.0284 152.924 27.8188C152.924 27.4764 152.65 27.2442 152.1 27.1221L151.057 26.9032C150.471 26.7811 150.037 26.5754 149.756 26.2862C149.474 25.9942 149.335 25.6254 149.338 25.1795C149.338 24.8027 149.441 24.4762 149.648 24.2002C149.855 23.9216 150.144 23.7066 150.516 23.5553C150.887 23.4014 151.319 23.3245 151.81 23.3245C152.526 23.3245 153.09 23.4784 153.501 23.7862C153.915 24.0914 154.172 24.5028 154.27 25.0203ZM158.643 23.4041V24.5187H157.436V27.6794C157.436 27.9687 157.5 28.1598 157.627 28.2527C157.755 28.3429 157.909 28.388 158.089 28.388C158.18 28.388 158.262 28.3814 158.336 28.3681C158.413 28.3548 158.471 28.3429 158.511 28.3323L158.754 29.4588C158.677 29.4854 158.567 29.5146 158.424 29.5464C158.283 29.5783 158.111 29.5968 157.906 29.6022C157.365 29.6181 156.91 29.4854 156.541 29.2041C156.175 28.9228 155.993 28.4942 155.995 27.9183V24.5187H155.128V23.4041H155.995V21.9391H157.436V23.4041H158.643ZM165.288 31.915C164.51 31.915 163.898 31.765 163.452 31.4652C163.009 31.1679 162.721 30.811 162.589 30.3943L163.886 30.0798C163.974 30.247 164.125 30.4129 164.34 30.5774C164.555 30.742 164.879 30.8243 165.311 30.8243C165.723 30.8243 166.061 30.7261 166.327 30.5297C166.595 30.3333 166.729 30.0162 166.729 29.5783V28.4199H166.657C166.583 28.5685 166.474 28.7211 166.33 28.8776C166.19 29.0342 166.003 29.1656 165.769 29.2717C165.538 29.3779 165.248 29.431 164.897 29.431C164.428 29.431 164.002 29.3208 163.62 29.1006C163.24 28.8776 162.938 28.5446 162.712 28.1014C162.489 27.6582 162.378 27.1049 162.378 26.4414C162.378 25.77 162.489 25.2034 162.712 24.7416C162.938 24.2772 163.241 23.9256 163.624 23.6867C164.006 23.4452 164.432 23.3245 164.901 23.3245C165.262 23.3245 165.558 23.3855 165.789 23.5076C166.023 23.627 166.207 23.7716 166.342 23.9415C166.48 24.1087 166.585 24.2666 166.657 24.4152H166.737V23.4041H168.158V29.6181C168.158 30.1303 168.033 30.5562 167.783 30.8959C167.534 31.2383 167.193 31.493 166.76 31.6602C166.33 31.8301 165.84 31.915 165.288 31.915ZM165.299 28.3004C165.759 28.3004 166.113 28.1359 166.362 27.8068C166.612 27.4751 166.737 27.0173 166.737 26.4335C166.737 25.8549 166.613 25.3892 166.366 25.0362C166.12 24.6832 165.764 24.5068 165.299 24.5068C164.819 24.5068 164.457 24.6899 164.213 25.0561C163.969 25.4197 163.846 25.8788 163.846 26.4335C163.846 26.9961 163.97 27.4485 164.217 27.7909C164.463 28.1306 164.824 28.3004 165.299 28.3004ZM172.341 29.638C171.728 29.638 171.199 29.5093 170.753 29.2518C170.31 28.9944 169.969 28.6308 169.73 28.1611C169.491 27.6914 169.372 27.1367 169.372 26.4971C169.372 25.8682 169.491 25.3162 169.73 24.8411C169.969 24.3634 170.305 23.9919 170.737 23.7265C171.172 23.4585 171.682 23.3245 172.266 23.3245C172.767 23.3245 173.231 23.4333 173.655 23.6509C174.08 23.8658 174.419 24.2016 174.674 24.658C174.932 25.1118 175.06 25.697 175.06 26.4135V26.8554H170.801C170.809 27.3782 170.953 27.7856 171.235 28.0775C171.519 28.3694 171.894 28.5154 172.361 28.5154C172.672 28.5154 172.94 28.4491 173.165 28.3164C173.394 28.181 173.557 27.9846 173.655 27.7272L175.001 27.8785C174.873 28.4092 174.576 28.8352 174.109 29.1563C173.645 29.4774 173.055 29.638 172.341 29.638ZM170.805 25.8841H173.679C173.676 25.4674 173.546 25.1238 173.289 24.8531C173.034 24.5824 172.7 24.447 172.286 24.447C171.856 24.447 171.507 24.589 171.239 24.873C170.971 25.1569 170.826 25.494 170.805 25.8841ZM179.333 23.4041V24.5187H178.127V27.6794C178.127 27.9687 178.19 28.1598 178.318 28.2527C178.445 28.3429 178.599 28.388 178.779 28.388C178.87 28.388 178.952 28.3814 179.026 28.3681C179.103 28.3548 179.162 28.3429 179.201 28.3323L179.444 29.4588C179.367 29.4854 179.257 29.5146 179.114 29.5464C178.973 29.5783 178.801 29.5968 178.596 29.6022C178.055 29.6181 177.6 29.4854 177.231 29.2041C176.865 28.9228 176.683 28.4942 176.685 27.9183V24.5187H175.818V23.4041H176.685V21.9391H178.127V23.4041H179.333ZM183.591 23.4041V24.5187H182.385V27.6794C182.385 27.9687 182.449 28.1598 182.576 28.2527C182.703 28.3429 182.857 28.388 183.038 28.388C183.128 28.388 183.21 28.3814 183.285 28.3681C183.362 28.3548 183.42 28.3429 183.46 28.3323L183.703 29.4588C183.626 29.4854 183.516 29.5146 183.372 29.5464C183.232 29.5783 183.059 29.5968 182.855 29.6022C182.313 29.6181 181.858 29.4854 181.489 29.2041C181.123 28.9228 180.941 28.4942 180.944 27.9183V24.5187H180.076V23.4041H180.944V21.9391H182.385V23.4041H183.591ZM184.796 29.5186V23.4041H186.237V29.5186H184.796ZM185.521 22.5363C185.29 22.5363 185.092 22.4606 184.928 22.3094C184.766 22.1554 184.685 21.971 184.685 21.756C184.685 21.5384 184.766 21.354 184.928 21.2027C185.092 21.0488 185.29 20.9718 185.521 20.9718C185.749 20.9718 185.944 21.0488 186.106 21.2027C186.271 21.354 186.353 21.5384 186.353 21.756C186.353 21.971 186.271 22.1554 186.106 22.3094C185.944 22.4606 185.749 22.5363 185.521 22.5363ZM189.16 25.9359V29.5186H187.719V23.4041H189.097V24.4431H189.168C189.309 24.1034 189.533 23.8327 189.841 23.631C190.151 23.4266 190.535 23.3245 190.991 23.3245C191.623 23.3245 192.13 23.5248 192.512 23.9256C192.897 24.3263 193.088 24.8929 193.085 25.6254V29.5186H191.644V25.8483C191.644 25.4396 191.538 25.1198 191.326 24.8889C191.116 24.658 190.826 24.5426 190.454 24.5426C190.075 24.5426 189.764 24.6647 189.523 24.9088C189.281 25.1503 189.16 25.4927 189.16 25.9359ZM197.209 31.915C196.432 31.915 195.82 31.765 195.374 31.4652C194.931 31.1679 194.643 30.811 194.51 30.3943L195.808 30.0798C195.896 30.247 196.047 30.4129 196.262 30.5774C196.477 30.742 196.801 30.8243 197.233 30.8243C197.645 30.8243 197.983 30.7261 198.248 30.5297C198.516 30.3333 198.65 30.0162 198.65 29.5783V28.4199H198.579C198.504 28.5685 198.396 28.7211 198.252 28.8776C198.112 29.0342 197.925 29.1656 197.691 29.2717C197.46 29.3779 197.17 29.431 196.819 29.431C196.35 29.431 195.924 29.3208 195.541 29.1006C195.162 28.8776 194.859 28.5446 194.634 28.1014C194.411 27.6582 194.299 27.1049 194.299 26.4414C194.299 25.77 194.411 25.2034 194.634 24.7416C194.859 24.2772 195.163 23.9256 195.545 23.6867C195.928 23.4452 196.354 23.3245 196.823 23.3245C197.184 23.3245 197.48 23.3855 197.711 23.5076C197.945 23.627 198.129 23.7716 198.264 23.9415C198.402 24.1087 198.507 24.2666 198.579 24.4152H198.658V23.4041H200.08V29.6181C200.08 30.1303 199.955 30.5562 199.705 30.8959C199.456 31.2383 199.115 31.493 198.682 31.6602C198.252 31.8301 197.761 31.915 197.209 31.915ZM197.221 28.3004C197.68 28.3004 198.035 28.1359 198.284 27.8068C198.534 27.4751 198.658 27.0173 198.658 26.4335C198.658 25.8549 198.535 25.3892 198.288 25.0362C198.041 24.6832 197.686 24.5068 197.221 24.5068C196.741 24.5068 196.379 24.6899 196.135 25.0561C195.89 25.4197 195.768 25.8788 195.768 26.4335C195.768 26.9961 195.892 27.4485 196.139 27.7909C196.385 28.1306 196.746 28.3004 197.221 28.3004ZM209.17 25.0203L207.856 25.1636C207.8 24.9619 207.681 24.7841 207.498 24.6302C207.317 24.4762 207.061 24.3993 206.729 24.3993C206.43 24.3993 206.177 24.4643 205.973 24.5943C205.771 24.7244 205.672 24.8929 205.675 25.0999C205.672 25.2777 205.737 25.4237 205.87 25.5378C206.005 25.6492 206.228 25.7395 206.538 25.8085L207.581 26.0314C208.725 26.2809 209.298 26.8329 209.301 27.6874C209.301 28.0722 209.19 28.4119 208.967 28.7065C208.744 28.9984 208.436 29.2266 208.043 29.3912C207.65 29.5557 207.199 29.638 206.69 29.638C205.939 29.638 205.336 29.4801 204.882 29.1643C204.429 28.8485 204.157 28.4106 204.066 27.8506L205.472 27.7153C205.596 28.2726 206.001 28.5512 206.686 28.5512C207.028 28.5512 207.303 28.4822 207.51 28.3442C207.719 28.2036 207.824 28.0284 207.824 27.8188C207.824 27.4764 207.549 27.2442 207 27.1221L205.957 26.9032C205.371 26.7811 204.937 26.5754 204.655 26.2862C204.374 25.9942 204.235 25.6254 204.237 25.1795C204.237 24.8027 204.341 24.4762 204.548 24.2002C204.755 23.9216 205.044 23.7066 205.416 23.5553C205.787 23.4014 206.219 23.3245 206.71 23.3245C207.426 23.3245 207.99 23.4784 208.401 23.7862C208.815 24.0914 209.071 24.5028 209.17 25.0203ZM213.543 23.4041V24.5187H212.336V27.6794C212.336 27.9687 212.4 28.1598 212.527 28.2527C212.655 28.3429 212.809 28.388 212.989 28.388C213.079 28.388 213.162 28.3814 213.236 28.3681C213.313 28.3548 213.371 28.3429 213.411 28.3323L213.654 29.4588C213.577 29.4854 213.467 29.5146 213.324 29.5464C213.183 29.5783 213.01 29.5968 212.806 29.6022C212.265 29.6181 211.81 29.4854 211.441 29.2041C211.074 28.9228 210.893 28.4942 210.895 27.9183V24.5187H210.027V23.4041H210.895V21.9391H212.336V23.4041H213.543ZM216.507 29.642C215.923 29.642 215.436 29.4854 215.046 29.1722C214.656 28.8591 214.461 28.4026 214.461 27.8028C214.461 27.3437 214.571 26.9881 214.792 26.736C215.014 26.4812 215.302 26.2968 215.655 26.1827C216.011 26.0659 216.386 25.9863 216.782 25.9438C217.321 25.8854 217.707 25.831 217.94 25.7806C218.176 25.7302 218.295 25.6015 218.295 25.3945V25.3706C218.295 25.0707 218.206 24.8385 218.028 24.6739C217.85 24.5094 217.594 24.4271 217.26 24.4271C216.907 24.4271 216.627 24.5041 216.42 24.658C216.215 24.8119 216.077 24.9937 216.006 25.2034L214.66 25.0123C214.819 24.455 215.13 24.0344 215.592 23.7504C216.056 23.4664 216.609 23.3245 217.252 23.3245C217.544 23.3245 217.835 23.359 218.127 23.428C218.419 23.497 218.686 23.6111 218.928 23.7703C219.172 23.9295 219.367 24.1445 219.513 24.4152C219.661 24.6859 219.736 25.0229 219.736 25.4263V29.5186H218.35V28.6786H218.303C218.173 28.936 217.96 29.1616 217.666 29.3553C217.374 29.5464 216.988 29.642 216.507 29.642ZM216.881 28.5831C217.317 28.5831 217.662 28.4583 217.916 28.2089C218.171 27.9594 218.299 27.6648 218.299 27.3251V26.6046C218.238 26.655 218.125 26.7002 217.96 26.74C217.798 26.7771 217.626 26.809 217.443 26.8355C217.26 26.862 217.104 26.8846 216.977 26.9032C216.656 26.9483 216.388 27.0372 216.173 27.1699C215.958 27.2999 215.85 27.503 215.85 27.779C215.85 28.0443 215.947 28.2447 216.141 28.3801C216.335 28.5154 216.582 28.5831 216.881 28.5831ZM221.185 29.5186V23.4041H222.582V24.4232H222.646C222.757 24.0675 222.948 23.7942 223.219 23.6031C223.492 23.412 223.804 23.3165 224.154 23.3165C224.234 23.3165 224.323 23.3205 224.421 23.3284C224.522 23.3337 224.605 23.343 224.672 23.3563V24.6819C224.611 24.6607 224.514 24.6421 224.381 24.6262C224.251 24.6076 224.125 24.5983 224.003 24.5983C223.608 24.5983 223.279 24.723 223.016 24.9725C222.756 25.2193 222.626 25.5364 222.626 25.9239V29.5186H221.185ZM229.066 23.4041V24.5187H227.859V27.6794C227.859 27.9687 227.923 28.1598 228.05 28.2527C228.178 28.3429 228.332 28.388 228.512 28.388C228.602 28.388 228.685 28.3814 228.759 28.3681C228.836 28.3548 228.894 28.3429 228.934 28.3323L229.177 29.4588C229.1 29.4854 228.99 29.5146 228.847 29.5464C228.706 29.5783 228.533 29.5968 228.329 29.6022C227.788 29.6181 227.333 29.4854 226.964 29.2041C226.597 28.9228 226.416 28.4942 226.418 27.9183V24.5187H225.551V23.4041H226.418V21.9391H227.859V23.4041H229.066ZM232.912 29.638C232.299 29.638 231.77 29.5093 231.324 29.2518C230.88 28.9944 230.539 28.6308 230.301 28.1611C230.062 27.6914 229.942 27.1367 229.942 26.4971C229.942 25.8682 230.062 25.3162 230.301 24.8411C230.539 24.3634 230.875 23.9919 231.308 23.7265C231.743 23.4585 232.253 23.3245 232.836 23.3245C233.338 23.3245 233.801 23.4333 234.226 23.6509C234.65 23.8658 234.99 24.2016 235.245 24.658C235.502 25.1118 235.631 25.697 235.631 26.4135V26.8554H231.371C231.379 27.3782 231.524 27.7856 231.805 28.0775C232.089 28.3694 232.465 28.5154 232.932 28.5154C233.242 28.5154 233.51 28.4491 233.736 28.3164C233.964 28.181 234.127 27.9846 234.226 27.7272L235.571 27.8785C235.444 28.4092 235.147 28.8352 234.679 29.1563C234.215 29.4774 233.626 29.638 232.912 29.638ZM231.375 25.8841H234.25C234.247 25.4674 234.117 25.1238 233.859 24.8531C233.605 24.5824 233.27 24.447 232.856 24.447C232.426 24.447 232.077 24.589 231.809 24.873C231.541 25.1569 231.397 25.494 231.375 25.8841ZM239.119 29.626C238.639 29.626 238.209 29.5026 237.829 29.2558C237.45 29.009 237.15 28.6507 236.93 28.181C236.709 27.7113 236.599 27.1407 236.599 26.4693C236.599 25.7899 236.711 25.2167 236.934 24.7496C237.159 24.2825 237.463 23.9282 237.845 23.6867C238.227 23.4452 238.653 23.3245 239.123 23.3245C239.484 23.3245 239.779 23.3855 240.007 23.5076C240.238 23.627 240.421 23.7716 240.556 23.9415C240.694 24.1087 240.799 24.2666 240.871 24.4152H240.93V21.3659H242.375V29.5186H240.958V28.5552H240.871C240.796 28.7038 240.689 28.8617 240.548 29.0289C240.407 29.1935 240.222 29.3341 239.991 29.4509C239.76 29.5677 239.469 29.626 239.119 29.626ZM239.521 28.4437C239.98 28.4437 240.335 28.262 240.584 27.8984C240.833 27.5321 240.958 27.0531 240.958 26.4613C240.958 25.8669 240.835 25.3931 240.588 25.0402C240.341 24.6846 239.986 24.5068 239.521 24.5068C239.041 24.5068 238.679 24.6899 238.434 25.0561C238.19 25.4223 238.068 25.8907 238.068 26.4613C238.068 27.0345 238.192 27.5083 238.438 27.8825C238.685 28.2566 239.046 28.4437 239.521 28.4437ZM244.799 29.6061C244.557 29.6061 244.35 29.5212 244.178 29.3514C244.005 29.1789 243.92 28.9719 243.923 28.7304C243.92 28.4915 244.005 28.2872 244.178 28.1173C244.35 27.9475 244.557 27.8626 244.799 27.8626C245.035 27.8626 245.239 27.9475 245.412 28.1173C245.584 28.2872 245.672 28.4915 245.674 28.7304C245.672 28.9719 245.584 29.1789 245.412 29.3514C245.239 29.5212 245.035 29.6061 244.799 29.6061ZM249.755 29.5186V21.3659H254.977V22.6039H251.232V24.8173H254.619V26.0553H251.232V29.5186H249.755ZM258.478 29.638C257.88 29.638 257.363 29.5066 256.925 29.2439C256.487 28.9811 256.147 28.6136 255.906 28.1412C255.667 27.6662 255.548 27.1142 255.548 26.4852C255.548 25.8536 255.667 25.3016 255.906 24.8292C256.147 24.3542 256.487 23.9853 256.925 23.7225C257.363 23.4572 257.88 23.3245 258.478 23.3245C259.075 23.3245 259.592 23.4572 260.03 23.7225C260.471 23.9853 260.81 24.3542 261.049 24.8292C261.288 25.3016 261.407 25.8536 261.407 26.4852C261.407 27.1142 261.288 27.6662 261.049 28.1412C260.81 28.6136 260.471 28.9811 260.03 29.2439C259.592 29.5066 259.075 29.638 258.478 29.638ZM258.486 28.4836C258.812 28.4836 259.083 28.3946 259.298 28.2168C259.515 28.039 259.677 27.7989 259.783 27.4963C259.892 27.1911 259.946 26.8528 259.946 26.4812C259.946 26.107 259.892 25.7687 259.783 25.4661C259.677 25.1609 259.515 24.9181 259.298 24.7376C259.083 24.5572 258.812 24.4669 258.486 24.4669C258.156 24.4669 257.882 24.5572 257.662 24.7376C257.444 24.9181 257.281 25.1609 257.172 25.4661C257.063 25.7687 257.009 26.107 257.009 26.4812C257.009 26.8528 257.063 27.1911 257.172 27.4963C257.281 27.7989 257.444 28.039 257.662 28.2168C257.882 28.3946 258.156 28.4836 258.486 28.4836ZM264.072 21.3659V29.5186H262.631V21.3659H264.072ZM266.994 21.3659V29.5186H265.553V21.3659H266.994ZM271.143 29.638C270.546 29.638 270.029 29.5066 269.591 29.2439C269.153 28.9811 268.813 28.6136 268.572 28.1412C268.333 27.6662 268.214 27.1142 268.214 26.4852C268.214 25.8536 268.333 25.3016 268.572 24.8292C268.813 24.3542 269.153 23.9853 269.591 23.7225C270.029 23.4572 270.546 23.3245 271.143 23.3245C271.741 23.3245 272.258 23.4572 272.696 23.7225C273.136 23.9853 273.476 24.3542 273.715 24.8292C273.954 25.3016 274.073 25.8536 274.073 26.4852C274.073 27.1142 273.954 27.6662 273.715 28.1412C273.476 28.6136 273.136 28.9811 272.696 29.2439C272.258 29.5066 271.741 29.638 271.143 29.638ZM271.151 28.4836C271.478 28.4836 271.748 28.3946 271.963 28.2168C272.181 28.039 272.343 27.7989 272.449 27.4963C272.558 27.1911 272.612 26.8528 272.612 26.4812C272.612 26.107 272.558 25.7687 272.449 25.4661C272.343 25.1609 272.181 24.9181 271.963 24.7376C271.748 24.5572 271.478 24.4669 271.151 24.4669C270.822 24.4669 270.548 24.5572 270.327 24.7376C270.11 24.9181 269.947 25.1609 269.838 25.4661C269.729 25.7687 269.675 26.107 269.675 26.4812C269.675 26.8528 269.729 27.1911 269.838 27.4963C269.947 27.7989 270.11 28.039 270.327 28.2168C270.548 28.3946 270.822 28.4836 271.151 28.4836ZM276.394 29.5186L274.666 23.4041H276.135L277.21 27.7033H277.266L278.365 23.4041H279.818L280.916 27.6794H280.976L282.035 23.4041H283.508L281.776 29.5186H280.275L279.129 25.3865H279.045L277.899 29.5186H276.394ZM290.348 23.4041V24.5187H289.142V27.6794C289.142 27.9687 289.205 28.1598 289.333 28.2527C289.46 28.3429 289.614 28.388 289.794 28.388C289.885 28.388 289.967 28.3814 290.041 28.3681C290.118 28.3548 290.177 28.3429 290.216 28.3323L290.459 29.4588C290.382 29.4854 290.272 29.5146 290.129 29.5464C289.988 29.5783 289.816 29.5968 289.611 29.6022C289.07 29.6181 288.615 29.4854 288.246 29.2041C287.88 28.9228 287.698 28.4942 287.7 27.9183V24.5187H286.833V23.4041H287.7V21.9391H289.142V23.4041H290.348ZM293.125 25.9359V29.5186H291.684V21.3659H293.093V24.4431H293.165C293.306 24.0954 293.526 23.8221 293.826 23.623C294.128 23.424 294.515 23.3245 294.984 23.3245C295.619 23.3245 296.128 23.5235 296.513 23.9216C296.898 24.3197 297.09 24.8876 297.09 25.6254V29.5186H295.649V25.8483C295.649 25.4369 295.543 25.1171 295.331 24.8889C295.121 24.658 294.826 24.5426 294.447 24.5426C294.062 24.5426 293.745 24.6647 293.495 24.9088C293.249 25.1503 293.125 25.4927 293.125 25.9359ZM301.266 29.638C300.653 29.638 300.124 29.5093 299.678 29.2518C299.234 28.9944 298.893 28.6308 298.655 28.1611C298.416 27.6914 298.296 27.1367 298.296 26.4971C298.296 25.8682 298.416 25.3162 298.655 24.8411C298.893 24.3634 299.229 23.9919 299.662 23.7265C300.097 23.4585 300.607 23.3245 301.19 23.3245C301.692 23.3245 302.155 23.4333 302.58 23.6509C303.004 23.8658 303.344 24.2016 303.599 24.658C303.856 25.1118 303.985 25.697 303.985 26.4135V26.8554H299.725C299.733 27.3782 299.878 27.7856 300.159 28.0775C300.443 28.3694 300.819 28.5154 301.286 28.5154C301.596 28.5154 301.864 28.4491 302.09 28.3164C302.318 28.181 302.481 27.9846 302.58 27.7272L303.925 27.8785C303.798 28.4092 303.501 28.8352 303.033 29.1563C302.569 29.4774 301.98 29.638 301.266 29.638ZM299.729 25.8841H302.604C302.601 25.4674 302.471 25.1238 302.213 24.8531C301.959 24.5824 301.624 24.447 301.21 24.447C300.78 24.447 300.431 24.589 300.163 24.873C299.895 25.1569 299.751 25.494 299.729 25.8841ZM310.037 25.0203L308.723 25.1636C308.667 24.9619 308.548 24.7841 308.365 24.6302C308.184 24.4762 307.928 24.3993 307.596 24.3993C307.297 24.3993 307.044 24.4643 306.84 24.5943C306.638 24.7244 306.539 24.8929 306.541 25.0999C306.539 25.2777 306.604 25.4237 306.737 25.5378C306.872 25.6492 307.095 25.7395 307.405 25.8085L308.448 26.0314C309.592 26.2809 310.165 26.8329 310.168 27.6874C310.168 28.0722 310.057 28.4119 309.834 28.7065C309.611 28.9984 309.303 29.2266 308.91 29.3912C308.517 29.5557 308.066 29.638 307.557 29.638C306.806 29.638 306.203 29.4801 305.749 29.1643C305.296 28.8485 305.023 28.4106 304.933 27.8506L306.338 27.7153C306.463 28.2726 306.868 28.5512 307.553 28.5512C307.895 28.5512 308.17 28.4822 308.377 28.3442C308.586 28.2036 308.691 28.0284 308.691 27.8188C308.691 27.4764 308.416 27.2442 307.867 27.1221L306.824 26.9032C306.238 26.7811 305.804 26.5754 305.522 26.2862C305.241 25.9942 305.102 25.6254 305.104 25.1795C305.104 24.8027 305.208 24.4762 305.415 24.2002C305.622 23.9216 305.911 23.7066 306.283 23.5553C306.654 23.4014 307.086 23.3245 307.577 23.3245C308.293 23.3245 308.857 23.4784 309.268 23.7862C309.682 24.0914 309.938 24.5028 310.037 25.0203ZM314.063 29.638C313.45 29.638 312.921 29.5093 312.475 29.2518C312.032 28.9944 311.691 28.6308 311.452 28.1611C311.213 27.6914 311.094 27.1367 311.094 26.4971C311.094 25.8682 311.213 25.3162 311.452 24.8411C311.691 24.3634 312.026 23.9919 312.459 23.7265C312.894 23.4585 313.404 23.3245 313.988 23.3245C314.489 23.3245 314.952 23.4333 315.377 23.6509C315.801 23.8658 316.141 24.2016 316.396 24.658C316.653 25.1118 316.782 25.697 316.782 26.4135V26.8554H312.523C312.531 27.3782 312.675 27.7856 312.957 28.0775C313.241 28.3694 313.616 28.5154 314.083 28.5154C314.394 28.5154 314.662 28.4491 314.887 28.3164C315.115 28.181 315.279 27.9846 315.377 27.7272L316.722 27.8785C316.595 28.4092 316.298 28.8352 315.831 29.1563C315.366 29.4774 314.777 29.638 314.063 29.638ZM312.527 25.8841H315.401C315.398 25.4674 315.268 25.1238 315.011 24.8531C314.756 24.5824 314.421 24.447 314.007 24.447C313.578 24.447 313.229 24.589 312.961 24.873C312.692 25.1569 312.548 25.494 312.527 25.8841ZM41.4285 38.9359V42.5186H39.9875V36.4041H41.3648V37.4431H41.4365C41.5772 37.1034 41.8014 36.8327 42.1093 36.631C42.4198 36.4266 42.8032 36.3245 43.2597 36.3245C43.8913 36.3245 44.3982 36.5248 44.7804 36.9256C45.1652 37.3263 45.3562 37.8929 45.3536 38.6254V42.5186H43.9125V38.8483C43.9125 38.4396 43.8064 38.1198 43.5941 37.8889C43.3844 37.658 43.0938 37.5426 42.7223 37.5426C42.3428 37.5426 42.0323 37.6647 41.7908 37.9088C41.5493 38.1503 41.4285 38.4927 41.4285 38.9359ZM49.5254 42.638C48.9124 42.638 48.383 42.5093 47.9371 42.2518C47.4939 41.9944 47.1529 41.6308 46.9141 41.1611C46.6752 40.6914 46.5558 40.1367 46.5558 39.4971C46.5558 38.8682 46.6752 38.3162 46.9141 37.8411C47.1529 37.3634 47.4886 36.9919 47.9212 36.7265C48.3564 36.4585 48.866 36.3245 49.4498 36.3245C49.9514 36.3245 50.4145 36.4333 50.8391 36.6509C51.2637 36.8658 51.6034 37.2016 51.8582 37.658C52.1156 38.1118 52.2443 38.697 52.2443 39.4135V39.8554H47.9849C47.9928 40.3782 48.1375 40.7856 48.4188 41.0775C48.7027 41.3694 49.0783 41.5154 49.5453 41.5154C49.8558 41.5154 50.1239 41.4491 50.3495 41.3164C50.5777 41.181 50.7409 40.9846 50.8391 40.7272L52.1846 40.8785C52.0572 41.4092 51.76 41.8352 51.2929 42.1563C50.8285 42.4774 50.2393 42.638 49.5254 42.638ZM47.9889 38.8841H50.863C50.8603 38.4674 50.7303 38.1238 50.4729 37.8531C50.2181 37.5824 49.8837 37.447 49.4697 37.447C49.0398 37.447 48.6908 37.589 48.4228 37.873C48.1547 38.1569 48.0101 38.494 47.9889 38.8841ZM54.5213 36.4041L55.7554 38.6612L57.0093 36.4041H58.5339L56.6908 39.4613L58.5658 42.5186H57.0491L55.7554 40.3172L54.4736 42.5186H52.9449L54.8079 39.4613L52.9927 36.4041H54.5213ZM62.7018 36.4041V37.5187H61.4956V40.6794C61.4956 40.9687 61.5593 41.1598 61.6867 41.2527C61.8141 41.3429 61.968 41.388 62.1485 41.388C62.2387 41.388 62.321 41.3814 62.3953 41.3681C62.4723 41.3548 62.5307 41.3429 62.5705 41.3323L62.8133 42.4588C62.7363 42.4854 62.6262 42.5146 62.4829 42.5464C62.3422 42.5783 62.1697 42.5968 61.9654 42.6022C61.424 42.6181 60.9689 42.4854 60.6 42.2041C60.2337 41.9228 60.052 41.4942 60.0546 40.9183V37.5187H59.1868V36.4041H60.0546V34.9391H61.4956V36.4041H62.7018ZM69.3547 42.638C68.747 42.638 68.2242 42.504 67.7863 42.2359C67.3484 41.9679 67.0114 41.5963 66.7752 41.1213C66.5416 40.6463 66.4248 40.1009 66.4248 39.4852C66.4248 38.8615 66.5443 38.3135 66.7831 37.8411C67.022 37.3661 67.359 36.9946 67.7942 36.7265C68.2321 36.4585 68.7496 36.3245 69.3467 36.3245C69.8457 36.3245 70.2862 36.416 70.6684 36.5991C71.0505 36.7796 71.3557 37.0344 71.5839 37.3634C71.8122 37.6925 71.9422 38.0787 71.9741 38.5219H70.5967C70.541 38.2273 70.4083 37.9818 70.1986 37.7854C69.9916 37.5864 69.7143 37.4868 69.3666 37.4868C68.9235 37.4868 68.5652 37.662 68.2918 38.0123C68.0211 38.36 67.8858 38.843 67.8858 39.4613C67.8858 40.085 68.0198 40.5746 68.2879 40.9302C68.5585 41.2858 68.9181 41.4636 69.3666 41.4636C69.6825 41.4636 69.9505 41.3734 70.1708 41.193C70.3937 41.0125 70.5357 40.7577 70.5967 40.4286H71.9741C71.9396 40.8612 71.8122 41.2434 71.5919 41.5751C71.3716 41.9068 71.0717 42.1669 70.6922 42.3553C70.3127 42.5438 69.8669 42.638 69.3547 42.638ZM75.8245 42.638C75.2274 42.638 74.7098 42.5066 74.272 42.2439C73.8341 41.9811 73.4944 41.6136 73.2529 41.1412C73.014 40.6662 72.8946 40.1142 72.8946 39.4852C72.8946 38.8536 73.014 38.3016 73.2529 37.8292C73.4944 37.3542 73.8341 36.9853 74.272 36.7225C74.7098 36.4572 75.2274 36.3245 75.8245 36.3245C76.4216 36.3245 76.9391 36.4572 77.377 36.7225C77.8175 36.9853 78.1572 37.3542 78.3961 37.8292C78.6349 38.3016 78.7543 38.8536 78.7543 39.4852C78.7543 40.1142 78.6349 40.6662 78.3961 41.1412C78.1572 41.6136 77.8175 41.9811 77.377 42.2439C76.9391 42.5066 76.4216 42.638 75.8245 42.638ZM75.8324 41.4836C76.1589 41.4836 76.4295 41.3946 76.6445 41.2168C76.8621 41.039 77.024 40.7989 77.1302 40.4963C77.239 40.1911 77.2934 39.8528 77.2934 39.4812C77.2934 39.107 77.239 38.7687 77.1302 38.4661C77.024 38.1609 76.8621 37.9181 76.6445 37.7376C76.4295 37.5572 76.1589 37.4669 75.8324 37.4669C75.5034 37.4669 75.2287 37.5572 75.0084 37.7376C74.7908 37.9181 74.6276 38.1609 74.5188 38.4661C74.41 38.7687 74.3556 39.107 74.3556 39.4812C74.3556 39.8528 74.41 40.1911 74.5188 40.4963C74.6276 40.7989 74.7908 41.039 75.0084 41.2168C75.2287 41.3946 75.5034 41.4836 75.8324 41.4836ZM83.8746 39.947V36.4041H85.3156V42.5186H83.9184V41.4318H83.8547C83.7167 41.7741 83.4898 42.0541 83.174 42.2717C82.8608 42.4894 82.4747 42.5982 82.0156 42.5982C81.4158 42.5982 80.9262 42.3991 80.5467 42.0011C80.1672 41.6003 79.9774 41.0324 79.9774 40.2973V36.4041H81.4185V40.0744C81.4185 40.4618 81.5246 40.7697 81.7369 40.9979C81.9492 41.2261 82.2279 41.3402 82.5729 41.3402C82.7852 41.3402 82.9909 41.2885 83.1899 41.185C83.3889 41.0815 83.5522 40.9276 83.6795 40.7232C83.8096 40.5162 83.8746 40.2575 83.8746 39.947ZM86.7975 44.8115V36.4041H88.2146V37.4152H88.2982C88.3725 37.2666 88.476 37.1087 88.6087 36.9415C88.7441 36.7716 88.9272 36.627 89.1581 36.5076C89.3916 36.3855 89.6875 36.3245 90.0458 36.3245C90.5182 36.3245 90.9441 36.4452 91.3236 36.6867C91.7058 36.9282 92.0083 37.2825 92.2312 37.7496C92.4568 38.2167 92.5696 38.7899 92.5696 39.4693C92.5696 40.1407 92.4595 40.7113 92.2392 41.181C92.0189 41.6507 91.7191 42.009 91.3396 42.2558C90.9601 42.5026 90.5301 42.626 90.0498 42.626C89.6995 42.626 89.4089 42.5677 89.178 42.4509C88.9471 42.3341 88.7613 42.1935 88.6207 42.0289C88.4827 41.8617 88.3752 41.7038 88.2982 41.5552H88.2385V44.8115H86.7975ZM88.2107 39.4613C88.2107 40.0531 88.3354 40.5321 88.5849 40.8984C88.8343 41.262 89.1886 41.4437 89.6477 41.4437C90.1228 41.4437 90.4837 41.2566 90.7305 40.8825C90.9773 40.5083 91.1007 40.0345 91.1007 39.4613C91.1007 38.8907 90.9786 38.4223 90.7345 38.0561C90.4903 37.6899 90.1281 37.5068 89.6477 37.5068C89.1833 37.5068 88.8277 37.6846 88.5809 38.0402C88.3341 38.3931 88.2107 38.8669 88.2107 39.4613ZM95.2447 34.3659V42.5186H93.8037V34.3659H95.2447ZM99.4335 42.638C98.8204 42.638 98.291 42.5093 97.8451 42.2518C97.402 41.9944 97.0609 41.6308 96.8221 41.1611C96.5832 40.6914 96.4638 40.1367 96.4638 39.4971C96.4638 38.8682 96.5832 38.3162 96.8221 37.8411C97.0609 37.3634 97.3966 36.9919 97.8292 36.7265C98.2645 36.4585 98.774 36.3245 99.3578 36.3245C99.8594 36.3245 100.323 36.4333 100.747 36.6509C101.172 36.8658 101.511 37.2016 101.766 37.658C102.024 38.1118 102.152 38.697 102.152 39.4135V39.8554H97.8929C97.9009 40.3782 98.0455 40.7856 98.3268 41.0775C98.6108 41.3694 98.9863 41.5154 99.4534 41.5154C99.7639 41.5154 100.032 41.4491 100.257 41.3164C100.486 41.181 100.649 40.9846 100.747 40.7272L102.093 40.8785C101.965 41.4092 101.668 41.8352 101.201 42.1563C100.737 42.4774 100.147 42.638 99.4335 42.638ZM97.8969 38.8841H100.771C100.768 38.4674 100.638 38.1238 100.381 37.8531C100.126 37.5824 99.7917 37.447 99.3777 37.447C98.9478 37.447 98.5988 37.589 98.3308 37.873C98.0628 38.1569 97.9181 38.494 97.8969 38.8841ZM110.985 38.0203L109.671 38.1636C109.615 37.9619 109.496 37.7841 109.313 37.6302C109.132 37.4762 108.876 37.3993 108.544 37.3993C108.245 37.3993 107.992 37.4643 107.788 37.5943C107.586 37.7244 107.487 37.8929 107.49 38.0999C107.487 38.2777 107.552 38.4237 107.685 38.5378C107.82 38.6492 108.043 38.7395 108.353 38.8085L109.396 39.0314C110.54 39.2809 111.113 39.8329 111.116 40.6874C111.116 41.0722 111.005 41.4119 110.782 41.7065C110.559 41.9984 110.251 42.2266 109.858 42.3912C109.465 42.5557 109.014 42.638 108.505 42.638C107.754 42.638 107.151 42.4801 106.697 42.1643C106.244 41.8485 105.972 41.4106 105.881 40.8506L107.287 40.7153C107.411 41.2726 107.816 41.5512 108.501 41.5512C108.843 41.5512 109.118 41.4822 109.325 41.3442C109.534 41.2036 109.639 41.0284 109.639 40.8188C109.639 40.4764 109.365 40.2442 108.815 40.1221L107.772 39.9032C107.186 39.7811 106.752 39.5754 106.471 39.2862C106.189 38.9942 106.05 38.6254 106.053 38.1795C106.053 37.8027 106.156 37.4762 106.363 37.2002C106.57 36.9216 106.859 36.7066 107.231 36.5553C107.602 36.4014 108.034 36.3245 108.525 36.3245C109.241 36.3245 109.805 36.4784 110.216 36.7862C110.63 37.0914 110.887 37.5028 110.985 38.0203ZM115.358 36.4041V37.5187H114.151V40.6794C114.151 40.9687 114.215 41.1598 114.342 41.2527C114.47 41.3429 114.624 41.388 114.804 41.388C114.894 41.388 114.977 41.3814 115.051 41.3681C115.128 41.3548 115.186 41.3429 115.226 41.3323L115.469 42.4588C115.392 42.4854 115.282 42.5146 115.139 42.5464C114.998 42.5783 114.825 42.5968 114.621 42.6022C114.08 42.6181 113.625 42.4854 113.256 42.2041C112.89 41.9228 112.708 41.4942 112.71 40.9183V37.5187H111.843V36.4041H112.71V34.9391H114.151V36.4041H115.358ZM119.204 42.638C118.591 42.638 118.062 42.5093 117.616 42.2518C117.172 41.9944 116.831 41.6308 116.593 41.1611C116.354 40.6914 116.234 40.1367 116.234 39.4971C116.234 38.8682 116.354 38.3162 116.593 37.8411C116.831 37.3634 117.167 36.9919 117.6 36.7265C118.035 36.4585 118.545 36.3245 119.128 36.3245C119.63 36.3245 120.093 36.4333 120.518 36.6509C120.942 36.8658 121.282 37.2016 121.537 37.658C121.794 38.1118 121.923 38.697 121.923 39.4135V39.8554H117.663C117.671 40.3782 117.816 40.7856 118.097 41.0775C118.381 41.3694 118.757 41.5154 119.224 41.5154C119.534 41.5154 119.802 41.4491 120.028 41.3164C120.256 41.181 120.419 40.9846 120.518 40.7272L121.863 40.8785C121.736 41.4092 121.439 41.8352 120.971 42.1563C120.507 42.4774 119.918 42.638 119.204 42.638ZM117.667 38.8841H120.542C120.539 38.4674 120.409 38.1238 120.151 37.8531C119.897 37.5824 119.562 37.447 119.148 37.447C118.718 37.447 118.369 37.589 118.101 37.873C117.833 38.1569 117.689 38.494 117.667 38.8841ZM123.142 44.8115V36.4041H124.559V37.4152H124.643C124.717 37.2666 124.821 37.1087 124.953 36.9415C125.089 36.7716 125.272 36.627 125.503 36.5076C125.736 36.3855 126.032 36.3245 126.39 36.3245C126.863 36.3245 127.289 36.4452 127.668 36.6867C128.05 36.9282 128.353 37.2825 128.576 37.7496C128.801 38.2167 128.914 38.7899 128.914 39.4693C128.914 40.1407 128.804 40.7113 128.584 41.181C128.363 41.6507 128.064 42.009 127.684 42.2558C127.305 42.5026 126.875 42.626 126.394 42.626C126.044 42.626 125.753 42.5677 125.523 42.4509C125.292 42.3341 125.106 42.1935 124.965 42.0289C124.827 41.8617 124.72 41.7038 124.643 41.5552H124.583V44.8115H123.142ZM124.555 39.4613C124.555 40.0531 124.68 40.5321 124.929 40.8984C125.179 41.262 125.533 41.4437 125.992 41.4437C126.467 41.4437 126.828 41.2566 127.075 40.8825C127.322 40.5083 127.445 40.0345 127.445 39.4613C127.445 38.8907 127.323 38.4223 127.079 38.0561C126.835 37.6899 126.473 37.5068 125.992 37.5068C125.528 37.5068 125.172 37.6846 124.925 38.0402C124.679 38.3931 124.555 38.8669 124.555 39.4613ZM134.981 38.0203L133.667 38.1636C133.611 37.9619 133.492 37.7841 133.309 37.6302C133.128 37.4762 132.872 37.3993 132.541 37.3993C132.241 37.3993 131.989 37.4643 131.784 37.5943C131.583 37.7244 131.483 37.8929 131.486 38.0999C131.483 38.2777 131.548 38.4237 131.681 38.5378C131.816 38.6492 132.039 38.7395 132.35 38.8085L133.393 39.0314C134.536 39.2809 135.11 39.8329 135.112 40.6874C135.112 41.0722 135.001 41.4119 134.778 41.7065C134.555 41.9984 134.247 42.2266 133.854 42.3912C133.462 42.5557 133.01 42.638 132.501 42.638C131.75 42.638 131.147 42.4801 130.694 42.1643C130.24 41.8485 129.968 41.4106 129.877 40.8506L131.283 40.7153C131.407 41.2726 131.812 41.5512 132.497 41.5512C132.839 41.5512 133.114 41.4822 133.321 41.3442C133.531 41.2036 133.635 41.0284 133.635 40.8188C133.635 40.4764 133.361 40.2442 132.811 40.1221L131.768 39.9032C131.182 39.7811 130.748 39.5754 130.467 39.2862C130.185 38.9942 130.046 38.6254 130.049 38.1795C130.049 37.8027 130.152 37.4762 130.359 37.2002C130.566 36.9216 130.855 36.7066 131.227 36.5553C131.599 36.4014 132.03 36.3245 132.521 36.3245C133.237 36.3245 133.801 36.4784 134.213 36.7862C134.627 37.0914 134.883 37.5028 134.981 38.0203ZM140.841 42.642C140.257 42.642 139.77 42.4854 139.38 42.1722C138.989 41.8591 138.794 41.4026 138.794 40.8028C138.794 40.3437 138.905 39.9881 139.125 39.736C139.348 39.4812 139.636 39.2968 139.989 39.1827C140.344 39.0659 140.72 38.9863 141.115 38.9438C141.654 38.8854 142.04 38.831 142.274 38.7806C142.51 38.7302 142.628 38.6015 142.628 38.3945V38.3706C142.628 38.0707 142.539 37.8385 142.361 37.6739C142.183 37.5094 141.927 37.4271 141.593 37.4271C141.24 37.4271 140.96 37.5041 140.753 37.658C140.549 37.8119 140.411 37.9937 140.339 38.2034L138.993 38.0123C139.153 37.455 139.463 37.0344 139.925 36.7504C140.389 36.4664 140.943 36.3245 141.585 36.3245C141.877 36.3245 142.169 36.359 142.461 36.428C142.753 36.497 143.019 36.6111 143.261 36.7703C143.505 36.9295 143.7 37.1445 143.846 37.4152C143.995 37.6859 144.069 38.0229 144.069 38.4263V42.5186H142.684V41.6786H142.636C142.506 41.936 142.294 42.1616 141.999 42.3553C141.707 42.5464 141.321 42.642 140.841 42.642ZM141.215 41.5831C141.65 41.5831 141.995 41.4583 142.25 41.2089C142.505 40.9594 142.632 40.6648 142.632 40.3251V39.6046C142.571 39.655 142.458 39.7002 142.294 39.74C142.132 39.7771 141.959 39.809 141.776 39.8355C141.593 39.862 141.438 39.8846 141.31 39.9032C140.989 39.9483 140.721 40.0372 140.506 40.1699C140.291 40.2999 140.184 40.503 140.184 40.779C140.184 41.0443 140.281 41.2447 140.474 41.3801C140.668 41.5154 140.915 41.5831 141.215 41.5831ZM146.959 38.9359V42.5186H145.518V36.4041H146.895V37.4431H146.967C147.108 37.1034 147.332 36.8327 147.64 36.631C147.95 36.4266 148.334 36.3245 148.79 36.3245C149.422 36.3245 149.929 36.5248 150.311 36.9256C150.696 37.3263 150.887 37.8929 150.884 38.6254V42.5186H149.443V38.8483C149.443 38.4396 149.337 38.1198 149.125 37.8889C148.915 37.658 148.624 37.5426 148.253 37.5426C147.873 37.5426 147.563 37.6647 147.321 37.9088C147.08 38.1503 146.959 38.4927 146.959 38.9359ZM154.618 42.626C154.138 42.626 153.708 42.5026 153.328 42.2558C152.949 42.009 152.649 41.6507 152.429 41.181C152.208 40.7113 152.098 40.1407 152.098 39.4693C152.098 38.7899 152.21 38.2167 152.433 37.7496C152.658 37.2825 152.962 36.9282 153.344 36.6867C153.726 36.4452 154.152 36.3245 154.622 36.3245C154.983 36.3245 155.278 36.3855 155.506 36.5076C155.737 36.627 155.92 36.7716 156.055 36.9415C156.193 37.1087 156.298 37.2666 156.37 37.4152H156.429V34.3659H157.874V42.5186H156.457V41.5552H156.37C156.295 41.7038 156.188 41.8617 156.047 42.0289C155.906 42.1935 155.721 42.3341 155.49 42.4509C155.259 42.5677 154.968 42.626 154.618 42.626ZM155.02 41.4437C155.479 41.4437 155.833 41.262 156.083 40.8984C156.332 40.5321 156.457 40.0531 156.457 39.4613C156.457 38.8669 156.334 38.3931 156.087 38.0402C155.84 37.6846 155.485 37.5068 155.02 37.5068C154.54 37.5068 154.177 37.6899 153.933 38.0561C153.689 38.4223 153.567 38.8907 153.567 39.4613C153.567 40.0345 153.691 40.5083 153.937 40.8825C154.184 41.2566 154.545 41.4437 155.02 41.4437ZM165.244 36.4041V37.5187H164.038V40.6794C164.038 40.9687 164.101 41.1598 164.229 41.2527C164.356 41.3429 164.51 41.388 164.69 41.388C164.781 41.388 164.863 41.3814 164.937 41.3681C165.014 41.3548 165.073 41.3429 165.112 41.3323L165.355 42.4588C165.278 42.4854 165.168 42.5146 165.025 42.5464C164.884 42.5783 164.712 42.5968 164.507 42.6022C163.966 42.6181 163.511 42.4854 163.142 42.2041C162.776 41.9228 162.594 41.4942 162.597 40.9183V37.5187H161.729V36.4041H162.597V34.9391H164.038V36.4041H165.244ZM168.021 38.9359V42.5186H166.58V34.3659H167.989V37.4431H168.061C168.202 37.0954 168.422 36.8221 168.722 36.623C169.024 36.424 169.411 36.3245 169.88 36.3245C170.515 36.3245 171.024 36.5235 171.409 36.9216C171.794 37.3197 171.986 37.8876 171.986 38.6254V42.5186H170.545V38.8483C170.545 38.4369 170.439 38.1171 170.227 37.8889C170.017 37.658 169.722 37.5426 169.343 37.5426C168.958 37.5426 168.641 37.6647 168.392 37.9088C168.145 38.1503 168.021 38.4927 168.021 38.9359ZM173.455 42.5186V36.4041H174.896V42.5186H173.455ZM174.18 35.5363C173.949 35.5363 173.751 35.4606 173.586 35.3094C173.425 35.1554 173.344 34.971 173.344 34.756C173.344 34.5384 173.425 34.354 173.586 34.2027C173.751 34.0488 173.949 33.9718 174.18 33.9718C174.408 33.9718 174.603 34.0488 174.765 34.2027C174.929 34.354 175.012 34.5384 175.012 34.756C175.012 34.971 174.929 35.1554 174.765 35.3094C174.603 35.4606 174.408 35.5363 174.18 35.5363ZM181.211 38.0203L179.897 38.1636C179.841 37.9619 179.722 37.7841 179.539 37.6302C179.358 37.4762 179.102 37.3993 178.77 37.3993C178.471 37.3993 178.218 37.4643 178.014 37.5943C177.812 37.7244 177.713 37.8929 177.716 38.0999C177.713 38.2777 177.778 38.4237 177.911 38.5378C178.046 38.6492 178.269 38.7395 178.579 38.8085L179.622 39.0314C180.766 39.2809 181.339 39.8329 181.342 40.6874C181.342 41.0722 181.231 41.4119 181.008 41.7065C180.785 41.9984 180.477 42.2266 180.084 42.3912C179.691 42.5557 179.24 42.638 178.731 42.638C177.98 42.638 177.377 42.4801 176.923 42.1643C176.47 41.8485 176.198 41.4106 176.107 40.8506L177.512 40.7153C177.637 41.2726 178.042 41.5512 178.727 41.5512C179.069 41.5512 179.344 41.4822 179.551 41.3442C179.76 41.2036 179.865 41.0284 179.865 40.8188C179.865 40.4764 179.59 40.2442 179.041 40.1221L177.998 39.9032C177.412 39.7811 176.978 39.5754 176.696 39.2862C176.415 38.9942 176.276 38.6254 176.278 38.1795C176.278 37.8027 176.382 37.4762 176.589 37.2002C176.796 36.9216 177.085 36.7066 177.457 36.5553C177.828 36.4014 178.26 36.3245 178.751 36.3245C179.467 36.3245 180.031 36.4784 180.442 36.7862C180.856 37.0914 181.112 37.5028 181.211 38.0203ZM186.573 42.5186L184.845 36.4041H186.314L187.389 40.7033H187.445L188.543 36.4041H189.996L191.095 40.6794H191.155L192.214 36.4041H193.686L191.955 42.5186H190.454L189.308 38.3865H189.224L188.077 42.5186H186.573ZM194.693 42.5186V36.4041H196.134V42.5186H194.693ZM195.417 35.5363C195.186 35.5363 194.988 35.4606 194.824 35.3094C194.662 35.1554 194.581 34.971 194.581 34.756C194.581 34.5384 194.662 34.354 194.824 34.2027C194.988 34.0488 195.186 33.9718 195.417 33.9718C195.645 33.9718 195.84 34.0488 196.002 34.2027C196.167 34.354 196.249 34.5384 196.249 34.756C196.249 34.971 196.167 35.1554 196.002 35.3094C195.84 35.4606 195.645 35.5363 195.417 35.5363ZM199.056 34.3659V42.5186H197.615V34.3659H199.056ZM201.979 34.3659V42.5186H200.538V34.3659H201.979ZM209.295 36.4041V37.5187H208.089V40.6794C208.089 40.9687 208.153 41.1598 208.28 41.2527C208.407 41.3429 208.561 41.388 208.742 41.388C208.832 41.388 208.914 41.3814 208.989 41.3681C209.065 41.3548 209.124 41.3429 209.164 41.3323L209.407 42.4588C209.33 42.4854 209.219 42.5146 209.076 42.5464C208.935 42.5783 208.763 42.5968 208.559 42.6022C208.017 42.6181 207.562 42.4854 207.193 42.2041C206.827 41.9228 206.645 41.4942 206.648 40.9183V37.5187H205.78V36.4041H206.648V34.9391H208.089V36.4041H209.295ZM214.397 39.947V36.4041H215.838V42.5186H214.441V41.4318H214.378C214.24 41.7741 214.013 42.0541 213.697 42.2717C213.384 42.4894 212.997 42.5982 212.538 42.5982C211.939 42.5982 211.449 42.3991 211.069 42.0011C210.69 41.6003 210.5 41.0324 210.5 40.2973V36.4041H211.941V40.0744C211.941 40.4618 212.047 40.7697 212.26 40.9979C212.472 41.2261 212.751 41.3402 213.096 41.3402C213.308 41.3402 213.514 41.2885 213.713 41.185C213.912 41.0815 214.075 40.9276 214.202 40.7232C214.332 40.5162 214.397 40.2575 214.397 39.947ZM217.32 42.5186V36.4041H218.718V37.4232H218.781C218.893 37.0675 219.084 36.7942 219.354 36.6031C219.628 36.412 219.94 36.3165 220.29 36.3165C220.37 36.3165 220.458 36.3205 220.557 36.3284C220.658 36.3337 220.741 36.343 220.807 36.3563V37.6819C220.746 37.6607 220.65 37.6421 220.517 37.6262C220.387 37.6076 220.261 37.5983 220.139 37.5983C219.743 37.5983 219.414 37.723 219.151 37.9725C218.891 38.2193 218.761 38.5364 218.761 38.9239V42.5186H217.32ZM223.206 38.9359V42.5186H221.765V36.4041H223.142V37.4431H223.214C223.354 37.1034 223.579 36.8327 223.887 36.631C224.197 36.4266 224.581 36.3245 225.037 36.3245C225.669 36.3245 226.176 36.5248 226.558 36.9256C226.942 37.3263 227.134 37.8929 227.131 38.6254V42.5186H225.69V38.8483C225.69 38.4396 225.584 38.1198 225.371 37.8889C225.162 37.658 224.871 37.5426 224.5 37.5426C224.12 37.5426 223.81 37.6647 223.568 37.9088C223.327 38.1503 223.206 38.4927 223.206 38.9359ZM234.43 36.4041V37.5187H233.224V40.6794C233.224 40.9687 233.287 41.1598 233.415 41.2527C233.542 41.3429 233.696 41.388 233.876 41.388C233.967 41.388 234.049 41.3814 234.123 41.3681C234.2 41.3548 234.259 41.3429 234.298 41.3323L234.541 42.4588C234.464 42.4854 234.354 42.5146 234.211 42.5464C234.07 42.5783 233.898 42.5968 233.693 42.6022C233.152 42.6181 232.697 42.4854 232.328 42.2041C231.962 41.9228 231.78 41.4942 231.782 40.9183V37.5187H230.915V36.4041H231.782V34.9391H233.224V36.4041H234.43ZM238.236 42.638C237.639 42.638 237.122 42.5066 236.684 42.2439C236.246 41.9811 235.906 41.6136 235.665 41.1412C235.426 40.6662 235.306 40.1142 235.306 39.4852C235.306 38.8536 235.426 38.3016 235.665 37.8292C235.906 37.3542 236.246 36.9853 236.684 36.7225C237.122 36.4572 237.639 36.3245 238.236 36.3245C238.833 36.3245 239.351 36.4572 239.789 36.7225C240.229 36.9853 240.569 37.3542 240.808 37.8292C241.047 38.3016 241.166 38.8536 241.166 39.4852C241.166 40.1142 241.047 40.6662 240.808 41.1412C240.569 41.6136 240.229 41.9811 239.789 42.2439C239.351 42.5066 238.833 42.638 238.236 42.638ZM238.244 41.4836C238.571 41.4836 238.841 41.3946 239.056 41.2168C239.274 41.039 239.436 40.7989 239.542 40.4963C239.651 40.1911 239.705 39.8528 239.705 39.4812C239.705 39.107 239.651 38.7687 239.542 38.4661C239.436 38.1609 239.274 37.9181 239.056 37.7376C238.841 37.5572 238.571 37.4669 238.244 37.4669C237.915 37.4669 237.641 37.5572 237.42 37.7376C237.203 37.9181 237.039 38.1609 236.931 38.4661C236.822 38.7687 236.767 39.107 236.767 39.4812C236.767 39.8528 236.822 40.1911 236.931 40.4963C237.039 40.7989 237.203 41.039 237.42 41.2168C237.641 41.3946 237.915 41.4836 238.244 41.4836ZM248.275 34.3659V42.5186H246.794V36.2528H246.726C246.647 36.3775 246.461 36.5102 246.169 36.6509C245.877 36.7889 245.502 36.8579 245.042 36.8579V35.6637C245.324 35.6637 245.575 35.6146 245.795 35.5164C246.015 35.4155 246.202 35.2934 246.356 35.1501C246.513 35.0042 246.633 34.8595 246.718 34.7162C246.803 34.5729 246.85 34.4561 246.858 34.3659H248.275ZM253.367 42.6738C252.385 42.6738 251.616 42.3036 251.058 41.5632C250.504 40.8227 250.226 39.7851 250.226 38.4502C250.229 37.118 250.508 36.0856 251.062 35.3532C251.62 34.6207 252.388 34.2545 253.367 34.2545C254.347 34.2545 255.115 34.622 255.672 35.3571C256.229 36.0896 256.508 37.1206 256.508 38.4502C256.508 39.7877 256.231 40.8267 255.676 41.5671C255.121 42.3076 254.352 42.6765 253.367 42.6738ZM253.367 41.4278C253.877 41.4278 254.279 41.177 254.573 40.6755C254.871 40.1712 255.019 39.4295 255.019 38.4502C255.017 37.4789 254.867 36.7424 254.569 36.2409C254.275 35.7366 253.874 35.4845 253.367 35.4845C252.863 35.4845 252.462 35.7366 252.165 36.2409C251.87 36.7424 251.722 37.4789 251.719 38.4502C251.717 39.4295 251.864 40.1712 252.161 40.6755C252.458 41.177 252.86 41.4278 253.367 41.4278ZM260.844 42.6738C259.862 42.6738 259.093 42.3036 258.535 41.5632C257.981 40.8227 257.703 39.7851 257.703 38.4502C257.706 37.118 257.985 36.0856 258.539 35.3532C259.097 34.6207 259.865 34.2545 260.844 34.2545C261.823 34.2545 262.592 34.622 263.149 35.3571C263.706 36.0896 263.985 37.1206 263.985 38.4502C263.985 39.7877 263.708 40.8267 263.153 41.5671C262.598 42.3076 261.829 42.6765 260.844 42.6738ZM260.844 41.4278C261.354 41.4278 261.756 41.177 262.05 40.6755C262.348 40.1712 262.496 39.4295 262.496 38.4502C262.494 37.4789 262.344 36.7424 262.046 36.2409C261.752 35.7366 261.351 35.4845 260.844 35.4845C260.34 35.4845 259.939 35.7366 259.642 36.2409C259.347 36.7424 259.199 37.4789 259.196 38.4502C259.193 39.4295 259.341 40.1712 259.638 40.6755C259.935 41.177 260.337 41.4278 260.844 41.4278ZM269.667 40.9899V40.56C269.669 40.2442 269.737 39.9536 269.87 39.6882C270.005 39.4202 270.2 39.2065 270.455 39.0473C270.712 38.8854 271.024 38.8045 271.39 38.8045C271.767 38.8045 272.083 38.8841 272.338 39.0433C272.595 39.2026 272.789 39.4162 272.919 39.6842C273.052 39.9496 273.117 40.2415 273.114 40.56V40.9899C273.117 41.3057 273.052 41.5977 272.919 41.8657C272.786 42.1311 272.591 42.3447 272.334 42.5066C272.076 42.6658 271.762 42.7455 271.39 42.7455C271.019 42.7455 270.704 42.6658 270.447 42.5066C270.192 42.3447 269.998 42.1311 269.866 41.8657C269.736 41.5977 269.669 41.3057 269.667 40.9899ZM265.523 36.3245V35.8945C265.525 35.5761 265.593 35.2842 265.726 35.0188C265.861 34.7507 266.057 34.5371 266.315 34.3779C266.572 34.2186 266.884 34.139 267.25 34.139C267.627 34.139 267.943 34.2186 268.198 34.3779C268.452 34.5371 268.645 34.7507 268.775 35.0188C268.908 35.2842 268.973 35.5761 268.97 35.8945V36.3245C268.973 36.6429 268.908 36.9348 268.775 37.2002C268.642 37.463 268.447 37.6739 268.19 37.8332C267.935 37.9924 267.622 38.072 267.25 38.072C266.876 38.072 266.56 37.9924 266.303 37.8332C266.048 37.6739 265.854 37.4616 265.722 37.1963C265.592 36.9309 265.525 36.6403 265.523 36.3245ZM265.881 42.5186L271.486 34.3659H272.485L266.88 42.5186H265.881ZM270.706 40.56V40.9899C270.708 41.1996 270.759 41.392 270.857 41.5671C270.958 41.7423 271.135 41.8299 271.39 41.8299C271.645 41.8299 271.821 41.7423 271.92 41.5671C272.021 41.392 272.07 41.1996 272.067 40.9899V40.56C272.07 40.3477 272.023 40.154 271.928 39.9788C271.832 39.801 271.653 39.7121 271.39 39.7121C271.141 39.7121 270.964 39.801 270.861 39.9788C270.76 40.154 270.708 40.3477 270.706 40.56ZM266.57 35.8945V36.3245C266.572 36.5341 266.623 36.7265 266.721 36.9017C266.819 37.0768 266.995 37.1644 267.25 37.1644C267.505 37.1644 267.681 37.0768 267.78 36.9017C267.878 36.7265 267.926 36.5341 267.923 36.3245V35.8945C267.926 35.6822 267.879 35.4885 267.784 35.3133C267.691 35.1355 267.513 35.0466 267.25 35.0466C266.998 35.0466 266.822 35.1355 266.721 35.3133C266.623 35.4912 266.572 35.6849 266.57 35.8945Z" fill="white"/>
<path d="M39.3047 10.1604L48.6956 0.769531L58.0853 10.1604L39.3047 10.1604Z" fill="#00253E"/>
</svg>
