<?xml version="1.0" standalone="no"?>
<!DOCTYPE svg PUBLIC "-//W3C//DTD SVG 20010904//EN"
 "http://www.w3.org/TR/2001/REC-SVG-20010904/DTD/svg10.dtd">
<svg version="1.0" xmlns="http://www.w3.org/2000/svg"
 width="1664.000000pt" height="1664.000000pt" viewBox="0 0 1664.000000 1664.000000"
 preserveAspectRatio="xMidYMid meet">
<metadata>
Created by potrace 1.11, written by Peter Selinger 2001-2013
</metadata>
<g transform="translate(0.000000,1664.000000) scale(0.100000,-0.100000)"
fill="#000000" stroke="none">
<path d="M7965 16624 c-651 -39 -1089 -101 -1615 -230 -1490 -364 -2818 -1112
-3905 -2199 -1087 -1087 -1835 -2415 -2199 -3905 -111 -454 -172 -841 -218
-1395 -16 -198 -16 -952 0 -1150 68 -815 193 -1428 433 -2132 542 -1586 1588
-3004 2949 -3999 1190 -870 2600 -1414 4035 -1558 347 -35 462 -40 875 -40
413 0 528 5 875 40 602 60 1227 198 1832 405 1586 542 3004 1588 3999 2949
651 890 1107 1870 1368 2940 111 454 172 841 218 1395 16 198 16 952 0 1150
-68 815 -193 1428 -433 2132 -542 1586 -1588 3004 -2949 3999 -1082 791 -2328
1307 -3640 1508 -412 63 -719 86 -1185 90 -209 2 -407 2 -440 0z m6465 -5224
l0 -840 -344 0 -344 0 -7 68 c-21 233 -54 390 -108 522 -92 223 -221 355 -407
416 -49 16 -108 18 -568 22 l-512 3 3 -3103 c2 -2987 3 -3106 21 -3173 42
-156 79 -211 180 -260 136 -68 210 -77 659 -82 l397 -5 0 -284 0 -284 -2087 2
-2088 3 0 280 0 280 390 6 c394 6 456 12 582 50 165 50 219 114 266 314 l21
90 3 3083 3 3083 -517 -3 c-502 -4 -520 -4 -584 -26 -257 -86 -424 -354 -484
-775 -8 -56 -15 -130 -15 -164 l0 -63 -350 0 -350 0 0 840 0 840 3120 0 3120
0 0 -840z m-8700 807 c849 -100 1385 -338 1702 -754 205 -267 311 -584 340
-1010 32 -467 -58 -876 -255 -1170 -179 -265 -544 -534 -928 -684 -92 -36
-109 -46 -107 -62 3 -16 28 -26 156 -58 262 -66 502 -175 714 -325 130 -92
341 -309 426 -437 158 -237 245 -484 294 -832 20 -141 17 -611 -5 -755 -39
-255 -89 -417 -192 -625 -141 -285 -342 -506 -617 -677 -308 -191 -716 -321
-1193 -377 -267 -32 -357 -34 -2092 -38 l-1763 -4 0 230 0 231 105 0 c227 0
420 38 580 114 155 73 228 169 278 364 l22 87 0 2905 0 2905 -22 82 c-58 218
-154 316 -383 393 -115 39 -249 60 -417 67 l-163 6 0 224 0 224 1688 -4 c1516
-3 1702 -5 1832 -20z"/>
<path d="M4260 10234 l0 -1456 578 5 c531 4 588 6 717 26 401 62 663 186 823
387 149 188 238 445 272 787 18 177 8 570 -18 717 -92 511 -308 761 -767 894
-271 77 -490 96 -1127 96 l-478 0 0 -1456z"/>
<path d="M4260 6590 l0 -1640 638 0 c350 0 689 5 752 10 739 64 1108 334 1253
915 110 438 97 1070 -29 1485 -82 269 -235 498 -412 619 -188 127 -448 209
-771 241 -59 6 -386 10 -767 10 l-664 0 0 -1640z"/>
</g>
</svg>
