<svg width="643" height="72" viewBox="0 0 643 72" fill="none" xmlns="http://www.w3.org/2000/svg">
<path d="M2.50017 71.7861V63.6335H3.73023V70.7272H7.42439V71.7861H2.50017ZM11.0423 71.7861H9.73663L12.6705 63.6335H14.0916L17.0254 71.7861H15.7197L14.9753 69.6286H11.7907L11.0423 71.7861ZM12.149 68.5935H14.6171L13.4149 65.1143H13.3512L12.149 68.5935ZM24.5704 63.6335H25.8005V69.0275C25.8005 69.6405 25.6558 70.1633 25.3666 70.5959C25.0773 71.0258 24.6872 71.3549 24.1962 71.5831C23.7079 71.8087 23.1625 71.9215 22.5601 71.9215C21.9603 71.9215 21.415 71.8087 20.924 71.5831C20.4357 71.3549 20.0469 71.0258 19.7576 70.5959C19.4684 70.1633 19.3237 69.6405 19.3237 69.0275V63.6335H20.5538V69.0075C20.5538 69.387 20.6454 69.7108 20.8285 69.9789C21.0116 70.2442 21.2544 70.4459 21.557 70.5839C21.8622 70.7219 22.1965 70.7909 22.5601 70.7909C22.9263 70.7909 23.2621 70.7219 23.5673 70.5839C23.8724 70.4459 24.1153 70.2442 24.2957 69.9789C24.4788 69.7108 24.5704 69.387 24.5704 69.0075V63.6335ZM35.2901 63.6335V71.7861H34.1595L30.0155 65.807H29.9399V71.7861H28.7098V63.6335H29.8483L33.9963 69.6206H34.0719V63.6335H35.2901ZM44.9767 66.2847H43.7347C43.6338 65.7566 43.3857 65.3519 42.9903 65.0706C42.5975 64.7866 42.141 64.6446 41.6209 64.6446C41.1538 64.6446 40.7345 64.7627 40.363 64.9989C39.9914 65.2351 39.6982 65.5814 39.4832 66.0379C39.2709 66.4917 39.1647 67.049 39.1647 67.7098C39.1647 68.3733 39.2722 68.9332 39.4872 69.3897C39.7021 69.8462 39.9941 70.1912 40.363 70.4247C40.7345 70.6582 41.1525 70.775 41.6169 70.775C42.1318 70.775 42.5869 70.6357 42.9823 70.357C43.3777 70.0784 43.6285 69.679 43.7347 69.1588L44.9767 69.1628C44.8891 69.6989 44.6927 70.1726 44.3875 70.5839C44.0823 70.9953 43.6922 71.3177 43.2172 71.5513C42.7421 71.7822 42.2061 71.8976 41.6089 71.8976C40.903 71.8976 40.2741 71.7304 39.7221 71.396C39.1701 71.059 38.7348 70.5773 38.4164 69.951C38.1005 69.3247 37.9426 68.5776 37.9426 67.7098C37.9426 66.8394 38.1019 66.0923 38.4203 65.4686C38.7388 64.8423 39.174 64.362 39.726 64.0276C40.278 63.6906 40.9057 63.522 41.6089 63.522C42.1848 63.522 42.709 63.6308 43.1814 63.8485C43.6564 64.0661 44.0505 64.3819 44.3636 64.7959C44.6795 65.2072 44.8838 65.7035 44.9767 66.2847ZM47.5696 71.7861V63.6335H48.7996V67.1764H52.864V63.6335H54.098V71.7861H52.864V68.2313H48.7996V71.7861H47.5696Z" fill="#00253E"/>
<path d="M60.225 2.75089C63.6552 2.75089 64.8659 5.374 64.8659 8.14844C64.8659 11.6627 63.1172 13.4451 60.7631 13.4451H60.3091C59.2666 13.4451 58.8126 13.2433 58.8126 12.2513V2.75089H60.225ZM60.7631 14C63.9579 14 66.6146 11.7468 66.6146 7.7617C66.6146 4.83593 64.765 2.196 60.5277 2.196H55.7523V2.65C56.9966 2.80133 57.232 2.88541 57.232 3.84385V12.3521C57.232 13.3106 56.9966 13.3947 55.7523 13.546V14H60.7631ZM71.4559 5.08815C69.2867 5.08815 67.6725 7.12274 67.6725 9.88037C67.6725 12.2344 69.0345 14.1681 71.4222 14.1681C73.171 14.1681 74.3312 13.1088 74.7347 11.6459L74.533 11.545C73.9445 12.4699 73.2214 13.0416 72.0107 13.0416C70.262 13.0416 68.9168 11.4946 69.0345 8.77059H74.617V8.41748C74.617 6.53422 73.5241 5.08815 71.4559 5.08815ZM71.3213 5.62622C72.6329 5.62622 73.1542 6.76963 73.1542 8.28296H69.085C69.2531 6.78644 70.0266 5.62622 71.3213 5.62622ZM83.1575 5.08815H82.8885L82.2327 5.2563H78.0458V3.84385C78.0458 2.22963 78.6007 1.27119 79.66 1.27119C80.5176 1.27119 80.8034 1.80926 80.8034 2.44822C80.8034 2.68363 80.7866 2.81815 80.753 2.9863H81.7114C82.0141 2.81815 82.2495 2.56593 82.2495 2.14556C82.2495 1.25437 81.3247 0.834 80.03 0.834C78.0122 0.834 76.5325 2.09511 76.5325 4.56689V5.15541L75.2882 5.65985V5.89526H76.5325V12.7221C76.5325 13.3779 76.2634 13.5124 75.3723 13.5628V14H79.206V13.5628C78.3149 13.5124 78.0458 13.3779 78.0458 12.7221V5.89526H81.6442V12.7221C81.6442 13.3779 81.3752 13.5124 80.484 13.5628V14H84.3177V13.5628C83.4266 13.5124 83.1575 13.3779 83.1575 12.7221V5.08815ZM91.4196 12.7221C91.4196 13.3779 91.1506 13.5124 90.2594 13.5628V14H94.0932V13.5628C93.202 13.5124 92.933 13.3779 92.933 12.7221V7.79533C92.933 5.97933 92.2099 5.08815 90.663 5.08815C89.3682 5.08815 88.393 5.81119 87.6027 6.68556L87.6699 5.08815H87.4682L84.9964 5.92889V6.11385L86.0893 6.70237V12.7221C86.0893 13.3779 85.8203 13.5124 84.9291 13.5628V14H88.7629V13.5628C87.8717 13.5124 87.6027 13.3779 87.6027 12.7221V7.08911C88.2416 6.53422 89.0656 6.06341 89.9231 6.06341C90.9152 6.06341 91.4196 6.58467 91.4196 7.82896V12.7221ZM98.5008 5.08815C96.3317 5.08815 94.7174 7.12274 94.7174 9.88037C94.7174 12.2344 96.0794 14.1681 98.4671 14.1681C100.216 14.1681 101.376 13.1088 101.78 11.6459L101.578 11.545C100.989 12.4699 100.266 13.0416 99.0557 13.0416C97.3069 13.0416 95.9617 11.4946 96.0794 8.77059H101.662V8.41748C101.662 6.53422 100.569 5.08815 98.5008 5.08815ZM98.3663 5.62622C99.6778 5.62622 100.199 6.76963 100.199 8.28296H96.1299C96.298 6.78644 97.0715 5.62622 98.3663 5.62622Z" fill="#00253E"/>
<path d="M537.647 12.1504C537.748 12.4026 537.815 12.6212 537.815 12.823C537.815 13.3442 537.429 13.5124 536.302 13.546V14H540.607V13.546C540.153 13.4787 539.799 13.3779 539.615 12.9239L535.142 2.04467H533.46L533.931 3.15444L530.064 12.9239C529.896 13.3779 529.542 13.4787 529.072 13.546V14H532.384V13.546C531.241 13.5124 530.854 13.3274 530.854 12.8061C530.854 12.6212 530.921 12.3858 531.022 12.1336L531.913 9.86356H536.706L537.647 12.1504ZM534.267 3.86067L536.487 9.32548H532.115L534.267 3.86067ZM542.198 9.19096C542.198 7.19 543.106 5.60941 544.619 5.60941C545.712 5.60941 545.998 6.38289 545.998 7.19C545.998 7.50948 545.964 7.71126 545.931 7.89622H546.889C547.226 7.71126 547.427 7.3077 547.427 6.87052C547.427 5.77756 546.503 5.08815 544.922 5.08815C542.417 5.08815 540.853 7.17319 540.853 9.93081C540.853 12.4699 542.349 14.1681 544.518 14.1681C546.065 14.1681 547.158 13.2601 547.663 11.6796L547.461 11.5787C546.889 12.453 546.116 12.9743 545.006 12.9743C543.274 12.9743 542.198 11.4441 542.198 9.19096ZM549.604 9.19096C549.604 7.19 550.512 5.60941 552.025 5.60941C553.118 5.60941 553.404 6.38289 553.404 7.19C553.404 7.50948 553.37 7.71126 553.337 7.89622H554.295C554.631 7.71126 554.833 7.3077 554.833 6.87052C554.833 5.77756 553.908 5.08815 552.328 5.08815C549.822 5.08815 548.259 7.17319 548.259 9.93081C548.259 12.4699 549.755 14.1681 551.924 14.1681C553.471 14.1681 554.564 13.2601 555.069 11.6796L554.867 11.5787C554.295 12.453 553.522 12.9743 552.412 12.9743C550.68 12.9743 549.604 11.4441 549.604 9.19096ZM559.464 5.08815C557.295 5.08815 555.681 7.12274 555.681 9.88037C555.681 12.2344 557.043 14.1681 559.431 14.1681C561.18 14.1681 562.34 13.1088 562.743 11.6459L562.542 11.545C561.953 12.4699 561.23 13.0416 560.019 13.0416C558.271 13.0416 556.925 11.4946 557.043 8.77059H562.626V8.41748C562.626 6.53422 561.533 5.08815 559.464 5.08815ZM559.33 5.62622C560.641 5.62622 561.163 6.76963 561.163 8.28296H557.094C557.262 6.78644 558.035 5.62622 559.33 5.62622ZM566.021 0.834H565.819L563.414 1.67474V1.8597L564.507 2.44822V12.7221C564.507 13.3779 564.238 13.5124 563.347 13.5628V14H567.181V13.5628C566.29 13.5124 566.021 13.3779 566.021 12.7221V0.834ZM571.632 5.08815C569.463 5.08815 567.849 7.12274 567.849 9.88037C567.849 12.2344 569.211 14.1681 571.599 14.1681C573.347 14.1681 574.507 13.1088 574.911 11.6459L574.709 11.545C574.121 12.4699 573.398 13.0416 572.187 13.0416C570.438 13.0416 569.093 11.4946 569.211 8.77059H574.793V8.41748C574.793 6.53422 573.7 5.08815 571.632 5.08815ZM571.498 5.62622C572.809 5.62622 573.33 6.76963 573.33 8.28296H569.261C569.429 6.78644 570.203 5.62622 571.498 5.62622ZM578.222 7.84578C579.164 6.70237 579.87 6.6183 580.896 6.6183H581.131V5.35719C581.013 5.20585 580.795 5.08815 580.492 5.08815C579.55 5.08815 579.147 5.76074 578.222 7.47585L578.289 5.08815H578.088L575.616 5.92889V6.11385L576.709 6.70237V12.7221C576.709 13.3779 576.44 13.5124 575.549 13.5628V14H579.719V13.5628C578.609 13.5124 578.222 13.3779 578.222 12.7221V7.84578ZM584.652 13.1761C583.694 13.1761 583.189 12.5539 583.189 11.6459C583.189 10.7547 583.677 10.2839 584.518 9.94763L586.535 9.1237V12.2849C585.846 12.8566 585.341 13.1761 584.652 13.1761ZM588.065 7.67763C588.065 5.91207 587.124 5.08815 585.207 5.08815C583.509 5.08815 582.197 5.828 582.197 7.08911C582.197 7.55993 582.433 7.87941 582.853 8.01393L583.744 7.87941C583.66 7.54311 583.626 7.29089 583.626 7.00504C583.626 6.14748 584.03 5.50852 584.988 5.50852C586.098 5.50852 586.535 6.34926 586.535 7.50948V8.65289L584.114 9.56089C582.786 10.0653 581.726 10.6539 581.726 12.0663C581.726 13.3106 582.55 14.1681 583.862 14.1681C585.039 14.1681 585.98 13.3274 586.569 12.638C586.653 13.5796 587.141 14.1681 587.965 14.1681C588.604 14.1681 589.175 13.8823 589.579 13.277L589.495 13.0247C589.243 13.1424 588.99 13.2433 588.721 13.2433C588.234 13.2433 588.065 12.8734 588.065 12.1336V7.67763ZM592.121 3.17126H591.785C591.23 4.23059 590.456 5.13859 589.498 5.65985V5.89526H590.641V11.7132C590.641 13.5124 591.566 14.1681 592.777 14.1681C593.819 14.1681 594.559 13.5628 594.996 12.9239L594.845 12.7221C594.391 13.0584 594.038 13.2097 593.517 13.2097C592.575 13.2097 592.121 12.7053 592.121 11.461V5.89526H594.526V5.2563H592.121V3.17126ZM599.12 5.08815C596.951 5.08815 595.337 7.12274 595.337 9.88037C595.337 12.2344 596.699 14.1681 599.087 14.1681C600.836 14.1681 601.996 13.1088 602.399 11.6459L602.198 11.545C601.609 12.4699 600.886 13.0416 599.675 13.0416C597.927 13.0416 596.581 11.4946 596.699 8.77059H602.282V8.41748C602.282 6.53422 601.189 5.08815 599.12 5.08815ZM598.986 5.62622C600.297 5.62622 600.819 6.76963 600.819 8.28296H596.75C596.918 6.78644 597.691 5.62622 598.986 5.62622Z" fill="#00253E"/>
<path d="M312.795 12.1504C312.896 12.4026 312.963 12.6212 312.963 12.823C312.963 13.3442 312.577 13.5124 311.45 13.546V14H315.755V13.546C315.301 13.4787 314.948 13.3779 314.763 12.9239L310.29 2.04467H308.608L309.079 3.15444L305.212 12.9239C305.044 13.3779 304.691 13.4787 304.22 13.546V14H307.532V13.546C306.389 13.5124 306.002 13.3274 306.002 12.8061C306.002 12.6212 306.069 12.3858 306.17 12.1336L307.061 9.86356H311.854L312.795 12.1504ZM309.416 3.86067L311.635 9.32548H307.263L309.416 3.86067ZM318.837 0.834H318.635L316.23 1.67474V1.8597L317.323 2.44822V12.7221C317.323 13.3779 317.054 13.5124 316.163 13.5628V14H319.997V13.5628C319.106 13.5124 318.837 13.3779 318.837 12.7221V0.834ZM323.271 5.08815H323.069L320.665 5.92889V6.11385L321.758 6.70237V12.7221C321.758 13.3779 321.489 13.5124 320.598 13.5628V14H324.431V13.5628C323.54 13.5124 323.271 13.3779 323.271 12.7221V5.08815ZM322.43 3.77659C323.036 3.77659 323.507 3.28896 323.507 2.70044C323.507 2.11193 323.036 1.6243 322.43 1.6243C321.842 1.6243 321.371 2.11193 321.371 2.70044C321.371 3.28896 321.842 3.77659 322.43 3.77659ZM328.579 10.7884C330.513 10.7884 331.791 9.67859 331.791 7.96348C331.791 7.12274 331.269 6.34926 330.715 5.99615L332.043 6.06341H332.665V5.27311L329.975 5.34037C329.571 5.20585 329.151 5.08815 328.579 5.08815C326.729 5.08815 325.317 6.19793 325.317 8.04756C325.317 9.19096 325.906 9.98126 326.78 10.4184C326.107 10.9061 325.334 11.5114 325.334 12.369C325.334 13.0416 325.67 13.5124 326.292 13.7478C325.418 14.1177 324.695 14.6894 324.695 15.5806C324.695 16.9426 326.074 17.7329 328.31 17.7329C330.832 17.7329 332.985 16.5559 332.985 14.5044C332.985 13.0584 331.925 12.4026 330.328 12.4026H327.083C326.629 12.4026 326.393 12.184 326.393 11.7468C326.393 11.3769 326.662 10.9397 327.066 10.5361C327.52 10.7043 328.041 10.7884 328.579 10.7884ZM330.126 13.815C331.169 13.815 331.824 14.1345 331.824 15.093C331.824 16.5222 330.277 17.2284 328.478 17.2284C326.898 17.2284 325.99 16.4381 325.99 15.177C325.99 14.6221 326.141 14.1681 326.477 13.815H330.126ZM328.663 10.368C327.452 10.368 326.864 9.19096 326.864 7.77852C326.864 6.55104 327.402 5.52533 328.512 5.52533C329.706 5.52533 330.294 6.70237 330.294 8.11481C330.294 9.3423 329.756 10.368 328.663 10.368ZM339.831 12.7221C339.831 13.3779 339.562 13.5124 338.67 13.5628V14H342.504V13.5628C341.613 13.5124 341.344 13.3779 341.344 12.7221V7.79533C341.344 5.97933 340.621 5.08815 339.074 5.08815C337.779 5.08815 336.804 5.81119 336.014 6.68556L336.081 5.08815H335.879L333.407 5.92889V6.11385L334.5 6.70237V12.7221C334.5 13.3779 334.231 13.5124 333.34 13.5628V14H337.174V13.5628C336.283 13.5124 336.014 13.3779 336.014 12.7221V7.08911C336.653 6.53422 337.476 6.06341 338.334 6.06341C339.326 6.06341 339.831 6.58467 339.831 7.82896V12.7221Z" fill="#00253E"/>
<path d="M102.283 71.7861V63.6335H107.339V64.6924H103.513V67.1764H106.976V68.2313H103.513V71.7861H102.283ZM109.643 71.7861H108.337L111.271 63.6335H112.692L115.626 71.7861H114.32L113.576 69.6286H110.391L109.643 71.7861ZM110.75 68.5935H113.218L112.015 65.1143H111.952L110.75 68.5935ZM124.312 66.2847H123.07C122.97 65.7566 122.721 65.3519 122.326 65.0706C121.933 64.7866 121.477 64.6446 120.957 64.6446C120.49 64.6446 120.07 64.7627 119.699 64.9989C119.327 65.2351 119.034 65.5814 118.819 66.0379C118.607 66.4917 118.501 67.049 118.501 67.7098C118.501 68.3733 118.608 68.9332 118.823 69.3897C119.038 69.8462 119.33 70.1912 119.699 70.4247C120.07 70.6582 120.488 70.775 120.953 70.775C121.468 70.775 121.923 70.6357 122.318 70.357C122.714 70.0784 122.964 69.679 123.07 69.1588L124.312 69.1628C124.225 69.6989 124.029 70.1726 123.723 70.5839C123.418 70.9953 123.028 71.3177 122.553 71.5513C122.078 71.7822 121.542 71.8976 120.945 71.8976C120.239 71.8976 119.61 71.7304 119.058 71.396C118.506 71.059 118.071 70.5773 117.752 69.951C117.436 69.3247 117.278 68.5776 117.278 67.7098C117.278 66.8394 117.438 66.0923 117.756 65.4686C118.075 64.8423 118.51 64.362 119.062 64.0276C119.614 63.6906 120.241 63.522 120.945 63.522C121.521 63.522 122.045 63.6308 122.517 63.8485C122.992 64.0661 123.386 64.3819 123.699 64.7959C124.015 65.2072 124.22 65.7035 124.312 66.2847ZM126.503 64.6924V63.6335H132.813V64.6924H130.269V71.7861H129.043V64.6924H126.503ZM142.071 67.7098C142.071 68.5776 141.911 69.3247 141.593 69.951C141.274 70.5773 140.838 71.059 140.283 71.396C139.731 71.7304 139.104 71.8976 138.4 71.8976C137.694 71.8976 137.064 71.7304 136.509 71.396C135.957 71.059 135.522 70.5773 135.204 69.951C134.885 69.3247 134.726 68.5776 134.726 67.7098C134.726 66.8394 134.885 66.0923 135.204 65.4686C135.522 64.8423 135.957 64.362 136.509 64.0276C137.064 63.6906 137.694 63.522 138.4 63.522C139.104 63.522 139.731 63.6906 140.283 64.0276C140.838 64.362 141.274 64.8423 141.593 65.4686C141.911 66.0923 142.071 66.8394 142.071 67.7098ZM140.852 67.7098C140.852 67.0464 140.745 66.4877 140.53 66.0339C140.318 65.5774 140.026 65.2324 139.654 64.9989C139.285 64.7627 138.867 64.6446 138.4 64.6446C137.933 64.6446 137.514 64.7627 137.142 64.9989C136.773 65.2324 136.482 65.5774 136.267 66.0339C136.054 66.4877 135.948 67.0464 135.948 67.7098C135.948 68.3706 136.054 68.9293 136.267 69.3857C136.482 69.8422 136.773 70.1885 137.142 70.4247C137.514 70.6582 137.933 70.775 138.4 70.775C138.867 70.775 139.285 70.6582 139.654 70.4247C140.026 70.1885 140.318 69.8422 140.53 69.3857C140.745 68.9293 140.852 68.3706 140.852 67.7098ZM144.725 71.7861V63.6335H147.631C148.263 63.6335 148.787 63.7423 149.203 63.9599C149.62 64.1775 149.932 64.4787 150.139 64.8636C150.349 65.2457 150.453 65.6876 150.453 66.1892C150.453 66.7358 150.329 67.2096 150.079 67.6103C149.832 68.0084 149.458 68.3003 148.957 68.4861L150.764 71.7861H149.363L147.707 68.701C147.68 68.701 147.654 68.701 147.627 68.701H145.955V71.7861H144.725ZM145.955 67.6421H147.516C148.115 67.6421 148.548 67.5148 148.813 67.26C149.081 67.0052 149.215 66.6483 149.215 66.1892C149.215 65.7274 149.081 65.3625 148.813 65.0944C148.545 64.8237 148.107 64.6884 147.5 64.6884H145.955V67.6421Z" fill="#00253E"/>
<path d="M274.086 71.7861H271.446V63.6335H274.169C274.971 63.6335 275.657 63.7967 276.227 64.1231C276.801 64.4469 277.24 64.9127 277.545 65.5204C277.853 66.1255 278.007 66.8513 278.007 67.6979C278.007 68.5471 277.853 69.2769 277.545 69.8873C277.237 70.4977 276.79 70.9674 276.203 71.2965C275.62 71.6229 274.914 71.7861 274.086 71.7861ZM272.677 70.7113H274.018C274.947 70.7113 275.642 70.4512 276.104 69.9311C276.566 69.4083 276.797 68.6639 276.797 67.6979C276.797 66.7372 276.568 65.9994 276.112 65.4846C275.658 64.9671 274.985 64.7083 274.094 64.7083H272.677V70.7113ZM280.657 71.7861V63.6335H283.563C284.195 63.6335 284.719 63.7423 285.136 63.9599C285.552 64.1775 285.864 64.4787 286.071 64.8636C286.281 65.2457 286.386 65.6876 286.386 66.1892C286.386 66.7358 286.261 67.2096 286.012 67.6103C285.765 68.0084 285.391 68.3003 284.889 68.4861L286.696 71.7861H285.295L283.639 68.701C283.612 68.701 283.586 68.701 283.559 68.701H281.887V71.7861H280.657ZM281.887 67.6421H283.448C284.048 67.6421 284.48 67.5148 284.746 67.26C285.014 67.0052 285.148 66.6483 285.148 66.1892C285.148 65.7274 285.014 65.3625 284.746 65.0944C284.478 64.8237 284.04 64.6884 283.432 64.6884H281.887V67.6421ZM290.234 63.6335V71.7861H289.003V63.6335H290.234ZM293.858 63.6335L296.128 70.2734H296.219L298.488 63.6335H299.818L296.884 71.7861H295.463L292.529 63.6335H293.858ZM302.116 71.7861V63.6335H307.227V64.6924H303.346V67.1764H306.961V68.2313H303.346V70.7272H307.275V71.7861H302.116ZM309.991 71.7861V63.6335H312.897C313.529 63.6335 314.053 63.7423 314.47 63.9599C314.886 64.1775 315.198 64.4787 315.405 64.8636C315.615 65.2457 315.72 65.6876 315.72 66.1892C315.72 66.7358 315.595 67.2096 315.346 67.6103C315.099 68.0084 314.725 68.3003 314.223 68.4861L316.03 71.7861H314.629L312.973 68.701C312.946 68.701 312.92 68.701 312.893 68.701H311.221V71.7861H309.991ZM311.221 67.6421H312.782C313.382 67.6421 313.814 67.5148 314.08 67.26C314.348 67.0052 314.482 66.6483 314.482 66.1892C314.482 65.7274 314.348 65.3625 314.08 65.0944C313.812 64.8237 313.374 64.6884 312.766 64.6884H311.221V67.6421Z" fill="#00253E"/>
<path d="M190.056 63.6335V71.7861H188.826V63.6335H190.056ZM199.549 63.6335V71.7861H198.418L194.274 65.807H194.199V71.7861H192.969V63.6335H194.107L198.255 69.6206H198.331V63.6335H199.549ZM203.177 63.6335L205.446 70.2734H205.537L207.806 63.6335H209.136L206.202 71.7861H204.781L201.847 63.6335H203.177ZM212.664 63.6335V71.7861H211.434V63.6335H212.664ZM215.175 64.6924V63.6335H221.484V64.6924H218.941V71.7861H217.714V64.6924H215.175ZM223.999 71.7861V63.6335H229.111V64.6924H225.23V67.1764H228.844V68.2313H225.23V70.7272H229.159V71.7861H223.999Z" fill="#00253E"/>
<path d="M370.969 66.2847H369.727C369.626 65.7566 369.378 65.3519 368.983 65.0706C368.59 64.7866 368.133 64.6446 367.613 64.6446C367.146 64.6446 366.727 64.7627 366.355 64.9989C365.984 65.2351 365.69 65.5814 365.475 66.0379C365.263 66.4917 365.157 67.049 365.157 67.7098C365.157 68.3733 365.264 68.9332 365.479 69.3897C365.694 69.8462 365.986 70.1912 366.355 70.4247C366.727 70.6582 367.145 70.775 367.609 70.775C368.124 70.775 368.579 70.6357 368.975 70.357C369.37 70.0784 369.621 69.679 369.727 69.1588L370.969 69.1628C370.881 69.6989 370.685 70.1726 370.38 70.5839C370.075 70.9953 369.684 71.3177 369.209 71.5513C368.734 71.7822 368.198 71.8976 367.601 71.8976C366.895 71.8976 366.266 71.7304 365.714 71.396C365.162 71.059 364.727 70.5773 364.409 69.951C364.093 69.3247 363.935 68.5776 363.935 67.7098C363.935 66.8394 364.094 66.0923 364.413 65.4686C364.731 64.8423 365.166 64.362 365.718 64.0276C366.27 63.6906 366.898 63.522 367.601 63.522C368.177 63.522 368.701 63.6308 369.174 63.8485C369.649 64.0661 370.043 64.3819 370.356 64.7959C370.672 65.2072 370.876 65.7035 370.969 66.2847ZM374.251 71.7861H372.945L375.879 63.6335H377.3L380.234 71.7861H378.928L378.184 69.6286H374.999L374.251 71.7861ZM375.357 68.5935H377.825L376.623 65.1143H376.559L375.357 68.5935ZM382.532 71.7861V63.6335H383.762V70.7272H387.456V71.7861H382.532ZM391.21 63.6335V71.7861H389.98V63.6335H391.21ZM394.123 71.7861V63.6335H397.108C397.687 63.6335 398.166 63.729 398.545 63.9201C398.928 64.1085 399.212 64.3646 399.397 64.6884C399.586 65.0095 399.68 65.3718 399.68 65.7752C399.68 66.2847 399.545 66.6748 399.274 66.9455C399.003 67.2162 398.681 67.3993 398.307 67.4949V67.5745C398.577 67.5877 398.841 67.6753 399.099 67.8372C399.359 67.9964 399.574 68.2233 399.744 68.5179C399.913 68.8125 399.998 69.1708 399.998 69.5927C399.998 70.0094 399.9 70.3836 399.704 70.7153C399.51 71.0444 399.21 71.3058 398.804 71.4995C398.398 71.6906 397.879 71.7861 397.248 71.7861H394.123ZM395.353 70.7312H397.128C397.72 70.7312 398.142 70.6171 398.394 70.3889C398.649 70.1606 398.776 69.8754 398.776 69.533C398.776 69.1455 398.632 68.8138 398.342 68.5378C398.056 68.2592 397.666 68.1198 397.172 68.1198H395.353V70.7312ZM395.353 67.1605H397.001C397.415 67.1605 397.764 67.0437 398.048 66.8102C398.332 66.5766 398.474 66.2635 398.474 65.8707C398.474 65.531 398.356 65.2484 398.119 65.0228C397.883 64.7946 397.521 64.6804 397.033 64.6804H395.353V67.1605ZM402.578 71.7861V63.6335H405.484C406.116 63.6335 406.64 63.7423 407.057 63.9599C407.473 64.1775 407.785 64.4787 407.992 64.8636C408.202 65.2457 408.307 65.6876 408.307 66.1892C408.307 66.7358 408.182 67.2096 407.932 67.6103C407.686 68.0084 407.311 68.3003 406.81 68.4861L408.617 71.7861H407.216L405.56 68.701C405.533 68.701 405.507 68.701 405.48 68.701H403.808V71.7861H402.578ZM403.808 67.6421H405.369C405.969 67.6421 406.401 67.5148 406.667 67.26C406.935 67.0052 407.069 66.6483 407.069 66.1892C407.069 65.7274 406.935 65.3625 406.667 65.0944C406.399 64.8237 405.961 64.6884 405.353 64.6884H403.808V67.6421ZM411.613 71.7861H410.307L413.241 63.6335H414.662L417.596 71.7861H416.291L415.546 69.6286H412.361L411.613 71.7861ZM412.72 68.5935H415.188L413.986 65.1143H413.922L412.72 68.5935ZM418.518 64.6924V63.6335H424.828V64.6924H422.284V71.7861H421.058V64.6924H418.518ZM428.573 63.6335V71.7861H427.343V63.6335H428.573ZM438.567 67.7098C438.567 68.5776 438.408 69.3247 438.089 69.951C437.771 70.5773 437.334 71.059 436.78 71.396C436.228 71.7304 435.6 71.8976 434.897 71.8976C434.191 71.8976 433.561 71.7304 433.006 71.396C432.454 71.059 432.019 70.5773 431.7 69.951C431.382 69.3247 431.223 68.5776 431.223 67.7098C431.223 66.8394 431.382 66.0923 431.7 65.4686C432.019 64.8423 432.454 64.362 433.006 64.0276C433.561 63.6906 434.191 63.522 434.897 63.522C435.6 63.522 436.228 63.6906 436.78 64.0276C437.334 64.362 437.771 64.8423 438.089 65.4686C438.408 66.0923 438.567 66.8394 438.567 67.7098ZM437.349 67.7098C437.349 67.0464 437.242 66.4877 437.027 66.0339C436.814 65.5774 436.522 65.2324 436.151 64.9989C435.782 64.7627 435.364 64.6446 434.897 64.6446C434.43 64.6446 434.011 64.7627 433.639 64.9989C433.27 65.2324 432.978 65.5774 432.763 66.0339C432.551 66.4877 432.445 67.0464 432.445 67.7098C432.445 68.3706 432.551 68.9293 432.763 69.3857C432.978 69.8422 433.27 70.1885 433.639 70.4247C434.011 70.6582 434.43 70.775 434.897 70.775C435.364 70.775 435.782 70.6582 436.151 70.4247C436.522 70.1885 436.814 69.8422 437.027 69.3857C437.242 68.9293 437.349 68.3706 437.349 67.7098ZM447.802 63.6335V71.7861H446.671L442.527 65.807H442.452V71.7861H441.222V63.6335H442.36L446.508 69.6206H446.584V63.6335H447.802Z" fill="#00253E"/>
<path d="M591.793 63.6335H593.285L595.881 69.9709H595.976L598.572 63.6335H600.065V71.7861H598.894V65.8866H598.819L596.414 71.7742H595.443L593.039 65.8826H592.963V71.7861H591.793V63.6335ZM603.871 71.7861H602.565L605.499 63.6335H606.92L609.854 71.7861H608.548L607.804 69.6286H604.619L603.871 71.7861ZM604.977 68.5935H607.445L606.243 65.1143H606.179L604.977 68.5935ZM612.152 71.7861V63.6335H615.058C615.69 63.6335 616.214 63.7423 616.63 63.9599C617.047 64.1775 617.359 64.4787 617.566 64.8636C617.776 65.2457 617.88 65.6876 617.88 66.1892C617.88 66.7358 617.756 67.2096 617.506 67.6103C617.259 68.0084 616.885 68.3003 616.384 68.4861L618.191 71.7861H616.79L615.134 68.701C615.107 68.701 615.081 68.701 615.054 68.701H613.382V71.7861H612.152ZM613.382 67.6421H614.943C615.542 67.6421 615.975 67.5148 616.24 67.26C616.508 67.0052 616.642 66.6483 616.642 66.1892C616.642 65.7274 616.508 65.3625 616.24 65.0944C615.972 64.8237 615.534 64.6884 614.927 64.6884H613.382V67.6421ZM620.498 71.7861V63.6335H621.728V67.5267H621.828L625.247 63.6335H626.796L623.508 67.3038L626.808 71.7861H625.327L622.692 68.1437L621.728 69.2504V71.7861H620.498ZM629.063 71.7861V63.6335H634.175V64.6924H630.293V67.1764H633.908V68.2313H630.293V70.7272H634.222V71.7861H629.063ZM636.536 64.6924V63.6335H642.846V64.6924H640.302V71.7861H639.076V64.6924H636.536Z" fill="#00253E"/>
<path d="M498.399 71.7861V63.6335H503.455V64.6924H499.629V67.1764H503.093V68.2313H499.629V71.7861H498.399ZM505.759 71.7861H504.454L507.387 63.6335H508.809L511.742 71.7861H510.437L509.692 69.6286H506.508L505.759 71.7861ZM506.866 68.5935H509.334L508.132 65.1143H508.068L506.866 68.5935ZM520.429 66.2847H519.187C519.086 65.7566 518.838 65.3519 518.442 65.0706C518.05 64.7866 517.593 64.6446 517.073 64.6446C516.606 64.6446 516.187 64.7627 515.815 64.9989C515.444 65.2351 515.15 65.5814 514.935 66.0379C514.723 66.4917 514.617 67.049 514.617 67.7098C514.617 68.3733 514.724 68.9332 514.939 69.3897C515.154 69.8462 515.446 70.1912 515.815 70.4247C516.187 70.6582 516.605 70.775 517.069 70.775C517.584 70.775 518.039 70.6357 518.434 70.357C518.83 70.0784 519.081 69.679 519.187 69.1588L520.429 69.1628C520.341 69.6989 520.145 70.1726 519.84 70.5839C519.534 70.9953 519.144 71.3177 518.669 71.5513C518.194 71.7822 517.658 71.8976 517.061 71.8976C516.355 71.8976 515.726 71.7304 515.174 71.396C514.622 71.059 514.187 70.5773 513.869 69.951C513.553 69.3247 513.395 68.5776 513.395 67.7098C513.395 66.8394 513.554 66.0923 513.872 65.4686C514.191 64.8423 514.626 64.362 515.178 64.0276C515.73 63.6906 516.358 63.522 517.061 63.522C517.637 63.522 518.161 63.6308 518.633 63.8485C519.109 64.0661 519.503 64.3819 519.816 64.7959C520.132 65.2072 520.336 65.7035 520.429 66.2847ZM522.62 64.6924V63.6335H528.929V64.6924H526.385V71.7861H525.159V64.6924H522.62ZM535.891 65.7752C535.849 65.3983 535.673 65.1064 535.366 64.8994C535.058 64.6897 534.67 64.5849 534.203 64.5849C533.702 64.5849 533.303 64.699 533.009 64.9272C532.714 65.1555 532.567 65.4434 532.567 65.7911C532.567 66.0512 532.645 66.2635 532.802 66.428C532.961 66.5899 533.155 66.7173 533.383 66.8102C533.614 66.903 533.836 66.9774 534.048 67.0331L534.844 67.2401C535.104 67.3038 535.371 67.3914 535.644 67.5028C535.918 67.6116 536.171 67.7549 536.404 67.9327C536.638 68.1079 536.826 68.3268 536.97 68.5896C537.116 68.8523 537.189 69.1668 537.189 69.533C537.189 69.9921 537.069 70.4021 536.83 70.7631C536.594 71.124 536.252 71.408 535.803 71.615C535.355 71.8193 534.811 71.9215 534.171 71.9215C533.258 71.9215 532.531 71.7078 531.99 71.2806C531.451 70.8533 531.162 70.2708 531.122 69.533H532.356C532.393 69.9762 532.586 70.3053 532.933 70.5202C533.281 70.7352 533.691 70.8427 534.163 70.8427C534.686 70.8427 535.117 70.7219 535.457 70.4804C535.799 70.2389 535.971 69.9191 535.971 69.5211C535.971 69.2796 535.902 69.0819 535.764 68.9279C535.628 68.7714 535.444 68.644 535.21 68.5458C534.979 68.4449 534.718 68.356 534.426 68.2791L533.463 68.0163C532.807 67.8385 532.29 67.5771 531.91 67.2321C531.531 66.8871 531.341 66.4307 531.341 65.8627C531.341 65.393 531.468 64.983 531.723 64.6327C531.978 64.2824 532.323 64.0103 532.758 63.8166C533.196 63.6202 533.687 63.522 534.231 63.522C534.783 63.522 535.27 63.6189 535.692 63.8126C536.117 64.0064 536.451 64.2731 536.695 64.6128C536.939 64.9525 537.067 65.3399 537.077 65.7752H535.891Z" fill="#00253E"/>
<path d="M0.670898 46.7732V30.8926H154.807V46.7732" stroke="#00253E" strokeWidth="0.934156"/>
<path d="M482.695 46.7732V30.8926H635.897V46.7732" stroke="#00253E" strokeWidth="0.934156"/>
<path d="M166.017 46.7732V30.8926H471.486V46.7732" stroke="#00253E" strokeWidth="0.934156"/>
</svg>
