<svg width="69" height="30" viewBox="0 0 69 30" fill="none" xmlns="http://www.w3.org/2000/svg">
<g opacity="0.5">
<path d="M37.233 20V9.81818H40.7926C41.5019 9.81818 42.0869 9.94081 42.5476 10.1861C43.0083 10.428 43.3513 10.7545 43.5767 11.1655C43.8021 11.5732 43.9148 12.0256 43.9148 12.5227C43.9148 12.9602 43.8369 13.3215 43.6811 13.6065C43.5286 13.8916 43.3265 14.117 43.0746 14.2827C42.826 14.4484 42.5559 14.571 42.2642 14.6506V14.75C42.5758 14.7699 42.889 14.8793 43.2038 15.0781C43.5187 15.277 43.7822 15.562 43.9943 15.9332C44.2064 16.3045 44.3125 16.7585 44.3125 17.2955C44.3125 17.8059 44.1965 18.2649 43.9645 18.6726C43.7325 19.0803 43.3662 19.4034 42.8658 19.642C42.3653 19.8807 41.714 20 40.9119 20H37.233ZM38.4659 18.9062H40.9119C41.7173 18.9062 42.2891 18.7505 42.6271 18.4389C42.9685 18.1241 43.1392 17.7429 43.1392 17.2955C43.1392 16.9508 43.0514 16.6326 42.8757 16.3409C42.7 16.0459 42.4498 15.8106 42.125 15.6349C41.8002 15.456 41.4157 15.3665 40.9716 15.3665H38.4659V18.9062ZM38.4659 14.2926H40.7528C41.1241 14.2926 41.4588 14.2197 41.7571 14.0739C42.0587 13.928 42.2973 13.7225 42.473 13.4574C42.652 13.1922 42.7415 12.8807 42.7415 12.5227C42.7415 12.0753 42.5857 11.6958 42.2741 11.3842C41.9626 11.0694 41.4688 10.9119 40.7926 10.9119H38.4659V14.2926ZM48.4265 20.179C47.9426 20.179 47.5034 20.0878 47.109 19.9055C46.7146 19.7199 46.4014 19.4531 46.1694 19.1051C45.9374 18.7538 45.8214 18.3295 45.8214 17.8324C45.8214 17.3949 45.9076 17.0402 46.0799 16.7685C46.2522 16.4934 46.4826 16.2779 46.771 16.1222C47.0593 15.9664 47.3775 15.8504 47.7255 15.7741C48.0768 15.6946 48.4298 15.6316 48.7844 15.5852C49.2485 15.5256 49.6246 15.4808 49.913 15.451C50.2047 15.4179 50.4168 15.3632 50.5494 15.2869C50.6853 15.2107 50.7532 15.0781 50.7532 14.8892V14.8494C50.7532 14.3589 50.619 13.9777 50.3505 13.706C50.0853 13.4342 49.6826 13.2983 49.1424 13.2983C48.5823 13.2983 48.1431 13.4209 47.8249 13.6662C47.5067 13.9115 47.283 14.1733 47.1538 14.4517L46.0401 14.054C46.239 13.59 46.5041 13.2287 46.8356 12.9702C47.1703 12.7083 47.5349 12.526 47.9293 12.4233C48.3271 12.3172 48.7182 12.2642 49.1026 12.2642C49.3479 12.2642 49.6296 12.294 49.9478 12.3537C50.2693 12.41 50.5792 12.5277 50.8775 12.7067C51.1791 12.8857 51.4293 13.1558 51.6282 13.517C51.8271 13.8783 51.9265 14.3622 51.9265 14.9688V20H50.7532V18.9659H50.6935C50.614 19.1316 50.4814 19.3089 50.2958 19.4979C50.1102 19.6868 49.8633 19.8475 49.555 19.9801C49.2468 20.1127 48.8706 20.179 48.4265 20.179ZM48.6055 19.125C49.0695 19.125 49.4606 19.0339 49.7788 18.8516C50.1003 18.6693 50.3422 18.4339 50.5046 18.1456C50.6703 17.8572 50.7532 17.554 50.7532 17.2358V16.1619C50.7035 16.2216 50.5941 16.2763 50.4251 16.326C50.2594 16.3724 50.0671 16.4138 49.8484 16.4503C49.6329 16.4834 49.4225 16.5133 49.217 16.5398C49.0148 16.563 48.8507 16.5829 48.7248 16.5994C48.4199 16.6392 48.1348 16.7038 47.8697 16.7933C47.6078 16.8795 47.3957 17.0104 47.2333 17.1861C47.0742 17.3584 46.9947 17.5937 46.9947 17.892C46.9947 18.2997 47.1455 18.608 47.4471 18.8168C47.752 19.0223 48.1381 19.125 48.6055 19.125ZM57.1703 20.1591C56.4544 20.1591 55.8379 19.9901 55.3208 19.652C54.8038 19.3139 54.4061 18.8482 54.1277 18.255C53.8493 17.6617 53.71 16.9839 53.71 16.2216C53.71 15.446 53.8526 14.7616 54.1376 14.1683C54.426 13.5717 54.827 13.1061 55.3407 12.7713C55.8578 12.4332 56.461 12.2642 57.1504 12.2642C57.6873 12.2642 58.1712 12.3636 58.6021 12.5625C59.033 12.7614 59.3859 13.0398 59.661 13.3977C59.9361 13.7557 60.1068 14.1733 60.1731 14.6506H58.9998C58.9103 14.3026 58.7115 13.9943 58.4032 13.7259C58.0983 13.4541 57.6873 13.3182 57.1703 13.3182C56.7129 13.3182 56.3118 13.4375 55.9672 13.6761C55.6258 13.9115 55.359 14.2446 55.1667 14.6754C54.9778 15.103 54.8833 15.6051 54.8833 16.1818C54.8833 16.7718 54.9761 17.2855 55.1618 17.723C55.3507 18.1605 55.6158 18.5002 55.9572 18.7422C56.3019 18.9841 56.7063 19.1051 57.1703 19.1051C57.4752 19.1051 57.752 19.0521 58.0005 18.946C58.2491 18.84 58.4596 18.6875 58.6319 18.4886C58.8043 18.2898 58.9269 18.0511 58.9998 17.7727H60.1731C60.1068 18.2235 59.9428 18.6295 59.6809 18.9908C59.4224 19.3487 59.0794 19.6338 58.6518 19.8459C58.2276 20.0547 57.7337 20.1591 57.1703 20.1591ZM62.9821 17.2159L62.9622 15.7642H63.2008L66.5417 12.3636H67.9934L64.4338 15.9631H64.3343L62.9821 17.2159ZM61.8883 20V9.81818H63.0616V20H61.8883ZM66.7406 20L63.7576 16.2216L64.5929 15.4062L68.2321 20H66.7406Z" fill="white"/>
<path d="M0.292892 15.2929C-0.0976315 15.6834 -0.0976315 16.3166 0.292892 16.7071L6.65685 23.0711C7.04738 23.4616 7.68054 23.4616 8.07107 23.0711C8.46159 22.6805 8.46159 22.0474 8.07107 21.6569L2.41421 16L8.07107 10.3431C8.46159 9.95262 8.46159 9.31946 8.07107 8.92893C7.68054 8.53841 7.04738 8.53841 6.65685 8.92893L0.292892 15.2929ZM24 15L1 15V17L24 17V15Z" fill="white"/>
</g>
</svg>
