<svg width="22" height="22" viewBox="0 0 22 22" fill="none" xmlns="http://www.w3.org/2000/svg">
<path d="M10.7203 21.4406C16.6409 21.4406 21.4406 16.6409 21.4406 10.7203C21.4406 4.79963 16.6409 0 10.7203 0C4.79963 0 0 4.79963 0 10.7203C0 16.6409 4.79963 21.4406 10.7203 21.4406Z" fill="#00253E"/>
<path d="M9.84939 11.2872C9.46291 10.8626 8.96355 10.5933 8.3524 10.4804V10.424C8.82864 10.2638 9.22694 10.0112 9.54569 9.66662C9.86497 9.32207 10.0246 8.834 10.0246 8.20135C10.0246 7.33325 9.73919 6.6936 9.16835 6.28348C8.5975 5.87281 7.72726 5.66748 6.55869 5.66748H2.83691V6.26198H3.01214C3.30886 6.26198 3.5674 6.31842 3.78778 6.43183C4.00817 6.54525 4.11836 6.80971 4.11836 7.22467V14.1608C4.11836 14.6048 4.01032 14.8854 3.79477 15.0031C3.57869 15.1214 3.31799 15.18 3.01268 15.18H2.83745V15.7744H6.96345C9.27424 15.7744 10.4294 14.8639 10.4294 13.0422C10.4294 12.2972 10.2359 11.7119 9.84939 11.2872ZM5.48043 6.37539H6.49151C7.25532 6.37539 7.79499 6.50762 8.10997 6.77154C8.42442 7.036 8.58191 7.51225 8.58191 8.20135C8.58191 8.88077 8.43571 9.37152 8.14384 9.67361C7.85143 9.97569 7.30961 10.1267 6.51892 10.1267H5.48097V6.37539H5.48043ZM8.51419 14.5994C8.1992 14.9107 7.66007 15.0665 6.89572 15.0665H5.48043V10.8341H6.92259C7.71382 10.8341 8.25564 11.011 8.54751 11.3652C8.83992 11.7189 8.98559 12.2639 8.98559 13.0003C8.98613 13.755 8.82864 14.2882 8.51419 14.5994Z" fill="#00B2E3"/>
<path d="M10.5566 5.66602V7.83168H11.4489C11.4489 7.83168 11.4355 6.50347 12.3262 6.50347H13.5211V14.1545C13.5211 14.548 13.4566 14.7952 13.3281 14.8958C13.1249 15.0344 12.7981 15.0463 12.5062 15.0468H11.8897V15.7741H17.2702V15.0468H16.6537C16.3624 15.0463 16.035 15.0344 15.8318 14.8958C15.7034 14.7952 15.6389 14.548 15.6389 14.1545V6.50347H16.8338C17.725 6.50347 17.711 7.83168 17.711 7.83168H18.6033V5.66602H10.5566Z" fill="white"/>
</svg>
