<svg width="31" height="31" viewBox="0 0 31 31" fill="none" xmlns="http://www.w3.org/2000/svg">
<path fill-rule="evenodd" clip-rule="evenodd" d="M15.5 0C6.975 0 0 6.975 0 15.5C0 24.025 6.975 31 15.5 31C24.025 31 31 24.025 31 15.5C31 6.975 24.025 0 15.5 0ZM15.5 27.9C8.68 27.9 3.1 22.32 3.1 15.5C3.1 8.68 8.68 3.1 15.5 3.1C22.32 3.1 27.9 8.68 27.9 15.5C27.9 22.32 22.32 27.9 15.5 27.9Z" fill="#00B2E3"/>
<path fill-rule="evenodd" clip-rule="evenodd" d="M15.5 5C9.725 5 5 9.725 5 15.5C5 21.275 9.725 26 15.5 26C21.275 26 26 21.275 26 15.5C26 9.725 21.275 5 15.5 5ZM13.4 20.7501L8.15 15.5001L9.62 14.0301L13.4 17.8101L21.38 9.8301L22.85 11.3001L13.4 20.7501Z" fill="#00B2E3"/>
</svg>
